<svg xmlns="http://www.w3.org/2000/svg" viewBox="0 0 1072 1072"><defs><style>.cls-1{fill:#f1eeec;}.cls-2{fill:#65d45c;}.cls-3{fill:#044348;}.cls-4{fill:#0d2823;}.cls-5{fill:#fff;}.cls-6{fill:#d6f2ff;}</style></defs><title>ILUSTRACIONES GAIA</title><g id="ILUSTRACIÓN_11" data-name="ILUSTRACIÓN 11"><rect class="cls-1" x="309.29" y="488.28" width="605" height="376.06"/><rect class="cls-1" x="211.75" y="138.64" width="599.35" height="362.39"/><rect class="cls-2" x="782" y="581" width="31.5" height="198.67"/><rect class="cls-3" x="738.05" y="648.68" width="31.5" height="130.99"/><rect class="cls-2" x="695.05" y="581" width="31.5" height="198.67"/><rect class="cls-3" x="654.63" y="581" width="31.5" height="198.67"/><path class="cls-4" d="M864.58,781.17H615.33a1.5,1.5,0,0,1,0-3H864.58a1.5,1.5,0,0,1,0,3Z"/><path class="cls-5" d="M269.87,301.44a132.34,132.34,0,0,0-5.51,37.88,134.13,134.13,0,0,0,1,16l125.68-2Z"/><path class="cls-2" d="M396.68,207a132.37,132.37,0,0,0-126.81,94.44L391,353.33l-125.68,2A132.33,132.33,0,1,0,396.68,207Z"/><path class="cls-3" d="M396.68,207A131.92,131.92,0,0,0,353,214.38l38,139-125.69,1.84A132.32,132.32,0,1,0,396.68,207Z"/><path class="cls-5" d="M339.08,456.82s17.44,6.75,22.2,6.4,52.68.86,91.2-15.43a247.82,247.82,0,0,1,75.4-18.1l12.5,2s25-10.13,45.61-4.12,50,17.16,67.1,31.43c0,0,20.45,10,41.41,5.81s59.3-18.74,59.3-18.74l73.28,152.7S764,610,743,628.38c0,0,17.47,49.81-39,44.46,0,0,8.52,19.11-8.1,30.51s-33,2.69-39-2c0,0,17.45,26-.69,38.19s-38.88-3.24-38.88-3.24L613.5,735s13.71,20.18,2.83,28.6-30.41,16.8-48-.54c0,0-20.34,9.29-35.34,8.85s-21.32-16.46-21.32-16.46-31.18,6.31-38.8-9.08A50.31,50.31,0,0,1,468,717s-7.41,8.29-14.3,8.78-17.84-3.45-17.84-3.45-18.36-11-13.86-38.66c0,0-24,16.45-38.5,14.64s-29-23-17.14-42.8l-69.94-28S352.16,487,339.08,456.82Z"/><path class="cls-5" d="M644.67,600.33s76.05,66.26,59.33,93.34c-19.5,31.58-48.51,5.76-48.51,5.76"/><path class="cls-4" d="M679.76,710.88c-13.5,0-24.75-9.87-25.27-10.33a1.5,1.5,0,0,1,2-2.24c.13.12,13,11.34,26.71,9.32,7.6-1.12,14.17-6.08,19.52-14.75,6.47-10.47-1.58-29.51-23.26-55.06a389.73,389.73,0,0,0-35.78-36.36,1.5,1.5,0,0,1,2-2.26c3.15,2.74,76.82,67.41,59.63,95.26-5.85,9.46-13.13,14.89-21.66,16.14A26.68,26.68,0,0,1,679.76,710.88Z"/><path class="cls-4" d="M641.28,746.48c-15,0-29.12-12-29.74-12.51a1.5,1.5,0,0,1,2-2.27c.15.12,15.25,12.88,29.79,11.7a21.48,21.48,0,0,0,15.07-8.16,19.69,19.69,0,0,0,4.45-16.16c-4-27.2-53.13-59.69-53.62-60a1.5,1.5,0,0,1,1.64-2.51,240.57,240.57,0,0,1,25.76,20.1c17.58,15.81,27.4,29.94,29.19,42a22.64,22.64,0,0,1-5.12,18.53,24.43,24.43,0,0,1-17.13,9.22C642.77,746.45,642,746.48,641.28,746.48Z"/><path class="cls-5" d="M424.5,684.25l132.83,69.42s33.26,35.16,56.42,12.83c27.75-26.75-39.25-67-39.25-67"/><path class="cls-4" d="M595.85,775.42h-.68c-18.76-.44-36.66-18.38-38.75-20.54l-132.61-69.3a1.5,1.5,0,0,1,1.38-2.66L558,752.34a1.4,1.4,0,0,1,.39.3c.19.19,18.54,19.36,36.82,19.78a23.6,23.6,0,0,0,17.47-7c4.81-4.64,6.83-9.81,6.15-15.79-2.62-23-44.71-48.59-45.13-48.84a1.5,1.5,0,1,1,1.54-2.58c1.79,1.08,43.79,26.57,46.57,51.08.78,6.88-1.59,13-7.05,18.29A26.53,26.53,0,0,1,595.85,775.42Z"/><path class="cls-5" d="M424.5,684.25C417.83,673.58,288,624.33,288,624.33"/><path class="cls-4" d="M424.5,685.75a1.48,1.48,0,0,1-1.27-.71c-4.7-7.51-83.76-39.58-135.76-59.3a1.5,1.5,0,0,1,1.06-2.81C301.87,628,419,672.67,425.77,683.46a1.49,1.49,0,0,1-.48,2.06A1.42,1.42,0,0,1,424.5,685.75Z"/><path class="cls-4" d="M375.38,464.78c-27.11,0-39.91-8-40.7-8.52a1.5,1.5,0,0,1,1.64-2.52c.38.25,28.94,17.84,91.26-.18,14.94-4.32,27.62-8.19,38.81-11.6,36.26-11,54.47-16.61,68.65-12.28a1.5,1.5,0,0,1-.88,2.87c-13.3-4.06-31.21,1.4-66.89,12.28-11.2,3.42-23.89,7.29-38.85,11.61C406.81,462.69,389.23,464.78,375.38,464.78Z"/><path class="cls-4" d="M714,675.5a43,43,0,0,1-10.43-1.21,1.5,1.5,0,0,1,.77-2.9c.2.06,19.84,5.1,32.06-7.44,16.27-16.7,9.9-39.88-20-72.94C692.79,565,563.06,479.64,561.76,478.79a1.5,1.5,0,0,1,1.64-2.51c5.36,3.51,131.36,86.37,155.21,112.71,19.65,21.7,43.11,53.3,20,77.06C731.07,673.75,721.33,675.5,714,675.5Z"/><path class="cls-5" d="M281.33,431.67l49.6,14.49a14.22,14.22,0,0,1,10.23,13.55c.22,27.28-12.49,102-64.5,212.5a6.46,6.46,0,0,1-7.84,3.13l-46.82-15Z"/><path class="cls-4" d="M271,677.17a8.52,8.52,0,0,1-2.58-.4l-48.18-15.44.36-1.37,59.72-230.17,51.08,14.93a15.64,15.64,0,0,1,11.31,15c.06,8.21-1,32-12.72,75.43-11.39,42.35-28.86,88.69-51.92,137.72A7.75,7.75,0,0,1,271,677.17Zm-47.14-17.83,45.47,14.57a5,5,0,0,0,6-2.34C299.42,620.3,340.12,518,339.66,459.72a12.64,12.64,0,0,0-9.15-12.12L282.4,433.54Z"/><path class="cls-3" d="M127.33,373.67l-4,307.33L220,712.33s66.83-159.17,74.63-267a19.24,19.24,0,0,0-13-19.64Z"/><path class="cls-4" d="M217.75,712.91a5.34,5.34,0,0,1-1.66-.27l-93.22-30.21a1.5,1.5,0,0,1,.93-2.86L217,709.79a2.43,2.43,0,0,0,3-1.38c11-26.82,66.07-165.54,73.14-263.18a17.76,17.76,0,0,0-12-18.11l-154.27-52a1.51,1.51,0,0,1-.94-1.9,1.49,1.49,0,0,1,1.9-.94l154.27,52a20.76,20.76,0,0,1,14.05,21.17c-7.1,98.09-62.35,237.21-73.36,264.1A5.45,5.45,0,0,1,217.75,712.91Z"/><line class="cls-5" x1="813.5" y1="601.47" x2="827.08" y2="598.75"/><rect class="cls-4" x="813.37" y="598.61" width="13.84" height="3" transform="translate(-101.98 173) rotate(-11.34)"/><polyline class="cls-3" points="952 359.5 777.16 423.32 871.43 654.85 952 621.5"/><path class="cls-4" d="M871.43,656.35a1.66,1.66,0,0,1-.58-.11,1.51,1.51,0,0,1-.81-.82L775.77,423.89a1.53,1.53,0,0,1,0-1.17,1.47,1.47,0,0,1,.86-.8l174.84-63.83a1.5,1.5,0,0,1,1,2.82L779.14,424.2l93.11,228.69,79.18-32.78a1.5,1.5,0,1,1,1.14,2.78L872,656.24A1.6,1.6,0,0,1,871.43,656.35Z"/><path class="cls-6" d="M538.62,514c-3.19,13.63-13.12,22-25.12,19C502.09,530,500,519.3,503.2,505.67s13.52-19.71,23.3-17.42S541.8,500.33,538.62,514Z"/><path class="cls-5" d="M422,683.67s-44.27,34.24-58.33-2c-8.67-22.34,8-32.34,22.66-31s24.05,21.48,24.34,27.33"/><path class="cls-4" d="M386.07,699.81a26.65,26.65,0,0,1-7.18-.93c-7.55-2.1-13.14-7.71-16.62-16.67-4.73-12.19-1.85-19.89,1.41-24.21,4.74-6.29,13.48-9.67,22.79-8.83,15.47,1.41,25.38,22.36,25.7,28.76a1.5,1.5,0,1,1-3,.14c-.25-5.12-9.12-24.65-23-25.91-8.18-.75-16.07,2.26-20.13,7.65s-4.35,12.69-1,21.31c3.11,8,8,13,14.62,14.87,17.4,4.84,41.15-13.33,41.39-13.51a1.5,1.5,0,1,1,1.84,2.37C422,685.54,403.35,699.81,386.07,699.81Z"/><path class="cls-5" d="M469.25,715.5s-15,20-35,5.75c-18.13-12.92-12.48-34.29-8.75-43.75,8.26-21,23.25-35.25,42.86-25.91C486.91,660.43,483.67,672,482,693"/><path class="cls-4" d="M448.72,727.86c-4.63,0-9.81-1.45-15.34-5.39C414.2,708.81,420.5,686.08,424.1,677c5.68-14.39,14-24.36,23.41-28.07,6.77-2.67,14-2.21,21.5,1.36,17.61,8.38,16.58,19.68,15,36.77-.18,2-.37,4-.53,6.11a1.5,1.5,0,1,1-3-.24c.17-2.14.36-4.19.54-6.14,1.55-17,2.4-26.31-13.32-33.79-6.72-3.2-13.14-3.63-19.11-1.28-8.64,3.41-16.35,12.77-21.71,26.38-9.68,24.53,1,36.83,8.22,42,18.54,13.21,32.35-4.66,32.93-5.43a1.5,1.5,0,0,1,2.4,1.8C470.33,716.56,461.65,727.86,448.72,727.86Z"/><path class="cls-5" d="M514.67,754.67S469,769.36,467.67,728c-1.14-35.18,17-62,30.28-65.87,12.4-3.58,37.05,4.84,29.72,33.51s-11,36-11,36"/><path class="cls-4" d="M497.5,758.73c-6.6,0-13.92-1.25-19.88-5.44-7.23-5.09-11.08-13.57-11.45-25.21-.52-16.08,3-32.21,9.9-45.43,6.06-11.6,14.08-19.8,21.46-21.93,7.18-2.07,18.3-.43,25.68,6.72,4.83,4.69,9.79,13.45,5.91,28.6-7.29,28.49-11,36-11.11,36.3a1.5,1.5,0,0,1-2.68-1.34c0-.07,3.71-7.68,10.88-35.71,2.79-10.88,1-19.77-5.09-25.7-6.48-6.29-16.56-7.78-22.75-6-12.94,3.74-30.31,30-29.2,64.38.34,10.64,3.76,18.33,10.16,22.85,13.11,9.23,34.66,2.48,34.88,2.41a1.5,1.5,0,0,1,.92,2.85A63.1,63.1,0,0,1,497.5,758.73Z"/><path class="cls-5" d="M568.34,763.08s-54.67,27.92-58-15.41,29.84-37,36.67-32.34c6.33,4.34,17.33,16.34,6.33,46.67"/><path class="cls-4" d="M535.26,773.45a29,29,0,0,1-14.41-3.33c-7.14-4-11.18-11.51-12-22.34-.91-11.84.46-27.37,12.16-34.13,9.92-5.72,22.58-2.47,26.85.44,7.31,5,17.94,18,6.89,48.42a1.5,1.5,0,0,1-2.82-1c10.36-28.56.83-40.4-5.77-44.92-3.26-2.23-14.69-5.49-23.65-.32-8.19,4.73-11.88,15.56-10.67,31.3.75,9.76,4.28,16.48,10.48,20,16,9,45.05-5.61,45.35-5.76a1.5,1.5,0,0,1,1.36,2.67A99.55,99.55,0,0,1,551.71,771,63.14,63.14,0,0,1,535.26,773.45Z"/><path class="cls-6" d="M510.1,698.31c-10.1,17.61-28.93,6.85-29.57-2.32-.53-7.62,6.59-27.49,17.78-27S520.46,680.25,510.1,698.31Z"/><path class="cls-6" d="M468.51,688.48c-10.62,18.35-29.51,8.9-30.13-3.23-.65-12.55,6-27.83,17.73-27.31S479.4,669.66,468.51,688.48Z"/><path class="cls-6" d="M543.08,737.27c-2.85,7.24-8.05,12.81-14.74,11.54s-10-8.37-9.49-16.14a12.31,12.31,0,0,1,14.53-11.42C540.07,722.52,546,729.88,543.08,737.27Z"/><path class="cls-6" d="M383.62,688.67c3.26-.3,10.27-5.2,8.88-13.55-1.75-10.5-15.62-17.73-21-13.73s-7.32,13.09-2,19.73C374,686.75,380.4,689,383.62,688.67Z"/><path class="cls-5" d="M772.16,438.91s-2.49-22.7,13.67-13.31,66.67,90.07,85.67,191.73c0,0,11,67.17-14.5,23.17"/><path class="cls-4" d="M869.92,657c-3.53,0-8-5-14.22-15.7l2.6-1.5c8.58,14.81,11.55,14.27,11.86,14.16,3.28-1.18,2.58-19.74-.14-36.33a500.64,500.64,0,0,0-43.76-130c-17-34-33.57-56.21-41.18-60.64-3.69-2.14-6.49-2.63-8.31-1.45-3.51,2.28-3.44,10.37-3.12,13.3l-3,.33c-.14-1.27-1.19-12.46,4.46-16.14,2.86-1.85,6.71-1.4,11.46,1.37,9.48,5.51,26.89,31,42.36,61.89a503.9,503.9,0,0,1,44,130.86c1.43,8.67,5.48,37.07-1.8,39.67A3.54,3.54,0,0,1,869.92,657Z"/><path class="cls-5" d="M792.22,431.11,753.8,446.05l57.3,150.2S822.51,625.5,835.75,640c5.25,5.75,13,3.78,21.25.5,17.9-7.09,16.17-9,16.17-9S859.52,516,792.22,431.11Z"/><path class="cls-4" d="M844.38,645.18a12.55,12.55,0,0,1-9.74-4.17c-13.27-14.54-24.46-43-24.93-44.22l-57.84-151.6,40.84-15.88.69.87c19.27,24.32,46.36,67.05,66,132.54,11.21,37.44,14.93,65.74,15.26,68.4a1.91,1.91,0,0,1,0,1c-.21.9-.77,3.29-17.11,9.76C853.27,643.59,848.67,645.18,844.38,645.18ZM755.73,446.91l56.77,148.8c.11.29,11.46,29.15,24.36,43.28,4.38,4.8,11,3.52,19.59.12,12-4.77,14.66-7,15.2-7.62-.67-5.32-15.51-116.65-79.92-198.58Z"/><line class="cls-5" x1="842.71" y1="631.31" x2="753.8" y2="446.05"/><path class="cls-4" d="M842.71,632.81a1.48,1.48,0,0,1-1.35-.85L752.45,446.7a1.5,1.5,0,1,1,2.7-1.3l88.91,185.26a1.51,1.51,0,0,1-.7,2A1.49,1.49,0,0,1,842.71,632.81Z"/><path class="cls-4" d="M518.91,543.66a28.29,28.29,0,0,1-8.93-1.44c-7.19-2.36-12.57-7.4-14.39-13.48-1.46-4.88-1.41-16.69,2-32.07a170,170,0,0,1,21.83-52.8c6.52-10.44,16.5-17.06,29.66-19.69,14.07-2.81,31.68-.89,50.93,5.53a199.91,199.91,0,0,1,50.86,26.07c33.37,23.69,101.56-10.71,102.24-11.06a1.5,1.5,0,0,1,1.37,2.67,224.64,224.64,0,0,1-39.26,14.77c-29.16,7.82-51.4,6.5-66.09-3.94-27.88-19.8-69.45-37.09-99.46-31.1-12.32,2.46-21.64,8.63-27.71,18.34-23.21,37.1-26.17,73.49-23.5,82.42,1.54,5.14,6.2,9.44,12.45,11.5,8.3,2.72,17.34,1,24.82-4.58,10.42-7.84,16-26.9,20.44-42.22,3.43-11.75,6.14-21,10.33-23.83a1.5,1.5,0,0,1,1.67,2.5c-3.28,2.18-6.12,11.89-9.12,22.17-4.59,15.75-10.3,35.34-21.52,43.78A30.9,30.9,0,0,1,518.91,543.66Z"/><path class="cls-4" d="M744.36,629.22l-1.72-2.46c37.08-26,83.87-29.48,84.34-29.51l.2,3C826.72,600.28,780.74,603.73,744.36,629.22Z"/><polygon class="cls-5" points="805.67 600.35 824.75 597.5 752.75 448.25 805.67 600.35"/><path class="cls-4" d="M763.5,406.5h-191A1.5,1.5,0,0,1,571,405V244a1.5,1.5,0,0,1,3,0V403.5H763.5a1.5,1.5,0,0,1,0,3Z"/><path class="cls-2" d="M572.5,406.5a1.65,1.65,0,0,1-.43-.06,1.51,1.51,0,0,1-1-1.87c1.2-4.05,29.55-99.35,43-110.24,10.79-8.74,17.36-2,22.63,3.35,3.22,3.28,6.29,6.37,9.85,6.15,3.36-.21,7.21-3.23,11.76-9.24C664,287.16,669.06,280,674,273.05c16.14-22.63,27.79-39,39.61-39h.06c5,0,9.64,3,14.09,9.1,3.29,4.51,7,6.66,10.91,6.39,11.9-.81,23.39-22,23.51-22.22a1.5,1.5,0,1,1,2.64,1.42c-.5.93-12.41,22.87-25.94,23.8-5.06.36-9.61-2.22-13.54-7.63S717.67,237,713.67,237h0c-10.28,0-22.15,16.7-37.17,37.77-5,6.95-10.09,14.14-15.75,21.62-5.19,6.83-9.63,10.14-14,10.42-4.94.29-8.64-3.43-12.18-7.05-5.33-5.44-9.93-10.14-18.61-3.11-10.18,8.24-31.93,74.74-42,108.76A1.5,1.5,0,0,1,572.5,406.5Z"/><circle class="cls-2" cx="641.38" cy="199.88" r="14.63"/><circle class="cls-3" cx="597.38" cy="199.88" r="14.63"/></g></svg>