<svg xmlns="http://www.w3.org/2000/svg" viewBox="0 0 1080 1080"><defs><style>.cls-1{fill:#044348;}.cls-2{fill:#fff;}.cls-3{fill:#0d2823;}.cls-4{fill:#65d45c;}</style></defs><title>ILUSTRACIONES GAIA</title><g id="ILUSTRACIÓN_6" data-name="ILUSTRACIÓN 6"><rect class="cls-1" x="434.5" y="197.5" width="182" height="56" rx="16.51" ry="16.51"/><rect class="cls-2" x="340.5" y="237.5" width="370" height="652" rx="82.22" ry="82.22"/><path class="cls-3" d="M628.28,891H422.72A83.82,83.82,0,0,1,339,807.28V319.72A83.82,83.82,0,0,1,422.72,236H628.28A83.82,83.82,0,0,1,712,319.72V807.28A83.82,83.82,0,0,1,628.28,891ZM422.72,239A80.81,80.81,0,0,0,342,319.72V807.28A80.81,80.81,0,0,0,422.72,888H628.28A80.81,80.81,0,0,0,709,807.28V319.72A80.81,80.81,0,0,0,628.28,239Z"/><rect class="cls-4" x="370" y="267.5" width="311" height="592" rx="66.99" ry="66.99"/><path class="cls-2" d="M514.2,653.08c-32.5-158.5,123-179.5,123-179.5s37,146.5-120.84,179.84Z"/><path class="cls-4" d="M516.36,654.92l-.22,0-2.17-.33a1.5,1.5,0,0,1-1.24-1.19c-9.85-48-3.51-88.3,18.82-119.77C568.23,481.92,636.31,472.19,637,472.1a1.49,1.49,0,0,1,1.65,1.12c.16.62,15.51,63.49-17.25,116-20.74,33.27-56,55.36-104.73,65.65A1.06,1.06,0,0,1,516.36,654.92Zm-.9-3.16.86.13c47.76-10.14,82.26-31.75,102.52-64.22,29.47-47.22,19.2-103.1,17.2-112.38-9.69,1.64-69,13.46-102.06,60.08C512.32,565.91,506.09,605.07,515.46,651.76Z"/><path class="cls-4" d="M514.2,654.58a1.59,1.59,0,0,1-.43-.06,1.49,1.49,0,0,1-1-1.86c13.52-45.77,40.3-78.91,60.39-98.65,21.76-21.39,40.62-32.13,40.81-32.23a1.5,1.5,0,0,1,1.47,2.61c-.18.1-18.76,10.69-40.25,31.83-19.81,19.49-46.22,52.18-59.54,97.29A1.51,1.51,0,0,1,514.2,654.58Z"/><path class="cls-2" d="M544.5,668c32.5-158.5-123-179.5-123-179.5S384.5,635,542.33,668.33Z"/><path class="cls-4" d="M542.33,669.83a1.63,1.63,0,0,1-.31,0c-48.74-10.29-84-32.38-104.73-65.65-32.75-52.52-17.4-115.39-17.24-116A1.48,1.48,0,0,1,421.7,487c.68.1,68.77,9.83,105.45,61.52C549.48,580,555.81,620.3,546,668.3a1.49,1.49,0,0,1-1.24,1.18l-2.17.34ZM544.5,668h0ZM422.65,490.2c-2,9.29-12.26,65.17,17.2,112.39,20.27,32.47,54.76,54.08,102.53,64.22l.86-.13c9.37-46.71,3.13-85.87-18.54-116.42C491.61,503.63,432.35,491.84,422.65,490.2Z"/><path class="cls-4" d="M544.5,669.5a1.49,1.49,0,0,1-1.44-1.08C517.53,582,444,539.72,443.26,539.31a1.5,1.5,0,0,1,1.48-2.62c.18.11,19.05,10.85,40.81,32.24,20.09,19.74,46.87,52.88,60.39,98.65a1.5,1.5,0,0,1-1,1.86A1.52,1.52,0,0,1,544.5,669.5Z"/></g></svg>