<svg xmlns="http://www.w3.org/2000/svg" viewBox="0 0 1072 1072"><defs><style>.cls-1{fill:#65d45c;}.cls-2{fill:#fff;}.cls-3{fill:#d6f2ff;}.cls-4{fill:#0d2823;}</style></defs><title>ILUSTRACIONES GAIA</title><g id="ILUSTRACIÓN_12" data-name="ILUSTRACIÓN 12"><rect class="cls-1" x="461" y="254.46" width="469" height="306"/><path class="cls-2" d="M664,526.71l-16.86-3.25-.54.16a48.31,48.31,0,0,0,.53-8.66c-.4-18.5-9.1-32-26.6-50s-60.5-29.5-60.5-29.5C525,418,414,507,414,507s-4.5-4.55,7.08-65.71S446.5,351.46,465.5,335,534,263.1,534,263.1s22.49-26.64,11.61-52.56S498,216.12,498,216.12l-49.33,42.67,4.51-13.61s10.82-34.72-6.65-48.76-34.22,16.24-34.22,16.24L347.69,317.57,333,346.12l1.05-16.66s.95-30.5-15.8-36.91-23.94,15.52-23.94,15.52l-7.41,27.7-11.37,51.79-24.16,145s-24.25,148.31-35.7,222.61C204,830.79,145.33,934.46,145.33,934.46H414c-1-5,24.67-93,68-134.3S570,693,570,693s75.43-116.31,94-127.92S678.93,527,664,526.71ZM539.16,604.08s-30.72,42.46-48.06,40.3l-1.77-1.09S474.5,622,474.07,602.48,503.5,555,503.5,555L557,506s31.5-2.5,45,20a30.1,30.1,0,0,0,7.53,8.61h0S582.82,547.21,539.16,604.08Z"/><path class="cls-3" d="M676,547s-23.62-8-38.7,18c-15.25,26.39-3.91,37.41-3.91,37.41S676.9,551.11,676,547Z"/><path class="cls-3" d="M525.62,200.83l-19,8-21.09,16s-3.45,14.49,7.12,21.89c11.07,7.75,38.23-3.33,40.7-19.25C536.72,205.84,525.62,200.83,525.62,200.83Z"/><path class="cls-3" d="M399.52,232.72s4.73,21,26.23,8.49,17.59-44.25,3.55-46.87l-11.37,10.39Z"/><path class="cls-3" d="M284.75,342.48s28.67,13,33.08-21.36c4-31.16-22-21.59-22.32-16.13S284.75,342.48,284.75,342.48Z"/><polygon class="cls-2" points="694.95 285.51 701.16 298.08 715.03 300.1 704.99 309.89 707.36 323.71 694.95 317.18 682.54 323.71 684.91 309.89 674.87 300.1 688.75 298.08 694.95 285.51"/><polygon class="cls-2" points="644.2 298.51 650.41 311.08 664.28 313.1 654.24 322.89 656.61 336.71 644.2 330.18 631.79 336.71 634.16 322.89 624.12 313.1 638 311.08 644.2 298.51"/><polygon class="cls-2" points="606.66 336.71 612.87 349.28 626.74 351.3 616.7 361.08 619.07 374.9 606.66 368.38 594.25 374.9 596.62 361.08 586.58 351.3 600.46 349.28 606.66 336.71"/><polygon class="cls-2" points="592.63 386.43 598.84 399 612.71 401.02 602.67 410.81 605.04 424.63 592.63 418.1 580.22 424.63 582.59 410.81 572.55 401.02 586.42 399 592.63 386.43"/><polygon class="cls-2" points="606.66 439.09 612.87 451.67 626.74 453.68 616.7 463.47 619.07 477.29 606.66 470.77 594.25 477.29 596.62 463.47 586.58 453.68 600.46 451.67 606.66 439.09"/><polygon class="cls-2" points="644.2 477.29 650.41 489.87 664.28 491.88 654.24 501.67 656.61 515.49 644.2 508.96 631.79 515.49 634.16 501.67 624.12 491.88 638 489.87 644.2 477.29"/><polygon class="cls-2" points="694.95 489.63 701.16 502.2 715.03 504.21 704.99 514 707.36 527.82 694.95 521.3 682.54 527.82 684.91 514 674.87 504.21 688.75 502.2 694.95 489.63"/><polygon class="cls-2" points="746.63 298.97 740.42 311.54 726.55 313.56 736.59 323.34 734.22 337.16 746.63 330.64 759.04 337.16 756.67 323.34 766.71 313.56 752.84 311.54 746.63 298.97"/><polygon class="cls-2" points="784.17 337.16 777.96 349.74 764.09 351.75 774.13 361.54 771.76 375.36 784.17 368.84 796.58 375.36 794.21 361.54 804.25 351.75 790.38 349.74 784.17 337.16"/><polygon class="cls-2" points="798.2 386.88 792 399.46 778.12 401.48 788.16 411.26 785.79 425.08 798.2 418.56 810.61 425.08 808.24 411.26 818.28 401.48 804.41 399.46 798.2 386.88"/><polygon class="cls-2" points="784.17 439.55 777.96 452.13 764.09 454.14 774.13 463.93 771.76 477.75 784.17 471.22 796.58 477.75 794.21 463.93 804.25 454.14 790.38 452.13 784.17 439.55"/><polygon class="cls-2" points="746.63 477.75 740.42 490.32 726.55 492.34 736.59 502.13 734.22 515.95 746.63 509.42 759.04 515.95 756.67 502.13 766.71 492.34 752.84 490.32 746.63 477.75"/><path class="cls-4" d="M142,936a1.47,1.47,0,0,1-1-.39,1.49,1.49,0,0,1-.11-2.12c.14-.15,14.13-15.9,31.59-54.58,29.22-64.7,45.51-142.65,54-196.65,4.87-30.83,9.57-61.16,14.12-90.5,23.88-154,42.74-275.55,57.83-295.5,4.18-5.53,9.82-7.88,15.89-6.64,8.65,1.78,16.32,10.46,19.07,21.61,4,16.13,1.39,32.8,1.28,33.5a1.5,1.5,0,1,1-3-.48c0-.16,2.61-16.78-1.23-32.29-2.45-9.9-9.34-17.87-16.76-19.4-4.94-1-9.41.89-12.9,5.51-14.63,19.35-34.38,146.7-57.25,294.15-4.55,29.34-9.26,59.68-14.13,90.51-8.57,54.27-24.95,132.6-54.36,197.63-17.65,39-31.43,54.5-32,55.14A1.48,1.48,0,0,1,142,936Z"/><path class="cls-4" d="M272.67,525a1.53,1.53,0,0,1-.3,0,1.5,1.5,0,0,1-1.17-1.77c.24-1.23,25.33-124.61,78.85-212.48,54.49-89.47,62.76-102.81,69.51-110.23,4.19-4.62,10.72-10.08,17.89-9.81,4.57.16,8.74,2.59,12.39,7.22,10,12.71,10.13,37.43.21,61.5a1.5,1.5,0,1,1-2.77-1.14c9.51-23.1,9.6-46.61.21-58.5-3.09-3.91-6.5-5.95-10.15-6.08H437c-5.9,0-11.5,4.78-15.18,8.84C415.21,209.69,407,223,352.61,312.24c-53.23,87.41-78.23,210.28-78.47,211.51A1.51,1.51,0,0,1,272.67,525Z"/><path class="cls-4" d="M305.33,525a1.1,1.1,0,0,1-.31,0,1.49,1.49,0,0,1-1.15-1.78c.07-.32,6.94-32.11,16.26-67.73,12.54-47.91,23.27-79.56,31.91-94.05C373.58,325.23,397.55,299,497,215c1-.86,25-21,40.54-15,6.55,2.54,10.56,9.25,11.92,19.94,4.19,33-32,67.05-61.15,94.38-8.53,8-16.59,15.56-22.56,22.15-26.26,29-39.14,54-52.27,172.15a1.5,1.5,0,0,1-3-.33c13.22-119,26.31-144.38,53-173.83,6.05-6.68,14.15-14.28,22.73-22.33,28.61-26.86,64.22-60.29,60.22-91.81-1.21-9.52-4.58-15.41-10-17.52-13.9-5.4-37.27,14.28-37.51,14.48C399.82,301,376,327.09,354.62,362.89,334.32,397,307.07,522.51,306.8,523.77A1.5,1.5,0,0,1,305.33,525Z"/><path class="cls-4" d="M628,541a49.77,49.77,0,0,1-8.21-.74c-4.74-.79-10.18-5.54-17.06-11.55-11.91-10.39-26.73-23.33-45.79-23.33a1.5,1.5,0,0,1,0-3c20.18,0,36.12,13.91,47.76,24.07,6.27,5.47,11.69,10.2,15.59,10.85,9.9,1.65,16.71.42,20.82-3.78,4.48-4.57,5.64-12.8,3.46-24.46-5.89-31.37-19.45-43.06-57.21-62.28-37-18.8-60-9.57-76.86-2.83l-.57.22c-16.3,6.52-109.4,74.47-110.34,75.15a1.5,1.5,0,0,1-1.77-2.42c3.85-2.81,94.35-68.85,111-75.51l.56-.23c16.39-6.56,41.17-16.47,79.34,2.95,38.75,19.72,52.68,31.79,58.79,64.39,2.38,12.69.95,21.81-4.26,27.12C639.69,539.23,634.66,541,628,541Z"/><path class="cls-4" d="M489.33,644.79A1.48,1.48,0,0,1,488,644c-.07-.12-6.76-12-13.37-25.24-3.88-7.76-3.08-19.1,2.22-31.1,6.35-14.42,18.86-29.43,36.18-43.4,37.35-30.14,55.5-58,55.68-58.25a1.5,1.5,0,1,1,2.52,1.62c-.18.28-18.57,28.5-56.32,59-35.74,28.85-44.54,56.94-37.6,70.83,6.57,13.15,13.23,25,13.3,25.1a1.5,1.5,0,0,1-1.31,2.24Z"/><path class="cls-4" d="M484.37,645.82a41.94,41.94,0,0,1-14.27-2.31,1.5,1.5,0,0,1,1.13-2.78h0a42.6,42.6,0,0,0,40.5-7.77c7-5.64,16.78-17.93,28.14-32.17,21.74-27.26,48.8-61.2,71.89-67.66a1.5,1.5,0,1,1,.81,2.89c-22.16,6.2-48.89,39.71-70.36,66.64-11.46,14.38-21.36,26.79-28.6,32.63A45.86,45.86,0,0,1,484.37,645.82Z"/><path class="cls-4" d="M414,936h-.1a1.5,1.5,0,0,1-1.4-1.59c.8-12.42,22.08-83.07,60.11-125.9,9.88-11.13,19.12-21.22,28.06-31,26.51-28.93,47.44-51.78,64.05-78.82,38.61-62.84,67.27-97.3,86.24-120.1,9.1-10.93,16.28-19.57,21.1-27.24,3.8-6.05,4.66-11.15,2.55-15.17C669.29,526,647.26,525,647,525a1.5,1.5,0,0,1,.13-3c1,0,24,1.15,30.11,12.8,2.64,5,1.74,11.14-2.67,18.16-4.93,7.85-12.17,16.55-21.33,27.57-18.92,22.73-47.5,57.09-86,119.75-16.76,27.28-37.78,50.23-64.4,79.27-8.93,9.75-18.16,19.83-28,30.94-39.41,44.4-58.79,115.3-59.35,124.1A1.5,1.5,0,0,1,414,936Z"/><path class="cls-4" d="M672.18,688.46s-2.33,32-27.08,43.5c0,0,25.68,14,27.08,45,1.4-31,27.08-45,27.08-45C674.52,720.46,672.18,688.46,672.18,688.46Z"/><path class="cls-4" d="M766.5,682.12s-1.64,22.6-19,30.72c0,0,18,9.89,19,31.78,1-21.89,19-31.78,19-31.78C768.14,704.72,766.5,682.12,766.5,682.12Z"/><path class="cls-4" d="M716.58,608.46s-1.58,22.6-18.41,30.72c0,0,17.46,9.88,18.41,31.78,1-21.9,18.42-31.78,18.42-31.78C718.17,631.06,716.58,608.46,716.58,608.46Z"/></g></svg>