<svg xmlns="http://www.w3.org/2000/svg" viewBox="0 0 1080 1080"><defs><style>.cls-1{fill:#0d2823;}.cls-2{fill:#044348;}.cls-3{fill:#65d45c;}.cls-4{fill:#fff;}.cls-5{fill:#d6f2ff;}</style></defs><title>ILUSTRACIONES GAIA</title><g id="ILUSTRACIÓN_3" data-name="ILUSTRACIÓN 3"><path class="cls-1" d="M290,666.75a1.75,1.75,0,0,1-.69-3.36c1.85-.79,184.64-79.14,202.14-112.21C508,519.9,553.8,414.23,566.59,302.47c2.62-22.89,9.08-36.54,19.2-40.55,8.71-3.46,17.83,1.35,21.84,4.74,2.47,2.09,8.78,8.64,14.09,24.5s8,36,8,59.84c0,15.86-.44,28-.83,38.75-1.22,33.85-1.72,47.86,15.72,95.65,11.28,30.88,21.92,60,19,89.52-3.22,32.21-22.46,61.27-60.53,91.45a1.75,1.75,0,1,1-2.18-2.74c37.29-29.55,56.1-57.85,59.22-89,2.87-28.69-7.64-57.49-18.77-88-17.69-48.44-17.17-62.64-15.93-97,.38-10.7.82-22.83.82-38.63,0-62.23-18.74-79.86-20.88-81.66-3.18-2.69-11.1-7-18.29-4.17-8.7,3.46-14.58,16.49-17,37.7-12.85,112.29-58.87,218.5-75.52,250C476.46,587,298.26,663.37,290.69,666.61A1.7,1.7,0,0,1,290,666.75Z"/><path class="cls-1" d="M605.86,746.48c-24.9,0-35.29-8.54-36-9.15a1.75,1.75,0,0,1,2.28-2.66h0c.28.24,29.42,23.76,109.17-10.28,80.85-34.51,113.64-56.44,114-56.66a1.75,1.75,0,1,1,2,2.9c-.32.22-33.33,22.31-114.54,57C648.59,742.16,623.56,746.48,605.86,746.48Z"/><path class="cls-1" d="M424,860.75a1.75,1.75,0,0,1-.91-3.24l187-114.35a1.75,1.75,0,1,1,1.82,3l-187,114.35A1.68,1.68,0,0,1,424,860.75Z"/><path class="cls-1" d="M763.29,505.57c-14.7,0-27-1-32.24-2.38-11-3-18.67-10.34-19.48-18.82-.85-8.92,5.77-17.5,18.16-23.54,16.94-8.25,35.86-12.83,49.67-16.18,7.67-1.86,13.72-3.33,16.28-4.69,1.21-.65,2.43-1.24,3.73-1.86,6.59-3.18,14.07-6.78,20.55-18.92a1.74,1.74,0,0,1,3.08,1.64C816,434,807.66,438,800.93,441.25c-1.27.61-2.46,1.18-3.61,1.79-3,1.58-8.88,3-17.09,5-13.66,3.31-32.36,7.85-49,15.93-11,5.36-16.92,12.67-16.21,20,.67,7,7.3,13.21,16.89,15.78,15.55,4.17,80.85,3.52,103.2-8.84,24.42-13.51,46.62-40.88,39.67-65-7.06-24.45-29.61-24.27-72.22-21.73-41.32,2.46-170.89,40.17-172.2,40.55a1.75,1.75,0,0,1-1-3.36c.33-.09,33.11-9.65,70.6-19.38,50.4-13.1,84.84-20.26,102.38-21.31,43.19-2.57,68-2.71,75.78,24.27,7.46,25.85-15.73,54.85-41.33,69C821.25,502.66,788.69,505.57,763.29,505.57Z"/><path class="cls-1" d="M764.84,563.86c-25.94,0-40.73-3.86-48.72-7.28a21.84,21.84,0,0,1-13.37-22.73c3.78-28.31,62.65-31.84,65.16-32a1.75,1.75,0,0,1,.19,3.49c-.59,0-58.48,3.49-61.89,28.94a18.36,18.36,0,0,0,11.28,19.06c8.44,3.59,24.81,7.71,55,6.88,64.62-1.78,101.18-12.8,115.07-34.69,7.1-11.19,8.42-22.72,3.71-32.47-5-10.29-16.34-17.31-30.4-18.8a1.75,1.75,0,0,1,.37-3.48c15.27,1.61,27.68,9.37,33.18,20.76,5.26,10.88,3.87,23.62-3.9,35.87-14.57,23-52.05,34.5-117.93,36.31Q768.55,563.86,764.84,563.86Z"/><path class="cls-1" d="M744,621c-18.92,0-36.9-1.8-46.39-7.5-3.9-2.35-6.3-5.29-7.14-8.74a25.05,25.05,0,0,1,3.66-20.94c5.56-8.07,16.06-14.59,31.22-19.38a129.88,129.88,0,0,1,21-4.79,1.75,1.75,0,1,1,.44,3.47c-.38,0-37.48,4.9-49.75,22.69a21.68,21.68,0,0,0-3.13,18.12c.61,2.51,2.48,4.72,5.55,6.57,27,16.26,130.58-.14,145.17-3.85,8.76-2.23,24.1-9.9,30.43-21.87a23.39,23.39,0,0,0,1.23-19.67c-5.35-14.72-13-16.42-13-16.44a1.75,1.75,0,0,1,.63-3.44c.38.07,9.57,1.86,15.69,18.68a26.79,26.79,0,0,1-1.43,22.51c-6.42,12.15-21.43,20.76-32.66,23.62-7.94,2-37.37,7.07-69.43,9.58C766,620.4,754.82,621,744,621Z"/><path class="cls-1" d="M775.62,670.93c-5.59,0-11-.19-16.07-.52-3.53-.23-6.91-.41-10.12-.59-24.48-1.35-40.66-2.24-44.64-19.43-1.83-7.91,1.73-16.11,10.28-23.72a65.56,65.56,0,0,1,13.2-9,1.75,1.75,0,0,1,1.54,3.15c-.26.12-25.35,12.61-21.6,28.78,3.38,14.62,16.89,15.36,41.42,16.72,3.22.17,6.6.36,10.15.59,30.32,2,72.63-1.36,92.11-17.28,6.62-5.4,10.29-11.51,10.9-18.14.7-7.62-2.68-16.09-9.79-24.49a1.75,1.75,0,0,1,2.67-2.26c7.73,9.14,11.4,18.5,10.61,27.08-.7,7.6-4.8,14.5-12.17,20.53C837.16,666.2,804.09,670.93,775.62,670.93Z"/><path class="cls-2" d="M747.83,803.67s-2.66,18-15.33,29.33c0,0,15.83,9,15.33,26,0,0,.67-15.5,16.17-26C764,833,749.83,824.33,747.83,803.67Z"/><path class="cls-2" d="M747.83,860h0a1,1,0,0,1-1-1c.48-16.21-14.67-25-14.82-25.1a1,1,0,0,1-.5-.76,1,1,0,0,1,.32-.86c12.26-11,15-28.55,15-28.73a1,1,0,0,1,1-.85h0a1,1,0,0,1,1,.9c1.93,19.94,15.55,28.49,15.69,28.58a1,1,0,0,1,0,1.68c-14.91,10.1-15.72,25.06-15.73,25.21A1,1,0,0,1,747.83,860Zm-13.7-27.14c3.09,2.1,11.59,8.72,14,19.41A37.8,37.8,0,0,1,762.25,833c-3.19-2.38-11.64-9.84-14.61-24C746,815.11,742.14,825.19,734.13,832.86Z"/><path class="cls-2" d="M812.09,732.67s-4,27.21-23.19,44.35c0,0,23.94,13.61,23.19,39.31,0,0,1-23.43,24.44-39.31C836.53,777,815.11,763.92,812.09,732.67Z"/><path class="cls-2" d="M812.09,817.45H812A1.11,1.11,0,0,1,811,816.3c.72-24.71-22.39-38.17-22.62-38.31a1.08,1.08,0,0,1-.56-.85,1.13,1.13,0,0,1,.36-.95c18.62-16.66,22.79-43.42,22.83-43.69a1.11,1.11,0,0,1,1.11-1h0a1.11,1.11,0,0,1,1.09,1c2.93,30.28,23.71,43.38,23.92,43.51a1.12,1.12,0,0,1,0,1.88c-22.71,15.38-23.94,38.2-23.95,38.43A1.13,1.13,0,0,1,812.09,817.45Zm-21.35-40.59c4.37,2.89,18.59,13.53,21.82,31a57.2,57.2,0,0,1,22-30.89c-4.46-3.31-18.49-15.29-22.73-38C809.51,747.89,803.66,764.68,790.74,776.86Z"/><path class="cls-3" d="M452.93,432.51a165.19,165.19,0,1,0-35.68,37.43l64.93,33.9Z"/><polygon class="cls-4" points="235 278.89 244.89 298.93 267 302.14 251 317.74 254.78 339.76 235 329.36 215.22 339.76 219 317.74 203 302.14 225.11 298.93 235 278.89"/><polygon class="cls-4" points="314 278.89 323.89 298.93 346 302.14 330 317.74 333.78 339.76 314 329.36 294.22 339.76 298 317.74 282 302.14 304.11 298.93 314 278.89"/><polygon class="cls-4" points="393 278.89 402.89 298.93 425 302.14 409 317.74 412.78 339.76 393 329.36 373.22 339.76 377 317.74 361 302.14 383.11 298.93 393 278.89"/><polygon class="cls-4" points="354.67 343.89 364.56 363.93 386.67 367.14 370.67 382.74 374.44 404.76 354.67 394.36 334.89 404.76 338.67 382.74 322.67 367.14 344.78 363.93 354.67 343.89"/><polygon class="cls-4" points="275 343.89 284.89 363.93 307 367.14 291 382.74 294.78 404.76 275 394.36 255.22 404.76 259 382.74 243 367.14 265.11 363.93 275 343.89"/><ellipse class="cls-5" cx="732.26" cy="540" rx="14.37" ry="22.69" transform="matrix(0.26, -0.97, 0.97, 0.26, 22.55, 1109.31)"/><ellipse class="cls-5" cx="741.54" cy="483.96" rx="15.04" ry="22.46" transform="translate(133.19 1127.4) rotate(-79.74)"/><ellipse class="cls-5" cx="720.18" cy="598.87" rx="15.43" ry="22.91" transform="translate(81.19 1283.69) rotate(-86.73)"/><ellipse class="cls-5" cx="734.41" cy="648.15" rx="15.02" ry="22.31" transform="translate(45.4 1344.37) rotate(-86.73)"/></g></svg>