<svg xmlns="http://www.w3.org/2000/svg" viewBox="0 0 1080 1080"><defs><style>.cls-1{fill:#044348;}.cls-2{fill:#0d2823;}.cls-3{fill:#fff;}.cls-4{fill:#d6f2ff;}.cls-5{fill:#f1eeec;}.cls-6{fill:#65d45c;}</style></defs><title>ILUSTRACIONES GAIA</title><g id="ILUSTRACIÓN_9" data-name="ILUSTRACIÓN 9"><path class="cls-1" d="M234.67,204H835.55a23.06,23.06,0,0,1,23.06,23.06V621a0,0,0,0,1,0,0h-647a0,0,0,0,1,0,0V227.06A23.06,23.06,0,0,1,234.67,204Z"/><path class="cls-2" d="M860.11,622.5h-650V227.06a24.59,24.59,0,0,1,24.56-24.56H835.55a24.59,24.59,0,0,1,24.56,24.56Zm-647-3h644V227.06a21.58,21.58,0,0,0-21.56-21.56H234.67a21.58,21.58,0,0,0-21.56,21.56Z"/><rect class="cls-3" x="231.06" y="224.33" width="609.33" height="380.67"/><rect class="cls-4" x="231.06" y="224.33" width="609.33" height="30.67"/><rect class="cls-5" x="261" y="432.33" width="302.67" height="144.67"/><rect class="cls-5" x="697.67" y="523.08" width="112" height="50.58"/><path class="cls-4" d="M133.07,799H939.82c12.44,0,20.75-14.25,13.5-29.75l-57.58-89.61-721.85.45-55.13,86.18a23.15,23.15,0,0,0-2.52,20.13C118.29,792.17,122.94,797.76,133.07,799Z"/><path class="cls-2" d="M939.82,800.5H132.88c-9-1.11-15.29-5.81-18.06-13.59a24.79,24.79,0,0,1,2.68-21.44l55.57-86.87h.82l722.67-.46.44.7,57.63,89.69,0,.09c3.92,8.37,3.77,17.26-.39,23.8A16.92,16.92,0,0,1,939.82,800.5Zm-806.66-3H939.82a13.94,13.94,0,0,0,11.92-6.7c3.6-5.64,3.69-13.42.26-20.83l-57.08-88.83-720.21.45L120,767.08a21.71,21.71,0,0,0-2.38,18.81C120,792.61,125.25,796.51,133.16,797.5Z"/><path class="cls-5" d="M126.26,783h818a9.88,9.88,0,0,0,8.34-15.17L859.41,621h-647l-94,147.6A9.37,9.37,0,0,0,126.26,783Z"/><path class="cls-2" d="M944.23,784.5h-818a10.86,10.86,0,0,1-9.16-16.7l94.49-148.3H860.23l.45.7L953.83,767a11.38,11.38,0,0,1-9.6,17.47Zm-731-162L119.62,769.41a7.87,7.87,0,0,0,6.64,12.09h818a8.37,8.37,0,0,0,7.07-12.86L858.58,622.5Z"/><path class="cls-2" d="M634.5,755.5h-198a1.5,1.5,0,0,1,0-3h198a1.5,1.5,0,0,1,0,3Z"/><path class="cls-2" d="M236.75,718H196a1.5,1.5,0,0,1,0-3h40.75a1.5,1.5,0,0,1,0,3Z"/><path class="cls-2" d="M750.33,718H261a1.5,1.5,0,0,1,0-3H750.33a1.5,1.5,0,0,1,0,3Z"/><path class="cls-2" d="M879.67,718H779a1.5,1.5,0,0,1,0-3H879.67a1.5,1.5,0,1,1,0,3Z"/><path class="cls-2" d="M659.67,687.17H212.22a1.5,1.5,0,0,1,0-3H659.67a1.5,1.5,0,0,1,0,3Z"/><path class="cls-2" d="M741,687.17H676.33a1.5,1.5,0,0,1,0-3H741a1.5,1.5,0,0,1,0,3Z"/><path class="cls-2" d="M859.22,687.17H767.67a1.5,1.5,0,0,1,0-3h91.55a1.5,1.5,0,0,1,0,3Z"/><path class="cls-2" d="M284.33,661.17h-58a1.5,1.5,0,0,1,0-3h58a1.5,1.5,0,1,1,0,3Z"/><path class="cls-2" d="M734.33,661.17h-420a1.5,1.5,0,0,1,0-3h420a1.5,1.5,0,0,1,0,3Z"/><path class="cls-2" d="M840.39,661.17H761a1.5,1.5,0,0,1,0-3h79.39a1.5,1.5,0,0,1,0,3Z"/><rect class="cls-6" x="582" y="523.08" width="100.5" height="20.42"/><rect class="cls-1" x="582" y="553.25" width="100.5" height="20.42"/><rect class="cls-1" x="624" y="381" width="29" height="119.5"/><rect class="cls-6" x="663.17" y="319.5" width="29" height="181"/><rect class="cls-1" x="702.33" y="381" width="29" height="119.5"/><rect class="cls-6" x="741.5" y="319.5" width="29" height="181"/><path class="cls-2" d="M809.67,502H582a1.5,1.5,0,0,1,0-3H809.67a1.5,1.5,0,1,1,0,3Z"/><path class="cls-3" d="M273,565a1.39,1.39,0,0,1-.44-.07,1.5,1.5,0,0,1-1-1.87c1.14-3.74,28.14-91.69,56.43-91.85h.11c15.48,0,22,19.4,28.24,38.18C362,526.14,367.25,542,378,542c10.23,0,14.9-7.84,20.32-16.91,5.53-9.27,11.79-19.77,25.42-22.14s21.24,8.12,28.08,17.36c5.17,7,10.06,13.57,16.58,13.86,8.4.35,19.43-16.72,30.06-33.26,11.46-17.82,23.31-36.25,34.68-37.73,17.75-2.31,26,27.27,26.37,28.53a1.5,1.5,0,1,1-2.89.79c-.08-.28-7.94-28.32-23.09-26.35-10,1.3-21.46,19.14-32.55,36.38-11.45,17.81-22.27,34.64-32.32,34.64h-.39c-7.95-.36-13.25-7.51-18.86-15.08-6.63-9-13.49-18.22-25.15-16.19C412,508,406.35,517.49,400.9,526.62S389.93,545,378,545c-12.92,0-18.55-16.86-24.51-34.7S341.41,474.08,328,474.17c-10.62.06-23.23,15.47-36.46,44.57a417.12,417.12,0,0,0-17.11,45.15A1.51,1.51,0,0,1,273,565Z"/><path class="cls-1" d="M267,570l-.29,0a1.5,1.5,0,0,1-1.18-1.76,451.6,451.6,0,0,1,13.52-50.81c11.52-34,23.7-50.49,36.14-48.89,13.23,1.72,20.56,17.79,27.64,33.34,9.35,20.51,16.5,33.53,30.09,27.77,8.06-3.42,14-13.65,19.66-23.54,6.92-12,13.46-23.33,23.88-23.58h.41c11.25,0,16,11.7,20.52,23,4.18,10.38,8.5,21.11,17.63,22.91,14.77,2.91,33.68-29.43,52-60.71,2.7-4.62,5.49-9.4,8.23-14,5.85-9.8,12.29-14.64,19-14.44,11.38.37,20.64,15.21,25.14,24a1.5,1.5,0,1,1-2.67,1.36c-4.2-8.22-12.72-22.07-22.57-22.39h-.34c-5.5,0-10.89,4.37-16,13-2.73,4.58-5.52,9.35-8.22,14-18.72,32-36.45,62.37-52.67,62.37a12.74,12.74,0,0,1-2.46-.24c-10.72-2.11-15.35-13.61-19.83-24.73-4.38-10.87-8.52-21.14-17.77-21.14h-.3c-8.75.21-14.87,10.83-21.36,22.08-5.95,10.32-12.1,21-21.1,24.8-17.29,7.33-25.77-11.28-34-29.28-6.75-14.81-13.73-30.11-25.3-31.61a9,9,0,0,0-1.26-.08c-21.36,0-39.72,69.89-45.08,97.38A1.5,1.5,0,0,1,267,570Z"/><circle class="cls-4" cx="535.11" cy="215.5" r="5.5"/><circle class="cls-1" cx="251" cy="239.67" r="8.67"/><circle class="cls-6" cx="277" cy="239.67" r="8.67"/><path class="cls-1" d="M335,241.17H294.67a1.5,1.5,0,0,1,0-3H335a1.5,1.5,0,0,1,0,3Z"/><path class="cls-1" d="M359,241.17H344.67a1.5,1.5,0,0,1,0-3H359a1.5,1.5,0,0,1,0,3Z"/><path class="cls-6" d="M346.91,280.64l-7.29,30.55a38.16,38.16,0,0,1,3,74.73l14.88,28.21a69.54,69.54,0,0,0-10.55-133.49Z"/><path class="cls-1" d="M333.48,387a38.15,38.15,0,0,1-29.72-62.1l-21.1-23.49a69.52,69.52,0,0,0,76.63,112l-15.67-27.76A38.12,38.12,0,0,1,333.48,387Z"/><path class="cls-4" d="M303.36,325.43a38.07,38.07,0,0,1,30.12-14.74,38.64,38.64,0,0,1,7.66.77l6.94-30.58a70.21,70.21,0,0,0-14.6-1.55,69.36,69.36,0,0,0-51.43,22.74Z"/><path class="cls-4" d="M500.07,386.57h0a37.75,37.75,0,0,1-7.18.69,38.33,38.33,0,0,1,0-76.65V279.4a69.53,69.53,0,1,0,19.52,136.25Z"/><path class="cls-6" d="M492.89,279.4v31.2a38.31,38.31,0,0,1,7.18,76l12.34,29.08A69.5,69.5,0,0,0,492.89,279.4Z"/><path class="cls-1" d="M473.92,382.21a38.32,38.32,0,0,1,19-71.61h0V279.4h0A69.52,69.52,0,0,0,461.49,411Z"/></g></svg>