<svg xmlns="http://www.w3.org/2000/svg" viewBox="0 0 1072 1072"><defs><style>.cls-1{fill:#f1eeec;}.cls-2{fill:#0d2823;}.cls-3{fill:#65d45c;}.cls-4{fill:#044348;}.cls-5{fill:#fff;}</style></defs><title>ILUSTRACIONES GAIA</title><g id="ILUSTRACIÓN_13" data-name="ILUSTRACIÓN 13"><path class="cls-1" d="M363.88,360.11a216.49,216.49,0,0,0-46.49,5A43.56,43.56,0,0,1,238,400.55a217.53,217.53,0,0,0-52.84,54.11,43.55,43.55,0,0,1-33.42,79.88,217.25,217.25,0,0,0,0,83.66,43.56,43.56,0,0,1,33.43,79.88,217.61,217.61,0,0,0,52.07,53.53,43.56,43.56,0,0,1,79.4,35.83,217.38,217.38,0,0,0,47.3,5.18c119.44,0,216.26-96.82,216.26-216.25S483.32,360.11,363.88,360.11Zm0,295.59a79.34,79.34,0,1,1,79.33-79.33A79.33,79.33,0,0,1,363.88,655.7Z"/><path class="cls-2" d="M363.88,794.12a218.94,218.94,0,0,1-47.63-5.22,1.54,1.54,0,0,1-1-.79,1.51,1.51,0,0,1,0-1.28,42.07,42.07,0,0,0-38.53-58.91,42.21,42.21,0,0,0-38.14,24.32,1.49,1.49,0,0,1-1,.82,1.52,1.52,0,0,1-1.26-.24,218.45,218.45,0,0,1-52.43-53.9,1.49,1.49,0,0,1,.51-2.15,42.06,42.06,0,0,0-32.28-77.13,1.5,1.5,0,0,1-1.89-1.15,218.66,218.66,0,0,1,0-84.24,1.5,1.5,0,0,1,1.89-1.15A42.05,42.05,0,0,0,184.38,456a1.51,1.51,0,0,1-.51-2.16,218.29,218.29,0,0,1,53.21-54.48,1.51,1.51,0,0,1,2.21.53A42.05,42.05,0,0,0,316,365.67a1.52,1.52,0,0,1,.09-1.25,1.48,1.48,0,0,1,1-.75,219,219,0,0,1,46.81-5.06,217.76,217.76,0,1,1,0,435.51Zm-45.23-7.77a216,216,0,0,0,45.23,4.77,214.76,214.76,0,1,0,0-429.51,216.46,216.46,0,0,0-44.5,4.63,45.05,45.05,0,0,1-81.93,36.52,215.1,215.1,0,0,0-50.18,51.41,45.06,45.06,0,0,1-34.41,82.25,215.52,215.52,0,0,0,0,79.9,45.06,45.06,0,0,1,34.42,82.24,215.12,215.12,0,0,0,49.35,50.78A45.06,45.06,0,0,1,321.73,770,44.57,44.57,0,0,1,318.65,786.35ZM363.88,657.2a80.84,80.84,0,1,1,80.83-80.83A80.92,80.92,0,0,1,363.88,657.2Zm0-158.67a77.84,77.84,0,1,0,77.83,77.84A77.92,77.92,0,0,0,363.88,498.53Z"/><path class="cls-1" d="M806.23,163.05,780.62,269.51a18.8,18.8,0,0,0,13.8,22.67l32.28,7.91a18.81,18.81,0,0,0,22.54-13l31-107.32s62.67,50.67,38.67,124.67-86,78-86,78l-73.33,296s56.66,42.66,36.66,112-84,82.66-89.33,84.66L730.62,774.1a21.65,21.65,0,0,0-16.09-26l-29.63-7,9.85-158L748.9,359.72s-50.67-39.33-34-114S806.23,163.05,806.23,163.05Z"/><path class="cls-2" d="M706.9,876.55a1.47,1.47,0,0,1-1-.37,1.5,1.5,0,0,1-.47-1.47l23.72-101a20.19,20.19,0,0,0-15-24.23l-29.63-7A1.49,1.49,0,0,1,683.4,741l9.85-158a2.34,2.34,0,0,1,0-.26l53.93-222.41c-2.93-2.46-13.63-12.08-22.88-28.84-9.78-17.72-19.61-47-10.9-86.06s33.45-59.83,52.66-70.32c20.77-11.34,39.2-13.42,40-13.51a1.5,1.5,0,0,1,1.62,1.85L782.07,269.87a17.34,17.34,0,0,0,12.71,20.85l32.28,7.91a17.25,17.25,0,0,0,20.74-12l31-107.32a1.49,1.49,0,0,1,1-1,1.53,1.53,0,0,1,1.4.26c.65.53,16,13.1,28.69,35,11.71,20.26,23,52.55,10.46,91.3s-35.59,58.12-52.7,67.6c-16,8.86-29.62,10.91-33.53,11.33l-72.84,294a117.76,117.76,0,0,1,25.43,29.8c10.79,17.9,21.47,46.86,11,83.19-12.23,42.37-42.7,71.77-88.12,85-1,.29-1.77.51-2.13.65A1.6,1.6,0,0,1,706.9,876.55ZM686.48,739.89l28.4,6.72a23.19,23.19,0,0,1,17.2,27.83L709,872.86c44.25-13,73.93-41.63,85.83-82.89,10.17-35.25-.16-63.35-10.62-80.71a114.36,114.36,0,0,0-25.5-29.67,1.5,1.5,0,0,1-.56-1.56l73.34-296a1.48,1.48,0,0,1,1.35-1.14c.16,0,15.49-1.12,33.5-11.14,16.6-9.22,39-28.14,51.17-65.83s1.2-69.13-10.2-88.86A138.81,138.81,0,0,0,881,182.39L850.68,287.46a20.25,20.25,0,0,1-24.34,14.09l-32.28-7.91a20.36,20.36,0,0,1-14.9-24.48l25.1-104.3a120.3,120.3,0,0,0-36.82,12.9c-18.62,10.19-42.6,30.32-51.07,68.29s1,66.58,10.53,83.83c10.3,18.71,22.8,28.56,22.92,28.66a1.48,1.48,0,0,1,.54,1.53L696.24,583.28Z"/><path class="cls-2" d="M717.57,666.56a1.53,1.53,0,0,1-1.46-1.87l72.67-294a1.5,1.5,0,0,1,2.91.72L719,665.41A1.5,1.5,0,0,1,717.57,666.56Z"/><rect class="cls-3" x="365.49" y="209.56" width="329.26" height="677.5" rx="40.13" ry="40.13"/><rect class="cls-4" x="425.87" y="337.05" width="208.5" height="208.5" rx="12" ry="12"/><rect class="cls-5" x="444.12" y="414.05" width="172" height="52"/><rect class="cls-5" x="444.12" y="478.05" width="172" height="52"/><path class="cls-5" d="M550.86,594.66l-59.08,71.51a1.76,1.76,0,0,0,1.36,2.88h29.39a1.76,1.76,0,0,1,1.69,2.27l-21.39,71.17a1.76,1.76,0,0,0,3,1.65L571.44,667a1.77,1.77,0,0,0-1.35-2.91H538.67a1.75,1.75,0,0,1-1.7-2.2l16.95-65.63A1.76,1.76,0,0,0,550.86,594.66Z"/><path class="cls-2" d="M366.23,856a1.5,1.5,0,0,1-1.5-1.5V248.05a40,40,0,0,1,40-40H654.61a1.5,1.5,0,0,1,0,3H404.72a37,37,0,0,0-37,37V854.54A1.5,1.5,0,0,1,366.23,856Z"/><path class="cls-2" d="M694.75,856a1.5,1.5,0,0,1-1.5-1.5V254.05a1.5,1.5,0,1,1,3,0V854.54A1.5,1.5,0,0,1,694.75,856Z"/><path class="cls-2" d="M666.9,888.55h-269a1.5,1.5,0,1,1,0-3h269a1.5,1.5,0,0,1,0,3Z"/></g></svg>