<svg xmlns="http://www.w3.org/2000/svg" viewBox="0 0 1080 1080"><defs><style>.cls-1{fill:#0d2823;}.cls-2{fill:#d6f2ff;}.cls-3{fill:#044348;}.cls-4{fill:#fff;}.cls-5{fill:#65d45c;}</style></defs><title>ILUSTRACIONES GAIA</title><g id="ILUSTRACIÓN_4" data-name="ILUSTRACIÓN 4"><path class="cls-1" d="M730.5,410.75a1.5,1.5,0,0,1-1.47-1.21,9.43,9.43,0,0,0-3.4-5.12,1.5,1.5,0,1,1,1.74-2.44,12.35,12.35,0,0,1,4.6,7,1.49,1.49,0,0,1-1.18,1.76A1.36,1.36,0,0,1,730.5,410.75Z"/><circle class="cls-2" cx="769.96" cy="372.38" r="42.25"/><path class="cls-1" d="M770,416.1a43.72,43.72,0,1,1,43.72-43.72A43.77,43.77,0,0,1,770,416.1Zm0-84.5a40.78,40.78,0,1,0,40.79,40.78A40.83,40.83,0,0,0,770,331.6Z"/><path class="cls-1" d="M763.6,395.12a1.5,1.5,0,0,1-1.19-.58l-15.58-20a1.5,1.5,0,0,1,2.37-1.84l14.3,18.36,27.17-40.75a1.5,1.5,0,1,1,2.49,1.66l-28.32,42.48a1.5,1.5,0,0,1-1.19.67Z"/><circle class="cls-2" cx="769.96" cy="272.36" r="42.25"/><path class="cls-1" d="M770,316.08a43.72,43.72,0,1,1,43.72-43.72A43.76,43.76,0,0,1,770,316.08Zm0-84.5a40.79,40.79,0,1,0,40.79,40.78A40.83,40.83,0,0,0,770,231.58Z"/><path class="cls-1" d="M787,292.94a1.51,1.51,0,0,1-1.12-.5l-34-38.16a1.5,1.5,0,0,1,2.24-2l34,38.17a1.49,1.49,0,0,1-.12,2.11A1.46,1.46,0,0,1,787,292.94Z"/><path class="cls-1" d="M753,292.94a1.45,1.45,0,0,1-1-.38,1.49,1.49,0,0,1-.13-2.11l34-38.17a1.5,1.5,0,1,1,2.24,2l-34,38.16A1.48,1.48,0,0,1,753,292.94Z"/><rect class="cls-3" x="286" y="213.35" width="370" height="222.67" rx="21.18" ry="21.18" transform="translate(-68.34 133.96) rotate(-15.11)"/><rect class="cls-4" x="315.67" y="269.67" width="370" height="222.67" rx="21.18" ry="21.18"/><path class="cls-1" d="M664.49,493.83H336.84a22.7,22.7,0,0,1-22.67-22.67V290.84a22.7,22.7,0,0,1,22.67-22.67H664.49a22.7,22.7,0,0,1,22.68,22.67V471.16A22.7,22.7,0,0,1,664.49,493.83ZM336.84,271.17a19.69,19.69,0,0,0-19.67,19.67V471.16a19.69,19.69,0,0,0,19.67,19.67H664.49a19.7,19.7,0,0,0,19.68-19.67V290.84a19.7,19.7,0,0,0-19.68-19.67Z"/><rect class="cls-3" x="316.7" y="319.67" width="367.8" height="38"/><circle class="cls-3" cx="588.77" cy="384.81" r="12.44"/><rect class="cls-5" x="618.33" y="370" width="35.67" height="27.25" rx="3.81" ry="3.81"/><path class="cls-1" d="M720.5,398.75a1.48,1.48,0,0,1-1.07-.45c-9-9.28-23.68-5.88-23.83-5.84a1.5,1.5,0,1,1-.7-2.92c.66-.16,16.44-3.83,26.67,6.66a1.5,1.5,0,0,1,0,2.12A1.48,1.48,0,0,1,720.5,398.75Z"/><path class="cls-1" d="M296.33,851.17a1.5,1.5,0,0,1-.29-3c1.13-.32,24.2-8.77,76.19-176.31C392,608.18,432,569.09,458,569.09h.44c9.38.16,16,5.67,18.71,15.52a1.5,1.5,0,1,1-2.89.78c-2.34-8.56-7.82-13.16-15.87-13.3H458c-11.87,0-27.55,9.49-42.07,25.49-12.11,13.34-29,37.22-40.8,75.2-15.42,49.68-38.18,116.76-59,154.2-12.32,22.11-18.42,24-19.52,24.17Z"/><path class="cls-1" d="M467.67,603.17a1.46,1.46,0,0,1-.61-.13,1.5,1.5,0,0,1-.77-2c.15-.34,15.16-34.26,30.81-56.91,13.2-19.11,29.54-25,43.72-15.74,11.43,7.46,11,21.39,11,22a1.5,1.5,0,0,1-3-.11c0-.13.33-12.84-9.65-19.36-12.64-8.25-27.45-2.67-39.61,14.93-15.49,22.42-30.38,56.08-30.53,56.42A1.51,1.51,0,0,1,467.67,603.17Z"/><path class="cls-1" d="M593.25,620.25a1.48,1.48,0,0,1-.64-.14,1.51,1.51,0,0,1-.72-2c25.48-54.41,22.54-73.45,16.29-84.89-3.15-5.79-9.81-10.19-17.37-11.48a26.24,26.24,0,0,0-22.31,6.62c-14.59,13.14-35.42,60.51-35.63,61a1.5,1.5,0,0,1-2.74-1.2c.86-2,21.3-48.45,36.37-62a29.12,29.12,0,0,1,24.81-7.36c8.45,1.45,15.92,6.43,19.51,13,6.6,12.11,9.84,32-16.21,87.61A1.51,1.51,0,0,1,593.25,620.25Z"/><path class="cls-4" d="M618,729S724.53,450.63,722.5,420c-1.33-20.11-26.88-27.3-38.29-6.41C661.5,455.17,605,591.12,605,591.12"/><path class="cls-1" d="M618,730.5a1.47,1.47,0,0,1-.54-.1,1.5,1.5,0,0,1-.86-1.94C617.66,725.68,723,450.06,721,420.1c-.57-8.69-6.09-15.43-14.06-17.19-6.56-1.44-15.62.79-21.42,11.4-22.41,41-78.58,176-79.15,177.39a1.5,1.5,0,0,1-2.77-1.16c.57-1.36,56.81-136.5,79.29-177.67,6.59-12.06,17.08-14.57,24.7-12.89,9.3,2,15.74,9.87,16.41,19.92,2,30.61-100.24,298.26-104.6,309.64A1.51,1.51,0,0,1,618,730.5Z"/><path class="cls-1" d="M465,930.5a1.9,1.9,0,0,1-.4,0,1.51,1.51,0,0,1-1.05-1.84c.34-1.22,8.57-30.16,44.62-54.19,5.54-3.69,12.51-8.09,20.59-13.17,43.63-27.47,116.66-73.45,122.76-111.16,6.92-42.81-.51-75.52-4.95-95.07l-.68-3a1.5,1.5,0,1,1,2.93-.66l.67,3c4.49,19.76,12,52.83,5,96.22-6.32,39-80.06,85.48-124.12,113.22-8.06,5.07-15,9.45-20.53,13.13-35.05,23.37-43.3,52.19-43.38,52.48A1.52,1.52,0,0,1,465,930.5Z"/><path class="cls-1" d="M651.33,788.17a1.5,1.5,0,0,1-1.22-2.38l7.5-10.5a1.51,1.51,0,0,1,2.1-.34,1.49,1.49,0,0,1,.34,2.09l-7.5,10.5A1.49,1.49,0,0,1,651.33,788.17Z"/><path class="cls-1" d="M662.17,770a1.46,1.46,0,0,1-1-.35,1.49,1.49,0,0,1-.2-2.11h0A46.85,46.85,0,0,0,669.67,736a1.5,1.5,0,0,1,3-.25c1.7,20.21-8.89,33.21-9.34,33.75A1.48,1.48,0,0,1,662.17,770Z"/><ellipse class="cls-2" cx="701.75" cy="425.99" rx="17.87" ry="15.75" transform="translate(120.01 1005.22) rotate(-76.14)"/></g></svg>