<svg xmlns="http://www.w3.org/2000/svg" viewBox="0 0 1072 1072"><defs><style>.cls-1{fill:#0d2823;}.cls-2{fill:#fff;}.cls-3{fill:#65d45c;}.cls-4{fill:#044348;}</style></defs><title>ILUSTRACIONES GAIA</title><g id="ILUSTRACIÓN_10" data-name="ILUSTRACIÓN 10"><path class="cls-1" d="M746.47,423.91a1.5,1.5,0,0,1-.73-2.81c.1-.06,10.44-5.84,46.83-32.89,23.43-17.41,27.6-30.77,27-38.91-.53-7-4.89-13-12.28-16.89C792,324.3,753,343.56,752.64,343.76a1.5,1.5,0,0,1-1.34-2.69c1.65-.82,40.69-20.14,57.37-11.32,8.33,4.42,13.26,11.28,13.88,19.32.67,8.89-3.67,23.32-28.19,41.55-36.66,27.25-46.76,32.88-47.17,33.11A1.57,1.57,0,0,1,746.47,423.91Z"/><path class="cls-1" d="M806.23,535.32H806c-8.68-.07-25-3.73-36.85-27.48a1.5,1.5,0,1,1,2.69-1.34C782.93,528.81,798,532.25,806,532.32h.23c10.92,0,21.44-6.19,26.24-15.45,4.41-8.52,3.45-17.94-2.71-26.52-23.22-32.35-78.56-26.6-79.12-26.54a1.5,1.5,0,0,1-.33-3,132.76,132.76,0,0,1,31.64,1c22.82,3.48,40.19,12.72,50.25,26.73,6.75,9.41,7.82,20.22,2.93,29.65C829.74,528.64,818.42,535.32,806.23,535.32Z"/><rect class="cls-1" x="746.29" y="532.55" width="47.44" height="3" transform="translate(-59 97.17) rotate(-6.95)"/><path class="cls-1" d="M791.53,628c-11.44,0-22.47-7.31-27.95-18.74-7.07-14.76-3.22-32.09,10.3-46.38a1.5,1.5,0,1,1,2.18,2.07c-12.64,13.34-16.29,29.42-9.77,43,5.28,11,16.2,17.86,27.15,17s18.48-4.48,22.44-10.68c4.61-7.22,4.37-17.86-.71-31.63-9.47-25.7-64.4-35.33-64.95-35.43a1.5,1.5,0,1,1,.5-2.95,182.57,182.57,0,0,1,29.62,8.2c20.72,7.78,33.39,17.59,37.65,29.14,5.42,14.7,5.56,26.24.42,34.29-4.49,7-12.81,11.08-24.72,12C793,628,792.24,628,791.53,628Z"/><path class="cls-1" d="M389.27,738.92h-.33l.06-3c.24,0,23.09.3,33.25-13.87l2.44,1.75c-4.61,6.43-12.27,11.08-22.15,13.46A60,60,0,0,1,389.27,738.92Z"/><rect class="cls-1" x="746.47" y="612.91" width="22.01" height="3"/><path class="cls-1" d="M329.29,952.11l-2.65-1.4c8.17-15.5,26-35.62,52.94-59.79,20-18,37.92-31.57,38.09-31.7l1.82,2.39C418.78,862.15,348.42,915.83,329.29,952.11Z"/><rect class="cls-2" x="418.58" y="245.39" width="341" height="665" rx="33.9" ry="33.9"/><path class="cls-1" d="M725.68,911.89H452.48a35.44,35.44,0,0,1-35.4-35.4V279.28a35.44,35.44,0,0,1,35.4-35.39h273.2a35.44,35.44,0,0,1,35.4,35.39V876.49A35.44,35.44,0,0,1,725.68,911.89Zm-273.2-665a32.43,32.43,0,0,0-32.4,32.39V876.49a32.43,32.43,0,0,0,32.4,32.4h273.2a32.43,32.43,0,0,0,32.4-32.4V279.28a32.43,32.43,0,0,0-32.4-32.39Z"/><path class="cls-1" d="M611.12,263.91h-73a1.5,1.5,0,0,1,0-3h73a1.5,1.5,0,0,1,0,3Z"/><circle class="cls-1" cx="630.49" cy="262.79" r="7.38"/><path class="cls-3" d="M721.36,259.72h-45v4.72a12,12,0,0,1-12,12H513.83a12,12,0,0,1-12-12v-4.72h-45a22.65,22.65,0,0,0-22.58,22.58V873.48a22.64,22.64,0,0,0,22.58,22.57H721.36a22.64,22.64,0,0,0,22.58-22.57V282.3A22.65,22.65,0,0,0,721.36,259.72Z"/><rect class="cls-2" x="486.78" y="655.75" width="206" height="58.67" rx="29.33" ry="29.33"/><circle class="cls-3" cx="516.78" cy="685.08" r="18"/><path class="cls-1" d="M490.62,183.17a1.52,1.52,0,0,1-.74-.2,1.51,1.51,0,0,1-.56-2.05c19.06-33.21,56.42-53.83,97.51-53.83,40.12,0,77.22,20.62,96.84,53.81a1.5,1.5,0,1,1-2.58,1.53c-19.08-32.29-55.2-52.34-94.26-52.34-40,0-76.38,20-94.91,52.32A1.48,1.48,0,0,1,490.62,183.17Z"/><path class="cls-1" d="M524.26,203.45a1.52,1.52,0,0,1-.74-.2,1.5,1.5,0,0,1-.56-2.05C535.42,179.48,559.85,166,586.71,166c26.23,0,50.49,13.49,63.32,35.19a1.5,1.5,0,1,1-2.58,1.53C635.16,181.91,611.88,169,586.71,169c-25.79,0-49.22,12.92-61.15,33.7A1.48,1.48,0,0,1,524.26,203.45Z"/><path class="cls-1" d="M557.51,218.56a1.59,1.59,0,0,1-.75-.2,1.51,1.51,0,0,1-.55-2.05c5.95-10.37,17.59-16.8,30.39-16.8a35,35,0,0,1,30.18,16.78,1.5,1.5,0,1,1-2.58,1.53,32,32,0,0,0-27.6-15.31c-11.73,0-22.37,5.86-27.79,15.29A1.49,1.49,0,0,1,557.51,218.56Z"/><circle class="cls-2" cx="589.08" cy="489.47" r="120.8"/><path class="cls-4" d="M695.67,503.08H651.3a1.5,1.5,0,0,1,0-3h44.37a1.5,1.5,0,0,1,0,3Z"/><line class="cls-2" x1="651.3" y1="492.76" x2="678.74" y2="476.41"/><path class="cls-4" d="M651.3,494.26a1.5,1.5,0,0,1-.77-2.79L678,475.13a1.5,1.5,0,1,1,1.54,2.57l-27.44,16.35A1.54,1.54,0,0,1,651.3,494.26Z"/><line class="cls-2" x1="651.3" y1="510.4" x2="678.74" y2="526.75"/><path class="cls-4" d="M678.74,528.25A1.54,1.54,0,0,1,678,528l-27.44-16.35a1.5,1.5,0,0,1,1.54-2.58l27.44,16.35a1.5,1.5,0,0,1-.77,2.79Z"/><path class="cls-4" d="M678.57,571.63l-52-13.77a1.48,1.48,0,0,1-1.08-1.15l-4.34-21.33,2.94-.6,4.15,20.42,51.09,13.53Z"/><path class="cls-4" d="M585.81,547.24a84.49,84.49,0,0,1-11.06-.67,1.5,1.5,0,1,1,.43-3c.31,0,30.83,4.27,49.78-10.65,8.68-6.83,13.68-16.71,14.85-29.34,4.52-48.83-34.56-73-34.95-73.25a1.5,1.5,0,1,1,1.55-2.56c.41.24,41.08,25.4,36.38,76.09-1.25,13.49-6.63,24.06-16,31.43C614.05,545.35,596.89,547.24,585.81,547.24Z"/><path class="cls-4" d="M608.32,456.58a1.5,1.5,0,0,1-1.06-2.56c.5-.5,12.46-12.24,27.8-7.71a1.5,1.5,0,0,1-.85,2.88c-13.61-4-24.72,6.84-24.83,6.95A1.49,1.49,0,0,1,608.32,456.58Z"/><path class="cls-4" d="M560,476.25a1.46,1.46,0,0,1-1-.37,1.49,1.49,0,0,1-.16-2.11c12.73-14.79,26.76-12.93,27.35-12.84a1.5,1.5,0,0,1-.43,3c-.53-.08-13-1.65-24.65,11.83A1.49,1.49,0,0,1,560,476.25Z"/><path class="cls-4" d="M603,505.25a1.5,1.5,0,0,1-.79-2.78l13.49-8.28-14-27.43a1.5,1.5,0,0,1,2.67-1.36L619,494.06a1.5,1.5,0,0,1-.55,2l-14.67,9A1.46,1.46,0,0,1,603,505.25Z"/><path class="cls-4" d="M604,517.54A26.5,26.5,0,0,1,592.62,515a25.32,25.32,0,0,1-7.78-5.57,1.5,1.5,0,1,1,2.26-2h0c.4.45,9.92,11,25.71,5.57a1.5,1.5,0,1,1,1,2.83A29.68,29.68,0,0,1,604,517.54Z"/><path class="cls-4" d="M586,526.58a1.55,1.55,0,0,1-.66-.15c-17.33-8.5-30.2-41.41-30.74-42.81a1.5,1.5,0,0,1,.86-1.94,1.51,1.51,0,0,1,1.94.86c.13.33,13,33.22,29.26,41.19a1.5,1.5,0,0,1-.66,2.85Z"/><circle class="cls-4" cx="589.3" cy="528.08" r="7"/><ellipse class="cls-4" cx="585.47" cy="481.75" rx="3.83" ry="7" transform="translate(-107.07 173.14) rotate(-15.43)"/><ellipse class="cls-4" cx="621.48" cy="467.92" rx="3.83" ry="7" transform="translate(-102.1 182.22) rotate(-15.43)"/><path class="cls-4" d="M560.87,518.42a1.22,1.22,0,0,1-.37,0c-4.82-1.22-8.27-3.67-10.27-7.28-3.5-6.31-1.17-13.82-1.07-14.13a1.5,1.5,0,0,1,2.86.91c0,.1-2,6.63.84,11.79,1.58,2.84,4.4,4.8,8.38,5.81a1.5,1.5,0,0,1-.37,2.95Z"/><rect class="cls-4" x="596.13" y="583.41" width="3" height="26.86"/><path class="cls-4" d="M557.47,536.91s-26.75-7.75-35-52C511.3,425,571,413.41,571,413.41c8.5-20.5,59.75-19.5,50.51,10s-53.76,35.75-53.76,35.75l-2.5,25.43s-27.17.08-23.25,22.58c0,0,1.75,12.74,16.5,15Z"/><path class="cls-4" d="M512.28,583.39l-1.49-2.6,43.86-25-.2-20.64,3,0,.21,21.53a1.49,1.49,0,0,1-.76,1.31Z"/><polygon class="cls-4" points="583.97 600.91 597.63 582.09 556.16 556.61 583.97 600.91"/><polygon class="cls-4" points="611.94 598.75 597.63 582.09 626.97 556.41 611.94 598.75"/><path class="cls-2" d="M414.26,441.28,432,430.15l47.07-24.32,22.25-8.76,12.85-2.38,9,2.08,4.72,8.29s9.4,48.07-33.73,75.73c-18.66,12-29,12.7-29,12.7L415.05,547Z"/><rect class="cls-1" x="405" y="517.73" width="73.92" height="3" transform="translate(-238.35 473.36) rotate(-45.74)"/><path class="cls-1" d="M155,802.91a1.53,1.53,0,0,1-1.1-.47,1.51,1.51,0,0,1,.07-2.12c1.17-1.1,117.46-110.89,151.93-217.37,14.45-44.61,38.83-83.25,72.47-114.87a294,294,0,0,1,64.59-45.72l2.32-1.26c47.21-25.81,75.13-32.52,83-20,6.23,9.94,5,28-3.17,44.92-6.63,13.83-27.8,46.65-80.93,52.86a1.5,1.5,0,0,1-.35-3c51.65-6,72.16-37.8,78.58-51.17,7.69-16,9-32.93,3.33-42-6.67-10.65-34.73-3.18-79,21L444.35,425a291.28,291.28,0,0,0-64,45.27,266.7,266.7,0,0,0-71.66,113.61c-18.15,56.06-58.72,112.52-89.56,150A805.61,805.61,0,0,1,156,802.51,1.48,1.48,0,0,1,155,802.91Z"/><path class="cls-2" d="M761.22,682.08c-33.5,40.67,16.75,80.33,32.34,44s-32.68-67.33-32.68-67.33Z"/><path class="cls-1" d="M775.2,741.45H775c-10.39-.12-20.75-7.94-25.21-19-5.4-13.41-1.21-28.26,11.5-40.74a1.5,1.5,0,1,1,2.1,2.14c-11.8,11.59-15.74,25.25-10.82,37.48,4,10,13.26,17.05,22.46,17.15h.21c7.37,0,13.39-4.59,17-13,14.91-34.75-32.92-65.17-33.4-65.47a1.5,1.5,0,1,1,1.59-2.54,111.47,111.47,0,0,1,23.18,20.34c14.07,16.54,18,33.44,11.38,48.85C790.85,736.21,783.84,741.45,775.2,741.45Z"/></g></svg>