<svg xmlns="http://www.w3.org/2000/svg" viewBox="0 0 1072 1072"><defs><style>.cls-1{fill:#044348;}.cls-2{fill:#0d2823;}.cls-3{fill:#f1eeec;}.cls-4{fill:#fff;}.cls-5{fill:#65d45c;}.cls-6{fill:#d6f2ff;}</style></defs><title>ILUSTRACIONES GAIA</title><g id="ILUSTRACIÓN_14" data-name="ILUSTRACIÓN 14"><rect class="cls-1" x="132.78" y="160.39" width="390.22" height="760.98" rx="38.79" ry="38.79"/><path class="cls-2" d="M353.11,181.59H269.57a1.72,1.72,0,1,1,0-3.43h83.54a1.72,1.72,0,0,1,0,3.43Z"/><path class="cls-3" d="M479.26,176.79H427.73v6.09c0,3.43-3,13.79-13.73,13.79H241.78c-7.55,0-13.73-7.47-13.73-12.52v-7.36H176.52c-14.21,0-25.84,7.78-25.84,17.28V646.39c0,9.5,11.63,17.28,25.84,17.28H479.26c14.21,0,25.84-7.78,25.84-17.28V194.07C505.1,184.57,493.47,176.79,479.26,176.79Z"/><path class="cls-4" d="M150.68,640H505.1a0,0,0,0,1,0,0V882.38a23,23,0,0,1-23,23H173.64a23,23,0,0,1-23-23V640A0,0,0,0,1,150.68,640Z"/><circle class="cls-2" cx="375.28" cy="180.3" r="8.44"/><rect class="cls-5" x="166.36" y="675.37" width="322.46" height="55.31" rx="27.25" ry="27.25"/><circle class="cls-3" cx="245.34" cy="856.72" r="26.78"/><circle class="cls-3" cx="321.67" cy="856.72" r="26.78"/><circle class="cls-3" cx="398" cy="856.72" r="26.78"/><path class="cls-6" d="M272.12,751.37H193.61a27.33,27.33,0,0,0-27.25,27.25v.81a27.33,27.33,0,0,0,27.25,27.25h78.51Z"/><path class="cls-5" d="M461.58,751.37H272.12v55.31H461.58a27.33,27.33,0,0,0,27.25-27.25v-.81A27.33,27.33,0,0,0,461.58,751.37Z"/><path class="cls-4" d="M464.33,780.52H287.67a1.5,1.5,0,0,1,0-3H464.33a1.5,1.5,0,0,1,0,3Z"/><path class="cls-4" d="M331.67,704.52H223a1.5,1.5,0,0,1,0-3H331.67a1.5,1.5,0,1,1,0,3Z"/><path class="cls-4" d="M185.53,693H205a2.6,2.6,0,0,1,2.6,2.85c-.51,5.23-2.76,15.86-12.6,15.9-10.35,0-12.39-9.87-12.73-15.3A3.26,3.26,0,0,1,185.53,693Z"/><path class="cls-4" d="M194.94,723.25a1.5,1.5,0,0,1-1.5-1.5V709a1.5,1.5,0,0,1,3,0v12.75A1.5,1.5,0,0,1,194.94,723.25Z"/><path class="cls-4" d="M200.25,696a1.51,1.51,0,0,1-1.5-1.49l-.06-9.5a1.5,1.5,0,0,1,1.49-1.51h0a1.51,1.51,0,0,1,1.5,1.49l.06,9.5a1.5,1.5,0,0,1-1.49,1.51Z"/><path class="cls-4" d="M189.75,696a1.51,1.51,0,0,1-1.5-1.49l-.06-9.5a1.5,1.5,0,0,1,1.49-1.51h0a1.51,1.51,0,0,1,1.5,1.49l.06,9.5a1.5,1.5,0,0,1-1.49,1.51Z"/><polygon class="cls-4" points="150.68 300.33 431.67 300.33 505.1 231 505.1 300.33 375.28 420.23 505.1 420.23 505.1 469 440.33 469 440.33 643.67 391 643.67 391 469.67 319.67 469.67 150.68 626.33 150.68 560.33 247 470.33 150.68 470.33 150.68 420.23 302.33 420.23 375.62 346.95 150.68 346.95 150.68 300.33"/><path class="cls-1" d="M272.62,317.8a26.17,26.17,0,1,0-44.24,0l22.12,38.53Z"/><path class="cls-4" d="M241.09,300.17h19.48a2.6,2.6,0,0,1,2.59,2.84c-.51,5.24-2.76,15.87-12.6,15.91-10.35,0-12.39-9.88-12.73-15.3A3.25,3.25,0,0,1,241.09,300.17Z"/><path class="cls-4" d="M250.5,330.42a1.5,1.5,0,0,1-1.5-1.5V316.17a1.5,1.5,0,0,1,3,0v12.75A1.5,1.5,0,0,1,250.5,330.42Z"/><path class="cls-4" d="M255.81,303.17a1.51,1.51,0,0,1-1.5-1.49l-.06-9.5a1.49,1.49,0,0,1,1.49-1.51h0a1.5,1.5,0,0,1,1.5,1.49l.06,9.5a1.5,1.5,0,0,1-1.49,1.51Z"/><path class="cls-4" d="M245.31,303.17a1.51,1.51,0,0,1-1.5-1.49l-.06-9.5a1.49,1.49,0,0,1,1.49-1.51h0a1.5,1.5,0,0,1,1.5,1.49l.06,9.5a1.5,1.5,0,0,1-1.49,1.51Z"/><path class="cls-1" d="M222.62,506.56a26.17,26.17,0,1,0-44.24,0l22.12,38.53Z"/><path class="cls-4" d="M191.09,488.92h19.48a2.6,2.6,0,0,1,2.59,2.85c-.51,5.24-2.76,15.86-12.6,15.9-10.35,0-12.39-9.87-12.73-15.3A3.26,3.26,0,0,1,191.09,488.92Z"/><path class="cls-4" d="M200.5,519.17a1.5,1.5,0,0,1-1.5-1.5V504.92a1.5,1.5,0,0,1,3,0v12.75A1.5,1.5,0,0,1,200.5,519.17Z"/><path class="cls-4" d="M205.81,491.92a1.5,1.5,0,0,1-1.5-1.49l-.06-9.5a1.5,1.5,0,0,1,1.49-1.51h0a1.51,1.51,0,0,1,1.5,1.49l.06,9.5a1.49,1.49,0,0,1-1.49,1.51Z"/><path class="cls-4" d="M195.31,491.92a1.5,1.5,0,0,1-1.5-1.49l-.06-9.5a1.5,1.5,0,0,1,1.49-1.51h0a1.51,1.51,0,0,1,1.5,1.49l.06,9.5a1.49,1.49,0,0,1-1.49,1.51Z"/><path class="cls-1" d="M342.12,445.06a26.17,26.17,0,1,0-44.24,0L320,483.59Z"/><path class="cls-4" d="M310.59,427.42h19.48a2.6,2.6,0,0,1,2.59,2.85c-.51,5.24-2.76,15.86-12.6,15.9-10.35,0-12.39-9.87-12.73-15.3A3.26,3.26,0,0,1,310.59,427.42Z"/><path class="cls-4" d="M320,457.67a1.5,1.5,0,0,1-1.5-1.5V443.42a1.5,1.5,0,0,1,3,0v12.75A1.5,1.5,0,0,1,320,457.67Z"/><path class="cls-4" d="M325.31,430.42a1.5,1.5,0,0,1-1.5-1.49l-.06-9.5a1.5,1.5,0,0,1,1.49-1.51h0a1.51,1.51,0,0,1,1.5,1.49l.06,9.5a1.49,1.49,0,0,1-1.49,1.51Z"/><path class="cls-4" d="M314.81,430.42a1.5,1.5,0,0,1-1.5-1.49l-.06-9.5a1.5,1.5,0,0,1,1.49-1.51h0a1.51,1.51,0,0,1,1.5,1.49l.06,9.5a1.49,1.49,0,0,1-1.49,1.51Z"/><path class="cls-1" d="M477.62,467.23a26.17,26.17,0,1,0-44.24,0l22.12,38.53Z"/><path class="cls-4" d="M446.09,449.59h19.48a2.6,2.6,0,0,1,2.59,2.85c-.51,5.23-2.76,15.86-12.6,15.9-10.35,0-12.39-9.87-12.73-15.3A3.26,3.26,0,0,1,446.09,449.59Z"/><path class="cls-4" d="M455.5,479.84a1.5,1.5,0,0,1-1.5-1.5V465.59a1.5,1.5,0,1,1,3,0v12.75A1.5,1.5,0,0,1,455.5,479.84Z"/><path class="cls-4" d="M460.81,452.59a1.51,1.51,0,0,1-1.5-1.49l-.06-9.5a1.5,1.5,0,0,1,1.49-1.51h0a1.5,1.5,0,0,1,1.5,1.49l.06,9.5a1.5,1.5,0,0,1-1.49,1.51Z"/><path class="cls-4" d="M450.31,452.59a1.51,1.51,0,0,1-1.5-1.49l-.06-9.5a1.5,1.5,0,0,1,1.49-1.51h0a1.5,1.5,0,0,1,1.5,1.49l.06,9.5a1.5,1.5,0,0,1-1.49,1.51Z"/><rect class="cls-4" x="554.26" y="162.5" width="390.22" height="760.98" rx="38.79" ry="38.79"/><path class="cls-2" d="M905.69,925H593.05a40.34,40.34,0,0,1-40.29-40.29V201.29A40.34,40.34,0,0,1,593.05,161H905.69A40.34,40.34,0,0,1,946,201.29V884.7A40.34,40.34,0,0,1,905.69,925ZM593.05,164a37.33,37.33,0,0,0-37.29,37.29V884.7A37.33,37.33,0,0,0,593.05,922H905.69A37.33,37.33,0,0,0,943,884.7V201.29A37.33,37.33,0,0,0,905.69,164Z"/><rect class="cls-6" x="572.16" y="231" width="354.42" height="409"/><path class="cls-2" d="M774.59,183.7H691.05a1.72,1.72,0,1,1,0-3.43h83.54a1.72,1.72,0,0,1,0,3.43Z"/><path class="cls-1" d="M572.16,640H926.58a0,0,0,0,1,0,0V884.4a23,23,0,0,1-23,23H595.21a23,23,0,0,1-23-23V640A0,0,0,0,1,572.16,640Z"/><circle class="cls-2" cx="796.76" cy="182.42" r="8.44"/><rect class="cls-4" x="587.84" y="685.76" width="322.46" height="42.99" rx="21.5" ry="21.5"/><path class="cls-4" d="M786,665.17H715.31a1.5,1.5,0,0,1,0-3H786a1.5,1.5,0,0,1,0,3Z"/><path class="cls-4" d="M833.67,877.53H666.48a1.86,1.86,0,1,1,0-3.72H833.67a1.86,1.86,0,0,1,0,3.72Z"/><path class="cls-1" d="M753.15,708.76H644.48a1.5,1.5,0,0,1,0-3H753.15a1.5,1.5,0,0,1,0,3Z"/><polygon class="cls-4" points="572.16 302.45 853.15 302.45 926.58 233.12 926.58 302.45 796.76 422.34 926.58 422.34 926.58 471.12 861.81 471.12 861.81 640 812.48 640 812.48 471.78 741.15 471.78 572.16 628.45 572.16 562.45 668.48 472.45 572.16 472.45 572.16 422.34 723.81 422.34 797.09 349.06 572.16 349.06 572.16 302.45"/><path class="cls-1" d="M900.74,178.91H849.21V185c0,3.44-3,13.79-13.73,13.79H663.26c-7.55,0-13.73-7.47-13.73-12.52v-7.35H598c-14.21,0-25.84,7.77-25.84,17.27V231H926.58V196.18C926.58,186.68,915,178.91,900.74,178.91Z"/><path class="cls-5" d="M903.3,466.84a26.17,26.17,0,1,0-44.24,0l22.12,38.53Z"/><path class="cls-4" d="M877.8,483a1.46,1.46,0,0,1-.78-.22,1.51,1.51,0,0,1-.5-2.07l11.35-18.46H871.8a1.48,1.48,0,0,1-1.3-.76,1.51,1.51,0,0,1,0-1.51L882,440.73a1.5,1.5,0,1,1,2.58,1.54l-10.14,17h16.1a1.5,1.5,0,0,1,1.28,2.29l-12.75,20.75A1.5,1.5,0,0,1,877.8,483Z"/><path class="cls-5" d="M768.8,442.3a26.17,26.17,0,1,0-44.24,0l22.12,38.53Z"/><path class="cls-4" d="M743.3,458.46a1.46,1.46,0,0,1-.78-.22,1.5,1.5,0,0,1-.5-2.06l11.35-18.47H737.3A1.48,1.48,0,0,1,736,437a1.51,1.51,0,0,1,0-1.51l11.5-19.25a1.5,1.5,0,1,1,2.58,1.54l-10.14,17h16.1a1.5,1.5,0,0,1,1.28,2.29l-12.75,20.75A1.5,1.5,0,0,1,743.3,458.46Z"/><path class="cls-5" d="M698.8,317.09a26.17,26.17,0,1,0-44.24,0l22.12,38.53Z"/><path class="cls-4" d="M673.3,333.25a1.46,1.46,0,0,1-.78-.22A1.51,1.51,0,0,1,672,331l11.35-18.46H667.3a1.48,1.48,0,0,1-1.3-.76,1.51,1.51,0,0,1,0-1.51L677.51,291a1.5,1.5,0,1,1,2.58,1.54L670,309.5h16.1a1.5,1.5,0,0,1,1.28,2.29l-12.75,20.75A1.5,1.5,0,0,1,673.3,333.25Z"/><path class="cls-5" d="M648.8,506.56a26.17,26.17,0,1,0-44.24,0l22.12,38.53Z"/><path class="cls-4" d="M623.3,522.72a1.46,1.46,0,0,1-.78-.22,1.51,1.51,0,0,1-.5-2.07L633.37,502H617.3a1.48,1.48,0,0,1-1.3-.76,1.51,1.51,0,0,1,0-1.51l11.5-19.25a1.5,1.5,0,0,1,2.58,1.54L620,499h16.1a1.5,1.5,0,0,1,1.28,2.28L624.58,522A1.51,1.51,0,0,1,623.3,522.72Z"/><path class="cls-4" d="M911.75,217H871.5a1.5,1.5,0,0,1,0-3h40.25a1.5,1.5,0,0,1,0,3Z"/><path class="cls-4" d="M911.75,205.75H871.5a1.5,1.5,0,0,1,0-3h40.25a1.5,1.5,0,0,1,0,3Z"/><path class="cls-4" d="M910.5,194.5H870.25a1.5,1.5,0,0,1,0-3H910.5a1.5,1.5,0,0,1,0,3Z"/><path class="cls-1" d="M607.32,717a12.13,12.13,0,1,1,12.13-12.13A12.14,12.14,0,0,1,607.32,717Zm0-21.26a9.13,9.13,0,1,0,9.13,9.13A9.15,9.15,0,0,0,607.32,695.75Z"/><path class="cls-1" d="M626.49,721.9a1.45,1.45,0,0,1-1-.35l-10.8-9a1.5,1.5,0,0,1,1.92-2.3l10.79,9a1.49,1.49,0,0,1,.2,2.11A1.54,1.54,0,0,1,626.49,721.9Z"/></g></svg>