<svg id="Capa_1" data-name="Capa 1" xmlns="http://www.w3.org/2000/svg" viewBox="0 0 1072 1072"><defs><style>.cls-1{fill:#65d45c;}.cls-2{fill:#044348;}.cls-3{fill:#fff;}.cls-4{fill:#f1eeec;}.cls-5{fill:#0d2823;}.cls-6{fill:#d6f2ff;}</style></defs><title>ILUSTRACIONES GAIA-18-01</title><g id="Capa_20" data-name="Capa 20"><rect class="cls-1" x="138" y="513" width="185.39" height="397.05" rx="23.06" ry="23.06"/><rect class="cls-2" x="172" y="587.72" width="117.4" height="122.19" rx="6.89" ry="6.89"/><rect class="cls-3" x="182.27" y="632.85" width="96.85" height="30.48"/><rect class="cls-3" x="182.27" y="670.36" width="96.85" height="30.48"/><path class="cls-3" d="M242.37,738.69,209.11,780.6a1,1,0,0,0,0,1.41,1,1,0,0,0,.74.28H226.4a1,1,0,0,1,1,1,1,1,0,0,1-.06.33l-12,41.71a1,1,0,0,0,1.7,1l37-45.27a1,1,0,0,0-.76-1.7H235.51a1,1,0,0,1-1-1,.91.91,0,0,1,0-.33l9.55-38.46a1,1,0,0,0-1.69-.92Z"/><path class="cls-1" d="M227.84,394c-31.13,31.12,0,59.25,0,59.25S259,425.12,227.84,394Z"/><path class="cls-1" d="M282,430.77c-41.87,13.46-27,52.71-27,52.71S295.5,472.68,282,430.77Z"/><path class="cls-1" d="M173.64,430.77c41.91,13.46,27.08,52.71,27.08,52.71S160.18,472.68,173.64,430.77Z"/><path class="cls-1" d="M406,825.83a1.5,1.5,0,0,1-1.5-1.5V703.77a13.28,13.28,0,0,0-13.27-13.27h-52.9a1.5,1.5,0,1,1,0-3h52.9a16.29,16.29,0,0,1,16.27,16.27V824.33A1.5,1.5,0,0,1,406,825.83Z"/><path class="cls-1" d="M403,861.5h-9.41a15.76,15.76,0,0,1-15.76-15.76V733.18a13.28,13.28,0,0,0-13.27-13.27H338.33a1.5,1.5,0,0,1,0-3h26.23a16.29,16.29,0,0,1,16.27,16.27V845.74a12.75,12.75,0,0,0,12.74,12.76H403a1.5,1.5,0,0,1,0,3Z"/><path class="cls-1" d="M396.67,889.5H368.89a15.77,15.77,0,0,1-15.74-15.76V755.67a6.51,6.51,0,0,0-6.5-6.5h-8.32a1.5,1.5,0,0,1,0-3h8.32a9.51,9.51,0,0,1,9.5,9.5V873.74a12.76,12.76,0,0,0,12.74,12.76h27.78a1.5,1.5,0,1,1,0,3Z"/><circle class="cls-1" cx="340.17" cy="689.17" r="5.17"/><circle class="cls-1" cx="340.17" cy="718.41" r="5.17"/><circle class="cls-1" cx="340.17" cy="747.67" r="5.17"/><path class="cls-1" d="M605.11,828.17H515a1.5,1.5,0,0,1,0-3h90.11a14.74,14.74,0,0,0,14.72-14.73V528.33a1.5,1.5,0,0,1,3,0V810.44A17.76,17.76,0,0,1,605.11,828.17Z"/><path class="cls-1" d="M632.45,861.5H509.14a1.5,1.5,0,1,1,0-3H632.45a14.73,14.73,0,0,0,14.72-14.72V536a1.5,1.5,0,0,1,3,0V843.78A17.74,17.74,0,0,1,632.45,861.5Z"/><path class="cls-1" d="M658.78,889.5h-155a1.5,1.5,0,0,1,0-3h155a14.73,14.73,0,0,0,14.72-14.69V528.33a1.5,1.5,0,1,1,3,0V871.81a17.72,17.72,0,0,1-17.72,17.69Z"/><polygon class="cls-4" points="449.33 270 420.33 279.17 422 317.14 446.25 314.83 455.63 316 505.75 259.5 503.63 234.16 498.67 234.16 488.74 242.58 485.67 240.59 477.13 247.67 470.22 260.19 468.19 267.91 454.95 283.07 449.33 270"/><path class="cls-5" d="M455,284.57a1.5,1.5,0,0,1-1.13-2.49l13.26-15.18a41.23,41.23,0,0,1,10.57-22.15c4.19-4.62,7.48-6.39,10-5.4,2.22.86,2.81,3.42,2.81,4.65,0,1.79-3,5.18-5.84,8,2.14,3.9,3.52,11.16-3.74,16.76a1.5,1.5,0,0,1-1.84-2.38c7.73-5.95,2.66-13.43,2.44-13.75a1.51,1.51,0,0,1,.19-1.94c2.58-2.48,5.49-5.74,5.79-6.74,0-.56-.32-1.56-.89-1.78-.31-.12-2.12-.47-6.75,4.63a38.3,38.3,0,0,0-9.87,21,1.59,1.59,0,0,1-.36.79l-13.55,15.52A1.49,1.49,0,0,1,455,284.57Z"/><path class="cls-5" d="M455.63,317.5a1.5,1.5,0,0,1-1.12-2.5l50.12-56.5a1.5,1.5,0,1,1,2.24,2L456.75,317A1.5,1.5,0,0,1,455.63,317.5Z"/><path class="cls-5" d="M497.58,260.33a1.5,1.5,0,0,1-1.05-2.58l6.17-6a1.51,1.51,0,0,1,2.1,2.16l-6.17,6A1.53,1.53,0,0,1,497.58,260.33Z"/><path class="cls-5" d="M493.58,256.08a1.5,1.5,0,0,1-1-2.59l10.18-9.58a1.5,1.5,0,0,1,2.06,2.18l-10.18,9.58A1.51,1.51,0,0,1,493.58,256.08Z"/><path class="cls-5" d="M489.75,251.75a1.5,1.5,0,0,1-1-2.58l14.4-13.84a1.5,1.5,0,0,1,2.08,2.16l-14.4,13.84A1.5,1.5,0,0,1,489.75,251.75Z"/><path class="cls-5" d="M489,244.83a1.48,1.48,0,0,1-.95-.34,1.5,1.5,0,0,1-.21-2.11c5.14-6.24,9.53-9.5,13.07-9.71a4.12,4.12,0,0,1,3.13.92L502,235.75a.3.3,0,0,0,.08.07s-3.36-1.88-11.88,8.46A1.51,1.51,0,0,1,489,244.83Z"/><path class="cls-6" d="M789.33,247.13a142.79,142.79,0,1,0-230.6,112.6s34.51,43.49,37.56,71h97s15.47-45.26,41-71h0A142.51,142.51,0,0,0,789.33,247.13Z"/><path class="cls-3" d="M608,475h74s0,44.32-37,44.32C604.33,519.32,608,475,608,475Z"/><path class="cls-5" d="M695.1,426.46l-2.86-.92c4.06-12.73,13.85-29.66,29.11-50.31C732.68,359.9,743,348.13,743.07,348l.08-.08a140.44,140.44,0,1,0-200.65-4.36c1.82,1.8,45.87,45.4,55.24,82.06l-2.9.74c-9.17-35.84-54-80.26-54.49-80.7A143.44,143.44,0,1,1,745.29,350C743.86,351.68,704.43,397.16,695.1,426.46Z"/><rect class="cls-5" x="606" y="429.27" width="78.33" height="3"/><path class="cls-5" d="M683.5,476.5h-77V475c0-22.07-10.08-43.37-10.18-43.58l2.7-1.3c.42.88,10,21.21,10.47,43.38h71v-.17c.33-22.46,11.06-42.44,11.51-43.28l2.64,1.44c-.11.2-10.83,20.18-11.15,41.86Z"/><path class="cls-5" d="M643.36,520.88c-4.19,0-14.92-.87-23.83-9-8.65-7.9-13-20.3-13-36.87h3c0,15.69,4,27.35,12,34.65,10.13,9.25,23.19,8.19,23.31,8.18h.22c.13,0,13.54.58,23.71-9.06C676.56,501.37,680.5,490,680.5,475h3c0,15.89-4.27,28-12.68,36-10.74,10.17-24.33,9.92-25.79,9.86C644.79,520.84,644.21,520.88,643.36,520.88Z"/><path class="cls-5" d="M622.5,430.86c-3.87-57.42-9-101-15.55-132.59-8.55,2.94-15.85.51-21.36-3.17-9-6-17-18.05-21.9-33-4.48-13.74-5-26.47-1.42-32.45,1.58-2.62,5.43-6.36,13.45-2,14.35,7.85,25.16,28.57,33.45,66.32,5.86-2.93,11.77-8.4,17.62-16.39a200.92,200.92,0,0,0,17-27.4l-.24-.75c-8.79-27.27-21.56-75.72-8.35-93.85,3.56-4.88,7.65-5.61,9.78-5.61,4.41,0,8.65,3.59,12,10.1,6.93,13.68,11.59,47.45-9.91,90.33,10.41,31.27,23.07,41.47,34,43.09,9.16-41.16,22.14-63.32,38.71-66,6.87-1.1,11.39,1.72,12.72,7.95,3.46,16.25-17.08,54-41.08,60.35a27.66,27.66,0,0,1-8,1q-3.51,16.25-6.23,36.28c-6.61,48.79-7.2,97.24-7.2,97.73l-3,0c0-.48.6-49.1,7.23-98.07q2.7-20,6.17-36.18c-11.51-1.76-24.59-12-35.26-42.37a206.31,206.31,0,0,1-15.93,25.26c-6.9,9.41-13.41,14.89-19.38,17.71,6.74,32,11.77,75.73,15.67,133.56ZM569,228.68a4.63,4.63,0,0,0-4.21,2.54c-6.44,10.67,3.77,49,22.43,61.39,6.14,4.09,12.54,4.94,19,2.61q-1.38-6.35-2.84-12c-7.55-29.32-16.82-46.13-29.19-52.88A11.17,11.17,0,0,0,569,228.68Zm115.05,65.09a24.65,24.65,0,0,0,6.53-.85c10.18-2.71,20.8-11.87,29.13-25.13,7.4-11.75,11.33-24.49,9.8-31.69-1-4.63-4-6.46-9.31-5.62C705.2,232.92,692.9,254.6,684.09,293.77ZM645,153c-1.56,0-4.58.57-7.35,4.37-5.27,7.24-11.15,28.4,8.08,89,19.44-40.46,15.09-72,8.55-84.89C651.55,156.08,648.17,153,645,153Z"/><path class="cls-5" d="M403,928.5l-.29,0a1.49,1.49,0,0,1-1.18-1.76l112-578a1.5,1.5,0,1,1,2.94.58l-112,578A1.5,1.5,0,0,1,403,928.5Z"/><path class="cls-5" d="M484.29,928.5l-.29,0a1.49,1.49,0,0,1-1.18-1.76l112-578a1.5,1.5,0,0,1,2.94.58l-112,578A1.5,1.5,0,0,1,484.29,928.5Z"/><path class="cls-5" d="M588.88,388.72H507.59a1.5,1.5,0,1,1,0-3h81.29a1.5,1.5,0,0,1,0,3Z"/><path class="cls-5" d="M577.63,447H496.35a1.5,1.5,0,0,1,0-3h81.28a1.5,1.5,0,0,1,0,3Z"/><path class="cls-5" d="M566.25,505.35h-81a1.5,1.5,0,0,1,0-3h81a1.5,1.5,0,0,1,0,3Z"/><path class="cls-5" d="M555.07,563.66H473.78a1.5,1.5,0,0,1,0-3h81.29a1.5,1.5,0,0,1,0,3Z"/><path class="cls-5" d="M543.39,622H463.17a1.5,1.5,0,0,1,0-3h80.22a1.5,1.5,0,0,1,0,3Z"/><path class="cls-5" d="M531.92,680.29H451.1a1.5,1.5,0,1,1,0-3h80.82a1.5,1.5,0,1,1,0,3Z"/><path class="cls-5" d="M519.5,738.61H440.25a1.5,1.5,0,0,1,0-3H519.5a1.5,1.5,0,0,1,0,3Z"/><path class="cls-5" d="M509.14,796.92h-81a1.5,1.5,0,1,1,0-3h81a1.5,1.5,0,0,1,0,3Z"/><path class="cls-5" d="M498.48,855.24H417.2a1.5,1.5,0,0,1,0-3h81.28a1.5,1.5,0,0,1,0,3Z"/><path class="cls-3" d="M397.33,440.33s53.79,9.05,88.34-20.33c0,0,31.85,45.4,35.26,110.7s-9.26,124-9.26,124H466.33s13.83-105.35-7.92-157.51c0,0-53.74,144.84-60.41,148.84l-39.2-22.84S409,537.33,397.33,440.33Z"/><path class="cls-4" d="M480.69,311.64s44.18-37.23,52.49-59.6L542,231.55l3,1.52L546.19,245l12.08-6.26h3.67l-.52,3.76v4.33l-1.79,6.94-.08,4.35-1.1,3.71.22,3.95L556,271.09l-11,6.5s-24.63,50.91-52.67,60.74Z"/><path class="cls-5" d="M440.33,312.5a1.5,1.5,0,0,1-.68-2.84c7.66-3.91,12.33-9.14,13.89-15.53,2.81-11.51-5.35-23.14-5.43-23.26a1.5,1.5,0,0,1,2.44-1.74c.37.52,9,12.88,5.9,25.71-1.77,7.28-7,13.16-15.44,17.5A1.51,1.51,0,0,1,440.33,312.5Z"/><path class="cls-5" d="M422,317.5a1.5,1.5,0,0,1-1.5-1.5V305.67a1.5,1.5,0,0,1,3,0V316A1.5,1.5,0,0,1,422,317.5Z"/><path class="cls-5" d="M434.33,292h-.15c-4.84-.48-6.91-4.82-7.32-7a1.5,1.5,0,1,1,2.94-.56c0,.19.89,4.24,4.68,4.62a1.5,1.5,0,0,1-.15,3Z"/><ellipse class="cls-5" cx="449.91" cy="284.21" rx="1.93" ry="3.38"/><path class="cls-5" d="M446.25,317.5a1.5,1.5,0,0,1-1.5-1.5v-8.71a1.5,1.5,0,1,1,3,0V316A1.5,1.5,0,0,1,446.25,317.5Z"/><path class="cls-2" d="M437,282.25s12-5.72,13.82-12.81c.53-2.07-11.57-17.69-30.57-9.94,0,0-6.25-13.5-26.5-5.75s-20.75-5.5-35.5-7.5c-15.86-2.15-38.75,2-36.5,32.75s40.75,18,43.75,16.5,8.68-6,21.21-4.36,18.54-10.31,18.54-10.31-1,18,16.75,26.46c0,0,9.43-6.67,11.68-11.67,0,0-12.95-3-9.68-11.41S435.75,281.25,437,282.25Z"/><path class="cls-5" d="M480.69,313.14a1.5,1.5,0,0,1-.91-2.69c.44-.34,44.42-34.37,54.8-65.92,4-12.18,6.54-14.11,8.3-14.43a2.8,2.8,0,0,1,2.77,1.13c2.39,3,2.2,11.6.73,15.12a1.5,1.5,0,1,1-2.76-1.16c1.45-3.48.84-10.92-.3-12.09-.48.28-2.49,2-5.9,12.37-4.48,13.65-15.25,29.14-32,46a262.41,262.41,0,0,1-23.82,21.32A1.47,1.47,0,0,1,480.69,313.14Z"/><path class="cls-5" d="M546.25,254.36a1.5,1.5,0,0,1-.66-2.85c10.18-5,14.95-10.31,14.86-11.6-1.54-.4-8.27,2.86-14.62,7.11a1.5,1.5,0,0,1-1.66-2.5c5.54-3.71,15.3-9.54,18.28-6.87a3,3,0,0,1,1,2.72c-.58,4.23-9,10.14-16.5,13.84A1.55,1.55,0,0,1,546.25,254.36Z"/><path class="cls-5" d="M547,262.25a1.5,1.5,0,0,1-.54-2.9c3.27-1.27,12.06-5.62,13.44-10.51a5,5,0,0,0-1.09-4.6,1.5,1.5,0,0,1,2.38-1.82,7.92,7.92,0,0,1,1.59,7.24c-2.07,7.33-14.7,12.28-15.24,12.49A1.47,1.47,0,0,1,547,262.25Z"/><path class="cls-5" d="M548.24,269.05a1.5,1.5,0,0,1-.51-2.91c.08,0,7.94-2.95,10.1-7.85a6,6,0,0,0,0-4.89,1.5,1.5,0,1,1,2.78-1.14,9,9,0,0,1,0,7.25c-2.7,6.07-11.46,9.31-11.83,9.45A1.52,1.52,0,0,1,548.24,269.05Z"/><path class="cls-5" d="M493.58,338.75a1.5,1.5,0,0,1-.71-2.82c33.73-18,51-59.55,51.2-60a1.52,1.52,0,0,1,1.1-.9c.08,0,8.06-1.65,11-6.63a8.5,8.5,0,0,0,.52-7.22,1.5,1.5,0,0,1,2.86-.92,11.45,11.45,0,0,1-.81,9.67c-3,5.16-9.87,7.27-12.2,7.86-2.51,5.7-20.08,43.55-52.25,60.75A1.53,1.53,0,0,1,493.58,338.75Z"/><path class="cls-1" d="M473.33,356s3.67,45,12.34,64c0,0-30.34,30.67-88.34,20.33,0,0-42-141.33,58.3-124.33C455.63,316,453,344.33,473.33,356Z"/><path class="cls-5" d="M398,647.5a1.6,1.6,0,0,1-.76-.2L358,624.45a1.51,1.51,0,0,1-.56-2C358,621.5,408,527,395.84,440.53a1.53,1.53,0,0,1,.48-1.32,1.51,1.51,0,0,1,1.35-.35c.41.09,41,9.27,76.66-11.83a1.5,1.5,0,1,1,1.52,2.58c-32,18.94-67.8,14.19-76.75,12.59,5.8,45.09-4.89,91.66-15,123a403,403,0,0,1-23.33,57.38l36.55,21.31c6.52-13.94,56.53-121.64,58.06-151.59a1.5,1.5,0,0,1,3,.16c-.7,13.67-10.86,43.79-30.19,89.52-14.36,34-28.71,64.37-28.85,64.67a1.48,1.48,0,0,1-.92.79A1.31,1.31,0,0,1,398,647.5Z"/><path class="cls-5" d="M511.67,656.17H466.33a1.5,1.5,0,0,1-1.48-1.74,445.92,445.92,0,0,0,4.23-72.59c-.82-37.28-7-89.76-31.86-128.13a1.5,1.5,0,0,1,2.52-1.64c13.93,21.52,30.84,61.49,32.34,129.76a458.57,458.57,0,0,1-4,71.34h42.37c9.43-47.62,16.86-116.6-.52-177.23-10.47-36.53-25.21-52.88-25.35-53a1.5,1.5,0,0,1,2.2-2c.62.68,15.28,16.89,26,54,17.79,61.78,10,132,.41,180.1A1.5,1.5,0,0,1,511.67,656.17Z"/><path class="cls-6" d="M455.63,316l20.07-7.48a3.84,3.84,0,0,1,4.82,1.94L494.2,339a4.52,4.52,0,0,1-1.79,5.86L473.33,356S454,347.5,455.63,316Z"/><path class="cls-5" d="M360.65,624.24,347,648.08l53.58,29.39a1.18,1.18,0,0,0,1.71-1.34l-8.74-32.72Z"/><path class="cls-5" d="M469.5,654.67l-1.25,24.12h58.86a.66.66,0,0,0,.52-1.08l-18.49-23Z"/><path class="cls-3" d="M390.21,404.18l1.41,10.19s53,9.59,86.77-20.58l-1.58-9.45S440.38,414.33,390.21,404.18Z"/><path class="cls-3" d="M392.8,421s53.65,8.85,87.11-19.75l2.72,10.51s-33.06,27-87.75,19Z"/><path class="cls-5" d="M397.33,441.83a1.49,1.49,0,0,1-1.45-1.14c-13.18-52.61-11.32-89.79,5.54-110.5,13.21-16.24,30.65-15.72,31.39-15.69a1.5,1.5,0,1,1-.12,3,38.59,38.59,0,0,0-29,14.64c-11.13,13.72-21,43.56-4.91,107.83a1.51,1.51,0,0,1-1.1,1.82A1.47,1.47,0,0,1,397.33,441.83Z"/><path class="cls-5" d="M473.38,357.5a1.54,1.54,0,0,1-.74-.19c-18.7-10.56-19.13-32.37-19.14-33.29A1.5,1.5,0,0,1,455,322.5h0a1.5,1.5,0,0,1,1.5,1.48c0,.21.45,21,17.62,30.71a1.5,1.5,0,0,1-.74,2.81Z"/><path class="cls-2" d="M787.16,422.2V339.63a41.18,41.18,0,0,0,27.88-39A38.88,38.88,0,0,0,801.62,271c-4.83-4.35-12.64-4.2-16.06,1.32h0a10.06,10.06,0,0,0,2,12.86A20.65,20.65,0,1,1,758.41,287a20.88,20.88,0,0,1,1.76-1.76,10.11,10.11,0,0,0,2.05-12.91l-.27-.44c-3.24-5.21-10.5-5.57-15.13-1.55a39.51,39.51,0,0,0-14,33.06,41.35,41.35,0,0,0,27.8,36.23v82.59a41.35,41.35,0,0,0-27.8,36.24,39.5,39.5,0,0,0,14,33.05c4.63,4,11.89,3.66,15.13-1.55l.27-.44a10.09,10.09,0,0,0-2.05-12.9,20.67,20.67,0,1,1,29.18-1.77,18.48,18.48,0,0,1-1.77,1.77,10.06,10.06,0,0,0-2,12.86c3.42,5.53,11.23,5.67,16.06,1.32A38.84,38.84,0,0,0,815,461.17,41.21,41.21,0,0,0,787.16,422.2Z"/><path class="cls-1" d="M800.37,553.83l18.08-1.66.88,14.49s5,7.84,14.17,7.09,13.32-6.71,12.74-14.23A35.93,35.93,0,0,0,842,545.75l12.28-1.92L972,906.5H910.37L852.24,725.17,835.33,906.5H778Z"/><path class="cls-6" d="M869.33,587.75,894,532.66a2.32,2.32,0,0,0-1.16-3.07h-.05L850,511.21a1.44,1.44,0,0,0-1.9.74h0a1.33,1.33,0,0,0-.1.34l-6,33.46,13.83-1.92Z"/><path class="cls-4" d="M770.41,360.5H759.33l-3.51,5.94L756.5,386l3,3.9,2.07-2.8,11.38-.64,3.28-2.92-.94-3.69.8-3.69-.91-2.94.26-5.35,11.67,8.67-.26,24.25s31.57,17.63,43,40.72S852,487,850,511.5l43.58,19s3.09-41.33-13.75-74.17-37.06-66.84-99.32-95.83l-8.26-2Z"/><path class="cls-4" d="M767.36,585.65,786.9,612s-13.81,24.41-32.9,17.29-70.58-62.88-70.58-62.88L675,564l-4.46-7.33,2.08-4.79,3.38-4.76,9-7.41,3.31-.88,3.44-2.83,64.07,60.88Z"/><path class="cls-4" d="M818.45,550.69l.88,17.21s8.25,7.31,14.17,5.85,13.21-2.88,12.86-14.23L842,542.17Z"/><path class="cls-6" d="M800.37,553.83l-33.64,27.68a2.08,2.08,0,0,0-.35,2.83l21.08,28.41a2.44,2.44,0,0,0,3.31.58l7.56-5Z"/><path class="cls-5" d="M760,391.67a1.51,1.51,0,0,1-.86-.27c-.45-.32-4.4-3.2-4.38-7,0-2,1.12-3.82,3.3-5.32,4.18-2.87,12.42-2.42,16.71-.12,2.44,1.31,2.94,2.87,2.92,3.94a4.57,4.57,0,0,1-1.31,3.45c-1.94,1.87-6.21,2.51-14.76,2.21a1.5,1.5,0,0,1-1.45-1.55,1.49,1.49,0,0,1,1.55-1.45c7.15.26,11.38-.21,12.58-1.37.25-.23.39-.53.39-1.31,0-.28-.41-.78-1.34-1.27-3.38-1.82-10.46-2.2-13.59-.05-1.32.9-2,1.86-2,2.85,0,1.9,2.24,3.92,3.1,4.53a1.5,1.5,0,0,1,.36,2.09A1.47,1.47,0,0,1,760,391.67Z"/><path class="cls-5" d="M757.37,381.82a1.46,1.46,0,0,1-.78-.22,5.13,5.13,0,0,1-2.14-3.18c-.42-1.9.15-4,1.67-6.3,2.87-4.3,13.13-3.76,18.42-.24,3.43,2.29,4.21,5.56,2.08,8.76a1.5,1.5,0,0,1-2.5-1.66c.81-1.22,1.4-2.84-1.25-4.61-4.17-2.77-12.56-3.12-14.25-.59-1,1.56-1.47,2.94-1.24,4a2.26,2.26,0,0,0,.77,1.27,1.5,1.5,0,0,1-.78,2.78Z"/><path class="cls-5" d="M775.21,374.68a1.18,1.18,0,0,1-.37-.05,1.48,1.48,0,0,1-1.08-1.82,4.64,4.64,0,0,0-2.15-5.5c-3.89-2.58-10.44-2.29-12.49-.73-3,2.32-1.75,5-1.59,5.31a1.51,1.51,0,0,1-.61,2,1.48,1.48,0,0,1-2-.58c-1-1.78-1.75-6,2.4-9.13,3.47-2.64,11.53-2.33,16,.61a7.61,7.61,0,0,1,3.39,8.74A1.49,1.49,0,0,1,775.21,374.68Z"/><path class="cls-5" d="M755.82,367.94h-.11a1.51,1.51,0,0,1-1.39-1.61c0-.08.72-7.82,11.19-8.14a9.08,9.08,0,0,1,6.51,2.38,6.22,6.22,0,0,1,2,4.55,1.5,1.5,0,0,1-3,0,3.23,3.23,0,0,0-1.07-2.39,6.11,6.11,0,0,0-4.32-1.54c-7.82.24-8.29,5.31-8.29,5.36A1.5,1.5,0,0,1,755.82,367.94Z"/><path class="cls-5" d="M850,512a1.5,1.5,0,0,1-1.5-1.45c-1.28-41.65-18.16-68.93-32.1-84.49-15.09-16.82-30-23.88-30.13-23.95a1.5,1.5,0,1,1,1.26-2.72c.63.29,15.61,7.39,31.1,24.67C832.9,440,850.19,467.9,851.5,510.45a1.51,1.51,0,0,1-1.45,1.55Z"/><path class="cls-5" d="M893,531a.75.75,0,0,1-.21,0,1.5,1.5,0,0,1-1.28-1.69c0-.26,3.53-26.32-7.55-59.37-10.22-30.47-35.3-73.3-96.73-104.32l-.39-.23c-7.55-4.54-11.69-5.26-13.05-4.41a.28.28,0,0,0-.11.09c-.47,1.17,4.23,6.19,11,10.9a1.5,1.5,0,1,1-1.72,2.46c-2.91-2-12.39-9-12.3-13.37a3.15,3.15,0,0,1,1.53-2.63c2.91-1.8,8.35-.32,16.18,4.39l.24.14c62.37,31.49,87.85,75.12,98.23,106.17,11.26,33.69,7.67,60.34,7.64,60.6A1.51,1.51,0,0,1,893,531Z"/><path class="cls-5" d="M890.33,434.5a1.51,1.51,0,0,1-1.36-.86c-8.38-17.75-20.43-27-20.55-27.11a1.51,1.51,0,0,1,1.82-2.4c.51.39,12.73,9.78,21.45,28.23a1.51,1.51,0,0,1-.72,2A1.61,1.61,0,0,1,890.33,434.5Z"/><path class="cls-5" d="M902.67,463.5a1.5,1.5,0,0,1-1.47-1.21A33.63,33.63,0,0,0,897,451.44a1.5,1.5,0,0,1,2.58-1.54,36.65,36.65,0,0,1,4.52,11.81,1.5,1.5,0,0,1-1.18,1.76Z"/><path class="cls-5" d="M755,598.17a1.5,1.5,0,0,1-1-2.62l12-10.67a1.5,1.5,0,0,1,2,2.24l-12,10.67A1.52,1.52,0,0,1,755,598.17Z"/><path class="cls-5" d="M761,603.5a1.52,1.52,0,0,1-1.06-.43c-25.06-24.83-63.21-62-68.33-65.45-.87.38-1,.84-1,1-.6,2.61,4.43,8.66,8.2,12.13L700,551.9l-1.25,1.1a7.46,7.46,0,0,0-2.7,5.43c-.3,6,5.65,12.49,5.71,12.55a1.5,1.5,0,1,1-2.2,2c-.28-.3-6.87-7.48-6.51-14.73a10.23,10.23,0,0,1,2.57-6.38c-2.88-2.82-9-9.46-8-13.93a4.69,4.69,0,0,1,3.58-3.42c1.25-.37,2.15-.63,36.92,33.13,16.88,16.39,33.73,33.08,33.9,33.24A1.5,1.5,0,0,1,761,603.5Zm-69.73-66.08Z"/><path class="cls-5" d="M761.24,632.06c-6.24,0-12.57-2.65-18.87-7.91-26.1-21.8-59.78-56.35-60.12-56.69a1.51,1.51,0,1,1,2.16-2.1c.33.35,33.9,34.79,59.88,56.49,7,5.87,14,8.18,20.69,6.84,12.67-2.51,20.51-17.24,20.59-17.39a1.5,1.5,0,0,1,2.66,1.39c-.34.66-8.57,16.13-22.65,18.94A22,22,0,0,1,761.24,632.06Z"/><path class="cls-5" d="M681.41,567.9c-2.37,0-5.2-1.57-8.45-4.7-2.82-2.71-4.13-5.38-3.9-7.93a6.59,6.59,0,0,1,2.74-4.64,1.5,1.5,0,0,1,1.66,2.49,3.54,3.54,0,0,0-1.41,2.46c-.13,1.57.91,3.45,3,5.46,4.18,4,6.21,4,6.9,3.79,1-.29,1.43-1.56,1.6-2.29a1.5,1.5,0,0,1,2.92.68c-.55,2.36-1.86,3.95-3.67,4.49A4.84,4.84,0,0,1,681.41,567.9Z"/><path class="cls-5" d="M685.09,564c-2.26,0-5-1.49-8.33-4.5-3.79-3.43-5.47-6.59-5-9.37a6.32,6.32,0,0,1,3.65-4.39,1.51,1.51,0,0,1,2,.82,1.49,1.49,0,0,1-.81,2,3.32,3.32,0,0,0-1.85,2.16c-.27,1.65,1.16,4,4,6.61,4.44,4,6.37,3.8,6.85,3.64a1.89,1.89,0,0,0,1-1.3,1.5,1.5,0,0,1,3,.54,4.82,4.82,0,0,1-3,3.6A4.73,4.73,0,0,1,685.09,564Z"/><path class="cls-5" d="M689.24,560.49c-2.27,0-5.25-1.92-9.43-6-3.45-3.39-4.83-6.38-4.1-8.89.91-3.14,4.67-4,4.83-4a1.5,1.5,0,0,1,.65,2.93c-.06,0-2.21.55-2.6,1.94-.22.77-.08,2.56,3.32,5.91,5.51,5.42,7.23,5.24,7.52,5.15s.55-.37.85-1.88a1.5,1.5,0,0,1,2.94.6c-.19,1-.7,3.48-2.91,4.15A3.42,3.42,0,0,1,689.24,560.49Z"/><path class="cls-5" d="M694.5,556.88a1.63,1.63,0,0,1-.31,0c-.27-.06-6.6-1.49-12-9.79-1.74-2.69-2.09-4.91-1-6.61,1.84-3,7.23-2.51,7.84-2.44a1.5,1.5,0,1,1-.32,3h0c-1.64-.17-4.36,0-5,1-.37.6,0,1.84,1,3.41,4.68,7.26,10,8.46,10,8.47a1.5,1.5,0,0,1-.31,3Z"/><path class="cls-5" d="M798.33,609.83h-.06a1.51,1.51,0,0,1-1.44-1.56l2-53.53a1.5,1.5,0,0,1,3,.12l-2,53.53A1.5,1.5,0,0,1,798.33,609.83Z"/><path class="cls-5" d="M871,595.5a1.5,1.5,0,0,1-1.42-1l-17-51a1.5,1.5,0,1,1,2.84-.94l17,51a1.49,1.49,0,0,1-.95,1.89A1.26,1.26,0,0,1,871,595.5Z"/><path class="cls-5" d="M832.31,575.29c-6.07,0-12.49-2.64-15.21-8.22a1.5,1.5,0,0,1,2.7-1.32c2.23,4.59,9.38,8.16,17,5.92,2.71-.79,8.89-3.54,7.91-12a1.5,1.5,0,1,1,3-.34c.87,7.43-2.89,13.11-10.05,15.2A19.25,19.25,0,0,1,832.31,575.29Z"/><path class="cls-5" d="M819.33,563.83a1.5,1.5,0,0,1-1.5-1.5v-13a1.5,1.5,0,0,1,3,0v13A1.5,1.5,0,0,1,819.33,563.83Z"/><path class="cls-5" d="M844,556.3a1.52,1.52,0,0,1-1.48-1.23l-2-11a1.5,1.5,0,1,1,3-.54l2,11a1.52,1.52,0,0,1-1.21,1.75Z"/><path class="cls-5" d="M854,600H815.5a1.5,1.5,0,0,1,0-3H854a1.5,1.5,0,0,1,0,3Z"/><path class="cls-5" d="M834.73,626.22c-14.36,0-21.24-10.48-21.56-20.34a1.5,1.5,0,0,1,3-.1c.39,12.22,10.18,17.56,19.08,17.43,9.16-.17,19-6.06,18.92-18.56v-.56l.48-.57a1.5,1.5,0,0,1,2.52,1.57c-.16,13.6-11.06,20.91-21.87,21.12Z"/><path class="cls-5" d="M809.68,531l-.3,0-6.19-1.26a3,3,0,0,1-1-.43,2.83,2.83,0,0,1-.76-3.9l8.36-11.88a1.5,1.5,0,0,1,2.46,1.72l-8.18,11.62L810,528a1.5,1.5,0,0,1-.3,3Z"/><path class="cls-5" d="M833.5,531a1.5,1.5,0,0,1-.51-2.91c4.08-1.48,3.76-4.19,3.7-4.49a1.51,1.51,0,0,1,1.21-1.73,1.49,1.49,0,0,1,1.74,1.17c.37,1.88-.32,5.94-5.63,7.87A1.52,1.52,0,0,1,833.5,531Z"/><ellipse class="cls-5" cx="815.67" cy="522.39" rx="1.67" ry="2.95"/><path class="cls-5" d="M755.11,648.16a24.55,24.55,0,0,1-12.89-3.57,22.89,22.89,0,0,1-6.45-5.73,1.5,1.5,0,0,1,2.46-1.72c.32.45,7.68,10.62,22.45,7.39a1.5,1.5,0,0,1,.64,2.94A29.35,29.35,0,0,1,755.11,648.16Z"/><path class="cls-5" d="M910.37,908a1.5,1.5,0,0,1-1.43-1L836.78,679.24a1.5,1.5,0,1,1,2.86-.9L911.8,906.05a1.5,1.5,0,0,1-1,1.88A1.41,1.41,0,0,1,910.37,908Z"/><path class="cls-5" d="M835.33,907.15h-.14a1.49,1.49,0,0,1-1.35-1.63l16.91-182.57a1.5,1.5,0,1,1,3,.28L836.82,905.79A1.49,1.49,0,0,1,835.33,907.15Z"/><path class="cls-5" d="M828,906.5V943H760.13a.93.93,0,0,1-.51-1.71L785,924.75V906.5Z"/><path class="cls-5" d="M918.7,906.5V943h67.87a.93.93,0,0,0,.51-1.71L961.7,924.75V906.5Z"/><path class="cls-2" d="M829.77,524.22a.37.37,0,0,0,.51.12h0a.34.34,0,0,0,.12-.12c.84-1.57,3.57-5.83,7.81-4.76,5.17,1.31,5.54,9.94-.83,13.44a6.54,6.54,0,0,1-7-.07,21.59,21.59,0,0,0-12.06-3.14l-14.47.27s3.07,23.06,21.57,20.56,31-16.89,22.24-42.12c-7.79-22.55-39-16.42-43-14.15-6.92,4-2.92,20.15,8.71,21.15,0,0,5.36.72,8.8,1.21a6.26,6.26,0,0,1,4.32,2.72Z"/></g></svg>