<svg xmlns="http://www.w3.org/2000/svg" width="275" height="272" fill="none" viewBox="0 0 275 272">
  <g class="Capa 20">
    <path fill="#65D45C" d="M52.935 132.578H7.984a7.443 7.443 0 0 0-7.443 7.443v113.267a7.443 7.443 0 0 0 7.443 7.442h44.95a7.443 7.443 0 0 0 7.444-7.442V140.021a7.443 7.443 0 0 0-7.443-7.443Z" class="Vector"/>
    <path fill="#044348" d="M47.183 156.693H13.739a2.224 2.224 0 0 0-2.224 2.224v34.991c0 1.228.995 2.224 2.223 2.224h33.445a2.224 2.224 0 0 0 2.224-2.224v-34.991a2.224 2.224 0 0 0-2.224-2.224Z" class="Vector"/>
    <path fill="#fff" d="M46.09 171.26H14.83v9.838h31.26v-9.838Zm0 12.107H14.83v9.838h31.26v-9.838ZM34.227 205.42l-10.735 13.527a.325.325 0 0 0 0 .455.309.309 0 0 0 .11.07.315.315 0 0 0 .13.021h5.34c.086 0 .169.034.23.094a.325.325 0 0 1 .074.335l-3.873 13.462a.322.322 0 0 0 .549.323l11.942-14.611a.322.322 0 0 0-.245-.549h-5.736a.324.324 0 0 1-.323-.323.29.29 0 0 1 0-.106l3.083-12.414a.322.322 0 0 0-.546-.296v.012Z" class="Vector"/>
    <path fill="#65D45C" d="M29.538 94.168c-10.048 10.044 0 19.124 0 19.124s10.057-9.08 0-19.124Zm17.481 11.869c-13.514 4.344-8.715 17.013-8.715 17.013s13.072-3.486 8.715-17.013Zm-34.975 0c13.527 4.344 8.74 17.013 8.74 17.013s-13.084-3.486-8.74-17.013Zm74.997 127.509a.483.483 0 0 1-.484-.484V194.15a4.287 4.287 0 0 0-4.283-4.283H65.2a.484.484 0 1 1 0-.969h17.074a5.26 5.26 0 0 1 5.251 5.252v38.912a.484.484 0 0 1-.484.484Z" class="Vector"/>
    <path fill="#65D45C" d="M86.073 245.059h-3.037a5.087 5.087 0 0 1-5.087-5.087v-36.33a4.286 4.286 0 0 0-4.283-4.283H65.2a.484.484 0 1 1 0-.968h8.466a5.257 5.257 0 0 1 5.251 5.251v36.33a4.116 4.116 0 0 0 4.112 4.118h3.044a.484.484 0 1 1 0 .969Z" class="Vector"/>
    <path fill="#65D45C" d="M84.03 254.097h-8.966a5.086 5.086 0 0 1-5.08-5.086v-38.109a2.1 2.1 0 0 0-2.099-2.098H65.2a.484.484 0 1 1 0-.968h2.685a3.07 3.07 0 0 1 3.067 3.066v38.109a4.116 4.116 0 0 0 4.112 4.118h8.966a.483.483 0 1 1 0 .968Zm-18.236-62.99a1.669 1.669 0 1 0 0-3.337 1.669 1.669 0 0 0 0 3.337Zm0 9.437a1.668 1.668 0 1 0 0-3.337 1.668 1.668 0 0 0 0 3.337Z" class="Vector"/>
    <path fill="#65D45C" d="M65.794 209.988a1.669 1.669 0 1 0 0-3.337 1.669 1.669 0 0 0 0 3.337Zm85.512 24.314h-29.084a.484.484 0 0 1 0-.968h29.084a4.76 4.76 0 0 0 4.751-4.755v-91.054a.484.484 0 0 1 .969 0v91.054a5.735 5.735 0 0 1-5.72 5.723Z" class="Vector"/>
    <path fill="#65D45C" d="M160.131 245.059h-39.8a.484.484 0 1 1 0-.969h39.8a4.754 4.754 0 0 0 4.751-4.751V140c0-.129.051-.252.141-.343a.488.488 0 0 1 .685 0 .484.484 0 0 1 .142.343v99.339a5.726 5.726 0 0 1-5.719 5.72Z" class="Vector"/>
    <path fill="#65D45C" d="M168.628 254.097H118.6a.484.484 0 0 1 0-.968h50.028a4.754 4.754 0 0 0 4.751-4.742V137.525a.484.484 0 0 1 .969 0v110.862a5.723 5.723 0 0 1-5.72 5.71Z" class="Vector"/>
    <path fill="#F1EEEC" d="m101.026 54.146-9.36 2.96.539 12.255 7.827-.746 3.027.378 16.177-18.236-.684-8.179h-1.601l-3.205 2.718-.991-.642-2.756 2.285-2.23 4.04-.656 2.492-4.273 4.893-1.814-4.218Z" class="Vector"/>
    <path fill="#0D2823" d="M102.856 58.849a.487.487 0 0 1-.48-.555.484.484 0 0 1 .116-.249l4.279-4.9a13.304 13.304 0 0 1 3.412-7.148c1.352-1.492 2.414-2.063 3.228-1.743.716.277.906 1.104.906 1.5 0 .578-.968 1.672-1.884 2.583.69 1.258 1.136 3.602-1.208 5.41a.483.483 0 0 1-.681-.088.49.49 0 0 1 .088-.681c2.495-1.92.858-4.335.787-4.438a.491.491 0 0 1 .061-.626c.833-.8 1.772-1.853 1.869-2.175 0-.181-.103-.504-.287-.575-.1-.039-.684-.152-2.179 1.494a12.36 12.36 0 0 0-3.185 6.778.517.517 0 0 1-.117.255l-4.373 5.01a.479.479 0 0 1-.352.148Zm.204 10.629a.486.486 0 0 1-.362-.807l16.177-18.236a.486.486 0 0 1 .846.296.485.485 0 0 1-.123.35l-16.177 18.236a.48.48 0 0 1-.361.161Zm13.539-18.453a.487.487 0 0 1-.451-.302.488.488 0 0 1 .112-.53l1.992-1.937a.487.487 0 0 1 .678.697l-1.992 1.936a.492.492 0 0 1-.339.136Zm-1.291-1.372a.485.485 0 0 1-.322-.836l3.285-3.092a.486.486 0 0 1 .809.367.483.483 0 0 1-.144.337l-3.285 3.092a.49.49 0 0 1-.343.132Z" class="Vector"/>
    <path fill="#0D2823" d="M114.073 48.255a.483.483 0 0 1-.323-.832l4.648-4.467a.482.482 0 0 1 .674.022.483.483 0 0 1-.003.675l-4.648 4.467a.488.488 0 0 1-.348.135Zm-.242-2.233a.487.487 0 0 1-.375-.79c1.659-2.014 3.076-3.067 4.219-3.134a1.327 1.327 0 0 1 1.01.297l-.659.697a.109.109 0 0 0 .026.022s-1.084-.606-3.834 2.73a.487.487 0 0 1-.387.178Z" class="Vector"/>
    <path fill="#D6F2FF" d="M210.765 46.764a46.092 46.092 0 0 0-21.674-39.089 46.085 46.085 0 0 0-66.822 57.13 46.077 46.077 0 0 0 14.067 18.302s11.139 14.037 12.123 22.916h31.308S184.76 91.415 193 83.107a45.999 45.999 0 0 0 17.765-36.343Z" class="Vector"/>
    <path fill="#fff" d="M152.239 120.312h23.884s0 14.305-11.942 14.305c-13.127 0-11.942-14.305-11.942-14.305Z" class="Vector"/>
    <path fill="#0D2823" d="m180.351 104.645-.923-.296c1.311-4.109 4.47-9.574 9.396-16.239 3.657-4.948 6.988-8.746 7.01-8.788l.026-.026A45.327 45.327 0 0 0 165.153 1.57a45.33 45.33 0 0 0-34.055 76.319c.587.58 14.805 14.653 17.829 26.485l-.936.239c-2.959-11.568-17.429-25.905-17.587-26.047A46.298 46.298 0 0 1 165.143.598a46.295 46.295 0 0 1 44.304 55.92 46.302 46.302 0 0 1-12.896 23.45c-.462.541-13.188 15.22-16.2 24.677Zm-3.475.908h-25.282v.968h25.282v-.968Z" class="Vector"/>
    <path fill="#0D2823" d="M176.607 120.797h-24.853v-.484c0-7.124-3.253-13.998-3.285-14.066l.871-.42c.136.284 3.228 6.846 3.38 14.002h22.916v-.055c.106-7.249 3.569-13.698 3.715-13.969l.852.464c-.036.065-3.496 6.514-3.599 13.511l.003 1.017Z" class="Vector"/>
    <path fill="#0D2823" d="M163.652 135.121c-1.352 0-4.816-.281-7.691-2.905-2.792-2.55-4.196-6.552-4.196-11.9h.968c0 5.064 1.291 8.827 3.873 11.183 3.27 2.986 7.485 2.644 7.524 2.641h.071c.042 0 4.37.187 7.652-2.925 2.515-2.391 3.786-6.061 3.786-10.903h.969c0 5.129-1.379 9.038-4.093 11.62-3.466 3.282-7.853 3.202-8.324 3.182-.078-.006-.265.007-.539.007Zm-6.733-29.056c-1.249-18.533-2.905-32.6-5.019-42.795-2.759.949-5.116.164-6.894-1.023-2.905-1.937-5.487-5.826-7.068-10.651-1.446-4.435-1.614-8.544-.459-10.474.51-.846 1.753-2.053 4.341-.646 4.632 2.534 8.121 9.222 10.797 21.406 1.891-.946 3.799-2.711 5.687-5.29a64.836 64.836 0 0 0 5.487-8.844l-.078-.242c-2.837-8.802-6.958-24.44-2.695-30.291 1.149-1.575 2.469-1.81 3.157-1.81 1.423 0 2.792 1.158 3.873 3.26 2.237 4.415 3.741 15.314-3.199 29.154 3.36 10.093 7.447 13.385 10.974 13.908 2.957-13.285 7.146-20.437 12.494-21.302 2.218-.355 3.677.555 4.106 2.566 1.117 5.245-5.513 17.429-13.259 19.478-.84.233-1.71.342-2.582.323-.755 3.497-1.426 7.4-2.011 11.71-2.133 15.747-2.324 31.385-2.324 31.543h-.968c0-.155.193-15.847 2.333-31.653.581-4.303 1.245-8.196 1.992-11.677-3.715-.568-7.937-3.873-11.381-13.676a66.574 66.574 0 0 1-5.141 8.153c-2.227 3.037-4.329 4.806-6.255 5.716 2.175 10.329 3.798 24.443 5.057 43.108l-.965.049Zm-17.268-65.256a1.497 1.497 0 0 0-1.358.82c-2.079 3.444 1.216 15.815 7.239 19.814 1.982 1.32 4.048 1.594 6.133.842a102.999 102.999 0 0 0-.917-3.873c-2.437-9.463-5.429-14.889-9.421-17.067a3.611 3.611 0 0 0-1.676-.536Zm37.134 21.008a7.953 7.953 0 0 0 2.108-.274c3.285-.875 6.713-3.831 9.402-8.111 2.388-3.792 3.657-7.904 3.163-10.228-.323-1.495-1.291-2.085-3.005-1.814-4.841.787-8.811 7.785-11.655 20.427h-.013Zm-12.604-45.435c-.503 0-1.478.184-2.372 1.41-1.701 2.337-3.599 9.167 2.608 28.727 6.274-13.06 4.87-23.24 2.76-27.4-.882-1.743-1.973-2.737-2.996-2.737ZM86.073 266.685h-.094a.483.483 0 0 1-.38-.568l36.149-186.556a.478.478 0 0 1 .378-.402.482.482 0 0 1 .578.395.49.49 0 0 1-.007.195l-36.15 186.556a.486.486 0 0 1-.474.38Z" class="Vector"/>
    <path fill="#0D2823" d="M112.31 266.684h-.093a.48.48 0 0 1-.381-.568L147.985 79.56a.484.484 0 0 1 .949.187l-36.149 186.556a.487.487 0 0 1-.475.381Z" class="Vector"/>
    <path fill="#0D2823" d="M146.067 92.464H119.83a.48.48 0 0 1-.484-.484.483.483 0 0 1 .484-.484h26.237a.48.48 0 0 1 .484.484.484.484 0 0 1-.484.484Zm-3.63 18.811h-26.234a.484.484 0 1 1 0-.968h26.234a.487.487 0 0 1 .484.484.484.484 0 0 1-.484.484Zm-3.673 18.834H112.62a.484.484 0 1 1 0-.968h26.144a.487.487 0 0 1 .484.484.484.484 0 0 1-.484.484Zm-3.609 18.82h-26.237a.484.484 0 1 1 0-.968h26.237a.482.482 0 0 1 .484.484.482.482 0 0 1-.484.484Zm-3.77 18.828h-25.892a.485.485 0 0 1-.484-.484.484.484 0 0 1 .484-.484h25.892a.484.484 0 0 1 0 .968Zm-3.702 18.815h-26.086a.484.484 0 0 1 0-.968h26.086a.485.485 0 0 1 .484.484.484.484 0 0 1-.484.484Zm-4.009 18.824H98.095a.484.484 0 1 1 0-.968h25.579a.484.484 0 1 1 0 .968Zm-3.343 18.82H94.187a.487.487 0 0 1-.484-.484.484.484 0 0 1 .484-.484h26.144a.484.484 0 0 1 0 .968Zm-3.441 18.823H90.656a.483.483 0 1 1 0-.969h26.234a.482.482 0 0 1 .484.484.484.484 0 0 1-.484.485Z" class="Vector"/>
    <path fill="#fff" d="M84.243 109.122s17.361 2.921 28.512-6.561c0 0 10.28 14.653 11.381 35.729 1.101 21.077-2.989 40.023-2.989 40.023h-14.634s4.464-34.003-2.556-50.839c0 0-17.345 46.749-19.498 48.04l-12.652-7.372s16.202-27.712 12.436-59.02Z" class="Vector"/>
    <path fill="#F1EEEC" d="M111.148 67.586s14.26-12.016 16.942-19.236l2.847-6.614.968.49.384 3.852 3.899-2.021h1.185l-.168 1.214v1.397l-.578 2.24-.026 1.404-.355 1.198.071 1.274-.861 1.714-3.551 2.098s-7.949 16.432-17 19.605l-3.757-8.615Z" class="Vector"/>
    <path fill="#0D2823" d="M98.122 67.863a.485.485 0 0 1-.22-.916c2.473-1.263 3.98-2.95 4.483-5.013.907-3.715-1.726-7.469-1.752-7.507a.484.484 0 0 1 .787-.562c.12.168 2.905 4.157 1.905 8.298-.572 2.35-2.26 4.248-4.984 5.648a.488.488 0 0 1-.22.052Zm-5.917 1.615a.484.484 0 0 1-.484-.484V65.66a.484.484 0 1 1 .968 0v3.334a.484.484 0 0 1-.484.484Zm3.98-8.23h-.049c-1.562-.155-2.23-1.556-2.362-2.26a.486.486 0 0 1 .574-.595.483.483 0 0 1 .375.414c0 .062.287 1.369 1.51 1.492a.484.484 0 1 1-.048.968v-.02Z" class="Vector"/>
    <path fill="#0D2823" d="M101.214 59.824c.344 0 .623-.488.623-1.09 0-.603-.279-1.091-.623-1.091s-.623.488-.623 1.09c0 .603.279 1.091.623 1.091Zm-1.182 9.653a.484.484 0 0 1-.484-.484V66.18a.484.484 0 1 1 .968 0v2.812a.483.483 0 0 1-.484.484Z" class="Vector"/>
    <path fill="#044348" d="M97.047 58.1s3.873-1.847 4.46-4.135c.171-.668-3.734-5.71-9.867-3.208 0 0-2.017-4.358-8.553-1.856-6.536 2.501-6.697-1.775-11.458-2.42-5.119-.695-12.507.645-11.78 10.57.726 9.924 13.152 5.81 14.12 5.325.969-.484 2.802-1.936 6.846-1.407 4.044.53 5.984-3.328 5.984-3.328s-.323 5.81 5.406 8.54c0 0 3.044-2.152 3.77-3.766 0 0-4.18-.968-3.124-3.683 1.055-2.714 3.792-.955 4.196-.633Z" class="Vector"/>
    <path fill="#0D2823" d="M111.148 68.07a.482.482 0 0 1-.462-.625.482.482 0 0 1 .168-.243c.142-.11 14.337-11.093 17.688-21.277 1.291-3.93 2.111-4.554 2.679-4.657a.9.9 0 0 1 .894.365c.771.968.71 3.744.235 4.88a.484.484 0 1 1-.89-.375c.468-1.123.271-3.524-.097-3.902-.155.09-.804.646-1.905 3.993-1.446 4.405-4.922 9.405-10.328 14.847a84.65 84.65 0 0 1-7.688 6.881.474.474 0 0 1-.294.113Z" class="Vector"/>
    <path fill="#0D2823" d="M132.309 49.098a.485.485 0 0 1-.213-.92c3.285-1.613 4.825-3.327 4.796-3.743-.497-.13-2.669.923-4.719 2.294a.485.485 0 0 1-.536-.806c1.788-1.198 4.939-3.08 5.9-2.218a.97.97 0 0 1 .323.878c-.187 1.365-2.905 3.273-5.325 4.467a.502.502 0 0 1-.226.048Z" class="Vector"/>
    <path fill="#0D2823" d="M132.55 51.645a.485.485 0 0 1-.174-.936c1.055-.41 3.892-1.813 4.338-3.392a1.611 1.611 0 0 0-.352-1.484.484.484 0 0 1 .768-.588 2.56 2.56 0 0 1 .513 2.337c-.668 2.366-4.744 3.963-4.919 4.031a.47.47 0 0 1-.174.032Z" class="Vector"/>
    <path fill="#0D2823" d="M132.95 53.84a.485.485 0 0 1-.164-.94c.026 0 2.562-.952 3.26-2.534a1.95 1.95 0 0 0 0-1.578.482.482 0 0 1 .264-.633.485.485 0 0 1 .633.265 2.909 2.909 0 0 1 0 2.34c-.872 1.96-3.699 3.005-3.818 3.05a.493.493 0 0 1-.175.03Z" class="Vector"/>
    <path fill="#0D2823" d="M115.309 76.336a.487.487 0 0 1-.469-.366.489.489 0 0 1 .239-.544c10.887-5.81 16.461-19.22 16.526-19.366a.488.488 0 0 1 .355-.29c.026 0 2.601-.533 3.55-2.14a2.741 2.741 0 0 0 .168-2.33.485.485 0 1 1 .923-.298 3.7 3.7 0 0 1-.261 3.121c-.969 1.666-3.186 2.347-3.938 2.537-.81 1.84-6.481 14.057-16.864 19.608a.497.497 0 0 1-.229.068Z" class="Vector"/>
    <path fill="#65D45C" d="M108.773 81.904s1.184 14.524 3.983 20.656c0 0-9.793 9.899-28.513 6.562 0 0-13.556-45.616 18.817-40.129 0 0-.849 9.144 5.713 12.91Z" class="Vector"/>
    <path fill="#0D2823" d="M84.459 175.988a.514.514 0 0 1-.245-.065l-12.665-7.375a.486.486 0 0 1-.181-.645c.18-.307 16.319-30.808 12.394-58.717a.496.496 0 0 1 .155-.426.49.49 0 0 1 .436-.113c.132.029 13.233 2.992 24.742-3.818a.48.48 0 0 1 .556.01.48.48 0 0 1 .18.527.498.498 0 0 1-.245.296c-10.328 6.113-21.883 4.58-24.772 4.063 1.872 14.553-1.578 29.584-4.841 39.7a130.084 130.084 0 0 1-7.53 18.52l11.797 6.878c2.104-4.499 18.245-39.261 18.739-48.928a.483.483 0 0 1 .51-.458.485.485 0 0 1 .458.51c-.226 4.412-3.505 14.134-9.744 28.894a615.093 615.093 0 0 1-9.312 20.873.478.478 0 0 1-.432.274Z" class="Vector"/>
    <path fill="#0D2823" d="M121.147 178.787h-14.634a.492.492 0 0 1-.368-.171.478.478 0 0 1-.11-.391 143.875 143.875 0 0 0 1.366-23.429c-.265-12.033-2.26-28.971-10.283-41.355a.487.487 0 0 1 .507-.74.486.486 0 0 1 .306.21c4.496 6.946 9.954 19.847 10.438 41.882a147.968 147.968 0 0 1-1.291 23.025h13.675c3.044-15.369 5.442-37.634-.167-57.203-3.38-11.79-8.137-17.067-8.182-17.106a.484.484 0 0 1 .71-.645c.2.219 4.931 5.451 8.391 17.429 5.742 19.94 3.228 42.604.133 58.129a.488.488 0 0 1-.491.365Z" class="Vector"/>
    <path fill="#D6F2FF" d="m103.06 68.994 6.478-2.414a1.238 1.238 0 0 1 1.555.626l4.416 9.211a1.458 1.458 0 0 1-.578 1.892l-6.158 3.595s-6.239-2.743-5.713-12.91Z" class="Vector"/>
    <path fill="#0D2823" d="m72.404 168.48-4.406 7.695 17.294 9.486a.382.382 0 0 0 .552-.432l-2.821-10.561-10.62-6.188Zm35.132 9.823-.403 7.785h18.998c.04 0 .08-.011.115-.032a.218.218 0 0 0 .1-.207.218.218 0 0 0-.048-.11l-5.967-7.423-12.795-.013Z" class="Vector"/>
    <path fill="#fff" d="m81.944 97.454.455 3.289s17.107 3.096 28.006-6.642l-.51-3.05s-11.758 9.679-27.95 6.403Z" class="Vector"/>
    <path fill="#fff" d="M82.78 102.882s17.316 2.857 28.116-6.374l.878 3.392s-10.671 8.715-28.322 6.132l-.672-3.15Z" class="Vector"/>
    <path fill="#0D2823" d="M84.243 109.606a.486.486 0 0 1-.468-.368c-4.254-16.98-3.654-28.981 1.788-35.665 4.263-5.242 9.892-5.074 10.131-5.065a.485.485 0 1 1-.039.969 12.456 12.456 0 0 0-9.36 4.725c-3.592 4.428-6.778 14.06-1.584 34.803a.488.488 0 0 1-.468.601Zm24.546-27.218a.495.495 0 0 1-.239-.06c-6.036-3.41-6.175-10.449-6.178-10.746a.48.48 0 0 1 .297-.453.488.488 0 0 1 .527.102.48.48 0 0 1 .144.339c0 .067.146 6.778 5.687 9.912a.483.483 0 0 1-.238.906Z" class="Vector"/>
    <path fill="#044348" d="M210.064 103.27V76.62a13.294 13.294 0 0 0 8.999-12.588 12.552 12.552 0 0 0-4.332-9.563c-1.559-1.404-4.079-1.356-5.183.426a3.246 3.246 0 0 0 .645 4.15 6.66 6.66 0 0 1 1.894 7.16 6.661 6.661 0 0 1-9.654 3.6 6.661 6.661 0 0 1-3.256-6.652 6.666 6.666 0 0 1 2.176-4.088 3.261 3.261 0 0 0 .662-4.167l-.088-.142c-1.045-1.681-3.389-1.798-4.883-.5a12.751 12.751 0 0 0-4.519 10.67 13.344 13.344 0 0 0 8.973 11.694v26.657a13.35 13.35 0 0 0-8.973 11.697 12.749 12.749 0 0 0 4.519 10.667c1.494 1.291 3.838 1.181 4.883-.5l.088-.142a3.255 3.255 0 0 0-.662-4.164 6.669 6.669 0 0 1-1.883-7.169 6.665 6.665 0 0 1 5.902-4.484 6.667 6.667 0 0 1 7.014 7.562 6.666 6.666 0 0 1-2.186 4.091 3.251 3.251 0 0 0-.646 4.151c1.104 1.785 3.625 1.83 5.184.426a12.528 12.528 0 0 0 4.312-9.564 13.302 13.302 0 0 0-8.986-12.578Z" class="Vector"/>
    <path fill="#65D45C" d="m214.329 145.755 5.835-.536.284 4.677s1.614 2.53 4.574 2.288c2.959-.242 4.299-2.165 4.112-4.593a11.603 11.603 0 0 0-1.369-4.444l3.964-.62 37.995 117.056h-19.892l-18.762-58.526-5.458 58.526h-18.504l7.221-113.828Z" class="Vector"/>
    <path fill="#D6F2FF" d="m236.586 156.705 7.962-17.781a.742.742 0 0 0 .018-.573.734.734 0 0 0-.392-.418h-.016L230.347 132a.47.47 0 0 0-.51.09.482.482 0 0 0-.136.259l-1.936 10.8 4.463-.62 4.358 14.176Z" class="Vector"/>
    <path fill="#F1EEEC" d="M204.658 83.356h-3.576l-1.133 1.918.22 6.313.968 1.259.668-.904 3.673-.207 1.059-.942-.304-1.191.259-1.191-.294-.949.084-1.727 3.766 2.799-.084 7.826s10.19 5.691 13.879 13.143c3.689 7.453 7.149 14.683 6.504 22.59l14.066 6.133s.997-13.34-4.438-23.939c-5.435-10.6-11.962-21.574-32.057-30.93l-2.666-.646-.594.645Zm-.984 72.669 6.306 8.505s-4.457 7.878-10.619 5.58c-6.161-2.298-22.78-20.295-22.78-20.295l-2.718-.778-1.439-2.366.671-1.546 1.091-1.536 2.905-2.392 1.068-.284 1.111-.913 20.679 19.65 3.725-3.625Zm16.49-11.283.284 5.555s2.663 2.359 4.574 1.888c1.91-.471 4.263-.93 4.15-4.593l-1.407-5.6-7.601 2.75Z" class="Vector"/>
    <path fill="#D6F2FF" d="m214.328 145.756-10.858 8.934a.672.672 0 0 0-.113.913l6.804 9.17a.789.789 0 0 0 1.068.187l2.441-1.614.658-17.59Z" class="Vector"/>
    <path fill="#0D2823" d="M201.299 93.416a.49.49 0 0 1-.278-.087c-.145-.103-1.42-1.033-1.414-2.26 0-.645.362-1.232 1.066-1.716 1.349-.926 4.008-.781 5.393-.039.787.423.949.926.942 1.272a1.469 1.469 0 0 1-.422 1.113c-.627.604-2.005.81-4.764.714a.487.487 0 0 1-.438-.314.474.474 0 0 1-.03-.187.471.471 0 0 1 .152-.338.474.474 0 0 1 .348-.13c2.308.084 3.673-.068 4.06-.442.081-.074.126-.171.126-.423 0-.09-.132-.251-.432-.41-1.091-.587-3.377-.71-4.387-.016-.426.29-.645.6-.645.92 0 .613.723 1.265 1 1.462a.485.485 0 0 1-.277.881Z" class="Vector"/>
    <path fill="#0D2823" d="M200.45 90.237a.47.47 0 0 1-.252-.07 1.657 1.657 0 0 1-.691-1.027c-.135-.613.049-1.291.539-2.033.926-1.388 4.238-1.214 5.945-.078 1.107.74 1.359 1.795.672 2.828a.485.485 0 0 1-.807-.536c.261-.394.452-.917-.404-1.488-1.346-.894-4.054-1.007-4.599-.19-.323.503-.474.948-.4 1.29a.73.73 0 0 0 .248.41.484.484 0 0 1-.251.897v-.002Z" class="Vector"/>
    <path fill="#0D2823" d="M206.208 87.933a.487.487 0 0 1-.417-.237.475.475 0 0 1-.051-.366 1.498 1.498 0 0 0-.694-1.775c-1.256-.833-3.37-.74-4.031-.236-.969.749-.565 1.614-.513 1.714a.49.49 0 0 1-.197.645.48.48 0 0 1-.646-.187c-.323-.574-.565-1.936.775-2.947 1.12-.852 3.721-.752 5.164.197a2.455 2.455 0 0 1 1.094 2.821.48.48 0 0 1-.484.371Z" class="Vector"/>
    <path fill="#0D2823" d="M199.949 85.757h-.035a.487.487 0 0 1-.449-.52c0-.026.232-2.524 3.612-2.627a2.93 2.93 0 0 1 2.101.768 2.003 2.003 0 0 1 .645 1.469.487.487 0 0 1-.484.484.484.484 0 0 1-.484-.484 1.039 1.039 0 0 0-.345-.771 1.974 1.974 0 0 0-1.395-.498c-2.524.078-2.675 1.714-2.675 1.73a.485.485 0 0 1-.491.449Zm30.398 46.498a.487.487 0 0 1-.484-.468c-.413-13.443-5.861-22.248-10.361-27.27-4.87-5.43-9.682-7.708-9.724-7.73a.485.485 0 1 1 .406-.878c.204.093 5.039 2.385 10.038 7.962 4.606 5.145 10.187 14.15 10.609 27.884a.484.484 0 0 1-.468.5h-.016Z" class="Vector"/>
    <path fill="#0D2823" d="M244.226 138.388a.258.258 0 0 1-.068 0 .482.482 0 0 1-.413-.546c0-.084 1.14-8.495-2.437-19.162-3.298-9.835-11.393-23.659-31.22-33.67l-.126-.075c-2.437-1.465-3.773-1.698-4.212-1.423a.092.092 0 0 0-.036.029c-.151.377 1.365 1.998 3.551 3.518a.48.48 0 0 1 .199.312.481.481 0 0 1-.216.493.49.49 0 0 1-.539-.011c-.939-.646-3.999-2.905-3.97-4.316a1.022 1.022 0 0 1 .494-.848c.94-.581 2.695-.104 5.223 1.417l.077.045c20.131 10.163 28.355 24.246 31.705 34.267 3.634 10.874 2.475 19.476 2.466 19.56a.489.489 0 0 1-.478.41Zm-.862-31.148a.483.483 0 0 1-.439-.277c-2.705-5.729-6.594-8.715-6.633-8.75a.491.491 0 0 1 .238-.846.488.488 0 0 1 .35.071c.164.126 4.109 3.157 6.923 9.112a.489.489 0 0 1-.232.645.51.51 0 0 1-.207.045Zm3.983 9.361a.49.49 0 0 1-.475-.391 10.856 10.856 0 0 0-1.355-3.502.494.494 0 0 1-.054-.367.482.482 0 0 1 .589-.352.489.489 0 0 1 .298.222 11.813 11.813 0 0 1 1.458 3.812.48.48 0 0 1-.38.568l-.081.01Zm-47.662 43.466a.486.486 0 0 1-.323-.846l3.873-3.444a.49.49 0 0 1 .685.039.488.488 0 0 1-.039.684l-3.873 3.444a.492.492 0 0 1-.323.123Z" class="Vector"/>
    <path fill="#0D2823" d="M201.621 161.788a.49.49 0 0 1-.342-.139c-8.089-8.014-20.402-20.011-22.055-21.125-.28.123-.322.271-.322.323-.194.843 1.43 2.795 2.646 3.915l.384.371-.403.355a2.407 2.407 0 0 0-.872 1.753c-.096 1.937 1.824 4.031 1.843 4.051a.476.476 0 0 1 .173.361.481.481 0 0 1-.336.47.481.481 0 0 1-.547-.186c-.09-.097-2.217-2.414-2.101-4.754a3.303 3.303 0 0 1 .83-2.059c-.93-.91-2.905-3.054-2.582-4.496a1.509 1.509 0 0 1 1.155-1.104c.404-.12.694-.204 11.916 10.693 5.449 5.29 10.887 10.677 10.942 10.728a.488.488 0 0 1 .125.535.483.483 0 0 1-.454.308Z" class="Vector"/>
    <path fill="#0D2823" d="M201.699 171.006c-2.015 0-4.058-.855-6.091-2.553-8.424-7.036-19.295-18.188-19.404-18.298a.475.475 0 0 1-.163-.353.489.489 0 0 1 .86-.324c.106.113 10.941 11.229 19.327 18.232 2.259 1.895 4.518 2.641 6.678 2.208 4.089-.81 6.619-5.564 6.645-5.613a.488.488 0 0 1 .654-.205.488.488 0 0 1 .205.654c-.11.213-2.766 5.206-7.311 6.113-.461.093-.93.139-1.4.139Z" class="Vector"/>
    <path fill="#0D2823" d="M175.933 150.298c-.765 0-1.678-.507-2.727-1.517-.911-.875-1.333-1.737-1.259-2.56a2.122 2.122 0 0 1 .884-1.497.484.484 0 0 1 .536.803 1.146 1.146 0 0 0-.455.794c-.042.507.294 1.114.968 1.763 1.349 1.291 2.004 1.291 2.227 1.223.323-.094.462-.504.517-.739a.481.481 0 0 1 .577-.345.482.482 0 0 1 .365.564c-.177.762-.6 1.275-1.184 1.449a1.55 1.55 0 0 1-.449.062Z" class="Vector"/>
    <path fill="#0D2823" d="M177.12 149.037c-.729 0-1.614-.481-2.688-1.452-1.224-1.107-1.766-2.127-1.614-3.024a2.04 2.04 0 0 1 1.178-1.417.475.475 0 0 1 .378-.004.488.488 0 0 1 .267.268.478.478 0 0 1-.261.646 1.078 1.078 0 0 0-.597.697c-.087.533.374 1.291 1.291 2.133 1.433 1.291 2.056 1.227 2.211 1.175a.603.603 0 0 0 .323-.419.49.49 0 0 1 .571-.397.494.494 0 0 1 .397.571 1.554 1.554 0 0 1-.968 1.162 1.518 1.518 0 0 1-.488.061Z" class="Vector"/>
    <path fill="#0D2823" d="M178.459 147.905c-.732 0-1.694-.619-3.043-1.936-1.114-1.094-1.559-2.059-1.324-2.87.294-1.013 1.508-1.291 1.559-1.291a.487.487 0 0 1 .578.368.482.482 0 0 1-.368.578c-.019 0-.713.178-.839.626-.071.249-.026.826 1.072 1.908 1.778 1.749 2.333 1.691 2.427 1.662.093-.029.177-.119.274-.607a.483.483 0 0 1 .571-.377.483.483 0 0 1 .378.571c-.061.323-.226 1.123-.939 1.339a1.09 1.09 0 0 1-.346.029Z" class="Vector"/>
    <path fill="#0D2823" d="M180.158 146.741a.557.557 0 0 1-.1 0c-.088-.02-2.131-.481-3.873-3.16-.562-.868-.675-1.585-.323-2.134.594-.968 2.333-.81 2.53-.787a.488.488 0 0 1-.103.968c-.529-.055-1.407 0-1.614.323-.119.194 0 .594.323 1.101 1.51 2.343 3.227 2.73 3.227 2.733a.486.486 0 0 1 .257.862.485.485 0 0 1-.357.107l.033-.013Zm33.512 17.089h-.019a.487.487 0 0 1-.465-.503l.645-17.278a.485.485 0 0 1 .969.039l-.646 17.277a.484.484 0 0 1-.484.465Zm23.455-4.624a.481.481 0 0 1-.458-.323l-5.487-16.461a.475.475 0 0 1 .006-.387.486.486 0 0 1 .674-.223.475.475 0 0 1 .236.307l5.487 16.461a.467.467 0 0 1-.142.517.411.411 0 0 1-.316.109Zm-12.488-6.525c-1.959 0-4.031-.852-4.909-2.653a.487.487 0 0 1 .593-.672.485.485 0 0 1 .278.246c.72 1.482 3.028 2.634 5.487 1.911.875-.255 2.87-1.143 2.553-3.873a.508.508 0 0 1 .016-.19.49.49 0 0 1 .953.08c.281 2.398-.933 4.231-3.244 4.906a6.192 6.192 0 0 1-1.727.245Zm-4.189-3.698a.482.482 0 0 1-.484-.485v-4.195a.484.484 0 1 1 .968 0v4.195a.484.484 0 0 1-.484.485Zm7.962-2.431a.491.491 0 0 1-.477-.397l-.646-3.551a.491.491 0 0 1 .968-.174l.646 3.551a.49.49 0 0 1-.391.564l-.1.007Zm3.228 14.106h-12.426a.484.484 0 1 1 0-.969h12.426a.482.482 0 0 1 .484.485.484.484 0 0 1-.484.484Zm-6.22 8.462c-4.635 0-6.855-3.383-6.959-6.565a.483.483 0 0 1 .468-.501.483.483 0 0 1 .501.468c.125 3.945 3.285 5.668 6.158 5.626 2.956-.055 6.132-1.956 6.106-5.99v-.181l.155-.184a.484.484 0 0 1 .814.507c-.052 4.389-3.57 6.749-7.059 6.816l-.184.004Zm-8.084-30.734h-.097l-1.998-.406a.917.917 0 0 1-.704-.718.917.917 0 0 1 .136-.68l2.698-3.834a.49.49 0 0 1 .313-.2.484.484 0 0 1 .481.755l-2.64 3.75 1.914.365a.488.488 0 0 1 .26.861.486.486 0 0 1-.357.107h-.006Zm7.688.001a.487.487 0 0 1-.419-.727.486.486 0 0 1 .254-.212c1.317-.478 1.214-1.353 1.194-1.449a.49.49 0 0 1 .391-.559.482.482 0 0 1 .561.378c.12.607-.103 1.917-1.817 2.54a.484.484 0 0 1-.164.029Zm-5.755-1.826c.297 0 .539-.427.539-.953 0-.525-.242-.952-.539-.952-.298 0-.539.427-.539.952 0 .526.241.953.539.953Zm-19.547 39.64a7.915 7.915 0 0 1-4.16-1.152 7.382 7.382 0 0 1-2.082-1.85.49.49 0 0 1-.011-.538.481.481 0 0 1 .669-.147c.053.034.1.078.136.13.103.146 2.479 3.428 7.246 2.386a.486.486 0 1 1 .207.948 9.462 9.462 0 0 1-2.005.223Zm50.112 83.867a.48.48 0 0 1-.461-.323l-23.291-73.512a.494.494 0 0 1 .024-.377.477.477 0 0 1 .664-.209.49.49 0 0 1 .235.296l23.291 73.495a.484.484 0 0 1-.323.607.44.44 0 0 1-.139.023Z" class="Vector"/>
    <path fill="#0D2823" d="M225.612 259.794h-.045a.498.498 0 0 1-.181-.053.497.497 0 0 1-.147-.119.48.48 0 0 1-.108-.354l5.458-58.927a.49.49 0 0 1 .529-.439.488.488 0 0 1 .439.53l-5.464 58.923a.478.478 0 0 1-.481.439Zm-2.366-.21v11.781H201.34a.296.296 0 0 1-.288-.215.292.292 0 0 1 .006-.189.292.292 0 0 1 .118-.148l8.191-5.339v-5.89h13.879Zm29.275 0v11.781h21.905a.298.298 0 0 0 .283-.404.297.297 0 0 0-.118-.148l-8.192-5.339v-5.89h-13.878Z" class="Vector"/>
    <path fill="#044348" d="M223.818 136.199a.119.119 0 0 0 .121.056.114.114 0 0 0 .043-.017.104.104 0 0 0 .039-.039c.271-.506 1.152-1.881 2.521-1.536 1.669.423 1.788 3.208-.268 4.338a2.109 2.109 0 0 1-2.259-.023 6.972 6.972 0 0 0-3.893-1.013l-4.67.087s.991 7.443 6.962 6.636c5.971-.807 10.005-5.451 7.178-13.595-2.514-7.278-12.588-5.299-13.879-4.567-2.233 1.291-.942 6.504 2.811 6.827 0 0 1.73.232 2.841.39a2.013 2.013 0 0 1 1.394.878l1.059 1.578Z" class="Vector"/>
  </g>
</svg>
