<svg xmlns="http://www.w3.org/2000/svg" width="105" height="70" fill="none" viewBox="0 0 105 70">
  <g class="Modo_de_aislamiento" clip-path="url(#a)">
    <g class="Clip path group">
      <mask id="c" width="105" height="70" x="0" y="0" class="c" maskUnits="userSpaceOnUse" style="mask-type:luminance">
        <g class="clip-path-2">
          <g class="Clip path group">
            <mask id="b" width="111" height="79" x="-3" y="-5" class="b" maskUnits="userSpaceOnUse" style="mask-type:luminance">
              <g class="clip-path">
                <path fill="#fff" d="M107.481-4.588H-2.481v77.996H107.48V-4.588Z" class="Vector"/>
              </g>
            </mask>
            <g mask="url(#b)">
              <path fill="#fff" d="M85.083 53.606a4.19 4.19 0 0 1 2.424.705 6.607 6.607 0 0 1 1.745 1.755v-2.278h1.269v11.026c-.013.97-.253 1.788-.72 2.455a4.462 4.462 0 0 1-1.935 1.552 6.64 6.64 0 0 1-2.662.524c-1.24 0-2.24-.223-3.003-.67a5.493 5.493 0 0 1-1.865-1.79l.867-.7.042.066c.41.64.995 1.15 1.684 1.469a5.318 5.318 0 0 0 2.28.5 4.849 4.849 0 0 0 1.943-.385 3.267 3.267 0 0 0 1.42-1.165c.358-.524.537-1.171.536-1.94v-2.158l-.043.071a4.695 4.695 0 0 1-1.67 1.573 4.528 4.528 0 0 1-2.268.616 4.598 4.598 0 0 1-2.047-.459 5.014 5.014 0 0 1-1.613-1.249 5.855 5.855 0 0 1-1.045-1.79 5.935 5.935 0 0 1-.37-2.076 6.361 6.361 0 0 1 .363-2.153 5.693 5.693 0 0 1 1.045-1.808 4.947 4.947 0 0 1 1.595-1.24 4.556 4.556 0 0 1 2.038-.452h-.01Zm13.239 0c.986-.02 1.956.25 2.792.775a5.498 5.498 0 0 1 1.893 2.04c.459.846.696 1.795.687 2.759 0 .11 0 .217-.007.32-.003.084-.01.166-.023.249h-9.281v.082c.057.707.276 1.39.64 1.998a4.16 4.16 0 0 0 1.443 1.442 3.692 3.692 0 0 0 1.916.524 3.992 3.992 0 0 0 2.017-.541 2.974 2.974 0 0 0 1.316-1.413l1.234.34-.03.067a4.034 4.034 0 0 1-.993 1.327 4.99 4.99 0 0 1-1.613.967 5.56 5.56 0 0 1-1.973.346 5.213 5.213 0 0 1-2.173-.45 5.38 5.38 0 0 1-1.727-1.233 5.674 5.674 0 0 1-1.14-1.811 5.87 5.87 0 0 1-.406-2.184c-.012-.982.23-1.95.703-2.81a5.48 5.48 0 0 1 1.932-2.034 5.18 5.18 0 0 1 2.794-.764l-.001.004Zm-32.281 0c1.336 0 2.394.383 3.173 1.15.78.768 1.169 1.83 1.169 3.185V63a.623.623 0 0 0 .123.393.532.532 0 0 0 .391.156v1.126l-.056.008c-.13.016-.237.026-.329.034a2.033 2.033 0 0 1-.26 0 1.035 1.035 0 0 1-.784-.34 1.206 1.206 0 0 1-.296-.676l-.028-.786-.05.064a4.79 4.79 0 0 1-1.836 1.399 5.838 5.838 0 0 1-2.377.51 3.95 3.95 0 0 1-1.89-.447 3.407 3.407 0 0 1-1.312-1.21 3.139 3.139 0 0 1-.476-1.698 2.734 2.734 0 0 1 .588-1.75c.429-.52.987-.919 1.618-1.154a6.4 6.4 0 0 1 2.386-.411c.55.003 1.1.047 1.644.13.52.073 1.033.2 1.527.378v-.99c-.012-.892-.283-1.602-.814-2.13-.544-.542-1.297-.812-2.259-.812a4.673 4.673 0 0 0-1.707.33 9.04 9.04 0 0 0-1.76.945l-.549-1.013.095-.066a8.932 8.932 0 0 1 1.988-1.022 6.187 6.187 0 0 1 2.08-.363Zm-22.867 0a5.155 5.155 0 0 1 2.696.696c.755.44 1.36 1.1 1.736 1.892l-1.387.436-.033-.059a3.223 3.223 0 0 0-1.24-1.253 3.594 3.594 0 0 0-1.82-.472 3.647 3.647 0 0 0-1.988.573 4.057 4.057 0 0 0-1.423 1.552 4.985 4.985 0 0 0 .01 4.475c.336.649.83 1.202 1.437 1.606.588.394 1.28.601 1.986.595.468 0 .931-.09 1.366-.262.42-.16.808-.392 1.15-.684.296-.244.522-.563.653-.925l1.386.421-.027.067c-.213.502-.535.95-.943 1.311a4.95 4.95 0 0 1-1.577.957 5.421 5.421 0 0 1-1.96.35 5.213 5.213 0 0 1-2.172-.45 5.354 5.354 0 0 1-1.73-1.241 5.738 5.738 0 0 1-1.144-1.816 6.1 6.1 0 0 1 .282-5.003 5.267 5.267 0 0 1 1.982-2.06 5.24 5.24 0 0 1 2.762-.717l-.002.01Zm35.426.131c.087-.003.175 0 .261.012v1.303h-.083a4.37 4.37 0 0 0-2.41.786 4.018 4.018 0 0 0-1.51 2.074v6.77h-1.414V53.787h1.328v2.609l.04-.08a5.143 5.143 0 0 1 1.457-1.767 3.79 3.79 0 0 1 1.967-.804l.364-.009ZM51.356 49.42v6.844l.04-.076a5.004 5.004 0 0 1 1.764-1.866 4.608 4.608 0 0 1 2.481-.716 3.438 3.438 0 0 1 1.593.335c.432.223.797.556 1.058.967.287.454.49.957.598 1.483.133.628.196 1.269.19 1.91v6.382h-1.424v-6.17c-.01-1.189-.223-2.086-.642-2.69-.43-.62-1.049-.928-1.859-.928a3.385 3.385 0 0 0-1.581.41 4.464 4.464 0 0 0-1.371 1.109 4.377 4.377 0 0 0-.847 1.603v6.666H49.94V49.42h1.417Zm14.596 9.766c-1.012 0-1.831.203-2.458.607-.627.405-.94.952-.938 1.643 0 .404.11.801.318 1.148.22.369.536.671.914.876.438.233.928.348 1.423.335a4.585 4.585 0 0 0 1.9-.393 3.542 3.542 0 0 0 1.373-1.025c.14-.168.258-.353.35-.552.076-.15.12-.314.13-.482v-1.597l-.108-.042a8.368 8.368 0 0 0-2.904-.518Zm19.39-4.336a3.373 3.373 0 0 0-1.625.393 3.739 3.739 0 0 0-1.212 1.03c-.331.433-.59.917-.764 1.433a4.889 4.889 0 0 0-.269 1.589 4.422 4.422 0 0 0 .313 1.66c.203.513.495.986.862 1.397.36.404.8.73 1.29.958a3.7 3.7 0 0 0 1.578.344c.423 0 .842-.079 1.236-.234a4.434 4.434 0 0 0 1.1-.621c.32-.245.6-.539.831-.87a2.47 2.47 0 0 0 .417-.98v-3.37l-.032-.08a4.151 4.151 0 0 0-.86-1.337 4.429 4.429 0 0 0-1.33-.963 3.577 3.577 0 0 0-1.534-.35Zm-61.67-43.852c1.58-.7 3.288-.635 4.995.19a1.107 1.107 0 0 1 .633.951v4.124a1.089 1.089 0 0 1-.698 1.015c-.38.19-.885.064-1.201-.253-1.075-1.079-2.783-1.713-3.985-1.46-.3.061-.58.192-.821.381 3.667 2.098 5.691 5.646 5.691 10.087 0 7.297-5.44 11.99-13.843 11.99-2.53 0-4.617-.38-6.324-1.078l-.064-.063c-.505.634-.821 1.332-.885 1.903-.19.952.13 1.777.95 2.601 1.769 1.776 5.121.444 8.662-.952 4.427-1.713 9.358-3.742 12.9-.13 2.15 2.097 3.098 4.695 2.782 7.55-.316 2.663-1.707 5.328-4.049 7.676a.494.494 0 0 1-.047.044 1.332 1.332 0 0 1-.167.262c-.321.346-.236.832-.064 1.27.579.999.554 2.291-.057 2.948l-1.517 1.63a1.027 1.027 0 0 1-1.417.024l-.287-.262c-.54.58-1.085 1.11-1.637 1.658a.896.896 0 0 1-1.205-.039.785.785 0 0 1-.137-1.113c.54-.582 1.087-1.158 1.64-1.729l-1.176-1.101c-.54.582-1.081 1.163-1.608 1.758a.745.745 0 0 1-.884.146.729.729 0 0 1-.24-.208.965.965 0 0 1-.12-1.2c.522-.602 1.02-1.17 1.538-1.75a5.714 5.714 0 0 1-.398-.438 1.034 1.034 0 0 1-.021-1.364 41.06 41.06 0 0 1 1.452-1.613c.673-.725 1.817-.84 2.851-.33a.991.991 0 0 0 1.256-.157l.043-.038c.058-.134.14-.256.243-.359 1.077-1.077 1.771-2.283 1.96-3.488.13-.762.063-1.835-.822-2.73-1.306-1.31-4.243-.172-7.395 1.127l-.193.08c-4.743 1.903-10.687 4.25-14.924 0-3.857-3.87-2.529-9.136.506-12.88C2.36 33.52.653 30.159.653 26.034c0-7.232 5.565-12.117 13.786-12.117a19.19 19.19 0 0 1 5.5.824c.824-1.713 2.15-3.045 3.732-3.742Zm74.657 43.705a3.751 3.751 0 0 0-1.93.515 4.03 4.03 0 0 0-1.429 1.422 4.621 4.621 0 0 0-.63 2.087h8.021a4.512 4.512 0 0 0-.642-2.088 4.117 4.117 0 0 0-1.436-1.42 3.797 3.797 0 0 0-1.96-.515h.006ZM90.635 14.36c7.02 0 11.699 4.441 11.699 11.166V38.24c0 .645.27 2.033 1.828 4.23a1.208 1.208 0 0 1 .063 1.14 1.113 1.113 0 0 1-.949.635h-8.593a1.119 1.119 0 0 1-1.075-1.141v-1.782c-2.34 1.712-6.007 3.362-8.853 3.362-4.68 0-8.348-4.063-8.348-9.2 0-7.041 7.21-9.769 12.774-11.928l.197-.07.13-.05.068-.024.13-.049.13-.048.131-.05.23-.088.115-.044c1.717-.668 3.292-1.442 3.292-2.43 0-1.397-.38-3.68-2.972-3.68-2.719 0-5.691 3.108-6.138 5.201a1.27 1.27 0 0 1-.57.697 1.007 1.007 0 0 1-.948.065l-3.54-1.523a.993.993 0 0 1-.633-.698 1.253 1.253 0 0 1 .19-.951c3.162-4.064 8.097-5.456 11.635-5.456l.007.001Zm-43.949 0c7.02 0 11.699 4.441 11.699 11.166V38.24c0 .645.27 2.033 1.828 4.23a1.208 1.208 0 0 1 .063 1.14 1.11 1.11 0 0 1-.948.635h-8.592a1.119 1.119 0 0 1-1.075-1.141v-1.782c-2.34 1.712-6.007 3.362-8.853 3.362-4.68 0-8.348-4.063-8.348-9.2 0-7.041 7.21-9.769 12.774-11.928l.197-.07.13-.05.067-.024.13-.049.131-.048.131-.05.23-.088.115-.044c1.717-.668 3.292-1.442 3.292-2.43 0-1.397-.38-3.68-2.972-3.68-2.72 0-5.692 3.108-6.138 5.201a1.27 1.27 0 0 1-.57.697 1.007 1.007 0 0 1-.948.065l-3.532-1.522a.993.993 0 0 1-.634-.698 1.253 1.253 0 0 1 .19-.951c3.163-4.064 8.098-5.456 11.636-5.456h-.003Zm24.978 1.205a1.13 1.13 0 0 1 1.052.705c.057.139.086.288.086.438v23.595c0 .826.38 1.08.885 1.46.38.19.696.38.95.76a1.217 1.217 0 0 1 0 1.143 1.047 1.047 0 0 1-.95.571H63.13a1.042 1.042 0 0 1-.949-.571 1.072 1.072 0 0 1 .063-1.142c.19-.38.57-.57.886-.762.569-.38.948-.633.948-1.459V21.53c0-1.459-1.264-3.3-1.707-3.997a1.227 1.227 0 0 1-.19-1.396 1.179 1.179 0 0 1 .949-.571h8.537-.003Zm21.94 9.262c-1.454.889-3.099 1.333-4.743 2.475-2.592 1.776-3.54 5.012-3.54 7.232 0 2.538.948 4.251 2.592 4.886 1.828.697 4.11 0 5.691-1.65V24.826Zm-43.948 0c-1.455.889-3.1 1.333-4.743 2.475-2.593 1.776-3.54 5.012-3.54 7.232 0 2.538.947 4.251 2.592 4.886 1.828.697 4.11 0 5.69-1.65V24.826ZM14.439 16.65c-3.542 0-4.806 5.768-4.806 9.39 0 3.552 1.264 9.262 4.806 9.262s4.869-5.71 4.869-9.263c0-3.616-1.328-9.39-4.869-9.39ZM68.441.656c2.783 0 5.06 2.348 5.06 5.139a5.128 5.128 0 0 1-1.492 3.615 5.093 5.093 0 0 1-3.602 1.497 5.076 5.076 0 0 1-3.601-1.497 5.112 5.112 0 0 1-1.492-3.615 5.17 5.17 0 0 1 1.508-3.63A5.13 5.13 0 0 1 68.441.656Z" class="Vector"/>
            </g>
          </g>
        </g>
      </mask>
      <g class="Group" mask="url(#c)">
        <path fill="#65D45C" d="M105 0H0v70h105V0Z" class="Vector"/>
      </g>
    </g>
  </g>
  <defs>
    <clipPath id="a" class="a">
      <path fill="#fff" d="M0 0h105v70H0z"/>
    </clipPath>
  </defs>
</svg>
