<svg xmlns="http://www.w3.org/2000/svg" width="285" height="318" fill="none" viewBox="0 0 285 318">
  <g class="ILUSTRACIÓN 16">
    <path fill="#fff" d="M284.416 102.951V89.535a4.411 4.411 0 0 0-4.41-4.41h-61.012a4.41 4.41 0 0 0-4.41 4.41v13.416h69.832Z" class="Vector"/>
    <path fill="#0D2823" d="M284.968 103.502h-70.935V89.536a4.97 4.97 0 0 1 4.962-4.962h61.011a4.969 4.969 0 0 1 4.962 4.962v13.966Zm-69.832-1.102h68.729V89.536a3.865 3.865 0 0 0-3.859-3.86h-61.011a3.865 3.865 0 0 0-3.859 3.86V102.4Z" class="Vector"/>
    <path fill="#fff" d="M214.584 150.363v9.556a4.411 4.411 0 0 0 4.41 4.411h61.012a4.41 4.41 0 0 0 4.41-4.411v-9.556h-69.832Z" class="Vector"/>
    <path fill="#0D2823" d="M280.006 164.88h-61.011a4.97 4.97 0 0 1-4.962-4.962v-10.107h70.935v10.107a4.97 4.97 0 0 1-4.962 4.962Zm-64.87-13.967v9.005a3.867 3.867 0 0 0 1.131 2.728 3.867 3.867 0 0 0 2.728 1.131h61.011a3.867 3.867 0 0 0 2.728-1.131 3.867 3.867 0 0 0 1.131-2.728v-9.005h-68.729Z" class="Vector"/>
    <path fill="#D6F2FF" d="M284.935 103.414h-70.839v46.398h70.839v-46.398Z" class="Vector"/>
    <path fill="#0D2823" d="M278.657 92.413h-20.824a.55.55 0 0 1-.39-.941.55.55 0 0 1 .39-.161h20.824a.551.551 0 1 1 0 1.102Zm0 5.024h-10.412a.55.55 0 0 1-.39-.941.55.55 0 0 1 .39-.162h10.412a.553.553 0 0 1 .551.551.552.552 0 0 1-.551.552Zm1.227 58.898h-23.647a.553.553 0 1 1 0-1.103h23.647a.554.554 0 0 1 .39.942.553.553 0 0 1-.39.161Zm-26.708-.014h-17.028a.532.532 0 0 1-.38-.157.552.552 0 0 1-.157-.379.537.537 0 0 1 .537-.537h17.028a.538.538 0 0 1 0 1.073Zm6.247-12.207a.552.552 0 0 1-.529-.393l-9.497-31.608-12.026 24.834a.55.55 0 1 1-.992-.481l12.635-26.095a.552.552 0 0 1 1.022.081l9.358 31.126 5.248-18.987a.56.56 0 0 1 .511-.404.547.547 0 0 1 .54.368l3.04 8.387 9.401-25.419a.551.551 0 1 1 1.033.367l-9.923 26.831a.553.553 0 0 1-.518.367.552.552 0 0 1-.519-.367l-2.962-8.174-5.289 19.163a.561.561 0 0 1-.525.404h-.008Z" class="Vector"/>
    <path fill="#fff" d="M90.236 79.491V58.174a4.41 4.41 0 0 0-4.41-4.41H5.944a4.41 4.41 0 0 0-4.41 4.41v21.317" class="Vector"/>
    <path fill="#0D2823" d="M90.787 79.49h-1.103V58.173a3.863 3.863 0 0 0-3.86-3.86H5.945a3.863 3.863 0 0 0-3.859 3.86V79.49H.982V58.173a4.965 4.965 0 0 1 4.962-4.962h79.88a4.965 4.965 0 0 1 4.963 4.962V79.49Z" class="Vector"/>
    <path fill="#fff" d="M1.534 147.359v15.929a4.41 4.41 0 0 0 4.41 4.411h79.881a4.411 4.411 0 0 0 4.41-4.411v-15.929" class="Vector"/>
    <path fill="#0D2823" d="M85.825 168.25H5.945a4.97 4.97 0 0 1-4.963-4.962v-15.929h1.103v15.929a3.861 3.861 0 0 0 3.86 3.86h79.88a3.861 3.861 0 0 0 3.859-3.86v-15.929h1.103v15.929a4.97 4.97 0 0 1-4.962 4.962Z" class="Vector"/>
    <path fill="#D6F2FF" d="M90.768 79.49H1.126v67.873h89.642V79.49Z" class="Vector"/>
    <path fill="#044348" d="M15.103 74.098a6.524 6.524 0 1 0 0-13.047 6.524 6.524 0 0 0 0 13.047Z" class="Vector"/>
    <path fill="#0D2823" d="M58.38 64.542H27.507a.551.551 0 1 1 0-1.102H58.38a.551.551 0 1 1 0 1.102Zm23.707 8.822h-54.58a.552.552 0 1 1 0-1.102h54.58a.551.551 0 0 1 0 1.102Z" class="Vector"/>
    <path fill="#65D45C" d="M57.443 85.113H34.458a4.22 4.22 0 0 0-4.22 4.22v48.662a4.22 4.22 0 0 0 4.22 4.219h22.985a4.22 4.22 0 0 0 4.22-4.219V89.333a4.22 4.22 0 0 0-4.22-4.22Z" class="Vector"/>
    <path fill="#044348" d="M55.808 93.394H36.086v20.031h19.722v-20.03Z" class="Vector"/>
    <path fill="#fff" d="M54.308 101.205H37.593v5.054h16.715v-5.054Zm0 6.02H37.593v5.053h16.715v-5.053Z" class="Vector"/>
    <path fill="#044348" d="M45.95 121.636a2.819 2.819 0 1 0 .001-5.638 2.819 2.819 0 0 0 0 5.638Z" class="Vector"/>
    <path fill="#044348" d="M90.772 137.01h-15.72a3.385 3.385 0 0 1-3.377-3.381v-11.986a2.281 2.281 0 0 0-2.279-2.275H45.947v-1.102h23.46a3.386 3.386 0 0 1 3.382 3.377v11.997a2.281 2.281 0 0 0 2.275 2.278h15.72l-.012 1.092Z" class="Vector"/>
    <path fill="#fff" d="M43.131 135.908a.555.555 0 0 1-.434-.893l3.643-4.62h-3.21a.556.556 0 0 1-.501-.316.552.552 0 0 1 .075-.588l4.348-5.267a.557.557 0 0 1 .376-.214.553.553 0 0 1 .613.507.556.556 0 0 1-.14.409l-3.602 4.366h3.175a.553.553 0 0 1 .434.893l-4.344 5.513a.56.56 0 0 1-.434.21Z" class="Vector"/>
    <path fill="#65D45C" d="M237.739 52.535H136.545a4.41 4.41 0 0 0-4.41 4.41v90.415a4.41 4.41 0 0 0 4.41 4.41h101.194a4.41 4.41 0 0 0 4.411-4.41V56.946a4.41 4.41 0 0 0-4.411-4.41Z" class="Vector"/>
    <path fill="#fff" d="M242.15 91.251V80.714h-8.821V52.535h-10.537v29.403H178.65l20.13-29.403h-14.701l-51.944 76.205v16.172H242.15v-10.784h-8.575V91.252h8.575Zm-69.876 0h7.883l17.888 42.877h-55.13l29.359-42.876Zm37.779 42.877-18.135-43.123h30.874v43.123h-12.739Z" class="Vector"/>
    <path fill="#0D2823" d="M198.207 127.52a7.438 7.438 0 1 0-12.577 0l6.288 10.957 6.289-10.957Z" class="Vector"/>
    <path fill="#fff" d="M190.959 132.114a.427.427 0 0 1-.364-.65l3.227-5.249h-4.568a.418.418 0 0 1-.43-.428.43.43 0 0 1 .062-.215l3.279-5.472a.426.426 0 0 1 .586-.149.43.43 0 0 1 .149.586l-2.882 4.826h4.576a.425.425 0 0 1 .368.65l-3.624 5.899a.425.425 0 0 1-.379.202Z" class="Vector"/>
    <path fill="#0D2823" d="M229.08 88.69a7.44 7.44 0 1 0-12.804-7.564 7.441 7.441 0 0 0 .227 7.564l6.288 10.953 6.289-10.953Z" class="Vector"/>
    <path fill="#fff" d="M221.832 93.284a.429.429 0 0 1-.368-.65l3.227-5.249h-4.565a.426.426 0 0 1-.367-.647l3.278-5.472a.434.434 0 0 1 .429-.205.421.421 0 0 1 .281.167.424.424 0 0 1 .025.475l-2.881 4.83h4.576a.423.423 0 0 1 .367.65l-3.624 5.88a.423.423 0 0 1-.378.221Z" class="Vector"/>
    <path fill="#0D2823" d="M176.459 76.22a7.44 7.44 0 1 0-12.804-7.564 7.441 7.441 0 0 0 .227 7.563l6.288 10.953 6.289-10.953Z" class="Vector"/>
    <path fill="#fff" d="M169.212 80.813a.43.43 0 0 1-.368-.65l3.223-5.249h-4.561a.43.43 0 0 1-.367-.646l3.267-5.473a.43.43 0 0 1 .586-.149.426.426 0 0 1 .149.586l-2.867 4.83h4.58a.428.428 0 0 1 .368.647l-3.624 5.88a.433.433 0 0 1-.386.224Z" class="Vector"/>
    <path fill="#65D45C" d="M110.961 78.281c21.2 0 38.385-17.186 38.385-38.386 0-21.2-17.185-38.385-38.385-38.385S72.575 18.696 72.575 39.895c0 21.2 17.186 38.386 38.386 38.386Z" class="Vector"/>
    <path fill="#fff" d="M110.961 78.836a38.941 38.941 0 1 1 38.937-38.94 38.988 38.988 0 0 1-38.937 38.94Zm0-76.775a37.838 37.838 0 1 0 37.834 37.835A37.879 37.879 0 0 0 110.961 2.06Z" class="Vector"/>
    <path fill="#65D45C" d="M128.165 24.157a23.318 23.318 0 0 0-29.23-4.244 23.32 23.32 0 1 0 35.342 19.982" class="Vector"/>
    <path fill="#fff" d="M110.96 63.767a23.874 23.874 0 0 1-23.79-21.932 23.873 23.873 0 0 1 41.41-18.05.548.548 0 0 1 .128.63.559.559 0 0 1-.331.299.546.546 0 0 1-.442-.043.55.55 0 0 1-.171-.15 22.771 22.771 0 0 0-28.538-4.143 22.77 22.77 0 1 0 34.507 19.51.552.552 0 0 1 .941-.39.552.552 0 0 1 .161.39c0 .448 0 .896-.036 1.341a23.866 23.866 0 0 1-23.839 22.538Z" class="Vector"/>
    <path fill="#fff" d="M122.362 25.307a.551.551 0 1 1 0-1.102l5.715-.166-.628-5.807a.553.553 0 1 1 1.102-.114l.673 6.4a.558.558 0 0 1-.313.559.546.546 0 0 1-.22.05l-6.307.184-.022-.004Z" class="Vector"/>
    <path fill="#65D45C" d="M278.414 183.963h-33.813a4.411 4.411 0 0 0-4.411 4.41v1.224a4.411 4.411 0 0 0 4.411 4.411h33.813a4.411 4.411 0 0 0 4.411-4.411v-1.224a4.411 4.411 0 0 0-4.411-4.41Z" class="Vector"/>
    <path fill="#044348" d="M254.437 211.068h-62.555a8.784 8.784 0 0 0-8.784 8.785v1.543a8.783 8.783 0 0 0 8.784 8.784h62.555a8.784 8.784 0 0 0 8.784-8.784v-1.543a8.785 8.785 0 0 0-8.784-8.785Z" class="Vector"/>
    <path fill="#65D45C" d="M278.411 242.432h-40.183a4.41 4.41 0 0 0-4.411 4.41v3.922a4.41 4.41 0 0 0 4.411 4.41h40.183a4.41 4.41 0 0 0 4.41-4.41v-3.922a4.41 4.41 0 0 0-4.41-4.41Z" class="Vector"/>
    <path fill="#63D658" d="M81.903 239.979h-50.72a4.41 4.41 0 0 0-4.41 4.41v1.224a4.41 4.41 0 0 0 4.41 4.41h50.72a4.41 4.41 0 0 0 4.41-4.41v-1.224a4.41 4.41 0 0 0-4.41-4.41Z" class="Vector"/>
    <path fill="#044348" d="M85.329 197.131H5.823v28.807H85.33v-28.807Z" class="Vector"/>
    <path fill="#fff" d="M84.843 196.856v-9.361a3.638 3.638 0 0 0-3.628-3.624H9.935a3.635 3.635 0 0 0-3.627 3.624v9.361h78.535Z" class="Vector"/>
    <path fill="#0D2823" d="M85.296 197.309H5.856v-9.813a4.084 4.084 0 0 1 4.08-4.08h71.28a4.083 4.083 0 0 1 4.08 4.08v9.813Zm-78.532-.904h77.628v-8.909a3.177 3.177 0 0 0-3.176-3.172H9.936a3.174 3.174 0 0 0-3.172 3.172v8.909Z" class="Vector"/>
    <path fill="#fff" d="M6.308 226.26v5.928a3.64 3.64 0 0 0 3.627 3.628h71.28a3.638 3.638 0 0 0 3.628-3.628v-5.928H6.308Z" class="Vector"/>
    <path fill="#0D2823" d="M81.216 236.267H9.936a4.083 4.083 0 0 1-4.08-4.08v-6.38h79.44v6.38a4.084 4.084 0 0 1-4.08 4.08Zm-74.452-9.556v5.476a3.18 3.18 0 0 0 3.172 3.176h71.28a3.184 3.184 0 0 0 3.176-3.176v-5.476H6.764Z" class="Vector"/>
    <path fill="#fff" d="M277.003 191.861a2.878 2.878 0 1 0 0-5.756 2.878 2.878 0 0 0 0 5.756Zm-2.878 60.512a3.573 3.573 0 1 0 0-7.145 3.573 3.573 0 0 0 0 7.145Z" class="Vector"/>
    <path fill="#F1EEEC" d="m200.573 168.511 3.598 1.683 13.842-37.749-4.852-14.198.368-2.342 1.654.206 4.116 6.27s7.983-1.529 12.317-11.651c0 0 1.433 2.665.977 4.286l.985 3.675.901 3.712.305 2.643-2.533 6.641s-3.443 12.239-2.572 21.476c.871 9.236-1.584 30.009-5.635 34.276-4.05 4.267-6.836 19.847-28.572 8.454l-1.614-4.018.882-.636 5.833-22.728Zm-68.439-50.445-10.996 7.936 1.837 2.4s-4.384 9.497 5.146 13.83v6.292l11.915-9.556-.551-10.566-7.351-10.336Zm-90.02 43.242-7.256-12.783.441-1.165 1.654.504 6.403 5.744-4.55-9.861.301-1.345 1.264-.187 6.524 8.839-2.573-8.839.287-1.838 1.353.493 5.792 8.629-1.091-7.681.827-1.937 1.15.503 2.756 9.336 1 5.947 2.962-4.569 1.47-.503 1.044 1.33-2.502 12.864 1.01 2.058 17.436 20.351 11.482-7.351 18.16 28.3s-22.14 12.831-31.608 8.913c-9.468-3.918-7.046-3.227-7.046-3.227s-4.543-3.877-8.27-12.632l-11.71-25.478-2.873-8.023-3.837-6.392Zm93.45 77.197 65.422-11.806s4.678 2.268 12.092 20.95c9.041 22.835 14.37 69.023 14.37 69.023H126.416s0-54.884 9.148-78.167Z" class="Vector"/>
    <path fill="#D6F2FF" d="m87.64 177.255 21.707 33.813 9.975-4.168 12.813 32.222 73.077-13.183-10.908-32.983 6.681-26.055-37.61-17.09-41.237 9.835-34.497 17.609Z" class="Vector"/>
    <path fill="#0D2823" d="M125.181 128.954h-.055c-4.153-.404-4.521-2.771-4.535-2.874a.553.553 0 0 1 .224-.518l13.139-9.486a.547.547 0 0 1 .612-.024.54.54 0 0 1 .248.342.538.538 0 0 1-.067.417.55.55 0 0 1-.146.158l-12.809 9.247c.243.474 1.029 1.408 3.444 1.643a.55.55 0 0 1 .524.579.547.547 0 0 1-.181.381.547.547 0 0 1-.398.142v-.007Z" class="Vector"/>
    <path fill="#0D2823" d="M130.694 143.012h-.033c-.202 0-4.988-.35-7.546-4.106-1.838-2.712-2.025-6.461-.518-11.136a.553.553 0 0 1 1.051.338c-1.4 4.337-1.272 7.759.368 10.177 2.256 3.308 6.656 3.624 6.7 3.624a.552.552 0 1 1-.033 1.103h.011Z" class="Vector"/>
    <path fill="#0D2823" d="M128.121 147.912a.548.548 0 0 1-.39-.162.548.548 0 0 1-.162-.39v-5.465a.551.551 0 0 1 1.103 0v5.465a.548.548 0 0 1-.162.39.547.547 0 0 1-.389.162Zm-3.246-13.967a4.707 4.707 0 0 1-3.043-1.073.555.555 0 0 1 .064-.941.547.547 0 0 1 .631.088c2.267 1.838 5.27-.022 5.3-.041a.552.552 0 0 1 .588.934 7.288 7.288 0 0 1-3.54 1.033Zm10.49.062a4.374 4.374 0 0 1-.823-.081.553.553 0 1 1 .205-1.084 2.107 2.107 0 0 0 1.743-.29c.735-.57.819-1.691.819-1.702a.54.54 0 0 1 .585-.518.557.557 0 0 1 .38.184.567.567 0 0 1 .138.4c0 .066-.11 1.621-1.246 2.507a2.841 2.841 0 0 1-1.801.584Zm-6.182-8.124c.452-.644.499-1.391.105-1.667s-1.08.022-1.532.667c-.452.645-.499 1.392-.105 1.668s1.079-.023 1.532-.668Z" class="Vector"/>
    <path fill="#0D2823" d="M133.789 128.716a.536.536 0 0 0 .647.275c1.165-.367 4.314-1.044 4.711 1.893.434 3.19-2.481 4.043-3.399 4.319 0 0-.511 5.88-8.226 12.158-8.067 6.557-6.417 19.479-2.37 22.115 4.348 2.819 12.801 5.024 26.308-6.34 13.507-11.365 21.225-14.978 17.642-23.063-3.584-8.086-11.486-10.2-11.486-10.2s10.526.419 9.556-9.923c-.827-8.821-13.397-7.865-15.345-1.93 0 0-8.177-5.237-16.079-2.756-6.991 2.205-2.981 11.364-1.959 13.452Z" class="Vector"/>
    <path fill="#0D2823" d="M109.347 211.621a.551.551 0 0 1-.467-.254l-21.684-33.813a.553.553 0 0 1 .213-.79l63.359-32.343a.548.548 0 0 1 .824.441.546.546 0 0 1-.324.54l-62.834 32.067 21.126 32.913 9.556-3.987a.541.541 0 0 1 .428-.008.54.54 0 0 1 .182.12.537.537 0 0 1 .12.608.547.547 0 0 1-.307.298l-9.972 4.164a.534.534 0 0 1-.22.044Zm84.956-18.113a.443.443 0 0 1-.136 0 .56.56 0 0 1-.338-.252.542.542 0 0 1-.059-.417l6.564-25.606-40.554-18.204a.55.55 0 0 1 .032-1.012.552.552 0 0 1 .417.005l40.98 18.376a.552.552 0 0 1 .309.64l-6.678 26.055a.555.555 0 0 1-.537.415Z" class="Vector"/>
    <path fill="#0D2823" d="M132.134 239.675a.557.557 0 0 1-.514-.367l-16.021-40.271a.552.552 0 1 1 1.022-.408l15.859 39.874 72.008-12.978-14.316-43.002a.557.557 0 0 1 .141-.622.545.545 0 0 1 .419-.139.561.561 0 0 1 .386.213c.046.06.08.129.098.203l14.518 43.601c.025.074.034.153.025.231a.545.545 0 0 1-.229.392.532.532 0 0 1-.212.093l-73.088 13.173-.096.007Z" class="Vector"/>
    <path fill="#0D2823" d="M126.416 317.224a.55.55 0 0 1-.544-.555c0-.57.669-56.968 9.189-78.37a.553.553 0 1 1 1.025.408c-8.453 21.214-9.104 77.407-9.108 77.969a.538.538 0 0 1-.166.392.57.57 0 0 1-.182.118.579.579 0 0 1-.214.038Zm50.558.001a.552.552 0 0 1-.551-.525l-2.452-54.396a.553.553 0 0 1 1.103-.051l2.451 54.395a.555.555 0 0 1-.529.577h-.022Zm50.474 0a.554.554 0 0 1-.548-.489c-.084-.761-8.755-76.22-26.249-89.598a.552.552 0 0 1 .669-.875c7.527 5.752 14.304 22.725 20.144 50.437 4.334 20.582 6.509 39.72 6.531 39.911a.548.548 0 0 1-.485.61l-.062.004Zm-23.276-146.464a.579.579 0 0 1-.235-.052l-3.598-1.683a.551.551 0 1 1 .467-1l3.598 1.684a.552.552 0 0 1-.232 1.051Z" class="Vector"/>
    <path fill="#0D2823" d="M200.986 179.887a.551.551 0 0 1-.519-.739l16.955-46.677c-1.242-2.779-6.153-14.162-4.525-16.657a1.341 1.341 0 0 1 1.239-.676c1.86.128 4.26 4.597 5.245 6.615 2.047-.955 10.067-5.053 11.699-11.147a.548.548 0 0 1 .893-.246c.047.044 1.202 1.102 1.157 3.241-.066 3.11-2.532 6.708-7.35 10.699a.55.55 0 0 1-.898-.253.563.563 0 0 1 .05-.43.552.552 0 0 1 .146-.166c5.619-4.675 6.869-7.924 6.928-9.824a3.914 3.914 0 0 0-.261-1.595c-2.669 6.81-12.026 10.798-12.445 10.975a.55.55 0 0 1-.709-.272c-1.471-3.058-3.606-6.399-4.558-6.462-.044 0-.121 0-.242.177-.985 1.51 2.153 10.151 4.697 15.804a.543.543 0 0 1 0 .415l-16.984 46.854a.55.55 0 0 1-.518.364Z" class="Vector"/>
    <path fill="#0D2823" d="M227.816 127.164a.553.553 0 0 1-.368-.978c.077-.062 7.542-6.207 4.653-10.879a.55.55 0 0 1 .937-.581c1.43 2.309 1.008 5.19-1.209 8.336a22.03 22.03 0 0 1-3.675 3.981.554.554 0 0 1-.338.121Z" class="Vector"/>
    <path fill="#0D2823" d="M230.23 130.149a.552.552 0 0 1-.401-.93c.059-.063 5.719-6.123 3.271-10.244a.546.546 0 0 1-.066-.421.558.558 0 0 1 .254-.342.557.557 0 0 1 .618.037.576.576 0 0 1 .143.164c2.874 4.833-3.161 11.291-3.419 11.563a.542.542 0 0 1-.4.173Z" class="Vector"/>
    <path fill="#0D2823" d="M208.013 200.69c-7.024 0-12.945-4.411-13.232-4.624a.549.549 0 0 1-.122-.784.547.547 0 0 1 .374-.214.559.559 0 0 1 .219.017.563.563 0 0 1 .195.103c.073.055 7.486 5.572 15.194 4.168 4.149-.757 7.667-3.378 10.456-7.785 8.556-13.547 8.262-28.014 8.057-37.588-.037-1.683-.07-3.275-.052-4.668.132-9.975 1.253-16.171 3.756-20.718 2.327-4.234.974-6.248.96-6.274a.559.559 0 0 1 .128-.768.556.556 0 0 1 .765.118c.073.103 1.812 2.547-.886 7.454-2.378 4.322-3.495 10.552-3.62 20.214 0 1.375 0 2.94.051 4.631.21 9.703.522 24.372-8.222 38.198-2.962 4.686-6.715 7.458-11.199 8.27-.931.167-1.876.251-2.822.25ZM80.099 217.975a21.928 21.928 0 0 1-5.094-.536 15.842 15.842 0 0 1-10.291-7.601c-9.508-16.006-16-33.262-18.443-39.76a79.236 79.236 0 0 0-.809-2.114c-2.595-4.285-10.956-18.16-11.14-19.336-.121-.772.118-1.407.64-1.694.753-.415 1.837 0 3.208 1.194 1.132.997 2.863 2.808 4.355 4.411-1.514-2.889-3.403-6.524-3.903-7.604-.735-1.562-.342-2.573.202-3 .43-.319 1.158-.419 1.919.25 1.102.989 7.35 10.086 8.038 11.122a.552.552 0 0 1-.911.621c-2.735-4.017-7.083-10.236-7.855-10.916-.217-.187-.43-.268-.53-.191-.098.077-.319.665.137 1.65.842 1.816 5.851 11.306 5.899 11.394a.55.55 0 0 1-.9.621c-.056-.059-4.94-5.572-7.19-7.545-1.223-1.077-1.837-1.129-1.951-1.059-.063.033-.133.232-.081.559.25.978 6.891 12.158 11.026 18.972a.464.464 0 0 1 .037.074c.165.404.448 1.15.838 2.187 2.433 6.468 8.902 23.662 18.377 39.58a14.784 14.784 0 0 0 9.581 7.082c13.199 3.131 31.715-8.567 31.903-8.685a.55.55 0 0 1 .877.354.556.556 0 0 1-.112.428.54.54 0 0 1-.174.144 75.987 75.987 0 0 1-11.147 5.646c-7.068 2.867-12.496 3.752-16.506 3.752Z" class="Vector"/>
    <path fill="#0D2823" d="M81.72 192.416a.552.552 0 0 1-.412-.188c-2.206-2.488-21.597-24.375-22.347-26.624-.481-1.441.206-4.473 1.228-8.601.394-1.418.702-2.859.922-4.314.07-.838-.091-1.423-.43-1.562a.866.866 0 0 0-.907.33c-.607.706-2.176 3.992-2.731 5.197a.545.545 0 0 1-.566.323.545.545 0 0 1-.474-.448c-1.397-7.325-3.308-15.315-4.095-16.006a.552.552 0 0 0-.18-.088c-.161.176-.911 1.566 1.037 11.566a.554.554 0 0 1-.429.673.55.55 0 0 1-.652-.46c-1.988-10.199-1.393-12.15-.547-12.713.227-.154.713-.342 1.392.111 1.272.849 3.202 9.809 4.235 15.069.676-1.397 1.646-3.308 2.175-3.929a1.951 1.951 0 0 1 2.169-.629c.478.199 1.257.812 1.103 2.672a36.354 36.354 0 0 1-.953 4.488c-.702 2.845-1.668 6.74-1.253 7.99.515 1.536 13.515 16.539 22.126 26.239a.555.555 0 0 1 .086.607.564.564 0 0 1-.13.172.57.57 0 0 1-.368.125Z" class="Vector"/>
    <path fill="#0D2823" d="M48.317 154.16a.557.557 0 0 1-.514-.368c-.026-.066-2.532-6.759-3.018-8.126-1.47-4.12-1.08-5.146-.584-5.587.265-.235.735-.426 1.566 0 2.286 1.154 6.49 10.725 6.964 11.813a.552.552 0 1 1-1.014.441c-1.72-3.969-4.995-10.537-6.45-11.272a1.015 1.015 0 0 0-.346-.122c-.062.151-.29 1.007.9 4.374.482 1.356 2.989 8.038 3.015 8.108a.55.55 0 0 1-.324.709.586.586 0 0 1-.195.03Zm29.282 33.582a.55.55 0 0 1-.294-1.018l11.698-7.351a.553.553 0 0 1 .81.592.551.551 0 0 1-.225.342l-11.695 7.351a.546.546 0 0 1-.294.084Z" class="Vector"/>
  </g>
</svg>
