<svg xmlns="http://www.w3.org/2000/svg" viewBox="0 0 1072 1072"><defs><style>.cls-1{fill:#fff;}.cls-2{fill:#0d2823;}.cls-3{fill:#d6f2ff;}.cls-4{fill:#044348;}.cls-5{fill:#65d45c;}.cls-6{fill:#63d658;}.cls-7{fill:#f1eeec;}</style></defs><title>ILUSTRACIONES GAIA</title><g id="ILUSTRACIÓN_16" data-name="ILUSTRACIÓN 16"><path class="cls-1" d="M899,383.5V347a12,12,0,0,0-12-12H721a12,12,0,0,0-12,12v36.5Z"/><path class="cls-2" d="M900.5,385h-193V347A13.52,13.52,0,0,1,721,333.5H887A13.52,13.52,0,0,1,900.5,347Zm-190-3h187V347A10.51,10.51,0,0,0,887,336.5H721A10.51,10.51,0,0,0,710.5,347Z"/><path class="cls-1" d="M709,512.5v26a12,12,0,0,0,12,12H887a12,12,0,0,0,12-12v-26Z"/><path class="cls-2" d="M887,552H721a13.52,13.52,0,0,1-13.5-13.5V511h193v27.5A13.52,13.52,0,0,1,887,552ZM710.5,514v24.5A10.51,10.51,0,0,0,721,549H887a10.51,10.51,0,0,0,10.5-10.5V514Z"/><rect class="cls-3" x="707.67" y="384.76" width="192.74" height="126.24"/><path class="cls-2" d="M883.33,354.83H826.67a1.5,1.5,0,0,1,0-3h56.66a1.5,1.5,0,0,1,0,3Z"/><path class="cls-2" d="M883.33,368.5H855a1.5,1.5,0,0,1,0-3h28.33a1.5,1.5,0,0,1,0,3Z"/><path class="cls-2" d="M886.67,528.75H822.33a1.5,1.5,0,1,1,0-3h64.34a1.5,1.5,0,1,1,0,3Z"/><path class="cls-2" d="M814,528.71H767.67a1.46,1.46,0,1,1,0-2.92H814a1.46,1.46,0,0,1,0,2.92Z"/><path class="cls-2" d="M831,495.5a1.5,1.5,0,0,1-1.44-1.07l-25.84-86L771,476a1.5,1.5,0,0,1-2.7-1.31l34.38-71a1.5,1.5,0,0,1,2.78.22l25.46,84.69,14.28-51.66a1.52,1.52,0,0,1,1.39-1.1,1.49,1.49,0,0,1,1.47,1l8.27,22.82,25.58-69.16a1.5,1.5,0,1,1,2.81,1l-27,73a1.5,1.5,0,0,1-1.41,1h0a1.51,1.51,0,0,1-1.41-1l-8.06-22.24L832.45,494.4a1.52,1.52,0,0,1-1.43,1.1Z"/><path class="cls-1" d="M370.67,319.67v-58a12,12,0,0,0-12-12H141.33a12,12,0,0,0-12,12v58"/><path class="cls-2" d="M372.17,319.67h-3v-58a10.51,10.51,0,0,0-10.5-10.5H141.33a10.51,10.51,0,0,0-10.5,10.5v58h-3v-58a13.51,13.51,0,0,1,13.5-13.5H358.67a13.51,13.51,0,0,1,13.5,13.5Z"/><path class="cls-1" d="M129.33,504.33v43.34a12,12,0,0,0,12,12H358.67a12,12,0,0,0,12-12V504.33"/><path class="cls-2" d="M358.67,561.17H141.33a13.52,13.52,0,0,1-13.5-13.5V504.33h3v43.34a10.51,10.51,0,0,0,10.5,10.5H358.67a10.51,10.51,0,0,0,10.5-10.5V504.33h3v43.34A13.52,13.52,0,0,1,358.67,561.17Z"/><rect class="cls-3" x="128.22" y="319.67" width="243.9" height="184.67"/><circle class="cls-4" cx="166.25" cy="287.25" r="17.75"/><path class="cls-2" d="M284,279H200a1.5,1.5,0,0,1,0-3h84a1.5,1.5,0,0,1,0,3Z"/><path class="cls-2" d="M348.5,303H200a1.5,1.5,0,0,1,0-3H348.5a1.5,1.5,0,0,1,0,3Z"/><rect class="cls-5" x="207.43" y="334.97" width="85.5" height="155.36" rx="11.48" ry="11.48"/><rect class="cls-4" x="223.34" y="357.5" width="53.66" height="54.5"/><rect class="cls-1" x="227.44" y="378.75" width="45.48" height="13.75"/><rect class="cls-1" x="227.44" y="395.13" width="45.48" height="13.75"/><circle class="cls-4" cx="250.18" cy="426.67" r="7.67"/><path class="cls-4" d="M372.13,476.17H329.36a9.21,9.21,0,0,1-9.19-9.2V434.36a6.2,6.2,0,0,0-6.2-6.19h-63.8v-3H314a9.21,9.21,0,0,1,9.2,9.19V467a6.2,6.2,0,0,0,6.19,6.2h42.77Z"/><path class="cls-1" d="M242.51,473.17a1.51,1.51,0,0,1-1.18-2.43l9.91-12.57h-8.73a1.5,1.5,0,0,1-1.16-2.46l11.83-14.33a1.5,1.5,0,1,1,2.31,1.91l-9.8,11.88h8.64a1.5,1.5,0,0,1,1.18,2.43l-11.82,15A1.53,1.53,0,0,1,242.51,473.17Z"/><rect class="cls-5" x="484.67" y="246.33" width="299.33" height="270" rx="12" ry="12"/><path class="cls-1" d="M784,351.67V323H760V246.33H731.33v80H611.23l54.77-80H626L484.67,453.67v44H784V468.33H760.67V351.67Zm-190.12,0h21.45L664,468.33H514ZM696.67,468.33,647.33,351h84V468.33Z"/><path class="cls-2" d="M664.44,450.35a20.24,20.24,0,1,0-34.22,0l17.11,29.81Z"/><path class="cls-1" d="M644.72,462.85a1.07,1.07,0,0,1-.6-.17,1.17,1.17,0,0,1-.39-1.6l8.78-14.28H640.08a1.15,1.15,0,0,1-1-1.75L648,430.16a1.16,1.16,0,0,1,2,1.19l-7.84,13.13h12.45a1.16,1.16,0,0,1,1,1.77l-9.86,16.05A1.15,1.15,0,0,1,644.72,462.85Z"/><path class="cls-2" d="M748.44,344.7a20.24,20.24,0,1,0-34.22,0l17.11,29.8Z"/><path class="cls-1" d="M728.72,357.2a1.17,1.17,0,0,1-1-1.77l8.78-14.28H724.08a1.16,1.16,0,0,1-1-1.76L732,324.5a1.16,1.16,0,0,1,2,1.19l-7.84,13.14h12.45a1.15,1.15,0,0,1,1,1.77l-9.86,16A1.17,1.17,0,0,1,728.72,357.2Z"/><path class="cls-2" d="M605.27,310.77a20.24,20.24,0,1,0-34.22,0l17.11,29.8Z"/><path class="cls-1" d="M585.55,323.27a1.17,1.17,0,0,1-1-1.77l8.77-14.28H580.91a1.17,1.17,0,0,1-1-1.76l8.89-14.89a1.16,1.16,0,0,1,2,1.19L583,304.9h12.46a1.16,1.16,0,0,1,1,1.76l-9.86,16A1.16,1.16,0,0,1,585.55,323.27Z"/><circle class="cls-5" cx="427.06" cy="211.94" r="104.44"/><path class="cls-1" d="M427.06,317.89A105.95,105.95,0,1,1,533,211.94,106.07,106.07,0,0,1,427.06,317.89Zm0-208.89A102.95,102.95,0,1,0,530,211.94,103.06,103.06,0,0,0,427.06,109Z"/><path class="cls-5" d="M473.87,169.12a63.45,63.45,0,1,0,16.53,46.39c.07-1.18.1-2.37.1-3.57"/><path class="cls-1" d="M427.06,276.89A64.95,64.95,0,1,1,475,168.11a1.5,1.5,0,1,1-2.22,2,61.95,61.95,0,1,0,16.14,45.3c.07-1.16.1-2.33.1-3.49a1.5,1.5,0,0,1,3,0c0,1.22,0,2.44-.1,3.65A64.94,64.94,0,0,1,427.06,276.89Z"/><path class="cls-1" d="M458.08,172.25a1.5,1.5,0,0,1,0-3l15.55-.45L471.92,153a1.5,1.5,0,0,1,3-.31l1.83,17.41a1.49,1.49,0,0,1-1.45,1.66l-17.16.5Z"/><rect class="cls-5" x="778.67" y="603.92" width="116" height="27.33" rx="12" ry="12"/><rect class="cls-4" x="623.33" y="677.67" width="218" height="52" rx="23.9" ry="23.9"/><rect class="cls-5" x="761.33" y="763" width="133.33" height="34.67" rx="12" ry="12"/><rect class="cls-6" x="198" y="756.33" width="162" height="27.33" rx="12" ry="12"/><rect class="cls-4" x="141" y="639.75" width="216.32" height="78.38"/><path class="cls-1" d="M356,639V613.53a9.89,9.89,0,0,0-9.87-9.86H152.19a9.89,9.89,0,0,0-9.87,9.86V639Z"/><path class="cls-2" d="M357.23,640.23H141.09v-26.7a11.11,11.11,0,0,1,11.1-11.1H346.13a11.11,11.11,0,0,1,11.1,11.1Zm-213.67-2.46H354.77V613.53a8.65,8.65,0,0,0-8.64-8.63H152.19a8.64,8.64,0,0,0-8.63,8.63Z"/><path class="cls-1" d="M142.32,719v16.13a9.9,9.9,0,0,0,9.87,9.87H346.13a9.9,9.9,0,0,0,9.87-9.87V719Z"/><path class="cls-2" d="M346.13,746.23H152.19a11.11,11.11,0,0,1-11.1-11.1V717.77H357.23v17.36A11.11,11.11,0,0,1,346.13,746.23Zm-202.57-26v14.9a8.65,8.65,0,0,0,8.63,8.64H346.13a8.66,8.66,0,0,0,8.64-8.64v-14.9Z"/><circle class="cls-1" cx="878.83" cy="617.58" r="7.83"/><circle class="cls-1" cx="871" cy="780.33" r="9.72"/><path class="cls-7" d="M670.88,561.88l9.79,4.58,37.66-102.71-13.2-38.63,1-6.37,4.5.56,11.2,17.06s21.72-4.16,33.51-31.7c0,0,3.9,7.25,2.66,11.66l2.68,10,2.45,10.1.83,7.19-6.89,18.07s-9.37,33.3-7,58.43-4.31,81.65-15.33,93.26-18.6,54-77.74,23l-4.39-10.93,2.4-1.73Z"/><path class="cls-7" d="M484.67,424.63l-29.92,21.59,5,6.53s-11.93,25.84,14,37.63V507.5l32.42-26-1.5-28.75Z"/><path class="cls-7" d="M239.74,542.28,220,507.5l1.2-3.17,4.5,1.37,17.42,15.63L230.74,494.5l.82-3.66,3.44-.51,17.75,24.05-7-24.05.78-5,3.68,1.34,15.76,23.48L263,489.25l2.25-5.27,3.13,1.37,7.5,25.4,2.72,16.18,8.06-12.43,4-1.37,2.84,3.62-6.81,35,2.75,5.6,47.44,55.37,31.24-20,49.41,77s-60.24,34.91-86,24.25-19.17-8.78-19.17-8.78S300,674.64,289.86,650.82L258,581.5l-7.82-21.83Z"/><path class="cls-7" d="M494,752.32,672,720.2s12.73,6.17,32.9,57C729.5,839.33,744,965,744,965H469.11S469.11,815.67,494,752.32Z"/><polygon class="cls-3" points="363.61 585.67 422.67 677.67 449.81 666.33 484.67 754 683.5 718.13 653.82 628.39 672 557.5 569.67 511 457.47 537.76 363.61 585.67"/><path class="cls-2" d="M465.75,454.25h-.15c-11.3-1.1-12.3-7.54-12.34-7.82a1.5,1.5,0,0,1,.61-1.41l35.75-25.81a1.5,1.5,0,1,1,1.76,2.43l-34.85,25.16c.66,1.29,2.8,3.83,9.37,4.47a1.5,1.5,0,0,1-.15,3Z"/><path class="cls-2" d="M480.75,492.5h-.09c-.55,0-13.57-.95-20.53-11.17-5-7.38-5.51-17.58-1.41-30.3a1.5,1.5,0,1,1,2.86.92c-3.81,11.8-3.46,21.11,1,27.69,6.14,9,18.11,9.86,18.23,9.86a1.5,1.5,0,0,1-.09,3Z"/><path class="cls-2" d="M473.75,505.83a1.5,1.5,0,0,1-1.5-1.5V489.46a1.5,1.5,0,0,1,3,0v14.87A1.5,1.5,0,0,1,473.75,505.83Z"/><path class="cls-2" d="M464.92,467.83a12.8,12.8,0,0,1-8.28-2.92,1.5,1.5,0,1,1,1.89-2.32c6.17,5,14.34-.06,14.42-.11a1.5,1.5,0,0,1,1.6,2.54A19.83,19.83,0,0,1,464.92,467.83Z"/><path class="cls-2" d="M493.46,468a11.87,11.87,0,0,1-2.24-.22,1.5,1.5,0,0,1,.56-2.95,5.71,5.71,0,0,0,4.74-.79c2-1.55,2.23-4.6,2.23-4.63a1.47,1.47,0,0,1,1.59-1.41,1.5,1.5,0,0,1,1.41,1.59c0,.18-.3,4.41-3.39,6.82A7.72,7.72,0,0,1,493.46,468Z"/><ellipse class="cls-2" cx="474.7" cy="444.53" rx="3.88" ry="2.37" transform="translate(-161.81 577.97) rotate(-54.96)"/><path class="cls-2" d="M489.17,453.6a1.47,1.47,0,0,0,1.76.75c3.17-1,11.74-2.84,12.82,5.15,1.18,8.68-6.75,11-9.25,11.75,0,0-1.39,16-22.38,33.08-21.95,17.84-17.46,53-6.45,60.17,11.83,7.67,34.83,13.67,71.58-17.25s57.75-40.75,48-62.75S554,456.75,554,456.75s28.64,1.14,26-27c-2.25-24-36.45-21.4-41.75-5.25,0,0-22.25-14.25-43.75-7.5C475.48,423,486.39,447.92,489.17,453.6Z"/><path class="cls-2" d="M422.67,679.17a1.52,1.52,0,0,1-1.27-.69l-59-92a1.5,1.5,0,0,1,.58-2.15l172.39-88a1.5,1.5,0,1,1,1.36,2.67L365.77,586.25l57.48,89.55,26-10.85a1.5,1.5,0,1,1,1.15,2.77l-27.13,11.33A1.51,1.51,0,0,1,422.67,679.17Z"/><path class="cls-2" d="M653.82,629.89a1.18,1.18,0,0,1-.37,0,1.49,1.49,0,0,1-1.08-1.82l17.86-69.67L559.89,508.87a1.5,1.5,0,0,1,1.22-2.74l111.5,50a1.5,1.5,0,0,1,.84,1.74l-18.17,70.89A1.51,1.51,0,0,1,653.82,629.89Z"/><path class="cls-2" d="M484.67,755.5a1.51,1.51,0,0,1-1.4-1L439.68,644.93a1.5,1.5,0,1,1,2.78-1.11l43.15,108.49L681.53,717,642.58,600a1.5,1.5,0,1,1,2.84-.94l39.5,118.63a1.48,1.48,0,0,1-.13,1.23,1.51,1.51,0,0,1-1,.72L484.93,755.48Z"/><path class="cls-2" d="M469.11,966.5h0a1.5,1.5,0,0,1-1.48-1.51c0-1.55,1.82-155,25-213.23a1.5,1.5,0,1,1,2.79,1.11c-23,57.72-24.77,210.61-24.78,212.14A1.5,1.5,0,0,1,469.11,966.5Z"/><path class="cls-2" d="M606.67,966.5a1.5,1.5,0,0,1-1.5-1.43l-6.67-148a1.5,1.5,0,0,1,3-.14l6.67,148a1.51,1.51,0,0,1-1.44,1.57Z"/><path class="cls-2" d="M744,966.5a1.51,1.51,0,0,1-1.49-1.33c-.23-2.07-23.82-207.38-71.42-243.78a1.5,1.5,0,0,1,1.82-2.38c20.48,15.65,38.92,61.83,54.81,137.23,11.79,56,17.71,108.07,17.77,108.59a1.5,1.5,0,0,1-1.32,1.66Z"/><path class="cls-2" d="M680.67,568a1.61,1.61,0,0,1-.64-.14l-9.79-4.58a1.5,1.5,0,0,1,1.27-2.72l9.79,4.58a1.5,1.5,0,0,1-.63,2.86Z"/><path class="cls-2" d="M672,592.83a1.52,1.52,0,0,1-.51-.09,1.5,1.5,0,0,1-.9-1.92l46.13-127c-3.38-7.56-16.74-38.53-12.31-45.32a3.65,3.65,0,0,1,3.37-1.84c5.06.35,11.59,12.51,14.27,18,5.57-2.6,27.39-13.75,31.83-30.33a1.51,1.51,0,0,1,1-1,1.47,1.47,0,0,1,1.43.33c.13.12,3.27,3,3.15,8.82-.18,8.46-6.89,18.25-20,29.11a1.5,1.5,0,1,1-1.91-2.31c15.29-12.72,18.69-21.56,18.85-26.73a10.61,10.61,0,0,0-.71-4.34c-7.26,18.53-32.72,29.38-33.86,29.86a1.5,1.5,0,0,1-1.93-.74c-4-8.32-9.81-17.41-12.4-17.58-.12,0-.33,0-.66.48-2.68,4.11,5.86,27.62,12.78,43a1.48,1.48,0,0,1,0,1.13L673.41,591.84A1.49,1.49,0,0,1,672,592.83Z"/><path class="cls-2" d="M745,449.38a1.5,1.5,0,0,1-1-2.66c.21-.17,20.52-16.89,12.66-29.6a1.5,1.5,0,0,1,2.55-1.58c3.89,6.28,2.74,14.12-3.29,22.68a59.9,59.9,0,0,1-10,10.83A1.5,1.5,0,0,1,745,449.38Z"/><path class="cls-2" d="M751.57,457.5a1.5,1.5,0,0,1-1.09-2.53c.16-.17,15.56-16.66,8.9-27.87a1.5,1.5,0,1,1,2.58-1.53c7.82,13.15-8.6,30.72-9.3,31.46A1.49,1.49,0,0,1,751.57,457.5Z"/><path class="cls-2" d="M691.12,649.43c-19.11,0-35.22-12-36-12.58a1.5,1.5,0,1,1,1.81-2.39c.2.15,20.37,15.16,41.34,11.34,11.29-2.06,20.86-9.19,28.45-21.18C750,587.76,749.2,548.4,748.64,522.35c-.1-4.58-.19-8.91-.14-12.7.36-27.14,3.41-44,10.22-56.37,6.33-11.52,2.65-17,2.61-17.07a1.53,1.53,0,0,1,.35-2.09,1.5,1.5,0,0,1,2.08.32c.2.28,4.93,6.93-2.41,20.28-6.47,11.76-9.51,28.71-9.85,55,0,3.74,0,8,.14,12.6.57,26.4,1.42,66.31-22.37,103.93C721.21,639,711,646.54,698.8,648.75A43.05,43.05,0,0,1,691.12,649.43Z"/><path class="cls-2" d="M343.09,696.46A59.69,59.69,0,0,1,329.23,695a43.11,43.11,0,0,1-28-20.68c-25.87-43.55-43.53-90.5-50.18-108.18-1-2.7-1.76-4.67-2.2-5.75-7.06-11.66-29.81-49.41-30.31-52.61-.33-2.1.32-3.83,1.74-4.61,2.05-1.13,5,0,8.73,3.25,3.08,2.71,7.79,7.64,11.85,12-4.12-7.86-9.26-17.75-10.62-20.69-2-4.25-.93-7,.55-8.16,1.17-.87,3.15-1.14,5.22.68,3,2.69,20,27.44,21.87,30.26a1.5,1.5,0,0,1-2.48,1.69c-7.44-10.93-19.27-27.85-21.37-29.7-.59-.51-1.17-.73-1.44-.52s-.87,1.81.37,4.49c2.29,4.94,15.92,30.76,16.05,31a1.5,1.5,0,0,1-2.45,1.69C246.41,529,233.12,514,227,508.63c-3.33-2.93-5-3.07-5.31-2.88-.17.09-.36.63-.22,1.52.68,2.66,18.75,33.08,30,51.62a1.24,1.24,0,0,1,.1.2c.45,1.1,1.22,3.13,2.28,5.95,6.62,17.6,24.22,64.38,50,107.69A40.21,40.21,0,0,0,329.92,692c35.91,8.52,86.29-23.31,86.8-23.63a1.5,1.5,0,1,1,1.61,2.52A206.94,206.94,0,0,1,388,686.25C368.77,694.05,354,696.46,343.09,696.46Z"/><path class="cls-2" d="M347.5,626.92a1.47,1.47,0,0,1-1.12-.51c-6-6.77-58.76-66.32-60.8-72.44-1.31-3.92.56-12.17,3.34-23.4a100.06,100.06,0,0,0,2.51-11.74c.19-2.28-.25-3.87-1.17-4.25a2.38,2.38,0,0,0-2.47.9c-1.65,1.92-5.92,10.86-7.43,14.14a1.49,1.49,0,0,1-2.83-.34c-3.8-19.93-9-41.67-11.14-43.55a1.52,1.52,0,0,0-.49-.24c-.44.48-2.48,4.26,2.82,31.47a1.5,1.5,0,1,1-2.94.58c-5.41-27.75-3.79-33.06-1.49-34.59.62-.42,1.94-.93,3.79.3,3.46,2.31,8.71,26.69,11.52,41,1.84-3.8,4.48-9,5.92-10.69a5.31,5.31,0,0,1,5.9-1.71c1.3.54,3.42,2.21,3,7.27a98.87,98.87,0,0,1-2.59,12.21c-1.91,7.74-4.54,18.34-3.41,21.74,1.4,4.18,36.77,45,60.2,71.39a1.5,1.5,0,0,1-.12,2.12A1.54,1.54,0,0,1,347.5,626.92Z"/><path class="cls-2" d="M256.62,522.83a1.51,1.51,0,0,1-1.4-1c-.07-.18-6.89-18.39-8.21-22.11-4-11.21-2.94-14-1.59-15.2.72-.64,2-1.16,4.26,0,6.22,3.14,17.66,29.18,18.95,32.14a1.5,1.5,0,0,1-2.76,1.2c-4.68-10.8-13.59-28.67-17.55-30.67a2.77,2.77,0,0,0-.94-.33c-.17.41-.79,2.74,2.45,11.9,1.31,3.69,8.13,21.87,8.2,22.06a1.5,1.5,0,0,1-.88,1.93A1.6,1.6,0,0,1,256.62,522.83Z"/><path class="cls-2" d="M336.29,614.2a1.5,1.5,0,0,1-.8-2.77l31.83-20a1.5,1.5,0,0,1,1.59,2.54l-31.82,20A1.48,1.48,0,0,1,336.29,614.2Z"/></g></svg>