<svg xmlns="http://www.w3.org/2000/svg" viewBox="0 0 1072 1072"><defs><style>.cls-1{fill:#d6f2ff;}.cls-2{fill:#0d2823;}.cls-3{fill:#fff;}.cls-4{fill:#65d45c;}.cls-5{fill:#044348;}.cls-6{fill:#f1eeec;}</style></defs><title>ILUSTRACIONES GAIA</title><g id="ILUSTRACIÓN_17" data-name="ILUSTRACIÓN 17"><polygon class="cls-1" points="731.54 784.33 731.54 530.33 300.21 530.33 300.21 784.33 257.54 913.67 774.21 913.67 731.54 784.33"/><path class="cls-2" d="M774.21,915.17H257.54a1.5,1.5,0,0,1-1.42-2l42.59-129.11V530.33a1.5,1.5,0,0,1,1.5-1.5H731.54a1.5,1.5,0,0,1,1.5,1.5V784.09L775.63,913.2a1.5,1.5,0,0,1-1.42,2Zm-514.59-3H772.13l-42-127.37a1.5,1.5,0,0,1-.08-.47V531.83H301.71v252.5a1.5,1.5,0,0,1-.08.47Z"/><path class="cls-2" d="M721,786H309a1.5,1.5,0,0,1,0-3H721a1.5,1.5,0,0,1,0,3Z"/><path class="cls-2" d="M721,817H309a1.5,1.5,0,0,1,0-3H721a1.5,1.5,0,0,1,0,3Z"/><path class="cls-2" d="M565.5,839.5h-263a1.5,1.5,0,0,1,0-3h263a1.5,1.5,0,0,1,0,3Z"/><path class="cls-2" d="M605.5,839.5h-27a1.5,1.5,0,0,1,0-3h27a1.5,1.5,0,0,1,0,3Z"/><path class="cls-2" d="M735.5,862.5h-441a1.5,1.5,0,0,1,0-3h441a1.5,1.5,0,0,1,0,3Z"/><path class="cls-2" d="M580.62,887H451.12a1.5,1.5,0,1,1,0-3h129.5a1.5,1.5,0,0,1,0,3Z"/><rect class="cls-3" x="315" y="544.5" width="77" height="229"/><rect class="cls-4" x="392" y="568.5" width="323.5" height="205"/><circle class="cls-4" cx="338.25" cy="565.75" r="10.75"/><path class="cls-2" d="M379,598.5H327.5a1.5,1.5,0,0,1,0-3H379a1.5,1.5,0,0,1,0,3Z"/><path class="cls-2" d="M379,630.5H327.5a1.5,1.5,0,0,1,0-3H379a1.5,1.5,0,0,1,0,3Z"/><path class="cls-2" d="M379,662.5H327.5a1.5,1.5,0,0,1,0-3H379a1.5,1.5,0,0,1,0,3Z"/><rect class="cls-2" x="392" y="544.5" width="323.5" height="24"/><path class="cls-3" d="M706,558H683a1.5,1.5,0,0,1,0-3h23a1.5,1.5,0,0,1,0,3Z"/><path class="cls-3" d="M715.5,632V603H550.29l25.21-34.5h-37l-29,34.5H392v29h31.83L392,671v63H492.19L465,773.5h39L532,734H715.5V705H552.56l51.75-73ZM512.15,705H406.71l58.67-73h97Z"/><path class="cls-5" d="M538,684.12h0a26.25,26.25,0,1,0-46,0H492L515,722,537,685.86c.36-.54.7-1.09,1-1.66Z"/><path class="cls-3" d="M512.47,692.5a1.49,1.49,0,0,1-1.26-.68l-9.42-14.33a1.5,1.5,0,1,1,2.51-1.65l8.16,12.42,13.33-20.58a1.5,1.5,0,1,1,2.51,1.64l-14.57,22.5a1.52,1.52,0,0,1-1.26.68Z"/><path class="cls-5" d="M616.7,614.78h0a26.24,26.24,0,1,0-46,0h-.06l23.05,37.89,21.93-36.14c.36-.54.7-1.1,1-1.67Z"/><path class="cls-3" d="M591.13,623.17a1.51,1.51,0,0,1-1.25-.68l-9.42-14.33a1.5,1.5,0,1,1,2.5-1.65l8.17,12.41,13.32-20.57A1.5,1.5,0,0,1,607,600l-14.58,22.5a1.5,1.5,0,0,1-1.25.69Z"/><path class="cls-5" d="M685,685.51h0a26.25,26.25,0,1,0-46,0H639l23,37.89L684,687.26c.36-.54.7-1.1,1-1.67Z"/><path class="cls-3" d="M659.47,693.9a1.52,1.52,0,0,1-1.26-.68l-9.42-14.33a1.5,1.5,0,0,1,2.51-1.65l8.16,12.41,13.33-20.57a1.5,1.5,0,0,1,2.51,1.63l-14.57,22.5a1.53,1.53,0,0,1-1.26.69Z"/><circle class="cls-4" cx="224.19" cy="491.19" r="117.14"/><circle class="cls-4" cx="811.64" cy="491.19" r="117.14"/><circle class="cls-4" cx="352.67" cy="243.39" r="111.61"/><circle class="cls-4" cx="674.01" cy="243.39" r="111.61"/><path class="cls-5" d="M510.87,536h0a57.5,57.5,0,1,0-100.72,0H410l50.5,83,48.05-79.17c.78-1.19,1.52-2.41,2.21-3.66Z"/><path class="cls-2" d="M282,665.17H239.4a16.73,16.73,0,0,1-16.71-16.71V616.33a1.5,1.5,0,0,1,3,0v32.13a13.73,13.73,0,0,0,13.71,13.71H282a1.5,1.5,0,0,1,0,3Z"/><path class="cls-2" d="M500.67,452.25a1.5,1.5,0,0,1-1.5-1.5V256.9a12,12,0,0,0-12-12H472.67a1.5,1.5,0,1,1,0-3h14.48a15,15,0,0,1,15,15V450.75A1.5,1.5,0,0,1,500.67,452.25Z"/><path class="cls-2" d="M526,521.17a1.5,1.5,0,0,1-1.5-1.5V256.9a15,15,0,0,1,15-15H554a1.5,1.5,0,0,1,0,3H539.51a12,12,0,0,0-12,12V519.67A1.5,1.5,0,0,1,526,521.17Z"/><path class="cls-2" d="M806.48,665.17H748a1.5,1.5,0,0,1,0-3h58.48a13.73,13.73,0,0,0,13.71-13.71V616.33a1.5,1.5,0,1,1,3,0v32.13A16.73,16.73,0,0,1,806.48,665.17Z"/><path class="cls-3" d="M305.1,476a17.82,17.82,0,0,1-13.89-32.6,82.53,82.53,0,0,0-20.67-20.25,17.83,17.83,0,0,1-33.21-9,18.19,18.19,0,0,1,.5-4.14,82.12,82.12,0,0,0-27.33,0,17.56,17.56,0,0,1,.5,4.13,17.82,17.82,0,0,1-33.19,9,82.61,82.61,0,0,0-20.64,20.26,17.82,17.82,0,0,1-13.87,32.59,82.62,82.62,0,0,0-.42,27.95,17.82,17.82,0,0,1,13,33.12,82.93,82.93,0,0,0,21,21.4,17.82,17.82,0,0,1,32.9,13.69,82,82,0,0,0,28.8,0,17.82,17.82,0,0,1,32.91-13.68,82.77,82.77,0,0,0,21-21.42,17.83,17.83,0,0,1,13-33.13,82.73,82.73,0,0,0-.4-28Zm-80.91,45.3a30.14,30.14,0,1,1,30.14-30.14A30.14,30.14,0,0,1,224.19,521.33Z"/><circle class="cls-4" cx="330.59" cy="194.46" r="28.88"/><path class="cls-3" d="M330.59,224.83A30.38,30.38,0,1,1,361,194.46,30.41,30.41,0,0,1,330.59,224.83Zm0-57.75A27.38,27.38,0,1,0,358,194.46,27.41,27.41,0,0,0,330.59,167.08Z"/><circle class="cls-4" cx="355.75" cy="254.75" r="45.63"/><path class="cls-3" d="M355.75,301.88a47.13,47.13,0,1,1,47.13-47.13A47.19,47.19,0,0,1,355.75,301.88Zm0-91.26a44.13,44.13,0,1,0,44.13,44.13A44.18,44.18,0,0,0,355.75,210.62Z"/><path class="cls-3" d="M379.61,215.86c-6.43,8.76-17.37,16.11-30.8,19.62-12.32,3.23-24.4,2.63-33.95-1-.07.13-3.86-.69-5.86-.69-8.84,0-16,7.5-16,16.75s7.17,16.75,16,16.75a15.49,15.49,0,0,0,2.82-.27,45.63,45.63,0,1,0,67.79-51.2Z"/><rect class="cls-3" x="299.09" y="321.47" width="56.13" height="3" transform="translate(-82.5 531.58) rotate(-71.62)"/><rect class="cls-3" x="383.93" y="292.2" width="3" height="56.66" transform="translate(-51.37 74.56) rotate(-10.36)"/><path class="cls-3" d="M354.33,353.67a1.46,1.46,0,0,1-.77-.22l-30.72-18.57a1.5,1.5,0,0,1,1.56-2.57l29.46,17.82,8.05-12.44a1.5,1.5,0,0,1,2.3-.27l10.29,9.93,11.58-15.18a1.5,1.5,0,0,1,2.39,1.82l-12.61,16.52a1.53,1.53,0,0,1-1.08.59,1.51,1.51,0,0,1-1.16-.42l-10.18-9.83L355.59,353A1.5,1.5,0,0,1,354.33,353.67Z"/><polygon class="cls-3" points="325.79 327.06 363.17 338.5 385.59 321.43 381.13 292.67 336 295.25 325.79 327.06"/><path class="cls-4" d="M309.45,261.4a11.13,11.13,0,0,1-6.95-2.22c-4.5-3.42-5.1-9.54-5.12-9.8a1.5,1.5,0,0,1,3-.27c0,.08.52,5.1,4,7.7,1.94,1.46,4.51,1.92,7.65,1.34a1.5,1.5,0,1,1,.54,3A16.69,16.69,0,0,1,309.45,261.4Z"/><path class="cls-4" d="M364.25,267.13a1.5,1.5,0,0,1-.33-3l14.54-3.27-7.53-26.35a1.5,1.5,0,1,1,2.89-.83l8,27.88a1.53,1.53,0,0,1-.16,1.18,1.48,1.48,0,0,1-1,.69l-16.08,3.63A1.86,1.86,0,0,1,364.25,267.13Z"/><path class="cls-4" d="M368.23,283.69a20.83,20.83,0,0,1-10-2.43c-8-4.34-10.55-12.86-10.65-13.22a1.5,1.5,0,1,1,2.88-.83h0c0,.07,2.32,7.7,9.23,11.42,4.62,2.49,10.31,2.72,16.89.69a1.5,1.5,0,0,1,.88,2.86A31.11,31.11,0,0,1,368.23,283.69Z"/><path class="cls-4" d="M362.26,301.09A57.25,57.25,0,0,1,348,299.35a1.49,1.49,0,0,1-1-1.84,1.51,1.51,0,0,1,1.85-1.05c.18.06,18.86,5.1,33.87-3.12A1.51,1.51,0,0,1,384.1,296C376.79,300,368.84,301.09,362.26,301.09Z"/><circle class="cls-3" cx="672.78" cy="291.5" r="12.17"/><path class="cls-3" d="M633,274.5a1.48,1.48,0,0,1-.89-.29,1.51,1.51,0,0,1-.32-2.1c10.68-14.6,25-22.73,40.37-22.9s30.11,7.72,41.22,22.22l.5.68a1.5,1.5,0,0,1-2.42,1.78l-.48-.66c-10.39-13.56-24-21-38.33-21h-.46c-14.38.16-27.87,7.86-38,21.68A1.49,1.49,0,0,1,633,274.5Z"/><path class="cls-3" d="M612.76,250.3a1.43,1.43,0,0,1-.88-.29,1.49,1.49,0,0,1-.33-2.09c16-21.8,37.34-33.95,60.22-34.2h.74c22.79,0,44.35,11.77,60.76,33.2l.75,1a1.5,1.5,0,0,1-2.42,1.77l-.73-1c-15.81-20.64-36.52-32-58.37-32h-.69c-21.92.24-42.46,11.95-57.84,33A1.49,1.49,0,0,1,612.76,250.3Z"/><path class="cls-3" d="M594.12,225.58a1.52,1.52,0,0,1-1-.33,1.51,1.51,0,0,1-.22-2.11c20.79-25.65,48.63-40,78.39-40.3h1.08c29.7,0,57.8,13.86,79.23,39.11l1,1.2a1.5,1.5,0,1,1-2.33,1.89l-.95-1.17c-20.83-24.54-48.12-38-76.92-38h-1c-28.86.33-55.88,14.24-76.1,39.19A1.5,1.5,0,0,1,594.12,225.58Z"/><path class="cls-3" d="M854.17,498.5a23.38,23.38,0,0,1-11.06-1.23,17.27,17.27,0,0,0,2.06-8.3c0-8.15-5.32-14.75-11.88-14.75-4.45,0-8.33,3-10.36,7.56-.14-.19-.28-.36-.41-.55-5.72-8.2-8.68-17.08-8.75-24.54a53.46,53.46,0,0,1-11.1,1.14c-9.75,0-18.53-2.52-24.68-6.55a47.32,47.32,0,0,0,20.23,83.89l1.53,33.33s23.5,1.29,47.5-5.21l-7.08-40.87C847.46,515.06,850.42,509.21,854.17,498.5Z"/><path class="cls-3" d="M756.86,596.26a1.5,1.5,0,0,1-.82-2.76l44.31-28.92a1.5,1.5,0,0,1,1.64,2.51L757.68,596A1.44,1.44,0,0,1,756.86,596.26Z"/><path class="cls-3" d="M897.44,572.44l-.27,0-51.44-9.35a1.5,1.5,0,1,1,.54-2.95l51.43,9.35a1.5,1.5,0,0,1-.26,3Z"/><path class="cls-3" d="M853.54,500l-2.83-1c13.31-38.91-31.14-63.45-31.59-63.69l-.21-.14c-.32-.25-31.5-24.47-49.36-11.47-4.07,3-6,6.27-5.88,9.83C764.12,443.05,779,452,779.1,452l-1.53,2.58c-.67-.39-16.37-9.83-16.9-20.94-.21-4.63,2.18-8.8,7.11-12.39,8.23-6,20.05-5.85,34.2.4a97.08,97.08,0,0,1,18.68,11.05,87,87,0,0,1,21.66,17.81C855.52,465.77,859.4,482.86,853.54,500Z"/><path class="cls-4" d="M785.62,495l-.27,0-13.11-2.31a1.5,1.5,0,0,1-1.09-2.14l12-24.44a1.5,1.5,0,1,1,2.7,1.32l-11.12,22.65,11.14,2a1.5,1.5,0,0,1-.25,3Z"/><path class="cls-4" d="M777.5,511.44a1.5,1.5,0,0,1-.33-3,18.51,18.51,0,0,0,13.4-11.43,1.5,1.5,0,1,1,2.86.9,21.29,21.29,0,0,1-15.6,13.45A1.24,1.24,0,0,1,777.5,511.44Z"/><path class="cls-4" d="M832.67,501a1.5,1.5,0,0,1-.54-2.9c6.21-2.4,5.88-10.77,5.87-10.86a1.5,1.5,0,0,1,1.42-1.57,1.53,1.53,0,0,1,1.58,1.42c0,.43.46,10.62-7.79,13.81A1.47,1.47,0,0,1,832.67,501Z"/><path class="cls-4" d="M810.79,513.36l-1.25-2.72c14.2-6.48,11.83-32.07,11.8-32.33l3-.29a62.63,62.63,0,0,1-.6,14.68C822,503.14,817.54,510.29,810.79,513.36Z"/><circle class="cls-4" cx="806.17" cy="513.33" r="4.5"/><path class="cls-4" d="M804,538.67a34.36,34.36,0,0,1-9.85-1.24,1.5,1.5,0,0,1,.93-2.86c.14,0,7.85,2.45,19,0a1.5,1.5,0,1,1,.65,2.92A48.72,48.72,0,0,1,804,538.67Z"/><path class="cls-3" d="M460.5,546a1.5,1.5,0,0,1-1.5-1.5V484a1.5,1.5,0,0,1,3,0v60.5A1.5,1.5,0,0,1,460.5,546Z"/><circle class="cls-3" cx="460.5" cy="552.22" r="2.66"/><path class="cls-1" d="M357.66,807.6s11.4,4.91,1.81,57.16S312.62,870,312.62,870l22.26-42.62Z"/><path class="cls-2" d="M341.57,890.92c-14.11,0-29.42-19.11-30.12-20l-.61-.76,22.84-43.74,23.71-20.58.87.38c1.28.55,12.22,6.87,2.68,58.8-2.74,15-8.09,23.52-15.88,25.47A14.74,14.74,0,0,1,341.57,890.92Zm-27.15-21.11c3.2,3.8,18.24,20.69,29.91,17.78,6.55-1.64,11.15-9.41,13.66-23.11,7.64-41.59,1.79-52.47-.31-54.9l-21.61,18.74Z"/><path class="cls-6" d="M697.83,795.58s1.59-3.63,7-5a90.14,90.14,0,0,1,13.84-1.71S738.8,792,755.08,807s56.09,59,65.09,77l43.16,72.33H720.83l-66.59-60s-17.57-16-10.91-22.32,17.83-.32,17.83-.32L688,888.25l15.41,10s12.51.65,4.38-18S662.6,829.9,662.6,829.9l-11.1-15.07,6-7.84,12.83,1.68,5.4-5,9.94-2,5.55-4.42Z"/><path class="cls-6" d="M154,956.33s47.37-36.27,63.31-62.65S260.75,803.5,278,807c0,0,18.81-16.41,29.15-9.52,0,0,17.34-16.35,27.34-9.48l27.14-32.88s10.2-10.42,16.41-8,7.31,4.86,7.76,9.25S359.34,805,359.34,805,325.48,856.82,331,865.89c0,0,3.92,17.39,20.66,4.31s29.1-20.24,37-20.78,11.72.71,14.3,3.83-4.29,13.13-6.91,17.13l-73,71.71-13.13,13.38Z"/><path class="cls-2" d="M902,957.83H123.33a1.5,1.5,0,0,1,0-3H902a1.5,1.5,0,0,1,0,3Z"/><path class="cls-2" d="M154,957.83a1.5,1.5,0,0,1-.88-2.71c.58-.42,57.93-42.34,79.51-90.07,18.37-40.63,33.21-59.55,46.7-59.55a1.5,1.5,0,0,1,0,3c-11.84,0-26.63,19.44-44,57.78-21.91,48.47-79.91,90.85-80.49,91.27A1.51,1.51,0,0,1,154,957.83Z"/><path class="cls-2" d="M274.83,815a1.4,1.4,0,0,1-.68-.17,1.49,1.49,0,0,1-.65-2c.11-.22,11.61-22.13,33.29-17.79a1.5,1.5,0,1,1-.58,2.94c-8.13-1.62-15.62.57-22.28,6.52a38,38,0,0,0-7.76,9.69A1.51,1.51,0,0,1,274.83,815Z"/><path class="cls-2" d="M298,810.17a1.5,1.5,0,0,1-1.26-2.31,76.32,76.32,0,0,1,11.09-13.12c8.95-8.35,17.75-11.52,25.44-9.18a1.5,1.5,0,0,1-.87,2.88c-16.22-5-33,20.78-33.14,21A1.5,1.5,0,0,1,298,810.17Z"/><path class="cls-2" d="M309,957.83a1.49,1.49,0,0,1-1.07-2.55c.58-.59,58.88-60.2,83.2-83.53.38-.37.83-.78,1.31-1.23,3.95-3.7,11.31-10.57,9.8-15.22-1.57-4.85-10.11-6.06-20.29-2.87-5.18,1.63-12.42,6.88-19.41,12-8.94,6.48-17.38,12.61-23,12.61a8.94,8.94,0,0,1-7.26-3.37c-2.91-3.65-3.69-10-2.08-17.09,2.46-10.77,16.34-33.45,29.77-55.38,12.17-19.89,24.77-40.47,24.41-45.55a7.31,7.31,0,0,0-3.51-6c-2.77-1.64-6.73-1.49-10.87.42-2.8,1.29-11.32,8.51-36.93,42.38-14.64,19.36-27.92,38.26-28,38.45a1.5,1.5,0,1,1-2.46-1.72c2.18-3.1,53.42-75.95,66.19-81.84,5-2.32,10-2.42,13.65-.27a10.36,10.36,0,0,1,5,8.37c.4,5.63-9.12,21.64-24.84,47.33-12.68,20.71-27.05,44.19-29.4,54.48-1.37,6-.78,11.7,1.49,14.55A5.89,5.89,0,0,0,339.5,874c4.68,0,13.12-6.12,21.27-12,7.19-5.22,14.63-10.62,20.28-12.39,12.21-3.83,21.87-1.9,24,4.8,2.1,6.47-5.85,13.9-10.6,18.34-.48.44-.91.84-1.28,1.21-24.29,23.3-82.55,82.86-83.14,83.46A1.48,1.48,0,0,1,309,957.83Z"/><path class="cls-2" d="M356,744a1.58,1.58,0,0,1-.81-.23,1.52,1.52,0,0,1-.46-2.08A22.94,22.94,0,0,1,371.64,732a1.5,1.5,0,1,1,.22,3,20,20,0,0,0-14.59,8.31A1.53,1.53,0,0,1,356,744Z"/><path class="cls-2" d="M863.33,957.83A1.49,1.49,0,0,1,862,957c-.76-1.48-77.09-148-136.21-165-9.65-2.77-18.41-1.89-26,2.62a1.49,1.49,0,0,1-2-.52,1.5,1.5,0,0,1,.53-2.06c8.35-4.95,17.9-5.93,28.37-2.93,25.41,7.3,56.39,37.58,92.06,90a842.82,842.82,0,0,1,46,76.54,1.5,1.5,0,0,1-.65,2A1.52,1.52,0,0,1,863.33,957.83Z"/><path class="cls-2" d="M748,862.5a1.5,1.5,0,0,1-1.23-.64A334.63,334.63,0,0,0,723,832.5c-17.25-18.85-31.48-28.8-41.18-28.8h-.14c-4.2,0-7.51,1.94-10.11,5.8a1.5,1.5,0,1,1-2.49-1.67c3.15-4.68,7.38-7.08,12.57-7.13h.17c25.3,0,65.69,57,67.4,59.44A1.5,1.5,0,0,1,748,862.5Z"/><path class="cls-2" d="M722.33,957.83a1.49,1.49,0,0,1-1-.38c-.54-.49-54-48.52-57.44-51.28-.29-.24-.73-.58-1.3-1-9.17-7.1-21.46-17.52-22.29-26a7.82,7.82,0,0,1,1.9-6.09c3.95-4.5,15.88-8.14,51.52,18.12l.54.4c2.43,1.81,8.87,6.61,12.26,5.1,1.46-.65,2.36-2.59,2.65-5.77,1.12-12-21.7-34.88-31.44-44.64-1.29-1.29-2.36-2.37-3.14-3.18-1.3-1.35-3.25-3.09-5.51-5.11-8.1-7.25-19.21-17.17-18.21-24.87.34-2.68,2.07-4.84,5.11-6.4,9-4.59,24.61,4.54,46.46,27.12a438.6,438.6,0,0,1,29.76,34.65,1.5,1.5,0,0,1-2.4,1.81c-14.88-19.64-56.89-68.85-72.45-60.9-2.14,1.09-3.29,2.44-3.51,4.11-.79,6.12,10.06,15.82,17.24,22.25,2.3,2,4.29,3.83,5.67,5.26.77.8,1.83,1.87,3.1,3.14,10.9,10.92,33.56,33.63,32.31,47-.4,4.34-1.89,7.11-4.42,8.24-5,2.21-11.94-3-15.27-5.45l-.53-.39c-18.73-13.8-41-25.92-47.48-18.55a4.82,4.82,0,0,0-1.17,3.82c.53,5.46,7.64,13.52,21.14,24l1.35,1.05c3.47,2.82,55.35,49.41,57.55,51.39a1.49,1.49,0,0,1-1,2.61Z"/><path class="cls-2" d="M638,899a1.47,1.47,0,0,1-.91-.31c-9-6.87-9.09-19.17-9.09-19.69a1.5,1.5,0,0,1,3,0h0c0,.11.12,11.35,7.91,17.31a1.5,1.5,0,0,1,.28,2.1A1.48,1.48,0,0,1,638,899Zm-7-20h0Z"/><path class="cls-2" d="M670.33,839.5H619.5a1.5,1.5,0,0,1,0-3h50.83a1.5,1.5,0,0,1,0,3Z"/><path class="cls-2" d="M766.67,852.83a1.49,1.49,0,0,1-1.21-.61c-.4-.54-40-54.14-66.1-55.13a15,15,0,0,0-12.55,5.55,1.5,1.5,0,1,1-2.28-1.95,18,18,0,0,1,14.94-6.6c11.64.44,26.71,10.1,44.81,28.71a298,298,0,0,1,23.6,27.65,1.49,1.49,0,0,1-.33,2.09A1.43,1.43,0,0,1,766.67,852.83Z"/></g></svg>