<svg xmlns="http://www.w3.org/2000/svg" width="272" height="274" fill="none" viewBox="0 0 272 274">
  <g class="ILUSTRACIÓN 17">
    <path fill="#D6F2FF" d="M206.572 216.006v-83.877H64.137v83.877l-14.091 42.711h170.617l-14.091-42.711Z" class="Vector"/>
    <path fill="#0D2823" d="M220.663 259.211H50.046a.49.49 0 0 1-.492-.426.496.496 0 0 1 .023-.234l14.064-42.635v-83.788a.496.496 0 0 1 .496-.495h142.435a.496.496 0 0 1 .496.495v83.798l14.064 42.635a.502.502 0 0 1-.063.452.5.5 0 0 1-.406.208v-.01Zm-169.93-.99h169.243l-13.869-42.061a.51.51 0 0 1-.027-.155v-83.382H64.632v83.382c0 .053-.01.105-.026.155l-13.873 42.061Z" class="Vector"/>
    <path fill="#0D2823" d="M203.092 216.557H67.039a.495.495 0 1 1 0-.991h136.053a.5.5 0 0 1 .495.496.495.495 0 0 1-.495.495Zm0 10.236H67.039a.495.495 0 1 1 0-.99h136.053a.495.495 0 0 1 0 .99Zm-51.35 7.43h-86.85a.495.495 0 1 1 0-.991h86.85a.5.5 0 0 1 .495.496.495.495 0 0 1-.495.495Zm13.208 0h-8.916a.495.495 0 0 1 0-.991h8.916a.496.496 0 1 1 0 .991Zm42.93 7.596H62.251a.495.495 0 1 1 0-.991H207.88a.495.495 0 0 1 0 .991Zm-51.145 8.09h-42.764a.5.5 0 0 1-.495-.496.495.495 0 0 1 .495-.495h42.764a.495.495 0 0 1 0 .991Z" class="Vector"/>
    <path fill="#fff" d="M94.448 136.807H69.02v75.621h25.427v-75.621Z" class="Vector"/>
    <path fill="#65D45C" d="M201.276 144.732H94.448v67.696h106.828v-67.696Zm-124.578 2.643a3.55 3.55 0 1 0 0-7.1 3.55 3.55 0 0 0 0 7.1Z" class="Vector"/>
    <path fill="#0D2823" d="M90.155 154.639H73.15a.495.495 0 1 1 0-.991h17.006a.495.495 0 0 1 0 .991Zm0 10.568H73.15a.495.495 0 1 1 0-.99h17.006a.494.494 0 1 1 0 .99Zm0 10.567H73.15a.495.495 0 1 1 0-.991h17.006a.494.494 0 1 1 0 .991Zm111.121-38.967H94.448v7.925h106.828v-7.925Z" class="Vector"/>
    <path fill="#fff" d="M198.138 141.266h-7.595a.495.495 0 0 1 0-.991h7.595a.5.5 0 0 1 .351.145.5.5 0 0 1 0 .701.496.496 0 0 1-.351.145Zm3.138 24.436v-9.577h-54.557l8.325-11.393h-12.218l-9.576 11.393H94.448v9.577h10.511l-10.51 12.878v20.804h33.084l-8.978 13.044h12.878l9.247-13.044h60.596v-9.576h-53.807l17.089-24.106h36.718Zm-67.151 24.106h-34.82l19.375-24.106h32.032l-16.587 24.106Z" class="Vector"/>
    <path fill="#044348" d="M142.661 182.913a8.665 8.665 0 0 0-.133-8.59 8.671 8.671 0 0 0-11.757-3.118 8.671 8.671 0 0 0-3.3 11.708l7.595 12.509 7.265-11.935c.119-.178.231-.36.33-.548v-.026Z" class="Vector"/>
    <path fill="#fff" d="M134.23 185.681a.497.497 0 0 1-.416-.225l-3.11-4.732a.484.484 0 0 1-.072-.373.51.51 0 0 1 .214-.314.5.5 0 0 1 .686.142l2.695 4.102 4.402-6.796a.488.488 0 0 1 .314-.227.503.503 0 0 1 .521.207.514.514 0 0 1 .073.38.497.497 0 0 1-.079.181l-4.812 7.43a.506.506 0 0 1-.416.225Z" class="Vector"/>
    <path fill="#044348" d="M168.649 160.016a8.663 8.663 0 0 0-7.595-12.836 8.663 8.663 0 0 0-7.595 12.836h-.02l7.611 12.512 7.242-11.934c.119-.179.231-.364.33-.552l.027-.026Z" class="Vector"/>
    <path fill="#fff" d="M160.205 162.787a.503.503 0 0 1-.413-.225l-3.11-4.732a.493.493 0 0 1 .31-.783.5.5 0 0 1 .382.089.5.5 0 0 1 .133.149l2.698 4.098 4.399-6.793a.504.504 0 0 1 .693-.148.5.5 0 0 1 .149.693l-4.815 7.43a.5.5 0 0 1-.413.228l-.013-.006Z" class="Vector"/>
    <path fill="#044348" d="M191.204 183.372a8.665 8.665 0 0 0-.133-8.59 8.671 8.671 0 0 0-11.757-3.118 8.671 8.671 0 0 0-3.3 11.708l7.595 12.512 7.265-11.934c.119-.179.231-.364.33-.552v-.026Z" class="Vector"/>
    <path fill="#fff" d="M182.772 186.144a.502.502 0 0 1-.416-.225l-3.11-4.732a.484.484 0 0 1-.072-.373.503.503 0 0 1 .393-.387.501.501 0 0 1 .507.215l2.695 4.098 4.402-6.793a.497.497 0 0 1 .876.179.492.492 0 0 1-.047.36l-4.812 7.43a.509.509 0 0 1-.416.228Z" class="Vector"/>
    <path fill="#65D45C" d="M39.033 157.886c21.364 0 38.682-17.318 38.682-38.682S60.397 80.522 39.033 80.522.351 97.84.351 119.204s17.318 38.682 38.682 38.682Zm193.99 0c21.364 0 38.683-17.318 38.683-38.682s-17.319-38.682-38.683-38.682c-21.363 0-38.682 17.318-38.682 38.682s17.319 38.682 38.682 38.682ZM81.46 74.23c20.355 0 36.856-16.501 36.856-36.856S101.815.518 81.46.518s-36.856 16.5-36.856 36.856c0 20.355 16.5 36.856 36.856 36.856Zm106.114 0c20.355 0 36.856-16.501 36.856-36.856S207.929.518 187.574.518s-36.856 16.5-36.856 36.856c0 20.355 16.501 36.856 36.856 36.856Z" class="Vector"/>
    <path fill="#044348" d="M133.702 134.002a18.994 18.994 0 0 0-7.218-25.656 18.99 18.99 0 0 0-28.398 16.207 18.99 18.99 0 0 0 2.356 9.449h-.05l16.677 27.408 15.867-26.144c.257-.393.502-.796.73-1.208l.036-.056Z" class="Vector"/>
    <path fill="#0D2823" d="M58.124 176.655H44.056a5.528 5.528 0 0 1-5.518-5.518v-10.61a.496.496 0 1 1 .99 0v10.61a4.534 4.534 0 0 0 4.528 4.527h14.068a.495.495 0 1 1 0 .991Zm72.209-70.312a.495.495 0 0 1-.495-.495V41.834a3.96 3.96 0 0 0-3.963-3.963h-4.788a.496.496 0 0 1 0-.99h4.782a4.953 4.953 0 0 1 4.953 4.953v64.014a.494.494 0 0 1-.489.495Zm8.364 22.759a.495.495 0 0 1-.495-.495V41.834a4.953 4.953 0 0 1 4.954-4.953h4.788a.495.495 0 0 1 0 .99h-4.785a3.962 3.962 0 0 0-3.963 3.963v86.773a.496.496 0 0 1-.499.495Zm92.623 47.553h-19.312a.495.495 0 0 1 0-.991h19.312a4.534 4.534 0 0 0 4.527-4.527v-10.61a.496.496 0 1 1 .991 0v10.61a5.525 5.525 0 0 1-5.518 5.518Z" class="Vector"/>
    <path fill="#fff" d="M65.751 114.187a5.886 5.886 0 0 1-7.128-3.322 5.887 5.887 0 0 1 2.541-7.443 27.247 27.247 0 0 0-6.825-6.687 5.887 5.887 0 0 1-10.967-2.972c.002-.46.058-.92.165-1.367a27.118 27.118 0 0 0-9.025 0c.109.446.164.904.165 1.364a5.884 5.884 0 0 1-10.96 2.971 27.273 27.273 0 0 0-6.816 6.691 5.882 5.882 0 0 1 2.522 7.429 5.884 5.884 0 0 1-7.102 3.333 27.28 27.28 0 0 0-.139 9.23 5.883 5.883 0 0 1 7.289 7.788 5.887 5.887 0 0 1-2.996 3.149 27.378 27.378 0 0 0 6.935 7.066 5.882 5.882 0 0 1 10.864 4.521 27.08 27.08 0 0 0 9.51 0 5.884 5.884 0 1 1 10.869-4.517 27.331 27.331 0 0 0 6.934-7.074 5.884 5.884 0 0 1-2.99-7.485 5.889 5.889 0 0 1 7.283-3.455 27.318 27.318 0 0 0-.132-9.246l.003.026Zm-26.718 14.959a9.95 9.95 0 0 1-9.762-11.894 9.947 9.947 0 0 1 7.82-7.82 9.956 9.956 0 0 1 10.218 4.232 9.953 9.953 0 0 1 1.677 5.529 9.954 9.954 0 0 1-9.953 9.963v-.01Z" class="Vector"/>
    <path fill="#65D45C" d="M74.169 30.753a9.537 9.537 0 1 0 0-19.073 9.537 9.537 0 1 0 0 19.073Z" class="Vector"/>
    <path fill="#fff" d="M74.169 31.244A10.033 10.033 0 1 1 84.21 21.215a10.042 10.042 0 0 1-10.042 10.03Zm0-19.07a9.042 9.042 0 1 0 9.051 9.041 9.051 9.051 0 0 0-9.051-9.041Z" class="Vector"/>
    <path fill="#65D45C" d="M82.477 56.193c8.322 0 15.068-6.746 15.068-15.068S90.8 26.057 82.477 26.057 67.41 32.803 67.41 41.125s6.746 15.068 15.068 15.068Z" class="Vector"/>
    <path fill="#fff" d="M82.478 56.69A15.564 15.564 0 1 1 98.04 41.125a15.584 15.584 0 0 1-15.563 15.563Zm0-30.137A14.573 14.573 0 1 0 97.05 41.126a14.59 14.59 0 0 0-14.572-14.573Z" class="Vector"/>
    <path fill="#fff" d="M90.356 28.283c-2.123 2.892-5.735 5.32-10.17 6.479-4.069 1.066-8.058.868-11.212-.33-.023.042-1.274-.228-1.935-.228-2.919 0-5.283 2.476-5.283 5.53 0 3.055 2.368 5.532 5.283 5.532.313-.001.625-.03.932-.089A15.068 15.068 0 1 0 90.356 28.27v.013Z" class="Vector"/>
    <path fill="#fff" d="m75.486 54.695-5.844 17.59.94.313 5.844-17.59-.94-.313Zm15.593-1.133-.974.178 3.364 18.406.975-.178-3.365-18.406Z" class="Vector"/>
    <path fill="#fff" d="M82.009 73.791a.482.482 0 0 1-.255-.072L71.61 67.587a.497.497 0 0 1 .515-.85l9.728 5.885 2.659-4.108a.495.495 0 0 1 .76-.089l3.397 3.28 3.824-5.013a.496.496 0 1 1 .79.6l-4.165 5.456a.506.506 0 0 1-.356.195.498.498 0 0 1-.383-.139l-3.362-3.246-2.592 4.012a.495.495 0 0 1-.416.221Z" class="Vector"/>
    <path fill="#fff" d="m72.584 65.003 12.344 3.778 7.403-5.637-1.472-9.497-14.903.852-3.372 10.504Z" class="Vector"/>
    <path fill="#65D45C" d="M67.188 43.322a3.676 3.676 0 0 1-2.295-.733c-1.486-1.13-1.684-3.15-1.69-3.236a.497.497 0 1 1 .99-.09c0 .027.172 1.684 1.32 2.543.641.482 1.49.634 2.527.443a.503.503 0 1 1 .178.99c-.34.06-.685.088-1.03.083Zm18.096 1.892a.499.499 0 0 1-.109-.99l4.802-1.08-2.487-8.702a.497.497 0 0 1 .955-.274l2.641 9.207a.504.504 0 0 1-.052.39.49.49 0 0 1-.33.227l-5.31 1.199a.614.614 0 0 1-.11.023Zm1.315 5.468a6.88 6.88 0 0 1-3.303-.802c-2.641-1.433-3.483-4.247-3.516-4.366a.497.497 0 0 1 .718-.586.496.496 0 0 1 .233.312c0 .023.766 2.543 3.048 3.771 1.525.822 3.404.898 5.577.228a.495.495 0 0 1 .29.945 10.3 10.3 0 0 1-3.047.498Zm-1.972 5.746a18.908 18.908 0 0 1-4.71-.575.492.492 0 0 1-.33-.607.498.498 0 0 1 .612-.347c.06.02 6.228 1.684 11.184-1.03a.499.499 0 0 1 .456.878c-2.414 1.321-5.04 1.681-7.212 1.681Z" class="Vector"/>
    <path fill="#fff" d="M187.168 57.28a4.019 4.019 0 1 0 0-8.037 4.019 4.019 0 0 0 0 8.037Zm-13.136-9.633a.488.488 0 0 1-.489-.42.495.495 0 0 1 .09-.37c3.526-4.82 8.255-7.505 13.331-7.561 5.075-.056 9.943 2.55 13.611 7.337l.166.225a.495.495 0 0 1-.106.693.497.497 0 0 1-.694-.105l-.158-.218c-3.431-4.478-7.925-6.935-12.658-6.935h-.151c-4.749.053-9.204 2.596-12.549 7.16a.486.486 0 0 1-.393.194Z" class="Vector"/>
    <path fill="#fff" d="M167.348 39.656a.471.471 0 0 1-.29-.096.489.489 0 0 1-.109-.69c5.283-7.2 12.33-11.211 19.886-11.294h.244c7.526 0 14.646 3.887 20.065 10.964l.247.33a.491.491 0 0 1-.117.678.496.496 0 0 1-.682-.094l-.241-.33c-5.221-6.816-12.06-10.567-19.275-10.567h-.228c-7.238.08-14.021 3.946-19.1 10.897a.489.489 0 0 1-.4.202Z" class="Vector"/>
    <path fill="#fff" d="M161.193 31.493a.5.5 0 0 1-.33-.11.498.498 0 0 1-.073-.696c6.865-8.47 16.059-13.209 25.886-13.308h.357c9.808 0 19.087 4.577 26.164 12.915l.33.396c.041.05.071.109.09.171.018.063.024.128.018.193a.5.5 0 0 1-.352.423.493.493 0 0 1-.526-.163l-.313-.386c-6.879-8.104-15.891-12.549-25.401-12.549h-.33c-9.531.11-18.453 4.703-25.13 12.942a.5.5 0 0 1-.39.172Zm85.875 90.124a7.722 7.722 0 0 1-3.653-.407 5.707 5.707 0 0 0 .681-2.74c0-2.692-1.757-4.871-3.923-4.871-1.47 0-2.751.99-3.422 2.496-.046-.062-.092-.119-.135-.181-1.889-2.708-2.866-5.641-2.889-8.104a17.641 17.641 0 0 1-3.666.376c-3.22 0-6.119-.832-8.15-2.163a15.632 15.632 0 0 0-5.613 16.011 15.625 15.625 0 0 0 12.294 11.692l.505 11.006s7.76.426 15.685-1.72l-2.338-13.496c2.408-2.431 3.385-4.363 4.624-7.899Z" class="Vector"/>
    <path fill="#fff" d="M214.933 153.9a.492.492 0 0 1-.467-.667.496.496 0 0 1 .196-.244l14.632-9.55a.492.492 0 0 1 .367-.059.492.492 0 0 1 .377.576.5.5 0 0 1-.202.312l-14.632 9.547a.478.478 0 0 1-.271.085Zm46.423-7.867h-.089l-16.987-3.087a.507.507 0 0 1-.327-.203.479.479 0 0 1-.08-.18.498.498 0 0 1 .585-.592l16.984 3.088a.496.496 0 1 1-.086.991v-.017Zm-14.496-23.92-.935-.33c4.395-12.849-10.283-20.953-10.432-21.032l-.069-.046c-.106-.083-10.402-8.08-16.3-3.788-1.344.99-1.981 2.07-1.942 3.246.149 3.144 5.063 6.099 5.096 6.099l-.506.852c-.221-.128-5.405-3.246-5.58-6.915-.07-1.528.72-2.906 2.348-4.091 2.717-1.981 6.621-1.932 11.293.132a32.087 32.087 0 0 1 6.169 3.649 28.738 28.738 0 0 1 7.152 5.881c4.359 5.04 5.641 10.683 3.706 16.343Z" class="Vector"/>
    <path fill="#65D45C" d="M224.431 120.461h-.089l-4.33-.763a.484.484 0 0 1-.356-.263.487.487 0 0 1-.004-.443l3.963-8.071a.507.507 0 0 1 .285-.252.49.49 0 0 1 .63.309.5.5 0 0 1-.023.379l-3.672 7.479 3.678.661a.494.494 0 0 1 .454.536.498.498 0 0 1-.536.454v-.026Zm-2.682 5.429a.499.499 0 0 1-.109-.991 6.108 6.108 0 0 0 4.425-3.774.485.485 0 0 1 .43-.361.5.5 0 0 1 .542.462.501.501 0 0 1-.027.196 7.038 7.038 0 0 1-5.152 4.441.415.415 0 0 1-.109.027Zm18.219-3.446a.496.496 0 0 1-.179-.958c2.051-.793 1.942-3.557 1.939-3.586a.494.494 0 0 1 .469-.519.508.508 0 0 1 .521.469c0 .142.152 3.507-2.572 4.56a.477.477 0 0 1-.178.034Zm-7.226 4.08-.413-.899c4.689-2.139 3.907-10.59 3.897-10.676l.99-.095a20.642 20.642 0 0 1-.198 4.847c-.574 3.448-2.047 5.809-4.276 6.823Z" class="Vector"/>
    <path fill="#65D45C" d="M231.216 128.001a1.486 1.486 0 1 0 0-2.971 1.486 1.486 0 0 0 0 2.971Zm-.716 6.881a11.348 11.348 0 0 1-3.253-.409.5.5 0 0 1-.071-.915.497.497 0 0 1 .378-.03c.047 0 2.593.809 6.275 0a.489.489 0 0 1 .393.047.5.5 0 0 1 .234.32.49.49 0 0 1-.413.597 16.055 16.055 0 0 1-3.543.39Z" class="Vector"/>
    <path fill="#fff" d="M117.069 137.303a.496.496 0 0 1-.496-.495v-19.979a.495.495 0 0 1 .991 0v19.979a.495.495 0 0 1-.495.495Zm-.001 2.932a.878.878 0 1 0 0-1.756.878.878 0 0 0 0 1.756Z" class="Vector"/>
    <path fill="#D6F2FF" d="M83.108 223.689s3.764 1.622.597 18.876c-3.166 17.254-15.47 1.73-15.47 1.73l7.35-14.074 7.523-6.532Z" class="Vector"/>
    <path fill="#0D2823" d="M77.794 251.203c-4.66 0-9.715-6.311-9.946-6.605l-.201-.251 7.542-14.444 7.83-6.796.287.126c.422.182 4.035 2.269.885 19.417-.905 4.953-2.672 7.767-5.244 8.411a4.866 4.866 0 0 1-1.153.142Zm-8.965-6.971c1.056 1.255 6.023 6.832 9.877 5.871 2.163-.541 3.682-3.107 4.51-7.631 2.523-13.734.592-17.327-.102-18.13l-7.136 6.189-7.15 13.701Z" class="Vector"/>
    <path fill="#F1EEEC" d="M195.44 219.72s.525-1.199 2.312-1.651a29.755 29.755 0 0 1 4.57-.565s6.647 1.034 12.024 5.987c5.376 4.953 18.522 19.483 21.494 25.427l14.252 23.885h-47.057l-21.989-19.813s-5.802-5.284-3.603-7.371c2.199-2.087 5.888-.106 5.888-.106l8.863 4.809 5.089 3.302s4.131.214 1.446-5.944c-2.684-6.159-14.923-16.627-14.923-16.627l-3.665-4.976 1.981-2.589 4.237.554 1.783-1.651 3.283-.66 1.832-1.46 2.183-.551ZM15.854 272.804s15.643-11.977 20.907-20.688c5.264-8.712 14.345-29.78 20.041-28.624 0 0 6.212-5.419 9.626-3.144 0 0 5.726-5.399 9.029-3.13l8.962-10.858s3.368-3.441 5.419-2.642c2.05.799 2.414 1.605 2.562 3.055.149 1.449-8.737 16.058-8.737 16.058s-11.182 17.113-9.359 20.108c0 0 1.295 5.742 6.822 1.423 5.528-4.319 9.61-6.684 12.219-6.862 2.609-.178 3.87.234 4.722 1.265.852 1.03-1.417 4.336-2.282 5.656L71.68 268.102l-4.336 4.418-51.489.284Z" class="Vector"/>
    <path fill="#0D2823" d="M262.862 273.299H5.727a.495.495 0 1 1 0-.99h257.135a.496.496 0 0 1 .35.845.492.492 0 0 1-.35.145Z" class="Vector"/>
    <path fill="#0D2823" d="M15.854 273.299a.495.495 0 0 1-.29-.895c.191-.139 19.13-13.981 26.256-29.743 6.066-13.417 10.967-19.665 15.422-19.665a.495.495 0 1 1 0 .991c-3.91 0-8.794 6.419-14.53 19.08-7.236 16.006-26.389 30.001-26.58 30.14a.502.502 0 0 1-.278.092Z" class="Vector"/>
    <path fill="#0D2823" d="M55.755 226.133a.497.497 0 0 1-.44-.717c.037-.073 3.835-7.308 10.994-5.875a.491.491 0 0 1 .413.586.5.5 0 0 1-.406.393.493.493 0 0 1-.198-.008c-2.685-.535-5.159.188-7.358 2.153-1.024.919-1.89 2-2.562 3.2a.498.498 0 0 1-.443.268Z" class="Vector"/>
    <path fill="#0D2823" d="M63.407 224.538a.489.489 0 0 1-.434-.258.496.496 0 0 1 .017-.505 25.187 25.187 0 0 1 3.663-4.332c2.955-2.758 5.861-3.804 8.4-3.032a.497.497 0 0 1-.287.951c-5.356-1.651-10.897 6.862-10.943 6.935a.495.495 0 0 1-.416.241Z" class="Vector"/>
    <path fill="#0D2823" d="M67.04 273.299a.486.486 0 0 1-.462-.301.494.494 0 0 1 .108-.541c.192-.195 19.444-19.879 27.475-27.583.125-.123.274-.258.432-.407 1.305-1.221 3.735-3.49 3.236-5.026-.518-1.601-3.338-2.001-6.7-.947-1.71.538-4.101 2.272-6.41 3.962-2.952 2.14-5.739 4.164-7.594 4.164a2.95 2.95 0 0 1-2.397-1.112c-.962-1.206-1.22-3.303-.688-5.644.813-3.556 5.396-11.046 9.83-18.288 4.02-6.568 8.18-13.364 8.062-15.041a2.416 2.416 0 0 0-1.16-1.982c-.914-.541-2.222-.492-3.589.139-.925.426-3.738 2.81-12.195 13.995-4.835 6.393-9.22 12.634-9.246 12.697a.5.5 0 0 1-.514.2.5.5 0 0 1-.38-.398.496.496 0 0 1 .081-.37c.72-1.024 17.64-25.081 21.858-27.026 1.65-.766 3.302-.799 4.507-.089a3.424 3.424 0 0 1 1.651 2.764c.133 1.859-3.011 7.146-8.202 15.63-4.188 6.839-8.933 14.592-9.709 17.99-.452 1.982-.257 3.864.492 4.805a1.945 1.945 0 0 0 1.585.727c1.546 0 4.333-2.021 7.024-3.963 2.374-1.724 4.831-3.507 6.697-4.092 4.032-1.264 7.222-.627 7.925 1.586.694 2.136-1.931 4.59-3.5 6.056a14.1 14.1 0 0 0-.423.399c-8.02 7.695-27.26 27.363-27.455 27.561a.489.489 0 0 1-.34.135Zm15.52-70.612a.526.526 0 0 1-.267-.076.502.502 0 0 1-.152-.687 7.573 7.573 0 0 1 5.584-3.2.498.498 0 0 1 .532.459.495.495 0 0 1-.46.532 6.604 6.604 0 0 0-4.817 2.744.504.504 0 0 1-.42.228Zm167.532 70.612a.49.49 0 0 1-.439-.274c-.251-.489-25.457-48.873-44.98-54.487-3.186-.915-6.079-.624-8.586.865a.487.487 0 0 1-.364.047.487.487 0 0 1-.266-.77.497.497 0 0 1 .145-.129c2.757-1.634 5.911-1.958 9.368-.967 8.391 2.41 18.622 12.409 30.401 29.72a278.497 278.497 0 0 1 15.19 25.275.496.496 0 0 1-.215.661.498.498 0 0 1-.254.059Zm-38.084-31.481a.49.49 0 0 1-.407-.211 110.436 110.436 0 0 0-7.849-9.696c-5.696-6.224-10.395-9.51-13.599-9.51h-.046c-1.387 0-2.48.64-3.338 1.915a.505.505 0 0 1-.317.223.484.484 0 0 1-.38-.073.507.507 0 0 1-.207-.521.497.497 0 0 1 .081-.18c1.041-1.546 2.437-2.338 4.151-2.355h.056c8.355 0 21.693 18.823 22.258 19.629a.5.5 0 0 1 .034.511.5.5 0 0 1-.437.268Z" class="Vector"/>
    <path fill="#0D2823" d="M203.531 273.299a.488.488 0 0 1-.33-.125c-.179-.162-17.832-16.023-18.968-16.934a9.616 9.616 0 0 0-.43-.331c-3.028-2.344-7.086-5.785-7.36-8.585a2.58 2.58 0 0 1 .627-2.011c1.304-1.486 5.244-2.688 17.013 5.983l.179.132c.802.598 2.929 2.183 4.048 1.684.482-.214.779-.855.875-1.905.37-3.963-7.166-11.518-10.382-14.741a91.74 91.74 0 0 1-1.037-1.05c-.429-.446-1.073-1.021-1.819-1.688-2.675-2.394-6.344-5.67-6.014-8.212.112-.885.684-1.599 1.688-2.114 2.972-1.516 8.126 1.499 15.342 8.956a144.993 144.993 0 0 1 9.827 11.442.496.496 0 1 1-.792.598c-4.914-6.486-18.787-22.736-23.925-20.111-.707.36-1.086.806-1.159 1.357-.261 2.021 3.322 5.225 5.693 7.348.759.66 1.417 1.265 1.872 1.737.255.264.605.617 1.024 1.037 3.599 3.606 11.082 11.105 10.67 15.52-.133 1.433-.625 2.348-1.46 2.721-1.651.73-3.943-.99-5.043-1.799l-.175-.129c-6.185-4.557-13.539-8.56-15.679-6.126a1.61 1.61 0 0 0-.33.589 1.612 1.612 0 0 0-.056.673c.175 1.803 2.523 4.464 6.981 7.925l.446.347c1.146.931 18.278 16.316 19.004 16.97a.493.493 0 0 1-.33.862v-.02Zm-27.848-19.428a.478.478 0 0 1-.3-.102c-2.972-2.269-3.002-6.33-3.002-6.502a.496.496 0 0 1 .991 0c0 .036.039 3.748 2.612 5.716a.495.495 0 0 1-.301.888Z" class="Vector"/>
    <path fill="#0D2823" d="M186.359 234.223h-16.786a.495.495 0 0 1 0-.991h16.786a.5.5 0 0 1 .495.496.495.495 0 0 1-.495.495Zm31.814 4.402a.499.499 0 0 1-.399-.201c-.132-.179-13.209-17.879-21.828-18.206a4.954 4.954 0 0 0-4.144 1.833.505.505 0 0 1-.338.172.5.5 0 0 1-.48-.269.485.485 0 0 1-.03-.378.488.488 0 0 1 .095-.169 5.94 5.94 0 0 1 4.933-2.179c3.844.145 8.82 3.335 14.797 9.48a98.516 98.516 0 0 1 7.794 9.131.491.491 0 0 1-.109.69.471.471 0 0 1-.291.096Z" class="Vector"/>
  </g>
</svg>
