<svg xmlns="http://www.w3.org/2000/svg" viewBox="0 0 1072 1072"><defs><style>.cls-1{fill:#f1eeec;}.cls-2{fill:#0d2823;}.cls-3{fill:#044348;}.cls-4{fill:#fff;}.cls-5{fill:#65d45c;}.cls-6{fill:#d6f2ff;}</style></defs><title>ILUSTRACIONES GAIA</title><g id="ILUSTRACIÓN_15" data-name="ILUSTRACIÓN 15"><rect class="cls-1" x="678" y="320.39" width="246" height="170.33"/><path class="cls-2" d="M925.5,492.22h-249V318.89h249Zm-246-3h243V321.89h-243Z"/><circle class="cls-3" cx="903.33" cy="342" r="9.67"/><circle class="cls-3" cx="903.33" cy="471" r="9.67"/><path class="cls-3" d="M745.84,469.06a68,68,0,0,1,0-127H668s2.33,29.54-31.33,29.44v68.12c33.66-.11,31.33,29.44,31.33,29.44Z"/><path class="cls-3" d="M876.67,342.06H794.5a68,68,0,0,1,0,127h82.17s-2.34-29.55,31.33-29.44V371.5C874.33,371.6,876.67,342.06,876.67,342.06Z"/><circle class="cls-3" cx="770" cy="405.56" r="55.78"/><rect class="cls-4" x="152" y="400.67" width="266.67" height="177.33" rx="12" ry="12"/><path class="cls-2" d="M406.67,579.5H164A13.52,13.52,0,0,1,150.5,566V412.67a13.51,13.51,0,0,1,13.5-13.5H406.67a13.51,13.51,0,0,1,13.5,13.5V566A13.52,13.52,0,0,1,406.67,579.5ZM164,402.17a10.51,10.51,0,0,0-10.5,10.5V566A10.51,10.51,0,0,0,164,576.5H406.67a10.51,10.51,0,0,0,10.5-10.5V412.67a10.51,10.51,0,0,0-10.5-10.5Z"/><rect class="cls-3" x="153.33" y="442.67" width="263.63" height="28"/><path class="cls-3" d="M292,481.17H270.67a1.5,1.5,0,0,1,0-3H292a1.5,1.5,0,0,1,0,3Z"/><path class="cls-3" d="M379.67,481.17h-76a1.5,1.5,0,0,1,0-3h76a1.5,1.5,0,0,1,0,3Z"/><circle class="cls-3" cx="178.83" cy="557.17" r="7.83"/><rect class="cls-4" x="391.62" y="159.54" width="295.33" height="575.94" rx="29.36" ry="29.36"/><path class="cls-2" d="M657.59,737H421a30.89,30.89,0,0,1-30.85-30.86V188.9A30.89,30.89,0,0,1,421,158H657.59a30.9,30.9,0,0,1,30.86,30.86V706.13A30.9,30.9,0,0,1,657.59,737ZM421,161a27.89,27.89,0,0,0-27.85,27.86V706.13A27.89,27.89,0,0,0,421,734H657.59a27.89,27.89,0,0,0,27.86-27.86V188.9A27.89,27.89,0,0,0,657.59,161Z"/><path class="cls-2" d="M558.37,175.79H495.14a1.5,1.5,0,0,1,0-3h63.23a1.5,1.5,0,0,1,0,3Z"/><circle class="cls-2" cx="575.15" cy="174.61" r="6.39"/><path class="cls-5" d="M653.85,172h-39V176a10.43,10.43,0,0,1-10.4,10.4H474.11A10.42,10.42,0,0,1,463.72,176V172h-39a19.61,19.61,0,0,0-19.56,19.55v512a19.61,19.61,0,0,0,19.56,19.55H653.85a19.61,19.61,0,0,0,19.55-19.55v-512A19.61,19.61,0,0,0,653.85,172Z"/><path class="cls-4" d="M533.7,278.12s1.64,22.6,19,30.72c0,0-18,9.89-19,31.78-1-21.89-19-31.78-19-31.78C532.06,300.72,533.7,278.12,533.7,278.12Z"/><path class="cls-4" d="M585,236s1.4,19.87,16.2,27A35.11,35.11,0,0,0,585,291,35.09,35.09,0,0,0,568.76,263C583.56,255.87,585,236,585,236Z"/><path class="cls-4" d="M539.28,541.71a93.09,93.09,0,1,1,93.09-93.09A93.2,93.2,0,0,1,539.28,541.71Zm0-170.77A77.68,77.68,0,1,0,617,448.62,77.76,77.76,0,0,0,539.28,370.94Z"/><path class="cls-4" d="M539.28,480.37a7.68,7.68,0,0,1-5-1.86L491.5,441.73a7.7,7.7,0,1,1,10.05-11.68l36.69,31.55,75.06-94.29a7.71,7.71,0,0,1,12.06,9.6L545.31,477.47a7.7,7.7,0,0,1-5.3,2.87Z"/><path class="cls-1" d="M420.75,926.67,158,890s40.14-43.76,48.34-53.2,61-74.65,61-74.65,40-54.07,42.36-75.94,33-121.63,43.15-131.75c0,0,30-59.29,43.68-79.46s34.34-51.73,43.43-52.25,17.1-1.27,23.25,12.32c0,0,10.31,22.66-4.27,63.79S429.33,567,432.33,582.33,453.9,642,453.9,642,468,706.28,461,735.49l1.31,1.5H593.39S581,771.52,532,802.26s-60,37.07-68,50.07S420.75,926.67,420.75,926.67Z"/><path class="cls-1" d="M688.33,309.58s25.42-23.57,36.92-21.45,23,12.54,15.25,31.08h-52Z"/><path class="cls-1" d="M688.38,477.25v24.5s-60.91-2.46-75.21,5.27S588.38,525.11,600,544.37s92.72,9,92.72,9,47.62-11.32,26.58-53.85C719.3,499.53,703.35,478,688.38,477.25Z"/><path class="cls-1" d="M688.37,557.83v15.51s-68.9-4.84-79.88,8.82-11.22,32.41,12.56,41,101.71-.07,102.13-19.82C723.18,603.38,734.24,560.82,688.37,557.83Z"/><path class="cls-1" d="M688.5,629.17v9.08s-47.83-2.25-53.42,10.29c-7,15.68-1.41,31.68,20.89,31.42,24.5-.29,56.15,4,58.7-24.44C716.67,633.17,688.5,629.17,688.5,629.17Z"/><path class="cls-6" d="M407.64,458.59s.86,15,15.89,15c10.47,0,22-9.63,27.64-24.3,6.53-16.92-10.93-25.87-10.93-25.87l-8.79,3.77Z"/><path class="cls-2" d="M158,891.5a1.5,1.5,0,0,1-1.08-2.54c1.41-1.47,141.13-148.29,150.94-201.23,7.75-41.88,34.94-150.93,119.63-258.66,3.09-3.94,11.41-9.73,20.56-8.53,5.12.68,12.27,3.92,17.24,15.55,5.28,12.35,1.5,36.87.69,41.66-2.39,14.1-9.63,33.67-16.64,52.6-4.09,11-7.95,21.46-10.57,30.09-7.53,24.79,2,47,9,63.28,1.07,2.5,2.08,4.85,3,7.06,4.09,10.23,12.15,38.14,13.35,70.58,1.6,43-9,77.9-31.62,103.63a1.5,1.5,0,1,1-2.25-2c22.06-25.13,32.45-59.3,30.87-101.54-1.23-33.21-9.9-61.49-13.14-69.58-.87-2.17-1.87-4.51-2.93-7-7.16-16.67-17-39.5-9.11-65.35,2.64-8.71,6.52-19.18,10.62-30.26,7-18.79,14.16-38.23,16.5-52,2.17-12.83,3.35-31-.49-40C459,429,454,424.35,447.66,423.52c-7.49-1-14.93,3.73-17.81,7.41-84.28,107.2-111.33,215.68-119,257.34-4.2,22.65-31,63.68-79.74,121.94-36.2,43.29-71.63,80.46-72,80.83A1.5,1.5,0,0,1,158,891.5Z"/><path class="cls-2" d="M420.75,928.17A1.47,1.47,0,0,1,420,928a1.51,1.51,0,0,1-.58-2c1.47-2.65,36.21-65,52.66-84.41,4.55-5.38,15.52-12.31,29.4-21.08,30.16-19.06,75.74-47.86,91.79-85.55a1.5,1.5,0,0,1,2.76,1.17c-16.41,38.56-62.47,67.66-92.95,86.92-13.66,8.63-24.46,15.45-28.7,20.48-16.27,19.23-52,83.28-52.34,83.93A1.49,1.49,0,0,1,420.75,928.17Z"/><path class="cls-2" d="M739.75,321.89a1.51,1.51,0,0,1-1.21-2.39c.44-.6,10.68-15.11-4.14-26.82-15.82-12.52-46.09,17.45-46.39,17.75a1.5,1.5,0,0,1-2.12-2.12c1.31-1.32,32.48-32.13,50.37-18,13.69,10.83,9.06,25,4.7,30.95A1.48,1.48,0,0,1,739.75,321.89Z"/><path class="cls-2" d="M639.05,557.87c-20.81,0-33.79-3.81-40.45-11.76-4.89-5.84-6.16-13.9-3.77-24,4.93-20.73,32.83-21,65.13-21.41,13.17-.15,26.8-.3,40.38-1.73a1.5,1.5,0,1,1,.32,3c-13.73,1.45-27.42,1.6-40.67,1.75-32.32.36-57.85.65-62.24,19.11-2.19,9.21-1.16,16.19,3.15,21.33,7.2,8.59,23.09,11.88,50,10.32,3.77-.21,7.62-.37,11.34-.51,27.72-1.08,53.89-2.1,60-30.06,6.88-31.33-35.43-47.36-35.86-47.52a1.5,1.5,0,1,1,1-2.82c.45.17,45.19,17.1,37.74,51C718.58,554.79,690,555.91,662.37,557c-3.71.14-7.54.29-11.28.51Q644.69,557.86,639.05,557.87Z"/><path class="cls-2" d="M640.65,627.26c-23.63,0-39-8.92-41.14-24-1.73-12,5.94-24.26,17.09-27.33,14.53-4,81.79-4.14,84.65-4.14h0a1.5,1.5,0,0,1,0,3c-.69,0-69.71.13-83.85,4-9.75,2.69-16.44,13.46-14.92,24,2,13.83,16.85,21.86,39.74,21.46,53-.9,67.87-6.08,75.6-14.73,4.35-4.86,6.07-11.45,5.24-20.13-1.16-12.24-7.53-21-18.93-26.11a49.61,49.61,0,0,0-17.2-4,1.5,1.5,0,0,1,0-3c.36,0,36,.89,39.08,32.86.91,9.56-1,16.89-6,22.41-11,12.3-35.82,15-77.78,15.73Z"/><path class="cls-2" d="M673.06,681.77c-2.16,0-4.27,0-6.31-.06l-3.37,0c-11.59-.12-22.48-.73-28.43-6.91-3.54-3.68-5.16-9.07-5-16.47.48-16.86,18.52-19.71,38-20.29,15.37-.46,31.42,0,31.58,0a1.5,1.5,0,1,1-.08,3c-.16,0-16.13-.46-31.42,0-30.39.9-34.8,8.88-35,17.38-.19,6.55,1.16,11.23,4.11,14.29,4.66,4.85,13.17,5.87,26.3,6l3.39,0c19,.27,42.64.61,46.22-22.19,1-6.21-.21-11.57-3.52-15.94C702.21,631,686.92,629,686.77,629a1.5,1.5,0,0,1,.35-3c.68.08,16.69,2.09,24.76,12.75,3.83,5,5.21,11.18,4.1,18.22C712.43,679.65,691.17,681.77,673.06,681.77Z"/><path class="cls-2" d="M423.53,475.13c-16.26,0-17.38-16.29-17.39-16.46l3-.17c0,.55,1,13.63,14.39,13.63,10.14,0,20.93-9.6,26.24-23.34,2.48-6.43,1.35-12.47-3.38-18a30.27,30.27,0,0,0-8.21-6.56l1.35-2.68c.2.1,20,10.29,13,28.27C446.82,464.74,434.88,475.13,423.53,475.13Z"/><ellipse class="cls-6" cx="626.67" cy="530.17" rx="21.33" ry="17.17"/><path class="cls-2" d="M626.67,548.83c-10.42,0-22.84-3.24-22.84-18.66,0-11.87,8.33-18.67,22.84-18.67,13.65,0,22.83,7.5,22.83,18.67C649.5,541.85,641,548.83,626.67,548.83Zm0-34.33c-16.4,0-19.84,8.52-19.84,15.67,0,10.54,6.49,15.66,19.84,15.66,6,0,19.83-1.52,19.83-15.66C646.5,522.94,641.31,514.5,626.67,514.5Z"/><ellipse class="cls-6" cx="631.14" cy="600.15" rx="20.23" ry="16.28"/><path class="cls-2" d="M631.14,617.92c-17.95,0-21.72-9.66-21.72-17.77,0-11.3,7.92-17.78,21.72-17.78,13,0,21.73,7.14,21.73,17.78C652.87,611.28,644.75,617.92,631.14,617.92Zm0-32.55c-15.47,0-18.72,8-18.72,14.78,0,9.94,6.12,14.77,18.72,14.77,5.64,0,18.73-1.44,18.73-14.77C649.87,593.33,645,585.37,631.14,585.37Z"/><ellipse class="cls-6" cx="654.07" cy="660.55" rx="15.6" ry="12.55"/><path class="cls-2" d="M654.07,674.6C639.94,674.6,637,667,637,660.55c0-8.93,6.23-14,17.09-14,10.23,0,17.1,5.65,17.1,14C671.17,669.35,664.78,674.6,654.07,674.6Zm0-25.1c-6.43,0-14.09,1.92-14.09,11,0,7.44,4.61,11.05,14.09,11.05,5.27,0,14.1-1.44,14.1-11.05C668.17,652.39,660.57,649.5,654.07,649.5Z"/></g></svg>