<svg xmlns="http://www.w3.org/2000/svg" width="228" height="226" fill="none" viewBox="0 0 228 226">
  <g class="Ill. Facturar">
    <path fill="#F1EEEC" d="M226.65 47.846h-72.056v49.891h72.056V47.846Z" class="Vector"/>
    <path fill="#0D2823" d="M227.089 98.176h-72.935v-50.77h72.935v50.77Zm-72.056-.878h71.177V48.285h-71.177v49.013Z" class="Vector"/>
    <path fill="#044348" d="M220.595 57.007a2.833 2.833 0 1 0 0-5.667 2.833 2.833 0 0 0 0 5.667Zm0 37.785a2.833 2.833 0 1 0 0-5.666 2.833 2.833 0 0 0 0 5.666Zm-46.131-3.399a19.92 19.92 0 0 1-9.285-29.887 19.92 19.92 0 0 1 9.285-7.313h-22.8s.683 8.653-9.177 8.624V82.77c9.86-.032 9.177 8.623 9.177 8.623h22.8Zm38.322-37.2h-24.068a19.922 19.922 0 0 1 12.792 18.6 19.918 19.918 0 0 1-12.792 18.6h24.068s-.685-8.656 9.177-8.623V62.817c-9.862.029-9.177-8.624-9.177-8.624Z" class="Vector"/>
    <path fill="#044348" d="M181.541 89.13c9.023 0 16.338-7.315 16.338-16.338 0-9.024-7.315-16.339-16.338-16.339-9.024 0-16.339 7.315-16.339 16.339 0 9.023 7.315 16.338 16.339 16.338Z" class="Vector"/>
    <path fill="#fff" d="M75.118 71.36H4.038a3.515 3.515 0 0 0-3.516 3.514v44.912a3.515 3.515 0 0 0 3.515 3.515h71.081a3.515 3.515 0 0 0 3.515-3.515V74.874a3.515 3.515 0 0 0-3.515-3.515Z" class="Vector"/>
    <path fill="#0D2823" d="M75.118 123.74H4.038a3.958 3.958 0 0 1-3.955-3.954V74.874a3.957 3.957 0 0 1 3.954-3.954h71.08a3.957 3.957 0 0 1 3.955 3.954v44.912a3.958 3.958 0 0 1-3.954 3.954ZM4.038 71.799a3.078 3.078 0 0 0-3.076 3.075v44.912a3.078 3.078 0 0 0 3.075 3.076h71.08a3.078 3.078 0 0 0 3.076-3.076V74.874a3.078 3.078 0 0 0-3.075-3.075H4.038Z" class="Vector"/>
    <path fill="#044348" d="M78.132 83.662H.912v8.202h77.22v-8.202ZM41.53 94.94h-6.248a.44.44 0 0 1 0-.88h6.248a.44.44 0 0 1 0 .88Zm25.68 0H44.947a.44.44 0 1 1 0-.88H67.21a.44.44 0 1 1 0 .88ZM8.381 119.493a2.294 2.294 0 1 0 0-4.587 2.294 2.294 0 0 0 0 4.587Z" class="Vector"/>
    <path fill="#fff" d="M148.615.73H79.31a8.6 8.6 0 0 0-8.6 8.6v151.5a8.6 8.6 0 0 0 8.6 8.6h69.305a8.6 8.6 0 0 0 8.6-8.6V9.33a8.6 8.6 0 0 0-8.6-8.6Z" class="Vector"/>
    <path fill="#0D2823" d="M148.615 169.874h-69.3a9.046 9.046 0 0 1-9.036-9.039V9.33A9.048 9.048 0 0 1 79.316.28h69.299a9.052 9.052 0 0 1 9.039 9.039v151.513a9.05 9.05 0 0 1-9.039 9.042ZM79.315 1.158a8.17 8.17 0 0 0-8.157 8.16v151.514a8.17 8.17 0 0 0 8.158 8.164h69.299a8.172 8.172 0 0 0 8.161-8.161V9.33a8.17 8.17 0 0 0-8.161-8.172h-69.3Z" class="Vector"/>
    <path fill="#0D2823" d="M119.553 5.49h-18.521a.44.44 0 0 1 0-.879h18.521a.44.44 0 0 1 0 .879Zm4.914 1.527a1.872 1.872 0 1 0 0-3.744 1.872 1.872 0 0 0 0 3.744Z" class="Vector"/>
    <path fill="#65D45C" d="M147.52 4.38h-11.424v1.173a3.053 3.053 0 0 1-3.046 3.046H94.872a3.052 3.052 0 0 1-3.043-3.046V4.38H80.405a5.744 5.744 0 0 0-5.73 5.726v149.97a5.741 5.741 0 0 0 5.73 5.727h67.115a5.746 5.746 0 0 0 5.726-5.727V10.107a5.745 5.745 0 0 0-5.726-5.726Z" class="Vector"/>
    <path fill="#fff" d="M112.326 35.463s.48 6.62 5.565 8.998c0 0-5.272 2.897-5.565 9.309-.293-6.412-5.565-9.309-5.565-9.309 5.085-2.378 5.565-8.998 5.565-8.998Zm15.027-12.336s.41 5.82 4.745 7.909a10.283 10.283 0 0 0-4.745 8.201 10.289 10.289 0 0 0-4.757-8.202c4.335-2.088 4.757-7.908 4.757-7.908Zm-13.393 89.546A27.262 27.262 0 0 1 88.769 95.84a27.267 27.267 0 1 1 52.458-10.434 27.3 27.3 0 0 1-27.267 27.267Zm0-50.02a22.753 22.753 0 1 0 22.765 22.753 22.777 22.777 0 0 0-22.765-22.754Z" class="Vector"/>
    <path fill="#fff" d="M113.961 94.704a2.251 2.251 0 0 1-1.465-.544l-12.53-10.774a2.255 2.255 0 1 1 2.943-3.42l10.747 9.24 21.986-27.618a2.258 2.258 0 0 1 3.532 2.812l-23.447 29.455a2.254 2.254 0 0 1-1.552.84l-.214.01Z" class="Vector"/>
    <path fill="#F1EEEC" d="M79.243 225.431 2.28 214.69s11.758-12.818 14.16-15.583c2.401-2.765 17.867-21.866 17.867-21.866s11.716-15.838 12.408-22.244c.691-6.406 9.666-35.626 12.639-38.591 0 0 8.787-17.366 12.794-23.274 4.007-5.908 10.059-15.153 12.721-15.305 2.663-.152 5.01-.372 6.81 3.609 0 0 3.02 6.637-1.25 18.685-4.27 12.047-8.673 19.958-7.795 24.449.88 4.49 6.319 17.478 6.319 17.478s4.13 18.828 2.08 27.384l.383.439h38.395s-3.63 10.114-17.982 19.119c-14.353 9.004-17.575 10.858-19.918 14.666-2.343 3.807-12.668 21.775-12.668 21.775Zm78.376-180.753s7.446-6.904 10.814-6.283c3.369.621 6.737 3.673 4.467 9.104h-15.231l-.05-2.821Zm.015 49.113v7.176s-17.841-.72-22.03 1.544c-4.188 2.264-7.261 5.299-3.857 10.94 3.403 5.642 27.158 2.636 27.158 2.636s13.949-3.315 7.786-15.773c0 .003-4.672-6.303-9.057-6.523Zm-.003 23.604v4.543s-20.182-1.418-23.398 2.583c-3.216 4.001-3.286 9.493 3.679 12.009 6.966 2.516 29.792-.02 29.915-5.805 0 .012 3.24-12.455-10.196-13.33Zm.037 20.894v2.66s-14.01-.659-15.647 3.014c-2.05 4.593-.413 9.279 6.119 9.203 7.176-.085 16.447 1.172 17.194-7.159.586-6.546-7.666-7.718-7.666-7.718Z" class="Vector"/>
    <path fill="#D6F2FF" d="M75.402 88.325s.252 4.394 4.655 4.394c3.067 0 6.444-2.821 8.096-7.118 1.912-4.956-3.202-7.578-3.202-7.578l-2.575 1.105-6.974 9.197Z" class="Vector"/>
    <path fill="#0D2823" d="M2.28 215.129a.435.435 0 0 1-.404-.267.442.442 0 0 1 .088-.477c.413-.431 41.338-43.436 44.212-58.942 2.27-12.267 10.234-44.209 35.04-75.765.905-1.154 3.343-2.85 6.023-2.498 1.5.199 3.594 1.148 5.05 4.555 1.546 3.617.439 10.8.201 12.202-.7 4.13-2.82 9.863-4.874 15.407-1.198 3.222-2.328 6.286-3.096 8.814-2.205 7.261.586 13.767 2.637 18.535.313.733.609 1.421.878 2.068 1.198 2.997 3.56 11.172 3.91 20.674.47 12.595-2.635 22.818-9.261 30.354a.458.458 0 0 1-.304.148.448.448 0 0 1-.319-.111.446.446 0 0 1-.147-.304.439.439 0 0 1 .11-.319c6.462-7.36 9.506-17.369 9.043-29.742-.36-9.727-2.9-18.011-3.849-20.38-.255-.636-.548-1.321-.858-2.051-2.097-4.883-4.98-11.57-2.669-19.141.774-2.552 1.91-5.618 3.111-8.864 2.05-5.504 4.148-11.198 4.833-15.231.636-3.758.981-9.08-.143-11.717-1.046-2.42-2.51-3.781-4.368-4.024-2.194-.293-4.373 1.092-5.216 2.17-24.687 31.4-32.61 63.175-34.857 75.378-1.23 6.634-9.08 18.652-23.356 35.717-10.604 12.68-20.982 23.568-21.09 23.676a.445.445 0 0 1-.325.135Zm76.962 10.742a.43.43 0 0 1-.22-.05.442.442 0 0 1-.17-.586c.431-.776 10.607-19.039 15.425-24.724 1.333-1.576 4.546-3.606 8.612-6.175 8.834-5.583 22.185-14.018 26.886-25.058a.441.441 0 0 1 .802.014.438.438 0 0 1 .006.328c-4.806 11.295-18.298 19.819-27.226 25.46-4 2.528-7.164 4.526-8.406 5.999-4.766 5.633-15.232 24.394-15.331 24.584a.442.442 0 0 1-.378.208ZM172.68 48.285a.444.444 0 0 1-.436-.476.442.442 0 0 1 .082-.224c.129-.176 3.128-4.426-1.213-7.856-4.634-3.667-13.5 5.111-13.588 5.2a.438.438 0 0 1-.739-.315.438.438 0 0 1 .118-.307c.384-.387 9.514-9.411 14.754-5.272 4.01 3.172 2.654 7.323 1.377 9.065a.432.432 0 0 1-.355.185Zm-29.496 69.12c-6.095 0-9.897-1.116-11.848-3.444-1.432-1.711-1.804-4.072-1.104-7.03 1.444-6.072 9.616-6.151 19.077-6.272 3.858-.043 7.85-.087 11.828-.506a.454.454 0 0 1 .172.015.458.458 0 0 1 .263.213.436.436 0 0 1 .036.336.457.457 0 0 1-.08.153.455.455 0 0 1-.297.161c-4.022.425-8.032.469-11.913.513-9.467.106-16.945.19-18.231 5.598-.641 2.697-.34 4.742.923 6.247 2.109 2.516 6.763 3.48 14.645 3.023 1.105-.061 2.232-.108 3.322-.149 8.12-.317 15.785-.615 17.575-8.805 2.015-9.177-10.378-13.872-10.504-13.92a.444.444 0 0 1-.273-.22.434.434 0 0 1-.025-.35.44.44 0 0 1 .591-.255c.132.05 13.236 5.009 11.054 14.938-1.915 8.852-10.287 9.18-18.38 9.499-1.087.041-2.208.085-3.304.15-1.25.068-2.425.103-3.527.105Zm.469 20.325c-6.922 0-11.424-2.613-12.05-7.03-.507-3.515 1.739-7.106 5.005-8.005 4.256-1.172 23.958-1.213 24.795-1.213a.44.44 0 0 1 0 .879c-.202 0-20.418.038-24.56 1.172-2.856.788-4.816 3.942-4.37 7.03.585 4.051 4.935 6.403 11.64 6.286 15.524-.264 19.88-1.781 22.144-4.315 1.274-1.424 1.778-3.354 1.535-5.896-.34-3.586-2.206-6.151-5.545-7.648a14.523 14.523 0 0 0-5.038-1.172.438.438 0 0 1-.311-.75.442.442 0 0 1 .311-.129c.105 0 10.545.261 11.447 9.625.266 2.801-.293 4.948-1.758 6.565-3.222 3.602-10.492 4.393-22.782 4.607l-.463-.006Zm9.493 15.968c-.633 0-1.251 0-1.848-.018h-.987c-3.395-.035-6.585-.213-8.328-2.024-1.037-1.078-1.511-2.656-1.464-4.824.14-4.938 5.424-5.773 11.13-5.943 4.502-.135 9.204 0 9.25 0a.443.443 0 0 1 .399.282.424.424 0 0 1 .029.169.416.416 0 0 1-.038.167.442.442 0 0 1-.413.261c-.047 0-4.725-.135-9.203 0-8.902.263-10.193 2.601-10.252 5.091-.056 1.918.34 3.289 1.204 4.185 1.365 1.421 3.857 1.72 7.703 1.758h.993c5.566.079 12.49.178 13.539-6.5.293-1.819-.062-3.389-1.031-4.669-2.145-2.806-6.623-3.392-6.667-3.392a.445.445 0 0 1-.374-.318.44.44 0 0 1 .151-.468.446.446 0 0 1 .325-.093c.2.024 4.889.613 7.253 3.735 1.122 1.465 1.526 3.275 1.201 5.337-1.04 6.643-7.267 7.264-12.572 7.264Z" class="Vector"/>
    <path fill="#0D2823" d="M80.057 93.17c-4.763 0-5.091-4.77-5.094-4.82l.879-.05c0 .16.293 3.992 4.215 3.992 2.97 0 6.13-2.812 7.686-6.837.726-1.883.395-3.652-.99-5.272a8.866 8.866 0 0 0-2.405-1.921l.395-.785c.059.029 5.858 3.014 3.808 8.28-1.672 4.37-5.17 7.414-8.494 7.414Z" class="Vector"/>
    <path fill="#D6F2FF" d="M139.558 114.32c3.451 0 6.248-2.251 6.248-5.029s-2.797-5.029-6.248-5.029c-3.45 0-6.247 2.251-6.247 5.029s2.797 5.029 6.247 5.029Z" class="Vector"/>
    <path fill="#0D2823" d="M139.558 114.757c-3.052 0-6.69-.949-6.69-5.466 0-3.477 2.44-5.469 6.69-5.469 3.998 0 6.687 2.197 6.687 5.469 0 3.421-2.489 5.466-6.687 5.466Zm0-10.056c-4.804 0-5.811 2.496-5.811 4.59 0 3.087 1.901 4.587 5.811 4.587 1.758 0 5.809-.445 5.809-4.587 0-2.118-1.521-4.59-5.809-4.59Z" class="Vector"/>
    <path fill="#D6F2FF" d="M140.867 134.559c3.273 0 5.926-2.135 5.926-4.769 0-2.634-2.653-4.769-5.926-4.769s-5.926 2.135-5.926 4.769c0 2.634 2.653 4.769 5.926 4.769Z" class="Vector"/>
    <path fill="#0D2823" d="M140.868 134.995c-5.258 0-6.362-2.83-6.362-5.205 0-3.31 2.32-5.208 6.362-5.208 3.808 0 6.365 2.091 6.365 5.208 0 3.26-2.379 5.205-6.365 5.205Zm0-9.534c-4.531 0-5.483 2.343-5.483 4.329 0 2.912 1.792 4.326 5.483 4.326 1.652 0 5.486-.422 5.486-4.326 0-1.998-1.426-4.329-5.486-4.329Z" class="Vector"/>
    <path fill="#D6F2FF" d="M147.584 151.157c2.524 0 4.569-1.646 4.569-3.676 0-2.031-2.045-3.676-4.569-3.676s-4.569 1.645-4.569 3.676c0 2.03 2.045 3.676 4.569 3.676Z" class="Vector"/>
    <path fill="#0D2823" d="M147.584 151.597c-4.139 0-5-2.226-5-4.115 0-2.616 1.825-4.101 5.006-4.101 2.996 0 5.009 1.655 5.009 4.101-.006 2.577-1.878 4.115-5.015 4.115Zm0-7.352c-1.883 0-4.127.562-4.127 3.222 0 2.179 1.35 3.237 4.127 3.237 1.544 0 4.13-.422 4.13-3.237 0-2.376-2.226-3.222-4.13-3.222Z" class="Vector"/>
  </g>
</svg>
