<svg xmlns="http://www.w3.org/2000/svg" width="341" height="284" fill="none" viewBox="0 0 341 284">
  <g class="ILUSTRACIÓN 18">
    <path fill="#65D45C" d="M242.903.05H49.76a4.59 4.59 0 0 0-4.59 4.59v110.15a4.59 4.59 0 0 0 4.59 4.589h193.143a4.59 4.59 0 0 0 4.59-4.589V4.64a4.59 4.59 0 0 0-4.59-4.59Z" class="Vector"/>
    <path fill="#fff" d="m135.29 93.115 26.447-28.302h85.756V51.81h-73.605L222.25.051h-17.849l-49.246 51.758H99.097V.051H86.602v51.758H45.17v13.004h41.432v28.302H45.17v12.495h203.344V93.115H135.29ZM99.097 64.813h43.685l-26.925 28.302h-16.76V64.813Z" class="Vector"/>
    <path fill="#0D2823" d="M145.31.05h-1.147v12.24h1.147V.05Zm142.724 106.134a.574.574 0 0 1-.574-.573v-72.35H144.737a.576.576 0 0 1-.574-.575v-9.179a.576.576 0 0 1 .574-.573.571.571 0 0 1 .573.573v8.606h142.724a.575.575 0 0 1 .574.573v72.925a.574.574 0 0 1-.574.573Z" class="Vector"/>
    <path fill="#0D2823" d="M189.102 68.195a.575.575 0 0 1-.574-.574V32.687a.576.576 0 0 1 .574-.574.575.575 0 0 1 .574.574v34.934a.57.57 0 0 1-.354.53.577.577 0 0 1-.22.044Zm0 42.834a.574.574 0 0 1-.574-.573V77.564a.576.576 0 0 1 .574-.574.575.575 0 0 1 .574.574v32.892a.574.574 0 0 1-.574.573Z" class="Vector"/>
    <path fill="#0D2823" d="M189.102 85.274H159.27a.575.575 0 0 1-.406-.979.575.575 0 0 1 .406-.168h29.832a.575.575 0 0 1 .406.98.575.575 0 0 1-.406.167Zm-49.972 0h-32.639a.575.575 0 0 1-.406-.979.575.575 0 0 1 .406-.168h32.639a.575.575 0 0 1 .406.98.575.575 0 0 1-.406.167Zm-78.788 0h-9.435a.574.574 0 1 1 0-1.147h9.435a.574.574 0 1 1 0 1.147ZM16.994 193.641H9.092a.572.572 0 0 1-.573-.573V84.701a.574.574 0 0 1 .573-.574h30.341a.574.574 0 1 1 0 1.147H9.666v107.22h7.328a.572.572 0 0 1 .406.979.572.572 0 0 1-.406.168ZM144.736 13.885a1.595 1.595 0 1 0 0-3.19 1.595 1.595 0 0 0 0 3.19Zm0 9.992a1.595 1.595 0 1 0 0-3.19 1.595 1.595 0 0 0 0 3.19Zm44.367 46.516a1.595 1.595 0 1 0 0-3.19 1.595 1.595 0 0 0 0 3.19Zm0 7.392a1.595 1.595 0 1 0 0-3.19 1.595 1.595 0 0 0 0 3.19Z" class="Vector"/>
    <path fill="#0D2823" d="M40.852 86.295a1.595 1.595 0 1 0 0-3.19 1.595 1.595 0 0 0 0 3.19Zm8.701 0a1.595 1.595 0 1 0 0-3.19 1.595 1.595 0 0 0 0 3.19ZM18.272 194.662a1.595 1.595 0 1 0 0-3.19 1.595 1.595 0 0 0 0 3.19Z" class="Vector"/>
    <path fill="#D6F2FF" d="M192.101 132h142.976c1.218 0 2.385.484 3.246 1.344a4.593 4.593 0 0 1 1.344 3.246v11.665H187.512V136.59a4.589 4.589 0 0 1 4.589-4.59Z" class="Vector"/>
    <path fill="#0D2823" d="M335.054 231.249h-142.93a5.188 5.188 0 0 1-5.186-5.187v-89.45a5.187 5.187 0 0 1 5.186-5.186h142.93a5.19 5.19 0 0 1 5.186 5.186v89.45a5.19 5.19 0 0 1-5.186 5.187Zm-142.93-98.676a4.046 4.046 0 0 0-4.039 4.039v89.45a4.046 4.046 0 0 0 4.039 4.039h142.93a4.046 4.046 0 0 0 4.039-4.039v-89.45a4.047 4.047 0 0 0-4.039-4.039h-142.93Z" class="Vector"/>
    <path fill="#0D2823" d="M333.165 141.753h-10.422a.576.576 0 0 1-.574-.574.574.574 0 0 1 .574-.574h10.422a.574.574 0 0 1 0 1.148Z" class="Vector"/>
    <path fill="#fff" d="M314.917 114.025h-139.76a4.479 4.479 0 0 0-4.478 4.479v86.15a4.478 4.478 0 0 0 4.478 4.478h139.76a4.479 4.479 0 0 0 4.479-4.478v-86.15a4.48 4.48 0 0 0-4.479-4.479Z" class="Vector"/>
    <path fill="#D6F2FF" d="M175.134 114.025H314.94a4.455 4.455 0 0 1 4.456 4.456v11.225H170.679v-11.225a4.455 4.455 0 0 1 4.455-4.456Z" class="Vector"/>
    <path fill="#0D2823" d="M314.918 209.687h-139.76a5.037 5.037 0 0 1-5.033-5.018v-86.165a5.038 5.038 0 0 1 5.033-5.037h139.76a5.044 5.044 0 0 1 5.037 5.037v86.165a5.043 5.043 0 0 1-5.037 5.018Zm-139.76-95.103a3.925 3.925 0 0 0-3.92 3.92v86.165a3.925 3.925 0 0 0 3.92 3.92h139.76a3.925 3.925 0 0 0 3.92-3.92v-86.165a3.923 3.923 0 0 0-3.92-3.92h-139.76Z" class="Vector"/>
    <path fill="#0D2823" d="M313.04 123.429h-10.185a.551.551 0 0 1-.425-.145.561.561 0 0 1 0-.822.563.563 0 0 1 .425-.146h10.185a.564.564 0 0 1 .557.333.555.555 0 0 1-.33.752.547.547 0 0 1-.227.028Z" class="Vector"/>
    <path fill="#F1EEEC" d="M103.622 50.059s2.723 2.918 3.476 5.04c.754 2.123 1.683 5.887 2.188 7.023l1.53 3.476-2.1 1.098s-.891 5.737-4.635 7.959c-3.745 2.222-5.16 1.996-5.16 1.996l.168 8.457s-9.657-2.016-11.427-1.634c-1.771.383-1.768-5.063-1.768-5.063l8.27-8.323-5.527-3.68 1.992-6.566 9.998-6.437 2.995-3.346Zm44.048 25.464s2.325-13.26 5.53-15.26 2.108-1.913 2.108-1.913l1.51.41 1.634-1.213 1.273.096 1.553 2.615 1.308 9.975-2.838 4.877-4.046 3.855-8.032-3.442Z" class="Vector"/>
    <path fill="#D6F2FF" d="M53.458 137.863s.222-32.253 7.68-37.13c7.458-4.876 19.314-10.23 19.314-10.23l8.552-6.724s20.271-1.702 40.809 22.496l17.857-30.754 8.097 3.856s.451 19.291-5.114 33.274c-5.565 13.983-12.315 20.026-22.202 17.666-9.37-2.237-11.76-5.202-11.76-5.202l.508 26.517-62.754-.413-.987-13.356Z" class="Vector"/>
    <path fill="#0D2823" d="M53.458 138.438a.572.572 0 0 1-.574-.558 127.31 127.31 0 0 1 .723-14.985c1.182-10.816 3.569-18.401 7.095-22.531a.573.573 0 0 1 .872.742c-8.082 9.477-7.55 36.475-7.542 36.747a.571.571 0 0 1-.563.585h-.011Zm80.57-26.392a.56.56 0 0 1-.455-.225c-22.619-29.737-44.641-27.469-44.859-27.442a.578.578 0 0 1-.138-1.147c.234-.027 5.81-.65 14.304 2.486 7.795 2.876 19.602 9.619 31.607 25.403a.57.57 0 0 1-.111.803.586.586 0 0 1-.348.122Z" class="Vector"/>
    <path fill="#0D2823" d="M132.123 131.281h-.222c-6.073-.081-13.175-3.385-21.111-9.818a88.468 88.468 0 0 1-10.086-9.615.579.579 0 0 1 .868-.765c.161.191 16.446 18.851 30.345 19.035 4.065.057 7.588-1.507 10.441-4.639 7.477-8.2 10.552-20.389 11.814-29.167.809-5.62 1.134-11.3.972-16.977l-7.233-3.098-17.593 30.31a.573.573 0 0 1-.78.226.579.579 0 0 1-.275-.344.58.58 0 0 1 .049-.437l17.857-30.75a.584.584 0 0 1 .723-.24l8.032 3.442a.585.585 0 0 1 .348.497c0 .31 1.599 31.247-13.069 47.333-3.029 3.32-6.758 5.007-11.08 5.007Z" class="Vector"/>
    <path fill="#0D2823" d="M117.2 191.473a.574.574 0 0 1-.574-.574v-65.103a.57.57 0 0 1 .574-.573.57.57 0 0 1 .573.573v65.103a.574.574 0 0 1-.573.574Zm-47.935-53.036a.576.576 0 0 1-.574-.574v-21.035a.574.574 0 1 1 1.148 0v21.035a.575.575 0 0 1-.574.574Z" class="Vector"/>
    <path fill="#0D2823" d="M117.199 152.206H76.532a.572.572 0 0 1-.406-.979.572.572 0 0 1 .406-.168h40.667a.574.574 0 1 1 0 1.147Zm-18.102-66.93a.574.574 0 0 1-.574-.574v-7.71a.574.574 0 0 1 1.148 0v7.71a.574.574 0 0 1-.574.574Z" class="Vector"/>
    <path fill="#0D2823" d="M95.655 77.564h-.084a.574.574 0 0 1-.558-.59.582.582 0 0 1 .589-.558 17.288 17.288 0 0 0 5.932-1.109c3.928-1.53 6.154-4.367 6.617-8.414a.576.576 0 0 1 1.025-.294.58.58 0 0 1 .122.424c-1.178 10.285-12.552 10.54-13.643 10.54Z" class="Vector"/>
    <path fill="#0D2823" d="M106.77 72.783a.48.48 0 0 1-.103 0 5.878 5.878 0 0 1-4.487-3.905.577.577 0 0 1 .61-.736.57.57 0 0 1 .492.407 4.715 4.715 0 0 0 3.587 3.106.576.576 0 0 1-.099 1.147v-.02Zm.233-4.781a.573.573 0 0 1-.226-1.101l3.316-1.415a.27.27 0 0 0 .149-.169.25.25 0 0 0-.034-.21 15.143 15.143 0 0 1-2.035-4.467v-.042c0-.077-1.553-7.343-4.092-9.31a.571.571 0 0 1-.132-.825.58.58 0 0 1 .398-.22.571.571 0 0 1 .434.14c2.822 2.183 4.394 9.404 4.509 9.943a14.124 14.124 0 0 0 1.866 4.108 1.366 1.366 0 0 1 .199 1.186 1.4 1.4 0 0 1-.803.91l-3.312 1.415a.605.605 0 0 1-.237.057Zm-7.906-5.927a.573.573 0 0 1-.271-.068.578.578 0 0 1-.233-.765 8.322 8.322 0 0 1 4.868-3.592.575.575 0 0 1 .325 1.102 7.227 7.227 0 0 0-4.184 3.037.578.578 0 0 1-.505.286Zm4.643 2.165c.558 0 1.01-.685 1.01-1.53s-.452-1.53-1.01-1.53c-.557 0-1.01.685-1.01 1.53 0 .844.453 1.53 1.01 1.53Zm51.962 15.298a.567.567 0 0 1-.535-.365.575.575 0 0 1 .152-.629c1.572-1.442 5.768-5.656 6.28-7.867.666-2.85-.807-11.505-2.13-12.514-.31-.234-.497-.21-.627-.161-.632.23-1.247 1.572-1.427 2.41v.06c-.34 1.557-.723 3.32-3.534 6.958a.575.575 0 1 1-.91-.704c2.654-3.442 3.01-5.06 3.323-6.502v-.065c.165-.742.865-2.769 2.154-3.243a1.735 1.735 0 0 1 1.721.329c1.939 1.48 3.228 10.797 2.555 13.684-.704 3.006-6.388 8.23-6.629 8.453a.575.575 0 0 1-.393.156Z" class="Vector"/>
    <path fill="#0D2823" d="M147.671 76.096h-.039a.575.575 0 0 1-.535-.612c.03-.413.765-10.196 6.46-16.534.286-.302 1.717-1.705 2.922-1.28.654.233 1.032.902 1.147 1.996a.563.563 0 0 1-.133.42.579.579 0 0 1-.614.178.58.58 0 0 1-.4-.499c-.062-.67-.234-.964-.383-1.014-.348-.122-1.228.49-1.702.98-5.427 6.023-6.146 15.734-6.15 15.834a.573.573 0 0 1-.573.531Z" class="Vector"/>
    <path fill="#044348" d="M95.59 68.702s-4.436.096-4.907-2.915c-.245-1.571.191-3.396 1.912-4.065 2.39-.93 6.564-3.469 8.541-5.928a34.33 34.33 0 0 0 3.614-5.404c-4.027-5.355-19.123-7.696-25.35.447-7.217 9.455-1.53 18.358-1.53 18.358s-16.51 6.342-17.528 24.478c-.89 15.849 6.533 22.087 14.182 18.645 7.65-3.442 16.477-15.299 14.12-32.7 0-.016 5.833-4.51 6.946-10.916Z" class="Vector"/>
    <path fill="#fff" d="M39.433 179.767s-27.28 27.66-30.34 50.504c-3.06 22.845 3.335 27.476 3.335 27.476s8.265 10.028 27.005 9.646c0 0-5.063-9.179 2.058-15.88 0 0 4.062-3.117 6.74-3.752l9.228 16.19 49.162-.949s11.168-70.874-26.096-88.762l-16.469 10.541-24.623-5.014Z" class="Vector"/>
    <path fill="#D6F2FF" d="m56.07 177.322 7.986 7.523-2.918 4.812-7.267-10.04 2.2-2.295Z" class="Vector"/>
    <path fill="#0D2823" d="M61.138 190.23a.574.574 0 0 1-.463-.238l-7.266-10.039a.574.574 0 0 1 .05-.734l2.198-2.295a.576.576 0 0 1 .807-.019l7.982 7.523a.568.568 0 0 1 .1.711l-2.93 4.815a.571.571 0 0 1-.466.276h-.012Zm-6.52-10.564 6.478 8.938 2.226-3.675-7.232-6.816-1.473 1.553Z" class="Vector"/>
    <path fill="#D6F2FF" d="m69.265 176.748-5.068 7.649 3.389 4.494 4.93-9.848-3.251-2.295Z" class="Vector"/>
    <path fill="#0D2823" d="M67.586 189.465a.57.57 0 0 1-.459-.229l-3.388-4.494a.573.573 0 0 1-.02-.662l5.068-7.649a.566.566 0 0 1 .382-.245.59.59 0 0 1 .44.092l3.252 2.295a.577.577 0 0 1 .18.727l-4.923 9.848a.562.562 0 0 1-.459.314l-.073.003Zm-2.677-5.09 2.586 3.442 4.295-8.582-2.364-1.668-4.517 6.808Zm-25.475 83.592c-8.227 0-15.153-1.484-20.588-4.414a20.972 20.972 0 0 1-10.48-14.239c-2.092-9.944-1.48-26.463 13.314-48.757a139.53 139.53 0 0 1 18.767-22.565.578.578 0 0 1 .75.086.574.574 0 0 1 .015.756 138.144 138.144 0 0 0-18.588 22.393c-8.031 12.116-16.828 30.26-13.137 47.869a19.83 19.83 0 0 0 9.902 13.462c5.186 2.792 11.803 4.231 19.674 4.276l8.46-18.886c-1.89-1.48-11.474-8.632-24.191-12.498a.578.578 0 0 1-.105-1.058.576.576 0 0 1 .438-.044c14.392 4.379 24.825 12.9 24.929 13.004a.572.572 0 0 1 .16.677l-8.796 19.632a.577.577 0 0 1-.524.306Z" class="Vector"/>
    <path fill="#D6F2FF" d="M51.033 208.367s-9.902 23.506-15.15 31.576l15.15-31.576Z" class="Vector"/>
    <path fill="#0D2823" d="M35.884 240.516a.574.574 0 0 1-.482-.884c5.179-7.936 15.004-31.255 15.123-31.492a.579.579 0 0 1 .753-.306.576.576 0 0 1 .306.754c-.1.237-9.986 23.647-15.199 31.668a.577.577 0 0 1-.5.26Zm70.736-22.013a.581.581 0 0 1-.573-.521 76.997 76.997 0 0 0-4.517-18.186c-3.374-8.796-9.918-20.331-21.904-25.323a.571.571 0 0 1-.298-.744.573.573 0 0 1 .738-.315c12.373 5.152 19.088 16.981 22.546 26.007a78.272 78.272 0 0 1 4.59 18.466.576.576 0 0 1-.517.623l-.065-.007Zm-18.327-1.278a.574.574 0 0 1-.57-.504l-1.308-11.092a.577.577 0 0 1 1.072-.348c.037.067.06.139.068.214l1.308 11.092a.566.566 0 0 1-.289.566.572.572 0 0 1-.212.069l-.07.003Z" class="Vector"/>
    <path fill="#044348" d="M58.652 182.676a22.401 22.401 0 0 1-19.22 0s-4.11-37.768 9.608-47.138c8.904-6.082 22.784-1.243 25.855 6.884 3.071 8.127 5.844 25.816 5.94 39.872 0 0-4.208 1.912-12.622-4.207l1.052-40.224s-.574 9.692-10.805 13.769l.192 31.044Z" class="Vector"/>
    <path fill="#F1EEEC" d="m63.911 183.927 4.322-6.605.317-12.177s13.666-7.011.578-26.26a18.192 18.192 0 0 1-10.667 12.747l.168 27.346 5.282 4.949Z" class="Vector"/>
    <path fill="#0D2823" d="M60.852 168.335a.576.576 0 1 1-.111-1.147c7.144-1.427 11.615-4.353 13.283-8.697 3.186-8.292-4.808-19.166-4.888-19.273a.573.573 0 0 1 .116-.805.576.576 0 0 1 .805.117 36.707 36.707 0 0 1 3.798 6.785c2.23 5.205 2.677 9.905 1.24 13.6-1.813 4.735-6.567 7.89-14.121 9.42h-.122Z" class="Vector"/>
    <path fill="#0D2823" d="M69.266 157.339a.575.575 0 0 1-.237-1.098l3.316-1.491-2.364-5.604a.572.572 0 0 1 .742-.725c.136.05.249.151.314.282l2.581 6.119a.57.57 0 0 1-.105.635.567.567 0 0 1-.186.13l-3.824 1.721a.579.579 0 0 1-.237.031Zm-.67 3.192c-2.773 0-4.414-2.218-4.934-3.56a.58.58 0 0 1 .138-.624.57.57 0 0 1 .41-.159.57.57 0 0 1 .523.366c.054.145 1.427 3.499 4.884 2.711a.587.587 0 0 1 .453.056.568.568 0 0 1 .273.601.572.572 0 0 1-.473.46 5.63 5.63 0 0 1-1.274.149Zm-7.458-8.693a.583.583 0 0 1-.538-.365.57.57 0 0 1 .01-.446c2.253-5.278 6.28-4.716 6.448-4.689a.58.58 0 0 1-.172 1.148c-.145-.02-3.335-.414-5.22 4.004a.58.58 0 0 1-.528.348Zm15.394-4.731a.561.561 0 0 1-.318-.096c-1.25-.833-3.507-.635-4.272-.478a.572.572 0 0 1-.568-.875.57.57 0 0 1 .346-.249c.13-.027 3.22-.604 5.114.658a.572.572 0 0 1 .025.938.57.57 0 0 1-.343.113l.016-.011Zm-10.583 5.164c.564 0 1.021-.655 1.021-1.464 0-.809-.457-1.465-1.021-1.465-.564 0-1.021.656-1.021 1.465s.457 1.464 1.02 1.464Z" class="Vector"/>
    <path fill="#F1EEEC" d="M46.317 248.652s12.89-3.786 16.148 7.615l2.635 4.322-1.24 1.843-1.911-.34-1.37-1.094-.221 2.295-1.328 1.224-2.964-1.125-.765 2.169-1.633.505-2.646-.972-6.598 2.295c-.333.065-5.071-.272-5.148-.601-.65-2.876-2.926-15.486 7.041-18.136Z" class="Vector"/>
    <path fill="#0D2823" d="M41.135 268.034c-1.002 0-1.671-.061-1.76-.073a.563.563 0 0 1-.493-.409 26.857 26.857 0 0 1-.898-5.809c-.2-4.315.764-7.871 2.776-10.277 2.658-3.171 7.087-4.441 13.176-3.767 3.603.382 7.913 2.945 9.198 8.896a.573.573 0 0 1-.441.682.574.574 0 0 1-.683-.441c-1.492-6.915-7.095-7.875-8.204-7.998-5.676-.627-9.768.505-12.166 3.366-3.943 4.712-2.218 12.801-1.76 14.644 1.53.088 7.06.199 9.968-2.547a.577.577 0 0 1 .788.838c-2.663 2.513-7.06 2.895-9.5 2.895Z" class="Vector"/>
    <path fill="#0D2823" d="M63.176 263.025a2.93 2.93 0 0 1-1.809-.624c-.172-.137-.321-.264-.47-.382-.838-.715-1.882-1.603-9.32-5.879a.573.573 0 1 1 .573-.994c7.53 4.326 8.617 5.255 9.489 6.001.145.122.279.237.44.382a1.642 1.642 0 0 0 1.85.157c.502-.356.383-1.048.207-1.564-.55-1.553-2.589-3.396-5.89-5.335a48.467 48.467 0 0 0-4.972-2.521.578.578 0 0 1-.336-.308.577.577 0 0 1 .325-.772.582.582 0 0 1 .455.024c.405.169 9.982 4.208 11.504 8.529.624 1.756-.221 2.601-.615 2.88a2.437 2.437 0 0 1-1.43.406Z" class="Vector"/>
    <path fill="#0D2823" d="M58.694 264.849c-2.295 0-8.724-4.238-10.02-5.106a.578.578 0 0 1 .642-.956c2.945 1.981 8.131 5.068 9.428 4.911a1.339 1.339 0 0 0 1.067-.562c.382-.643.11-1.748-.03-2.123a.575.575 0 0 1 .338-.719.576.576 0 0 1 .732.31c.073.191.689 1.889-.057 3.124a2.431 2.431 0 0 1-1.912 1.11 1.469 1.469 0 0 1-.188.011Z" class="Vector"/>
    <path fill="#0D2823" d="M54.425 266.585c-2.336 0-6.823-2.761-7.362-3.097a.578.578 0 0 1-.18-.792.574.574 0 0 1 .792-.18c2.03 1.27 5.737 3.186 6.988 2.903a.797.797 0 0 0 .577-.382c.268-.479.077-1.293 0-1.569a.564.564 0 0 1 .158-.617.58.58 0 0 1 .924.235c.05.149.498 1.488-.06 2.505a1.955 1.955 0 0 1-1.332.949c-.166.034-.335.05-.505.045Z" class="Vector"/>
    <path fill="#D6F2FF" d="M142.075 214.994H72.563a2.788 2.788 0 0 0-2.789 2.788v43.379a2.788 2.788 0 0 0 2.789 2.788h69.512a2.788 2.788 0 0 0 2.788-2.788v-43.379a2.788 2.788 0 0 0-2.788-2.788Z" class="Vector"/>
    <path fill="#0D2823" d="M108.456 230.504c2.027 3.22 1.782 5.645.218 6.628-1.564.983-3.851.153-5.878-3.06-2.345-3.729-.838-7.611-.838-7.611a8.694 8.694 0 0 1 6.498 4.043Z" class="Vector"/>
    <path fill="#F1EEEC" d="M106.816 230.943c-1.806 2.864-1.584 5.021-.195 5.893 1.388.872 3.442.138 5.228-2.727a8.09 8.09 0 0 0 .765-6.769 7.722 7.722 0 0 0-5.798 3.603Z" class="Vector"/>
    <path fill="#0D2823" d="M107.822 237.694a2.73 2.73 0 0 1-1.473-.424 2.971 2.971 0 0 1-1.339-2.632c0-1.147.471-2.531 1.373-3.966a8.163 8.163 0 0 1 6.189-3.824h.382l.13.34a8.53 8.53 0 0 1-.788 7.225c-.902 1.434-1.931 2.455-2.979 2.956a3.434 3.434 0 0 1-1.495.325Zm-.574-6.479c-.8 1.27-1.22 2.452-1.216 3.443a1.865 1.865 0 0 0 .861 1.77 1.86 1.86 0 0 0 1.969.008c.872-.417 1.755-1.308 2.555-2.578a7.586 7.586 0 0 0 .818-5.947 7.232 7.232 0 0 0-4.991 3.324l.004-.02Zm68.151 33.309H60.182a.572.572 0 0 1-.406-.979.572.572 0 0 1 .406-.168H175.4a.574.574 0 1 1 0 1.147Zm-155.089 0H1.187a.572.572 0 0 1-.406-.979.572.572 0 0 1 .406-.168H20.31a.572.572 0 0 1 .406.979.572.572 0 0 1-.406.168Z" class="Vector"/>
    <path fill="#fff" d="m120.515 179.042 23.456-12.468 22.948 41.792-33.018 18.974-18.358-32.624 4.972-15.674Z" class="Vector"/>
    <path fill="#0D2823" d="M133.901 227.915a.782.782 0 0 1-.153 0 .595.595 0 0 1-.348-.276l-18.358-32.624a.57.57 0 0 1-.046-.455l4.972-15.681a.557.557 0 0 1 .279-.333l23.457-12.468a.571.571 0 0 1 .765.23l22.947 41.791a.571.571 0 0 1-.218.765l-33.018 18.974a.582.582 0 0 1-.279.077Zm-17.735-33.275 17.953 31.902 32.028-18.404-22.405-40.79-22.749 12.078-4.827 15.214Z" class="Vector"/>
    <path fill="#0D2823" d="M126.359 185.844a.573.573 0 0 1-.286-1.071l16.625-9.581a.58.58 0 0 1 .637.042.563.563 0 0 1 .219.381.58.58 0 0 1-.114.424.55.55 0 0 1-.168.147l-16.637 9.581a.593.593 0 0 1-.276.077Zm-4.639 10.651a.572.572 0 0 1-.497-.287.579.579 0 0 1 .21-.765l25.205-14.507a.573.573 0 0 1 .569.995l-25.2 14.487a.557.557 0 0 1-.287.077Zm4.169 7.409a.566.566 0 0 1-.555-.425.574.574 0 0 1 .268-.646l25.204-14.51a.58.58 0 0 1 .425-.04.577.577 0 0 1 .145 1.034l-25.2 14.511a.603.603 0 0 1-.287.076Zm14.595 1.146a.575.575 0 0 1-.283-1.071l14.583-8.414a.575.575 0 0 1 .57.994l-14.568 8.418a.544.544 0 0 1-.302.073Zm3.958 7.164a.572.572 0 0 1-.286-1.07l14.747-8.491a.576.576 0 0 1 .819.648.57.57 0 0 1-.249.346l-14.744 8.491a.597.597 0 0 1-.287.076Z" class="Vector"/>
    <path fill="#D6F2FF" d="m125.827 188.67-5.312-9.627-4.972 15.673 10.284-6.046Z" class="Vector"/>
    <path fill="#0D2823" d="M115.544 195.29a.581.581 0 0 1-.473-.24.568.568 0 0 1-.074-.525l4.972-15.681a.562.562 0 0 1 .186-.271.566.566 0 0 1 .626-.062c.1.052.181.132.236.23l5.316 9.622a.574.574 0 0 1-.214.765l-10.285 6.047a.58.58 0 0 1-.29.115Zm5.113-14.801-4.115 12.973 8.517-5.007-4.402-7.966Z" class="Vector"/>
    <path fill="#D6F2FF" d="M134.372 215.252c-.738 4.291 1.733 6.077 1.733 6.077s2.153-1.832 1.357-6.556" class="Vector"/>
    <path fill="#0D2823" d="M136.104 221.849a.539.539 0 0 1-.306-.099c-.111-.081-2.723-2.028-1.943-6.586a.523.523 0 0 1 .941-.214c.08.113.111.253.088.389-.509 2.965.593 4.59 1.186 5.248.508-.685 1.43-2.444.879-5.737a.523.523 0 0 1 .43-.577.518.518 0 0 1 .595.405c.834 4.972-1.434 6.957-1.53 7.037a.51.51 0 0 1-.34.134Z" class="Vector"/>
    <path fill="#D6F2FF" d="M139.661 212.424c3.886 1.958 3.848 5.006 3.848 5.006s-2.75.624-6.073-2.818" class="Vector"/>
    <path fill="#0D2823" d="M142.947 217.998c-1.086 0-3.347-.383-5.886-3.014a.528.528 0 1 1 .765-.723c2.294 2.394 4.272 2.7 5.125 2.7-.161-.857-.826-2.719-3.511-4.073a.52.52 0 0 1 .073-.96.521.521 0 0 1 .397.03c4.131 2.085 4.138 5.355 4.138 5.481a.526.526 0 0 1-.405.501 3.385 3.385 0 0 1-.696.058Z" class="Vector"/>
    <path fill="#D6F2FF" d="M135.366 215.384a3.905 3.905 0 1 0 0-7.81 3.905 3.905 0 0 0 0 7.81Z" class="Vector"/>
    <path fill="#0D2823" d="M135.366 215.905a4.427 4.427 0 0 1-3.129-7.554 4.421 4.421 0 0 1 4.823-.959 4.424 4.424 0 0 1-1.694 8.513Zm0-7.806c-.669 0-1.324.198-1.88.571a3.38 3.38 0 0 0-1.439 3.475 3.388 3.388 0 0 0 2.662 2.659 3.39 3.39 0 0 0 3.474-1.443 3.385 3.385 0 0 0 .568-1.881 3.383 3.383 0 0 0-3.385-3.37v-.011Z" class="Vector"/>
    <path fill="#0D2823" d="M135.366 213.074a1.595 1.595 0 1 0 0-3.19 1.595 1.595 0 0 0 0 3.19Z" class="Vector"/>
    <path fill="#D6F2FF" d="M135.367 213.29a1.806 1.806 0 0 1-1.672-1.117 1.814 1.814 0 0 1 .392-1.971 1.805 1.805 0 0 1 1.972-.392 1.805 1.805 0 0 1 1.117 1.671 1.809 1.809 0 0 1-1.809 1.809Zm0-3.19a1.383 1.383 0 0 0-.971 2.359 1.383 1.383 0 0 0 2.123-.211 1.386 1.386 0 0 0-.174-1.745 1.374 1.374 0 0 0-.978-.403Z" class="Vector"/>
    <path fill="#F1EEEC" d="m148.818 176.748-5.974 11.091-1.064 3.825.727 2.765 2.792-.849 5.381-7.362 1.962 2.168 4.368.601 2.876 5.385 4.647-3.091s2.497-14.87-15.715-14.533Z" class="Vector"/>
    <path fill="#044348" d="M223.589 111.629s-15.299.188-27.495 13.467c-12.197 13.279-8.311 13.933-24.302 29.549s-22.975 22.103-22.975 22.103 16.894-1.656 15.716 14.533c0 0 19.758-6.372 37.401-24.692l13.493 42.557h93.833l-15.168-39.092s15.245-10.708 4.831-28.875c-10.415-18.167-23.128-30.471-35.795-32.016-12.667-1.546-21.904.08-21.904.08l-17.635 2.386Z" class="Vector"/>
    <path fill="#0D2823" d="M164.498 192.047a.583.583 0 0 1-.382-.142.58.58 0 0 1-.184-.535c0-.061 1.025-5.802-2.474-9.879-2.528-2.949-6.785-4.345-12.621-4.169a.556.556 0 0 1-.551-.359.575.575 0 0 1 .145-.639c.306-.275 30.574-27.82 38.598-40.048 9.206-14.021 19.563-26.512 44.894-25.38a72.779 72.779 0 0 1 18.461-3.213c13.692-.547 24.86 3.358 32.33 11.302 9.776 10.399 15.899 19.001 18.714 26.291 3.258 8.414 2.268 15.298-3.029 20.962-10.602 11.359-22.47 15.368-38.185 18.152a.58.58 0 0 1-.654-.421 31.908 31.908 0 0 0-2.586-6.326c-1.629-3.025-4.459-6.968-8.666-8.582a.572.572 0 0 1-.305-.802.582.582 0 0 1 .22-.231c.234-.134 23.354-13.669 27.438-22.259a.579.579 0 0 1 .782-.308.573.573 0 0 1 .3.346c.023.075.031.154.023.233a.58.58 0 0 1-.072.222c-1.786 3.76-7.034 8.736-15.597 14.794-4.807 3.415-9.397 6.226-11.309 7.389 6.999 3.408 10.078 12.442 10.755 14.721 15.229-2.738 26.772-6.708 37.033-17.708 9.397-10.066 4.559-24.156-15.681-45.685-9.133-9.715-22.125-11.313-31.419-10.946a71.04 71.04 0 0 0-18.282 3.19.594.594 0 0 1-.214.03c-26.853-1.239-36.754 13.845-43.983 24.86-7.229 11.015-32.127 34.15-37.684 39.26 5.454.084 9.496 1.626 12.036 4.59 3.002 3.511 3.006 7.974 2.842 9.89 23.051-7.936 48.064-36.353 48.316-36.644a.58.58 0 0 1 .815-.049.574.574 0 0 1 .05.814c-.26.295-26.1 29.656-49.69 37.267a.541.541 0 0 1-.184.012Z" class="Vector"/>
    <path fill="#0D2823" d="M215.428 209.705a.57.57 0 0 1-.547-.382l-13.494-42.572a.585.585 0 0 1 .013-.458.581.581 0 0 1 .345-.303.573.573 0 0 1 .732.413l13.497 42.553a.567.567 0 0 1-.041.441.585.585 0 0 1-.341.282.71.71 0 0 1-.164.026Zm93.833.001a.573.573 0 0 1-.535-.382l-15.169-39.49a.574.574 0 0 1 1.071-.409l15.169 39.501a.572.572 0 0 1-.329.742.637.637 0 0 1-.207.038Zm-166.062-14.705c-.562 0-1.327-.249-1.786-1.4-1.595-3.989 6.058-15.83 6.938-17.165a.565.565 0 0 1 .585-.248.574.574 0 0 1 .453.445.577.577 0 0 1-.082.43c-.019.035-2.111 3.228-3.989 6.842-3.216 6.2-3.163 8.468-2.842 9.267.272.677.605.681.727.681 1.859 0 5.94-5.45 8.242-11.011a.578.578 0 0 1 .75-.314.578.578 0 0 1 .313.75c-2.042 4.922-6.406 11.723-9.309 11.723Z" class="Vector"/>
    <path fill="#0D2823" d="M155.526 189.725a6.507 6.507 0 0 1-1.84-.253 5.886 5.886 0 0 1-3.618-3.189.57.57 0 0 1 .057-.653.58.58 0 0 1 .829-.055.592.592 0 0 1 .135.187 4.788 4.788 0 0 0 2.922 2.609c2.723.807 5.863-.995 5.898-1.014a.567.567 0 0 1 .449-.083.585.585 0 0 1 .368.271.587.587 0 0 1 .052.455.578.578 0 0 1-.296.348 11.003 11.003 0 0 1-4.956 1.377Zm4.001 5.274a.57.57 0 0 1-.555-.421.57.57 0 0 1 .26-.646l4.972-2.952a.576.576 0 0 1 .852.634.577.577 0 0 1-.263.352l-4.972 2.953a.585.585 0 0 1-.294.08Z" class="Vector"/>
    <path fill="#F1EEEC" d="m248.755 168.385-14.648 5.924-2.513 2.842 1.274 1.694 6.157-.47-8.207 9.944-1.492 2.62.91 1.484 2.077-.146 1.53 2.295 1.947.119 1.239 1.751 2.249-.436 1.147 1.228 4.972-1.817 10.063-7.508 4.827-4.142s-3.768-12.323-11.532-15.382Z" class="Vector"/>
    <path fill="#0D2823" d="M237.637 197.042a2.733 2.733 0 0 1-.383-.03c-1.032-.161-1.79-.899-2.241-2.196a.578.578 0 0 1 .159-.619.566.566 0 0 1 .415-.147.567.567 0 0 1 .398.191.58.58 0 0 1 .114.193c.452 1.3 1.113 1.404 1.331 1.434 1.167.18 3.094-1.013 5.412-3.362a41.067 41.067 0 0 0 3.347-3.87.58.58 0 0 1 .378-.224.578.578 0 0 1 .425.109.567.567 0 0 1 .224.378.579.579 0 0 1-.109.425c-.62.811-5.86 7.718-9.47 7.718Z" class="Vector"/>
    <path fill="#0D2823" d="M234.444 195.291a2.133 2.133 0 0 1-.414-.038c-.99-.18-1.663-.983-2.011-2.387a.572.572 0 0 1 .42-.696.575.575 0 0 1 .696.421c.226.926.597 1.442 1.102 1.53 2.088.382 6.662-4.972 9.057-8.414a.57.57 0 0 1 .77-.109.573.573 0 0 1 .171.759 52.266 52.266 0 0 1-3.626 4.605c-2.62 2.906-4.636 4.329-6.165 4.329Z" class="Vector"/>
    <path fill="#0D2823" d="M240.704 197.826a2.407 2.407 0 0 1-.615-.073 1.915 1.915 0 0 1-1.366-1.323.59.59 0 0 1 .042-.441.559.559 0 0 1 .341-.282.59.59 0 0 1 .225-.026.58.58 0 0 1 .498.409.768.768 0 0 0 .558.562c.903.237 3.534-.253 11.049-6.158 3.733-2.93 7.122-6.001 8.051-6.85-2.933-11.336-9.844-14.124-10.957-14.503-.869.287-4.823 1.618-8.625 3.247-7.993 3.423-7.779 4.9-7.726 5.056a1.27 1.27 0 0 0 .765.815c1.733.765 5.561-.577 6.885-1.147a.57.57 0 0 1 .701.192c.076.109.113.24.104.372a.58.58 0 0 1-.155.354c-.069.072-6.885 7.266-8.835 10.154-1.912 2.83-1.58 3.232-1.216 3.653a.767.767 0 0 0 .661.275c.685-.031 2.352-.677 5.833-4.655a66.375 66.375 0 0 0 3.725-4.704.577.577 0 0 1 .801-.136.574.574 0 0 1 .136.802c-.7.99-6.938 9.676-10.441 9.836a1.91 1.91 0 0 1-1.587-.673c-.976-1.147-.708-2.317 1.147-5.041 1.415-2.088 5.14-6.199 7.313-8.548-1.733.524-4.054.991-5.535.329a2.428 2.428 0 0 1-1.373-1.51c-.351-1.087.134-2.938 8.373-6.464 4.329-1.855 8.842-3.327 8.888-3.343a.598.598 0 0 1 .325 0c.352.092 8.716 2.437 12.013 15.716a.569.569 0 0 1-.168.558c-1.572 1.408-14.79 13.547-19.835 13.547Z" class="Vector"/>
    <path fill="#F1EEEC" d="M213.932 88.018s.344 7.814 1.453 11.279 2.295 9.179 8.414 11.278v3.443s5.886 5.075 10.082 4.1c4.195-.976 7.576-4.227 7.99-5.737l-2.433-12.258 2.019-9.799-4.719-5.224h-9.26l-13.546 2.918Z" class="Vector"/>
    <path fill="#0D2823" d="M225.555 111.148a8.332 8.332 0 0 1-3.977-.967c-3.443-1.828-5.871-6.12-7.218-12.797a52.437 52.437 0 0 1-1.002-9.367.576.576 0 0 1 .574-.574.575.575 0 0 1 .574.574c0 .172.092 17.157 7.611 21.15 3.14 1.668 7.225.826 12.147-2.501a.57.57 0 0 1 .77.17.575.575 0 0 1-.128.778c-3.476 2.356-6.612 3.534-9.351 3.534Z" class="Vector"/>
    <path fill="#0D2823" d="M232.815 118.759c-3.018 0-6.177-1.442-9.413-4.307a.558.558 0 0 1-.195-.428v-3.637a.574.574 0 1 1 1.147 0v3.377c3.473 3.01 6.793 4.264 9.868 3.725 4.058-.707 6.502-4.352 7.026-5.194l-2.391-12.04a.576.576 0 0 1 1.125-.225l2.432 12.261a.584.584 0 0 1-.057.383c-.115.206-2.826 5.056-7.94 5.947a9.35 9.35 0 0 1-1.602.138ZM223.08 106.2a2.267 2.267 0 0 1-.34-.023.579.579 0 1 1 .164-1.148c.119 0 2.746.303 4.356-3.847a.573.573 0 1 1 1.071.413c-1.625 4.207-4.299 4.605-5.251 4.605Zm-3.587-3.802a4.19 4.19 0 0 1-.681-.046.578.578 0 0 1-.482-.566v-9.083a.576.576 0 0 1 .574-.574.571.571 0 0 1 .573.574v8.544a3.875 3.875 0 0 0 2.919-1.182.574.574 0 1 1 .856.765 4.975 4.975 0 0 1-3.759 1.568Zm-7.569-9.6a.574.574 0 0 1-.383-.983c.103-.103 2.57-2.509 4.972-1.966a.57.57 0 0 1 .397.677.572.572 0 0 1-.649.44c-1.503-.337-3.351 1.09-3.936 1.668a.564.564 0 0 1-.401.164Zm15.872-1.881a.576.576 0 0 1-.31-.092c-2.375-1.53-4.226-.096-4.302-.035a.583.583 0 0 1-.423.125.58.58 0 0 1-.49-.41.563.563 0 0 1 .046-.437.572.572 0 0 1 .144-.172 4.868 4.868 0 0 1 5.645-.035.572.572 0 0 1 .033.94.573.573 0 0 1-.343.116Zm7.535 3.679h-.382a.567.567 0 0 1-.396-.192.566.566 0 0 1-.144-.416.584.584 0 0 1 .193-.395.573.573 0 0 1 .415-.144c.968.061 1.626-.134 1.966-.581.624-.819.138-2.295.134-2.33a.58.58 0 0 1 .159-.62.575.575 0 0 1 .927.238c.031.084.693 2.084-.31 3.396-.543.693-1.399 1.044-2.562 1.044Zm-10.763.447c.541 0 .979-.641.979-1.431s-.438-1.43-.979-1.43c-.541 0-.979.64-.979 1.43 0 .79.438 1.43.979 1.43Zm-8.981 2.227c.527-.06.879-.754.786-1.547-.092-.793-.594-1.386-1.121-1.324-.526.061-.878.754-.786 1.547.093.793.595 1.386 1.121 1.325Z" class="Vector"/>
    <path fill="#044348" d="M209.247 77.786s-9.083 3.775 0 8.892c8.495 4.785 21.992 0 21.992 0l1.575 3.266s3.97-3.442 6.361-.764c2.39 2.677.765 6.884-4.207 7.362 0 0 1.912 3.92 5.021 4.303 0 0 8.526-17.976-6.693-26.245-3.308-1.797-9.098-2.972-14.009-4.735-5.596-2.023-11.906 3.14-10.04 7.92Z" class="Vector"/>
    <path fill="#fff" d="M230.664 215.377s7.795 28.107 40.281 33.97l-32.777 28.62s-25.927-5.221-39.439-36.055l4.532-8.846 27.403-17.689Z" class="Vector"/>
    <path fill="#0D2823" d="M238.169 278.617h-.126c-.268-.054-6.693-1.392-14.87-6.559-7.531-4.758-17.976-13.807-25.033-29.878a.641.641 0 0 1 0-.551l4.533-8.847a.705.705 0 0 1 .225-.248l27.404-17.681a.639.639 0 0 1 .827.117.64.64 0 0 1 .14.265c0 .069 2.004 7.034 7.883 14.606 5.412 6.973 15.337 15.915 31.893 18.902a.644.644 0 0 1 .505.462.641.641 0 0 1-.195.658l-32.777 28.62a.642.642 0 0 1-.409.134Zm-38.728-36.686c6.884 15.574 17.05 24.359 24.37 28.991 7.003 4.436 12.817 6.02 14.182 6.348l31.534-27.537c-16.201-3.289-26.007-12.189-31.412-19.173a50.096 50.096 0 0 1-7.813-14.181l-26.543 17.13-4.318 8.422Z" class="Vector"/>
    <path fill="#D6F2FF" d="m204.848 239.538-6.119 2.375 4.532-8.847 1.587 6.472Z" class="Vector"/>
    <path fill="#0D2823" d="M198.729 242.555a.636.636 0 0 1-.478-.214.635.635 0 0 1-.096-.723l4.532-8.846a.649.649 0 0 1 1.201.142l1.587 6.471a.646.646 0 0 1-.382.765l-6.12 2.375a.697.697 0 0 1-.244.03Zm4.318-7.649-2.98 5.791 4.012-1.557-1.032-4.234Zm2.153 12.732a.647.647 0 0 1-.31-1.209l29.645-16.232a.648.648 0 0 1 .496-.051.658.658 0 0 1 .387.315.655.655 0 0 1-.264.884l-29.644 16.232a.662.662 0 0 1-.31.061Zm6.441 8.28a.642.642 0 0 1-.336-1.194l28.998-17.593a.65.65 0 0 1 .749-.004.656.656 0 0 1 .25.706.657.657 0 0 1-.33.4l-28.998 17.593a.673.673 0 0 1-.333.092Zm7.825 7.095a.65.65 0 0 1-.615-.463.652.652 0 0 1 .012-.405.652.652 0 0 1 .251-.318l28.096-18.404a.645.645 0 0 1 .704 1.079l-28.096 18.404a.629.629 0 0 1-.352.107Zm8.93 5.247a.64.64 0 0 1-.633-.443.644.644 0 0 1 .251-.731l26.512-18.263a.647.647 0 0 1 .73 1.064l-26.504 18.27a.635.635 0 0 1-.356.103Zm11.038.894a.642.642 0 0 1-.363-1.178l10.64-7.217a.644.644 0 0 1 .723 1.067l-10.641 7.214a.637.637 0 0 1-.359.114Z" class="Vector"/>
    <path fill="#fff" d="M245.038 217.477s13.738 21.995 42.996 24.863l-30.979 23.904s-27.415 1.148-41.627-25.242l2.616-8.797 26.994-14.728Z" class="Vector"/>
    <path fill="#0D2823" d="M256.492 266.826a47.737 47.737 0 0 1-15.118-2.765c-7.971-2.78-19.032-8.992-26.459-22.787a.576.576 0 0 1-.046-.436l2.616-8.797a.573.573 0 0 1 .275-.34l26.995-14.725a.573.573 0 0 1 .764.199c.035.053 3.489 5.511 10.442 11.244a59.496 59.496 0 0 0 32.127 13.352.58.58 0 0 1 .495.413.578.578 0 0 1-.201.612L257.403 266.7a.58.58 0 0 1-.329.119c-.019 0-.241.007-.582.007Zm-40.445-25.889c7.267 13.325 17.976 19.341 25.713 22.042a46.545 46.545 0 0 0 15.092 2.677l29.706-22.917a60.664 60.664 0 0 1-31.362-13.482c-5.997-4.972-9.371-9.596-10.35-11.042l-26.321 14.373-2.478 8.349Z" class="Vector"/>
    <path fill="#D6F2FF" d="m220.595 238.91-5.167 2.092 2.616-8.797 2.551 6.705Z" class="Vector"/>
    <path fill="#0D2823" d="M215.428 241.577a.565.565 0 0 1-.549-.42.573.573 0 0 1 .002-.318l2.616-8.797a.575.575 0 0 1 1.086-.038l2.547 6.704a.574.574 0 0 1-.321.735l-5.167 2.092a.604.604 0 0 1-.214.042Zm2.677-7.581-1.79 6.028 3.542-1.434-1.752-4.594Zm4.623 10.449a.571.571 0 0 1-.546-.41.572.572 0 0 1 .233-.642l25.147-16.542a.567.567 0 0 1 .43-.081.573.573 0 0 1 .197 1.038l-25.147 16.541a.558.558 0 0 1-.314.096Zm6.311 6.883a.577.577 0 0 1-.567-.665.575.575 0 0 1 .231-.375l24.477-17.689a.575.575 0 0 1 .673.933l-24.477 17.689a.58.58 0 0 1-.337.107Zm7.458 5.738a.574.574 0 0 1-.351-1.025l23.617-18.359a.576.576 0 0 1 .95.517.572.572 0 0 1-.247.386l-23.617 18.358a.555.555 0 0 1-.352.123Zm8.319 4.016a.577.577 0 0 1-.444-.21.575.575 0 0 1 .084-.807l22.218-18.118a.58.58 0 0 1 .424-.138.56.56 0 0 1 .219.064.559.559 0 0 1 .283.345.563.563 0 0 1-.05.444.58.58 0 0 1-.15.173l-22.221 18.117a.57.57 0 0 1-.363.13Zm9.848-.001a.573.573 0 0 1-.552-.732.579.579 0 0 1 .193-.29l8.922-7.171a.578.578 0 0 1 .931.51.575.575 0 0 1-.212.385l-8.922 7.171a.583.583 0 0 1-.36.127Z" class="Vector"/>
    <path fill="#D6F2FF" d="M229.039 212.062s4.368-.509 6.502 2.933l-6.502-2.933Z" class="Vector"/>
    <path fill="#0D2823" d="M235.541 215.638a.652.652 0 0 1-.547-.302c-1.912-3.06-5.84-2.639-5.878-2.631a.648.648 0 0 1-.153-1.282c.195-.022 4.8-.512 7.125 3.232a.65.65 0 0 1-.207.888.656.656 0 0 1-.34.095Z" class="Vector"/>
    <path fill="#D6F2FF" d="M195.479 237.488s-2.552 4.154 0 8.231v-8.231Z" class="Vector"/>
    <path fill="#0D2823" d="M195.478 246.357a.652.652 0 0 1-.547-.302c-2.731-4.368-.115-8.728 0-8.911a.645.645 0 0 1 1.101.673c-.095.157-2.294 3.874 0 7.553a.646.646 0 0 1-.554.987Z" class="Vector"/>
    <path fill="#D6F2FF" d="M231.304 280.652s2.929 3.186 8.666.891l-8.666-.891Z" class="Vector"/>
    <path fill="#0D2823" d="M235.988 283.023c-3.327 0-5.063-1.832-5.159-1.935a.642.642 0 0 1 .034-.91.645.645 0 0 1 .911.034c.111.119 2.742 2.819 7.959.734a.647.647 0 0 1 .699.148.633.633 0 0 1 .182.457.629.629 0 0 1-.193.452.652.652 0 0 1-.21.137 11.33 11.33 0 0 1-4.223.883Z" class="Vector"/>
  </g>
</svg>
