<svg xmlns="http://www.w3.org/2000/svg" viewBox="0 0 1072 1072"><defs><style>.cls-1{fill:#65d45c;}.cls-2{fill:#fff;}.cls-3{fill:#0d2823;}.cls-4{fill:#d6f2ff;}.cls-5{fill:#f1eeec;}.cls-6{fill:#044348;}</style></defs><title>ILUSTRACIONES GAIA</title><g id="ILUSTRACIÓN_18" data-name="ILUSTRACIÓN 18"><rect class="cls-1" x="207" y="191" width="529" height="312" rx="12" ry="12"/><path class="cls-2" d="M442.63,434.33l69.15-74H736v-34H543.55L670,191H623.33L494.57,326.33H348V191H315.33V326.33H207v34H315.33v74H207V467H738.67V434.33Zm-94.63-74H462.22l-70.4,74H348Z"/><rect class="cls-3" x="465.83" y="191" width="3" height="32"/><path class="cls-3" d="M842,468.5a1.5,1.5,0,0,1-1.5-1.5V277.83H467.33a1.5,1.5,0,0,1-1.5-1.5v-24a1.5,1.5,0,1,1,3,0v22.5H842a1.5,1.5,0,0,1,1.5,1.5V467A1.5,1.5,0,0,1,842,468.5Z"/><path class="cls-3" d="M583.33,369.17a1.5,1.5,0,0,1-1.5-1.5V276.33a1.5,1.5,0,0,1,3,0v91.34A1.5,1.5,0,0,1,583.33,369.17Z"/><path class="cls-3" d="M583.33,481.17a1.5,1.5,0,0,1-1.5-1.5v-86a1.5,1.5,0,1,1,3,0v86A1.5,1.5,0,0,1,583.33,481.17Z"/><path class="cls-3" d="M583.33,413.83h-78a1.5,1.5,0,0,1,0-3h78a1.5,1.5,0,0,1,0,3Z"/><path class="cls-3" d="M452.67,413.83H367.33a1.5,1.5,0,0,1,0-3h85.34a1.5,1.5,0,0,1,0,3Z"/><path class="cls-3" d="M246.67,413.83H222a1.5,1.5,0,1,1,0-3h24.67a1.5,1.5,0,1,1,0,3Z"/><path class="cls-3" d="M133.33,697.17H112.67a1.5,1.5,0,0,1-1.5-1.5V412.33a1.5,1.5,0,0,1,1.5-1.5H192a1.5,1.5,0,0,1,0,3H114.17V694.17h19.16a1.5,1.5,0,1,1,0,3Z"/><circle class="cls-3" cx="467.33" cy="223" r="4.17"/><circle class="cls-3" cx="467.33" cy="249.13" r="4.17"/><circle class="cls-3" cx="583.33" cy="370.75" r="4.17"/><circle class="cls-3" cx="583.33" cy="390.08" r="4.17"/><circle class="cls-3" cx="195.71" cy="412.33" r="4.17"/><circle class="cls-3" cx="218.46" cy="412.33" r="4.17"/><circle class="cls-3" cx="136.67" cy="695.67" r="4.17"/><path class="cls-4" d="M591.17,536H965a12,12,0,0,1,12,12v30.5a0,0,0,0,1,0,0H579.17a0,0,0,0,1,0,0V548A12,12,0,0,1,591.17,536Z"/><path class="cls-3" d="M964.94,795.5H591.23a13.57,13.57,0,0,1-13.56-13.56V548.06a13.57,13.57,0,0,1,13.56-13.56H964.94a13.57,13.57,0,0,1,13.56,13.56V781.94A13.57,13.57,0,0,1,964.94,795.5Zm-373.71-258a10.58,10.58,0,0,0-10.56,10.56V781.94a10.58,10.58,0,0,0,10.56,10.56H964.94a10.58,10.58,0,0,0,10.56-10.56V548.06a10.58,10.58,0,0,0-10.56-10.56Z"/><path class="cls-3" d="M960,561.5H932.75a1.5,1.5,0,0,1,0-3H960a1.5,1.5,0,0,1,0,3Z"/><rect class="cls-2" x="535.16" y="489" width="388.84" height="248.67" rx="11.71" ry="11.71"/><path class="cls-4" d="M546.81,489H912.35A11.65,11.65,0,0,1,924,500.65V530a0,0,0,0,1,0,0H535.16a0,0,0,0,1,0,0V500.65A11.65,11.65,0,0,1,546.81,489Z"/><path class="cls-3" d="M912.29,739.12H546.87A13.17,13.17,0,0,1,533.71,726V500.71a13.18,13.18,0,0,1,13.16-13.17H912.29a13.19,13.19,0,0,1,13.17,13.17V726A13.18,13.18,0,0,1,912.29,739.12ZM546.87,490.46a10.26,10.26,0,0,0-10.25,10.25V726a10.26,10.26,0,0,0,10.25,10.25H912.29A10.26,10.26,0,0,0,922.54,726V500.71a10.26,10.26,0,0,0-10.25-10.25Z"/><path class="cls-3" d="M907.38,513.59H880.75a1.46,1.46,0,1,1,0-2.91h26.63a1.46,1.46,0,1,1,0,2.91Z"/><path class="cls-5" d="M359.83,321.75s7.12,7.63,9.09,13.18,4.4,15.39,5.72,18.36l4,9.09-5.49,2.87s-2.33,15-12.12,20.81-13.49,5.22-13.49,5.22l.44,22.11s-25.25-5.27-29.88-4.27-4.62-13.24-4.62-13.24l21.62-21.76-14.45-9.62,5.21-17.17L352,330.5Z"/><path class="cls-5" d="M475,388.33s6.08-34.67,14.46-39.9,5.51-5,5.51-5l3.95,1.07,4.27-3.17,3.33.25,4.06,6.84L514,374.5l-7.42,12.75L496,397.33Z"/><path class="cls-4" d="M228.67,551.33s.58-84.33,20.08-97.08,50.5-26.75,50.5-26.75l22.36-17.58s53-4.45,106.7,58.82L475,388.33l21.17,10.08s1.18,50.44-13.37,87-32.2,52.36-58.05,46.19C400.25,525.75,394,518,394,518l1.33,69.33-164.08-1.08Z"/><path class="cls-3" d="M228.67,552.83a1.5,1.5,0,0,1-1.5-1.46,332.93,332.93,0,0,1,1.89-39.18c3.09-28.28,9.33-48.11,18.55-58.91a1.5,1.5,0,0,1,2.28,1.94c-21.13,24.78-19.74,95.37-19.72,96.08a1.5,1.5,0,0,1-1.47,1.53Z"/><path class="cls-3" d="M439.33,483.83a1.48,1.48,0,0,1-1.19-.59C379,405.49,321.42,411.42,320.85,411.49a1.5,1.5,0,1,1-.36-3c.61-.07,15.19-1.7,37.4,6.5,20.38,7.52,51.25,25.15,82.64,66.42a1.5,1.5,0,0,1-.29,2.1A1.53,1.53,0,0,1,439.33,483.83Z"/><path class="cls-3" d="M434.35,534.12h-.58c-15.88-.21-34.45-8.85-55.2-25.67a231.38,231.38,0,0,1-26.37-25.14,1.5,1.5,0,0,1,2.27-2c.42.5,43,49.29,79.34,49.77,10.63.15,19.84-3.94,27.3-12.13,19.55-21.44,27.59-53.31,30.89-76.26a259.58,259.58,0,0,0,2.54-44.39l-18.91-8.1-46,79.25A1.5,1.5,0,1,1,427,468l46.69-80.4a1.52,1.52,0,0,1,1.89-.63l21,9a1.54,1.54,0,0,1,.91,1.3c0,.81,4.18,81.7-34.17,123.76C455.4,529.71,445.65,534.12,434.35,534.12Z"/><path class="cls-3" d="M395.33,691.5a1.5,1.5,0,0,1-1.5-1.5V519.78a1.5,1.5,0,0,1,3,0V690A1.5,1.5,0,0,1,395.33,691.5Z"/><path class="cls-3" d="M270,552.83a1.5,1.5,0,0,1-1.5-1.5v-55a1.5,1.5,0,1,1,3,0v55A1.5,1.5,0,0,1,270,552.83Z"/><path class="cls-3" d="M395.33,588.83H289a1.5,1.5,0,0,1,0-3H395.33a1.5,1.5,0,1,1,0,3Z"/><path class="cls-3" d="M348,413.83a1.5,1.5,0,0,1-1.5-1.5V392.17a1.5,1.5,0,0,1,3,0v20.16A1.5,1.5,0,0,1,348,413.83Z"/><path class="cls-3" d="M339,393.67h-.22a1.5,1.5,0,0,1-1.46-1.54,1.52,1.52,0,0,1,1.54-1.46,45.2,45.2,0,0,0,15.51-2.9c10.27-4,16.09-11.42,17.3-22a1.5,1.5,0,0,1,3,.34C371.59,393,341.85,393.67,339,393.67Z"/><path class="cls-3" d="M368.06,381.17a1.24,1.24,0,0,1-.27,0,15.38,15.38,0,0,1-11.73-10.21,1.5,1.5,0,1,1,2.88-.86,12.32,12.32,0,0,0,9.38,8.12,1.5,1.5,0,0,1-.26,3Z"/><path class="cls-3" d="M368.67,368.67a1.5,1.5,0,0,1-.59-2.88l8.67-3.7a.71.71,0,0,0,.39-.44.65.65,0,0,0-.09-.55,39.63,39.63,0,0,1-5.32-11.68l0-.11c0-.2-4.06-19.2-10.7-24.34a1.5,1.5,0,1,1,1.83-2.37c7.38,5.71,11.49,24.59,11.79,26a36.86,36.86,0,0,0,4.88,10.74,3.59,3.59,0,0,1,.52,3.1,3.66,3.66,0,0,1-2.1,2.38l-8.66,3.7A1.59,1.59,0,0,1,368.67,368.67Z"/><path class="cls-3" d="M348,353.17a1.5,1.5,0,0,1-.71-.18,1.51,1.51,0,0,1-.61-2,21.76,21.76,0,0,1,12.73-9.39,1.5,1.5,0,0,1,.85,2.88,18.89,18.89,0,0,0-10.94,7.94A1.51,1.51,0,0,1,348,353.17Z"/><ellipse class="cls-3" cx="360.14" cy="354.83" rx="2.64" ry="4"/><path class="cls-3" d="M496,398.83a1.49,1.49,0,0,1-1-2.6c4.11-3.77,15.08-14.79,16.42-20.57,1.74-7.45-2.11-30.08-5.57-32.72-.81-.61-1.3-.55-1.64-.42-1.65.6-3.26,4.11-3.73,6.3l0,.16c-.89,4.07-1.89,8.68-9.24,18.19a1.5,1.5,0,0,1-2.38-1.84c6.94-9,7.87-13.23,8.69-17l0-.17c.43-1.94,2.26-7.24,5.63-8.48a4.54,4.54,0,0,1,4.5.86c5.07,3.87,8.44,28.23,6.68,35.78-1.84,7.86-16.7,21.52-17.33,22.1A1.51,1.51,0,0,1,496,398.83Z"/><path class="cls-3" d="M475,389.83h-.1a1.51,1.51,0,0,1-1.4-1.6c.08-1.08,2-26.66,16.89-43.23.75-.79,4.49-4.46,7.64-3.35,1.71.61,2.7,2.36,3,5.22a1.5,1.5,0,0,1-3,.26c-.16-1.75-.61-2.52-1-2.65-.91-.32-3.21,1.28-4.45,2.56-14.19,15.75-16.07,41.14-16.08,41.4A1.5,1.5,0,0,1,475,389.83Z"/><path class="cls-6" d="M338.83,370.5s-11.6.25-12.83-7.62c-.64-4.11.5-8.88,5-10.63,6.25-2.43,17.16-9.07,22.33-15.5a89.79,89.79,0,0,0,9.45-14.13c-10.53-14-50-20.12-66.28,1.17-18.87,24.72-4,48-4,48s-43.17,16.58-45.83,64c-2.33,41.44,17.08,57.75,37.08,48.75s43.08-40,36.92-85.5C320.67,399,335.92,387.25,338.83,370.5Z"/><path class="cls-2" d="M192,660.89s-71.33,72.32-79.33,132.05,8.72,71.84,8.72,71.84S143,891,192,890c0,0-13.24-24,5.38-41.52,0,0,10.62-8.15,17.62-9.81L239.13,881l128.54-2.48s29.2-185.31-68.23-232.08L256.38,674Z"/><polygon class="cls-4" points="235.5 654.5 256.38 674.17 248.75 686.75 229.75 660.5 235.5 654.5"/><path class="cls-3" d="M248.75,688.25a1.49,1.49,0,0,1-1.21-.62l-19-26.25a1.5,1.5,0,0,1,.13-1.92l5.75-6a1.5,1.5,0,0,1,2.11-.05l20.87,19.67a1.49,1.49,0,0,1,.26,1.86L250,687.53a1.5,1.5,0,0,1-1.22.72ZM231.7,660.63,248.64,684l5.82-9.61-18.91-17.82Z"/><polygon class="cls-4" points="270 653 256.75 673 265.61 684.75 278.5 659 270 653"/><path class="cls-3" d="M265.61,686.25a1.51,1.51,0,0,1-1.2-.6l-8.86-11.75a1.5,1.5,0,0,1-.05-1.73l13.25-20a1.47,1.47,0,0,1,1-.64,1.52,1.52,0,0,1,1.15.24l8.5,6a1.51,1.51,0,0,1,.47,1.9L267,685.42a1.47,1.47,0,0,1-1.2.82Zm-7-13.31,6.76,9,11.23-22.44-6.18-4.36Z"/><path class="cls-3" d="M192,891.5c-21.51,0-39.62-3.88-53.83-11.54a54.83,54.83,0,0,1-27.4-37.23c-5.47-26-3.87-69.19,34.81-127.48a364.71,364.71,0,0,1,49.07-59,1.5,1.5,0,0,1,2,2.2A361.22,361.22,0,0,0,148.05,717c-21,31.68-44,79.12-34.35,125.16a51.85,51.85,0,0,0,25.89,35.2c13.56,7.3,30.86,11.06,51.44,11.18l22.12-49.38c-4.94-3.87-30-22.57-63.25-32.68a1.5,1.5,0,0,1,.87-2.88c37.63,11.45,64.91,33.73,65.18,34a1.5,1.5,0,0,1,.42,1.77l-23,51.33A1.5,1.5,0,0,1,192,891.5Z"/><path class="cls-4" d="M222.33,735.67s-25.89,61.46-39.61,82.56"/><path class="cls-3" d="M182.72,819.73a1.45,1.45,0,0,1-.82-.24,1.5,1.5,0,0,1-.44-2.07C195,796.67,220.69,735.7,221,735.08a1.5,1.5,0,0,1,2.77,1.17c-.26.62-26.11,61.83-39.74,82.8A1.51,1.51,0,0,1,182.72,819.73Z"/><path class="cls-3" d="M367.67,762.17a1.52,1.52,0,0,1-1.5-1.36,201.18,201.18,0,0,0-11.81-47.55c-8.82-23-25.93-53.16-57.27-66.21a1.5,1.5,0,0,1,1.15-2.77c32.35,13.47,49.91,44.4,58.95,68a204.58,204.58,0,0,1,12,48.28,1.5,1.5,0,0,1-1.35,1.63Z"/><path class="cls-3" d="M319.75,758.83a1.5,1.5,0,0,1-1.49-1.32l-3.42-29a1.51,1.51,0,0,1,1.32-1.67,1.49,1.49,0,0,1,1.66,1.32l3.42,29a1.49,1.49,0,0,1-1.31,1.66Z"/><path class="cls-6" d="M242.25,668.5a58.57,58.57,0,0,1-50.25,0s-10.75-98.75,25.12-123.25c23.28-15.9,59.57-3.25,67.6,18S300,630.75,300.25,667.5c0,0-11,5-33-11L270,551.33s-1.5,25.34-28.25,36Z"/><path class="cls-5" d="M256,671.77l11.3-17.27.83-31.84s35.73-18.33,1.51-68.66a47.56,47.56,0,0,1-27.89,33.33l.44,71.5Z"/><path class="cls-3" d="M248,631a1.5,1.5,0,0,1-.29-3c18.68-3.73,30.37-11.38,34.73-22.74,8.33-21.68-12.57-50.11-12.78-50.39a1.5,1.5,0,0,1,2.41-1.8A96,96,0,0,1,282,570.81c5.83,13.61,7,25.9,3.24,35.56C280.5,618.75,268.07,627,248.32,631Z"/><path class="cls-3" d="M270,602.25a1.5,1.5,0,0,1-.62-2.87l8.67-3.9-6.18-14.65a1.5,1.5,0,0,1,2.76-1.16l6.75,16a1.5,1.5,0,0,1-.76,2l-10,4.5A1.5,1.5,0,0,1,270,602.25Z"/><path class="cls-3" d="M268.25,610.6c-7.25,0-11.54-5.8-12.9-9.31a1.5,1.5,0,0,1,2.8-1.09h0c.14.38,3.73,9.15,12.77,7.09a1.5,1.5,0,1,1,.66,2.92A14.77,14.77,0,0,1,268.25,610.6Z"/><path class="cls-3" d="M248.75,587.87a1.52,1.52,0,0,1-.59-.12,1.5,1.5,0,0,1-.79-2c5.89-13.8,16.42-12.33,16.86-12.26a1.5,1.5,0,0,1-.45,3c-.38-.05-8.72-1.08-13.65,10.47A1.51,1.51,0,0,1,248.75,587.87Z"/><path class="cls-3" d="M289,575.5a1.47,1.47,0,0,1-.83-.25C284.9,573.07,279,573.59,277,574a1.5,1.5,0,0,1-.58-2.94c.34-.07,8.42-1.58,13.37,1.72a1.5,1.5,0,0,1-.83,2.75Z"/><ellipse class="cls-3" cx="261.33" cy="585.17" rx="2.67" ry="3.83"/><path class="cls-5" d="M210,841s33.7-9.9,42.22,19.91l6.89,11.3-3.24,4.82-5-.89-3.58-2.86-.58,6-3.47,3.2-7.75-2.94-2,5.67-4.27,1.32-6.92-2.54-17.25,6c-.87.17-13.26-.71-13.46-1.57C189.89,880.9,183.94,847.93,210,841Z"/><path class="cls-3" d="M196.45,891.68c-2.62,0-4.37-.16-4.6-.19a1.49,1.49,0,0,1-1.29-1.07,70.22,70.22,0,0,1-2.35-15.19c-.52-11.28,2-20.58,7.26-26.87,6.95-8.29,18.53-11.61,34.45-9.85,9.42,1,20.69,7.7,24.05,23.26a1.5,1.5,0,0,1-2.94.63c-3.9-18.08-18.55-20.59-21.45-20.91-14.84-1.64-25.54,1.32-31.81,8.8-10.31,12.32-5.8,33.47-4.6,38.29,4,.23,18.46.52,26.06-6.66a1.5,1.5,0,0,1,2.06,2.19C214.33,890.68,202.83,891.68,196.45,891.68Z"/><path class="cls-3" d="M254.08,878.58a7.67,7.67,0,0,1-4.73-1.63c-.45-.36-.84-.69-1.23-1-2.19-1.87-4.92-4.19-24.37-15.37a1.5,1.5,0,0,1,1.5-2.6c19.69,11.31,22.53,13.74,24.81,15.69.38.32.73.62,1.15,1a4.3,4.3,0,0,0,4.84.41c1.31-.93,1-2.74.54-4.09-1.44-4.06-6.77-8.88-15.4-13.95a127.13,127.13,0,0,0-13-6.59,1.5,1.5,0,1,1,1.16-2.76c1.06.44,26.1,11,30.08,22.3,1.63,4.59-.58,6.8-1.61,7.53A6.36,6.36,0,0,1,254.08,878.58Z"/><path class="cls-3" d="M242.36,883.35c-6,0-22.81-11.08-26.2-13.35a1.51,1.51,0,0,1,1.68-2.5c7.7,5.18,21.26,13.25,24.65,12.84a3.49,3.49,0,0,0,2.79-1.47c1-1.68.29-4.57-.08-5.55a1.5,1.5,0,0,1,2.8-1.07c.19.5,1.8,4.94-.15,8.17a6.35,6.35,0,0,1-5,2.9A3.64,3.64,0,0,1,242.36,883.35Z"/><path class="cls-3" d="M231.2,887.89c-6.11,0-17.84-7.22-19.25-8.1a1.5,1.5,0,0,1,1.6-2.54c5.31,3.32,15,8.33,18.27,7.59a2.06,2.06,0,0,0,1.51-1c.7-1.25.2-3.38,0-4.1a1.49,1.49,0,0,1,.92-1.91,1.51,1.51,0,0,1,1.91.91c.13.39,1.3,3.89-.16,6.55a5.11,5.11,0,0,1-3.48,2.48A5.72,5.72,0,0,1,231.2,887.89Z"/><rect class="cls-4" x="271.33" y="753" width="196.33" height="128" rx="7.29" ry="7.29"/><path class="cls-3" d="M372.47,793.55c5.3,8.42,4.66,14.76.57,17.33s-10.07.4-15.37-8c-6.13-9.75-2.19-19.9-2.19-19.9A22.72,22.72,0,0,1,372.47,793.55Z"/><path class="cls-5" d="M368.18,794.7c-4.72,7.49-4.14,13.13-.51,15.41s9,.36,13.67-7.13a21.17,21.17,0,0,0,2-17.7A20.2,20.2,0,0,0,368.18,794.7Z"/><path class="cls-3" d="M370.81,812.35a7.13,7.13,0,0,1-3.85-1.11,7.77,7.77,0,0,1-3.5-6.88c0-3,1.23-6.62,3.59-10.37h0a21.35,21.35,0,0,1,16.18-10l1,0,.34.89a22.31,22.31,0,0,1-2.06,18.89c-2.36,3.75-5.05,6.42-7.79,7.73A9,9,0,0,1,370.81,812.35Zm-1.5-16.94c-2.09,3.32-3.19,6.41-3.18,9a4.87,4.87,0,0,0,7.4,4.65c2.28-1.09,4.59-3.42,6.68-6.74a19.86,19.86,0,0,0,2.14-15.55,18.94,18.94,0,0,0-13.05,8.69Z"/><path class="cls-3" d="M547.5,882.5H246.25a1.5,1.5,0,0,1,0-3H547.5a1.5,1.5,0,0,1,0,3Z"/><path class="cls-3" d="M142,882.5H92a1.5,1.5,0,0,1,0-3h50a1.5,1.5,0,0,1,0,3Z"/><polygon class="cls-2" points="404 659 465.33 626.4 525.33 735.67 439 785.28 391 699.98 404 659"/><path class="cls-3" d="M439,786.78a1.83,1.83,0,0,1-.4,0,1.55,1.55,0,0,1-.91-.72l-48-85.3a1.5,1.5,0,0,1-.12-1.19l13-41a1.47,1.47,0,0,1,.73-.87l61.33-32.6a1.5,1.5,0,0,1,2,.6l60,109.27a1.5,1.5,0,0,1-.57,2l-86.33,49.61A1.53,1.53,0,0,1,439,786.78Zm-46.37-87,46.94,83.41,83.74-48.12L464.73,628.42,405.25,660Z"/><line class="cls-2" x1="419.28" y1="675.28" x2="462.78" y2="650.23"/><path class="cls-3" d="M419.28,676.78a1.5,1.5,0,0,1-.75-2.8L462,648.93a1.5,1.5,0,1,1,1.5,2.6L420,676.58A1.52,1.52,0,0,1,419.28,676.78Z"/><line class="cls-2" x1="407.15" y1="703.13" x2="473.04" y2="665.2"/><path class="cls-3" d="M407.15,704.63a1.48,1.48,0,0,1-1.3-.75,1.51,1.51,0,0,1,.55-2l65.9-37.93a1.5,1.5,0,0,1,1.49,2.6L407.9,704.43A1.46,1.46,0,0,1,407.15,704.63Z"/><line class="cls-2" x1="418.05" y1="722.5" x2="483.94" y2="684.56"/><path class="cls-3" d="M418.05,724a1.5,1.5,0,0,1-.75-2.8l65.9-37.94a1.5,1.5,0,0,1,1.49,2.6L418.8,723.8A1.59,1.59,0,0,1,418.05,724Z"/><line class="cls-2" x1="456.21" y1="725.51" x2="494.34" y2="703.56"/><path class="cls-3" d="M456.21,727a1.5,1.5,0,0,1-.74-2.8l38.13-22a1.5,1.5,0,0,1,1.49,2.6L457,726.81A1.43,1.43,0,0,1,456.21,727Z"/><line class="cls-2" x1="466.56" y1="744.23" x2="505.11" y2="722.03"/><path class="cls-3" d="M466.56,745.73a1.5,1.5,0,0,1-.75-2.8l38.56-22.2a1.5,1.5,0,0,1,1.49,2.6l-38.55,22.2A1.59,1.59,0,0,1,466.56,745.73Z"/><polygon class="cls-4" points="417.89 684.17 404 659 391 699.98 417.89 684.17"/><path class="cls-3" d="M391,701.48a1.5,1.5,0,0,1-1.43-2l13-41a1.5,1.5,0,0,1,2.74-.27l13.9,25.16a1.5,1.5,0,0,1-.56,2l-26.89,15.81A1.5,1.5,0,0,1,391,701.48Zm13.37-38.7L393.61,696.7l22.27-13.09Z"/><path class="cls-4" d="M440.23,753.67c-1.93,11.22,4.53,15.89,4.53,15.89s5.63-4.79,3.55-17.14"/><path class="cls-3" d="M444.76,770.92a1.39,1.39,0,0,1-.8-.26c-.29-.21-7.12-5.3-5.08-17.22a1.36,1.36,0,0,1,2.69.46c-1.33,7.75,1.55,12,3.1,13.72,1.33-1.79,3.74-6.39,2.3-15a1.36,1.36,0,0,1,2.68-.45c2.18,13-3.75,18.19-4,18.4A1.34,1.34,0,0,1,444.76,770.92Z"/><path class="cls-4" d="M454.06,746.28c10.16,5.12,10.06,13.09,10.06,13.09S456.93,761,448.24,752"/><path class="cls-3" d="M462.65,760.85c-2.84,0-8.75-1-15.39-7.88a1.36,1.36,0,0,1,2-1.89c6,6.26,11.17,7.06,13.4,7.06h0c-.42-2.24-2.16-7.11-9.18-10.65a1.36,1.36,0,0,1,1.23-2.43c10.8,5.45,10.82,14,10.82,14.33a1.38,1.38,0,0,1-1.06,1.31A8.8,8.8,0,0,1,462.65,760.85Zm1.47-1.48h0Z"/><circle class="cls-4" cx="442.83" cy="743.81" r="10.21"/><path class="cls-3" d="M442.83,755.38a11.57,11.57,0,1,1,11.57-11.57A11.58,11.58,0,0,1,442.83,755.38Zm0-20.41a8.85,8.85,0,1,0,8.85,8.84A8.84,8.84,0,0,0,442.83,735Z"/><circle class="cls-3" cx="442.83" cy="743.81" r="4.17"/><path class="cls-4" d="M442.83,748.54a4.73,4.73,0,1,1,4.73-4.73A4.73,4.73,0,0,1,442.83,748.54Zm0-8.34a3.61,3.61,0,1,0,3.62,3.61A3.61,3.61,0,0,0,442.83,740.2Z"/><path class="cls-5" d="M478,653l-15.62,29-2.78,10,1.9,7.23,7.3-2.22,14.07-19.25,5.13,5.67L499.42,685l7.52,14.08L519.09,691S525.62,652.12,478,653Z"/><path class="cls-6" d="M673.5,482.74s-40,.49-71.89,35.21-21.73,36.43-63.54,77.26S478,653,478,653s44.17-4.33,41.09,38c0,0,51.66-16.66,97.79-64.56l35.28,111.27H897.5L857.84,635.5s39.86-28,12.63-75.5S810,480.33,776.88,476.29s-57.27.21-57.27.21Z"/><path class="cls-3" d="M519,693a1.52,1.52,0,0,1-1-.37,1.49,1.49,0,0,1-.48-1.4c0-.16,2.68-15.17-6.47-25.83-6.61-7.71-17.74-11.36-33-10.9a1.46,1.46,0,0,1-1.44-.94,1.5,1.5,0,0,1,.38-1.67c.8-.72,79.94-72.74,100.92-104.71,24.07-36.66,51.15-69.32,117.38-66.36a190.26,190.26,0,0,1,48.27-8.4c35.8-1.43,65,8.78,84.53,29.55,25.56,27.19,41.57,49.68,48.93,68.74,8.52,22,5.93,40-7.92,54.81-27.72,29.7-58.75,40.18-99.84,47.46a1.52,1.52,0,0,1-1.71-1.1,83.22,83.22,0,0,0-6.76-16.54c-4.26-7.91-11.66-18.22-22.66-22.44a1.5,1.5,0,0,1-.22-2.7c.61-.35,61.06-35.74,71.74-58.2a1.5,1.5,0,1,1,2.7,1.29c-4.67,9.83-18.39,22.84-40.78,38.68C759,620.9,747,628.25,742,631.29c18.3,8.91,26.35,32.53,28.12,38.49,39.82-7.16,70-17.54,96.83-46.3,24.57-26.32,11.92-63.16-41-119.45-23.88-25.4-57.85-29.58-82.15-28.62A185.75,185.75,0,0,0,696,483.75a1.52,1.52,0,0,1-.56.08c-70.21-3.24-96.1,36.2-115,65s-84,89.29-98.53,102.65c14.26.22,24.83,4.25,31.47,12,7.85,9.18,7.86,20.85,7.43,25.86,60.27-20.75,125.67-95.05,126.33-95.81a1.5,1.5,0,0,1,2.26,2c-.68.77-68.24,77.54-129.92,97.44A1.43,1.43,0,0,1,519,693Z"/><path class="cls-3" d="M652.16,739.17a1.5,1.5,0,0,1-1.43-1L615.45,626.86a1.5,1.5,0,1,1,2.85-.91l35.29,111.26a1.51,1.51,0,0,1-1,1.89A1.76,1.76,0,0,1,652.16,739.17Z"/><path class="cls-3" d="M897.5,739.17a1.51,1.51,0,0,1-1.4-1L856.44,634.92a1.5,1.5,0,0,1,2.8-1.07L898.9,737.13a1.5,1.5,0,0,1-.86,1.94A1.71,1.71,0,0,1,897.5,739.17Z"/><path class="cls-3" d="M463.31,700.72h0c-1.47,0-3.47-.65-4.67-3.66-4.17-10.43,15.84-41.39,18.14-44.88a1.49,1.49,0,1,1,2.5,1.64c-.05.09-5.52,8.44-10.43,17.89-8.41,16.21-8.27,22.14-7.43,24.23.71,1.77,1.58,1.78,1.9,1.78h0c4.86,0,15.53-14.25,21.55-28.79a1.5,1.5,0,1,1,2.78,1.14C482.31,682.94,470.9,700.72,463.31,700.72Z"/><path class="cls-3" d="M495.54,686.93a17,17,0,0,1-4.81-.66,15.42,15.42,0,0,1-9.46-8.34,1.5,1.5,0,1,1,2.67-1.36,12.52,12.52,0,0,0,7.64,6.82c7.12,2.11,15.33-2.6,15.42-2.65a1.5,1.5,0,1,1,1.5,2.59A28.75,28.75,0,0,1,495.54,686.93Z"/><path class="cls-3" d="M506,700.72a1.5,1.5,0,0,1-.77-2.79l13-7.72a1.5,1.5,0,0,1,1.54,2.58l-13,7.72A1.54,1.54,0,0,1,506,700.72Z"/><path class="cls-5" d="M739.3,631.13,701,646.62l-6.57,7.43,3.33,4.43,16.1-1.23-21.46,26-3.9,6.85,2.38,3.88,5.43-.38,4,6,5.09.31,3.24,4.58,5.88-1.14,3,3.21,13-4.75,26.31-19.63,12.62-10.83S759.6,639.13,739.3,631.13Z"/><path class="cls-3" d="M710.23,706.06a7.28,7.28,0,0,1-1-.08c-2.7-.42-4.68-2.35-5.86-5.74a1.5,1.5,0,0,1,2.84-1c1.18,3.4,2.91,3.67,3.48,3.75,3.05.47,8.09-2.65,14.15-8.79a107.58,107.58,0,0,0,8.75-10.12,1.5,1.5,0,1,1,2.4,1.8C733.37,688,719.67,706.06,710.23,706.06Z"/><path class="cls-3" d="M701.88,701.48a5.49,5.49,0,0,1-1.08-.1c-2.59-.47-4.35-2.57-5.26-6.24a1.5,1.5,0,0,1,2.92-.72c.59,2.42,1.56,3.77,2.88,4,5.46,1,17.42-13,23.68-22a1.5,1.5,0,0,1,2.46,1.7A136.37,136.37,0,0,1,718,690.16C711.15,697.76,705.88,701.48,701.88,701.48Z"/><path class="cls-3" d="M718.25,708.11a6.29,6.29,0,0,1-1.61-.19,5,5,0,0,1-3.57-3.46,1.51,1.51,0,0,1,1-1.89,1.49,1.49,0,0,1,1.89,1,2,2,0,0,0,1.46,1.47c2.36.62,9.24-.66,28.89-16.1,9.76-7.66,18.62-15.69,21.05-17.91-7.67-29.64-25.74-36.93-28.65-37.92-2.27.75-12.61,4.23-22.55,8.49-20.9,8.95-20.34,12.81-20.2,13.22a3.32,3.32,0,0,0,2,2.13c4.53,2,14.54-1.51,18-3a1.5,1.5,0,0,1,1.7,2.4c-.18.19-18,19-23.1,26.55-5,7.4-4.13,8.45-3.18,9.55a2,2,0,0,0,1.73.72c1.79-.08,6.15-1.77,15.25-12.17,5.34-6.1,9.69-12.23,9.74-12.3a1.5,1.5,0,0,1,2.45,1.74c-1.83,2.59-18.14,25.3-27.3,25.72a5,5,0,0,1-4.15-1.76c-2.55-3-1.85-6.06,3-13.18,3.7-5.46,13.44-16.21,19.12-22.35-4.53,1.37-10.6,2.59-14.47.86a6.33,6.33,0,0,1-3.59-3.95c-.92-2.84.35-7.68,21.89-16.9,11.32-4.85,23.12-8.7,23.24-8.74a1.54,1.54,0,0,1,.85,0c.92.24,22.79,6.37,31.41,41.09a1.5,1.5,0,0,1-.44,1.46C766,676.37,731.44,708.11,718.25,708.11Z"/><path class="cls-5" d="M648.25,421s.9,20.43,3.8,29.49,6,24,22,29.49v9s15.39,13.27,26.36,10.72,19.81-11.05,20.89-15l-6.36-32.05,5.28-25.62-12.34-13.66H683.67Z"/><path class="cls-3" d="M678.64,481.48a21.82,21.82,0,0,1-10.4-2.53c-9-4.78-15.35-16-18.87-33.46A136.86,136.86,0,0,1,646.75,421a1.5,1.5,0,0,1,3,0c0,.45.24,44.86,19.9,55.3,8.21,4.36,18.89,2.16,31.76-6.54a1.5,1.5,0,0,1,1.68,2.48C694,478.4,685.8,481.48,678.64,481.48Z"/><path class="cls-3" d="M697.62,501.38c-7.89,0-16.15-3.77-24.61-11.26a1.46,1.46,0,0,1-.51-1.12v-9.51a1.5,1.5,0,0,1,3,0v8.83c9.08,7.87,17.76,11.15,25.8,9.74,10.61-1.85,17-11.38,18.37-13.58L713.42,453a1.5,1.5,0,0,1,2.94-.59l6.36,32.06a1.54,1.54,0,0,1-.15,1c-.3.54-7.39,13.22-20.76,15.55A24.44,24.44,0,0,1,697.62,501.38Z"/><path class="cls-3" d="M672.17,468.54a5.66,5.66,0,0,1-.89-.06,1.5,1.5,0,0,1,.43-3c.31,0,7.18.79,11.39-10.06a1.5,1.5,0,1,1,2.8,1.08C681.65,467.5,674.66,468.54,672.17,468.54Z"/><path class="cls-3" d="M662.79,458.6a10.93,10.93,0,0,1-1.78-.12,1.5,1.5,0,0,1-1.26-1.48V433.25a1.5,1.5,0,0,1,3,0v22.34a10.15,10.15,0,0,0,7.63-3.09,1.5,1.5,0,1,1,2.24,2A13,13,0,0,1,662.79,458.6Z"/><path class="cls-3" d="M643,433.5a1.5,1.5,0,0,1-1-2.57c.27-.27,6.72-6.56,13-5.14a1.5,1.5,0,0,1-.66,2.92c-3.93-.88-8.76,2.85-10.29,4.36A1.48,1.48,0,0,1,643,433.5Z"/><path class="cls-3" d="M684.5,428.58a1.5,1.5,0,0,1-.81-.24c-6.21-4-11.05-.25-11.25-.09a1.5,1.5,0,0,1-1.89-2.34,12.73,12.73,0,0,1,14.76-.09,1.5,1.5,0,0,1-.81,2.76Z"/><path class="cls-3" d="M704.2,438.2c-.34,0-.69,0-1,0a1.5,1.5,0,1,1,.18-3c2.53.16,4.25-.35,5.14-1.52,1.63-2.14.36-6,.35-6.09a1.5,1.5,0,0,1,2.84-1c.08.22,1.81,5.45-.81,8.88C709.48,437.28,707.24,438.2,704.2,438.2Z"/><ellipse class="cls-3" cx="676.06" cy="435.63" rx="2.56" ry="3.74"/><ellipse class="cls-3" cx="652.16" cy="441.41" rx="2.51" ry="3.78" transform="translate(-46.75 78.52) rotate(-6.65)"/><path class="cls-6" d="M636,394.25s-23.75,9.87,0,23.25c22.21,12.51,57.5,0,57.5,0l4.12,8.54s10.38-9,16.63-2,2,18-11,19.25c0,0,5,10.25,13.13,11.25,0,0,22.29-47-17.5-68.62-8.65-4.7-23.79-7.77-36.63-12.38C647.62,368.25,631.12,381.75,636,394.25Z"/><path class="cls-2" d="M692,754s20.38,73.49,105.32,88.82l-85.7,74.83S643.83,904,608.5,823.38l11.85-23.13Z"/><path class="cls-3" d="M711.62,919.35l-.33,0c-.7-.14-17.5-3.64-38.88-17.15-19.69-12.44-47-36.1-65.45-78.12a1.65,1.65,0,0,1,0-1.44l11.85-23.13a1.84,1.84,0,0,1,.59-.65l71.65-46.23a1.68,1.68,0,0,1,2.53,1c0,.18,5.24,18.39,20.61,38.19,14.15,18.23,40.1,41.61,83.39,49.42a1.69,1.69,0,0,1,1.32,1.21,1.67,1.67,0,0,1-.51,1.72l-85.7,74.83A1.68,1.68,0,0,1,711.62,919.35ZM610.36,823.43c18,40.72,44.58,63.69,63.72,75.8,18.31,11.6,33.51,15.74,37.08,16.6l82.45-72c-42.36-8.6-68-31.87-82.13-50.13a131,131,0,0,1-20.43-37.08l-69.4,44.79Z"/><polygon class="cls-4" points="624.5 817.17 608.5 823.38 620.35 800.25 624.5 817.17"/><path class="cls-3" d="M608.5,825.06a1.69,1.69,0,0,1-1.25-.56,1.67,1.67,0,0,1-.25-1.89l11.85-23.13a1.71,1.71,0,0,1,1.7-.9,1.69,1.69,0,0,1,1.44,1.27l4.15,16.92a1.69,1.69,0,0,1-1,2l-16,6.21A1.83,1.83,0,0,1,608.5,825.06Zm11.29-20L612,820.2l10.49-4.07Z"/><line class="cls-4" x1="625.42" y1="836.66" x2="702.93" y2="794.22"/><path class="cls-3" d="M625.42,838.35a1.69,1.69,0,0,1-.81-3.16l77.51-42.44a1.68,1.68,0,1,1,1.62,3l-77.51,42.44A1.69,1.69,0,0,1,625.42,838.35Z"/><line class="cls-4" x1="642.26" y1="858.31" x2="718.08" y2="812.35"/><path class="cls-3" d="M642.26,860a1.68,1.68,0,0,1-.88-3.12l75.82-46a1.69,1.69,0,1,1,1.75,2.88l-75.82,46A1.73,1.73,0,0,1,642.26,860Z"/><line class="cls-4" x1="662.72" y1="876.86" x2="736.18" y2="828.74"/><path class="cls-3" d="M662.72,878.55a1.69,1.69,0,0,1-.92-3.1l73.46-48.12a1.68,1.68,0,0,1,1.84,2.82l-73.46,48.12A1.63,1.63,0,0,1,662.72,878.55Z"/><line class="cls-4" x1="686.07" y1="890.58" x2="755.39" y2="842.84"/><path class="cls-3" d="M686.07,892.27a1.68,1.68,0,0,1-1-3.07l69.32-47.75a1.69,1.69,0,0,1,1.91,2.78L687,892A1.67,1.67,0,0,1,686.07,892.27Z"/><line class="cls-4" x1="714.93" y1="892.92" x2="742.74" y2="874.05"/><path class="cls-3" d="M714.93,894.61a1.68,1.68,0,0,1-.95-3.08l27.82-18.87a1.68,1.68,0,0,1,1.89,2.79l-27.82,18.86A1.66,1.66,0,0,1,714.93,894.61Z"/><path class="cls-2" d="M729.58,759.49S765.5,817,842,824.5L761,887s-71.68,3-108.84-66L659,798Z"/><path class="cls-3" d="M759.53,888.52A124.81,124.81,0,0,1,720,881.29c-20.84-7.27-49.76-23.51-69.18-59.58a1.51,1.51,0,0,1-.12-1.14l6.84-23a1.48,1.48,0,0,1,.72-.89l70.58-38.5a1.5,1.5,0,0,1,2,.52c.09.14,9.12,14.41,27.3,29.4a155.58,155.58,0,0,0,84,34.91,1.5,1.5,0,0,1,.77,2.68l-81,62.5a1.5,1.5,0,0,1-.86.31C761,888.5,760.42,888.52,759.53,888.52ZM653.78,820.83c19,34.84,47,50.57,67.23,57.63a121.66,121.66,0,0,0,39.46,7l77.67-59.92a158.6,158.6,0,0,1-82-35.25c-15.68-13-24.5-25.09-27.06-28.87L660.26,799Z"/><polygon class="cls-4" points="665.67 815.53 652.16 821 659 798 665.67 815.53"/><path class="cls-3" d="M652.16,822.5a1.47,1.47,0,0,1-1-.39,1.51,1.51,0,0,1-.43-1.54l6.84-23a1.5,1.5,0,0,1,2.84-.1L667.07,815a1.5,1.5,0,0,1-.84,1.92l-13.51,5.47A1.55,1.55,0,0,1,652.16,822.5Zm7-19.82-4.68,15.76,9.26-3.75Z"/><line class="cls-4" x1="671.25" y1="828.5" x2="737" y2="785.25"/><path class="cls-3" d="M671.25,830a1.5,1.5,0,0,1-.82-2.75L736.18,784a1.49,1.49,0,0,1,1.64,2.5l-65.75,43.25A1.46,1.46,0,0,1,671.25,830Z"/><line class="cls-4" x1="687.75" y1="846.5" x2="751.75" y2="800.25"/><path class="cls-3" d="M687.75,848a1.53,1.53,0,0,1-1.22-.62,1.51,1.51,0,0,1,.34-2.1l64-46.25a1.5,1.5,0,0,1,1.76,2.44l-64,46.25A1.51,1.51,0,0,1,687.75,848Z"/><line class="cls-4" x1="707.25" y1="861.5" x2="769" y2="813.5"/><path class="cls-3" d="M707.25,863a1.48,1.48,0,0,1-1.18-.58,1.5,1.5,0,0,1,.26-2.1l61.75-48a1.5,1.5,0,1,1,1.84,2.36l-61.75,48A1.45,1.45,0,0,1,707.25,863Z"/><line class="cls-4" x1="728.96" y1="872" x2="787.06" y2="824.63"/><path class="cls-3" d="M729,873.5a1.51,1.51,0,0,1-1.16-.55,1.5,1.5,0,0,1,.22-2.11l58.09-47.37a1.5,1.5,0,1,1,1.9,2.32l-58.1,47.37A1.48,1.48,0,0,1,729,873.5Z"/><line class="cls-4" x1="754.75" y1="872" x2="778.08" y2="853.25"/><path class="cls-3" d="M754.75,873.5a1.5,1.5,0,0,1-.94-2.67l23.33-18.75a1.5,1.5,0,0,1,1.88,2.34l-23.33,18.75A1.52,1.52,0,0,1,754.75,873.5Z"/><path class="cls-4" d="M687.75,745.33s11.42-1.33,17,7.67"/><path class="cls-3" d="M704.75,754.68a1.69,1.69,0,0,1-1.43-.79c-5-8-15.27-6.9-15.37-6.88a1.69,1.69,0,0,1-.4-3.35c.51-.06,12.55-1.34,18.63,8.45a1.69,1.69,0,0,1-.54,2.32A1.72,1.72,0,0,1,704.75,754.68Z"/><path class="cls-4" d="M600,811.81s-6.67,10.86,0,21.52"/><path class="cls-3" d="M600,835a1.69,1.69,0,0,1-1.43-.79c-7.14-11.42-.3-22.82,0-23.3a1.69,1.69,0,0,1,2.88,1.76h0c-.25.41-6,10.13,0,19.75A1.69,1.69,0,0,1,600,835Z"/><path class="cls-4" d="M693.67,924.67s7.66,8.33,22.66,2.33"/><path class="cls-3" d="M705.92,930.87c-8.7,0-13.24-4.79-13.49-5.06a1.68,1.68,0,0,1,2.47-2.29c.29.31,7.17,7.37,20.81,1.92a1.68,1.68,0,1,1,1.25,3.12A29.61,29.61,0,0,1,705.92,930.87Z"/></g></svg>