<?xml version="1.0" encoding="UTF-8"?>
<svg width="26px" height="21px" viewBox="0 0 26 21" version="1.1" xmlns="http://www.w3.org/2000/svg" xmlns:xlink="http://www.w3.org/1999/xlink">
    <title>Group</title>
    <g id="Page-1" stroke="none" stroke-width="1" fill="none" fill-rule="evenodd">
        <g id="flyer-Gaia" transform="translate(-1593.000000, -185.000000)">
            <g id="_x31_" transform="translate(1294.000000, 45.000000)" fill-rule="nonzero">
                <g id="Capa_7" transform="translate(6.000000, 57.000000)">
                    <g id="Group" transform="translate(293.000000, 83.000000)">
                        <g transform="translate(13.000000, 8.000000)" fill="#8FC84E" id="Path" opacity="0.5">
                            <g>
                                <polygon points="4.2 9 5.9 9 5.9 12.7 4.2 12.7"></polygon>
                                <path d="M11,7.2 C11,7.2 11,7.2 11,7.2 C10.4,7.2 9.8,7 9.4,6.6 C9,7 8.4,7.2 7.8,7.2 C7.2,7.2 6.6,7 6.2,6.6 C5.8,7 5.2,7.2 4.6,7.2 C4,7.2 3.4,7 3,6.6 C2.6,7 2,7.2 1.4,7.2 C1.4,7.2 1.4,7.2 1.4,7.2 C1.2,7.2 1,7.2 0.9,7.1 L0.9,11.8 C0.9,12.3 1.3,12.7 1.8,12.7 L3.4,12.7 L3.4,9 L3.3,9 C3.1,9 2.9,8.8 2.9,8.6 C2.9,8.4 3.1,8.2 3.3,8.2 L9.2,8.2 C9.4,8.2 9.6,8.4 9.6,8.6 C9.6,8.8 9.4,9 9.2,9 L9.1,9 L9.1,12.7 L10.7,12.7 C11.2,12.7 11.6,12.3 11.6,11.8 L11.6,7.1 C11.4,7.2 11.2,7.2 11,7.2 Z"></path>
                                <polygon points="6.7 9 8.4 9 8.4 12.7 6.7 12.7"></polygon>
                                <path d="M3.6,3.3 L5.9,3.3 L5.9,0.2 C5.9,0.2 5.9,0.2 5.9,0.2 L4.3,0.2 C4.3,0.2 4.3,0.3 4.3,0.3 L3.6,3.3 Z"></path>
                                <path d="M9,3.3 L8.3,0.3 C8.3,0.3 8.3,0.2 8.3,0.2 L6.7,0.2 C6.7,0.2 6.7,0.2 6.7,0.2 L6.7,3.3 L9,3.3 Z"></path>
                                <path d="M1.6,6.5 C1.6,6.5 1.6,6.5 1.6,6.5 C2.1,6.5 2.5,6.3 2.8,5.9 L2.8,4 L0,4 L0,4.9 C0,5.8 0.7,6.5 1.6,6.5 L1.6,6.5 Z"></path>
                                <path d="M9,0.2 L9.7,3.3 L12.4,3.3 L11.1,0.5 C11,0.3 10.8,0.2 10.6,0.2 L9,0.2 L9,0.2 Z"></path>
                                <path d="M2.9,3.3 L3.6,0.2 L2,0.2 C1.8,0.2 1.6,0.3 1.5,0.5 L0.2,3.3 L2.9,3.3 L2.9,3.3 Z"></path>
                                <path d="M5.9,5.9 L5.9,4 L3.5,4 L3.5,5.9 C3.8,6.2 4.2,6.4 4.7,6.4 C5.2,6.5 5.6,6.3 5.9,5.9 L5.9,5.9 Z"></path>
                                <path d="M9,6 L9,4.1 L6.6,4.1 L6.6,6 C6.9,6.3 7.3,6.6 7.8,6.6 C8.3,6.5 8.8,6.3 9,6 L9,6 Z"></path>
                            </g>
                            <path d="M12.6,4.9 L12.6,4 L9.8,4 L9.8,5.9 C10.1,6.2 10.5,6.5 11,6.5 C11,6.5 11,6.5 11,6.5 C11.9,6.5 12.6,5.8 12.6,4.9 L12.6,4.9 Z"></path>
                        </g>
                        <g fill="#008B8C" id="Shape">
                            <path d="M17.3,2.1 C16.6,1.2 15.5,0.7 14.4,0.7 L5.2,0.7 C4,0.7 2.9,1.2 2.1,2.2 C0.6,4.1 -0.1,6.4 0.1,8.8 C0.4,13.6 4.3,17.4 9.1,17.7 C9.3,17.7 9.5,17.7 9.7,17.7 C12.2,17.7 14.5,16.8 16.3,15.1 C18.2,13.3 19.4,10.7 19.4,8 C19.4,6 18.6,3.8 17.3,2.1 Z M15.9,14.7 C14.1,16.4 11.7,17.3 9.1,17.1 C4.6,16.8 1,13.2 0.7,8.8 C0.5,6.6 1.2,4.4 2.6,2.6 C3.2,1.8 4.1,1.4 5.1,1.4 L14.3,1.4 C15.3,1.4 16.2,1.8 16.7,2.5 C18,4.1 18.7,6.1 18.7,8.1 C18.7,10.7 17.7,13 15.9,14.7 Z"></path>
                            <path d="M15.9,3.4 C15.3,2.7 14.5,2.3 13.6,2.3 L6,2.3 C5,2.3 4.2,2.7 3.6,3.5 C2.4,5 1.8,7 2,8.9 C2.3,12.8 5.4,15.9 9.3,16.2 C9.5,16.2 9.7,16.2 9.8,16.2 C11.8,16.2 13.7,15.5 15.2,14.1 C16.8,12.6 17.7,10.5 17.7,8.4 C17.6,6.5 17,4.8 15.9,3.4 Z M14.9,13.8 C13.4,15.2 11.4,16 9.3,15.8 C5.6,15.6 2.6,12.6 2.3,8.9 C2.2,7 2.7,5.2 3.9,3.7 C4.4,3 5.2,2.6 6.1,2.6 L13.7,2.6 C14.5,2.6 15.3,3 15.8,3.6 C16.9,4.9 17.5,6.6 17.5,8.3 C17.3,10.4 16.4,12.4 14.9,13.8 Z"></path>
                            <path d="M7.4,6.3 C8.2,6.3 8.9,5.6 8.9,4.8 C8.9,4 8.2,3.3 7.4,3.3 C6.6,3.3 5.9,4 5.9,4.8 C5.9,5.6 6.6,6.3 7.4,6.3 Z M7.4,3.6 C8.1,3.6 8.6,4.1 8.6,4.8 C8.6,5.5 8.1,6 7.4,6 C6.7,6 6.2,5.5 6.2,4.8 C6.2,4.1 6.8,3.6 7.4,3.6 Z"></path>
                            <path d="M12.4,6.3 C13.2,6.3 13.9,5.6 13.9,4.8 C13.9,4 13.2,3.3 12.4,3.3 C11.6,3.3 10.9,4 10.9,4.8 C10.8,5.6 11.5,6.3 12.4,6.3 Z M12.4,3.6 C13.1,3.6 13.6,4.1 13.6,4.8 C13.6,5.5 13.1,6 12.4,6 C11.7,6 11.2,5.5 11.2,4.8 C11.2,4.1 11.7,3.6 12.4,3.6 Z"></path>
                            <path d="M7.1,8.5 C7.1,7.4 6.2,6.4 5,6.4 C3.9,6.4 2.9,7.3 2.9,8.5 C2.9,9.6 3.8,10.6 5,10.6 C6.2,10.5 7.1,9.6 7.1,8.5 Z M5,10.2 C4,10.2 3.3,9.4 3.3,8.5 C3.3,7.6 4.1,6.8 5,6.8 C6,6.8 6.7,7.6 6.7,8.5 C6.7,9.4 6,10.2 5,10.2 Z"></path>
                            <path d="M7.4,10.6 C6.3,10.6 5.3,11.5 5.3,12.7 C5.3,13.8 6.2,14.8 7.4,14.8 C8.5,14.8 9.5,13.9 9.5,12.7 C9.5,11.6 8.6,10.6 7.4,10.6 Z M7.4,14.4 C6.4,14.4 5.7,13.6 5.7,12.7 C5.7,11.8 6.5,11 7.4,11 C8.3,11 9.1,11.8 9.1,12.7 C9.1,13.6 8.4,14.4 7.4,14.4 Z"></path>
                            <path d="M12.4,10.6 C11.3,10.6 10.3,11.5 10.3,12.7 C10.3,13.8 11.2,14.8 12.4,14.8 C13.5,14.8 14.5,13.9 14.5,12.7 C14.4,11.6 13.5,10.6 12.4,10.6 Z M12.4,14.4 C11.4,14.4 10.7,13.6 10.7,12.7 C10.7,11.8 11.5,11 12.4,11 C13.3,11 14.1,11.8 14.1,12.7 C14.1,13.6 13.3,14.4 12.4,14.4 Z"></path>
                            <path d="M11.8,8.5 C11.8,7.4 10.9,6.4 9.7,6.4 C8.6,6.4 7.6,7.3 7.6,8.5 C7.6,9.6 8.5,10.6 9.7,10.6 C10.9,10.5 11.8,9.6 11.8,8.5 Z M9.8,10.2 C8.8,10.2 8.1,9.4 8.1,8.5 C8.1,7.6 8.9,6.8 9.8,6.8 C10.8,6.8 11.5,7.6 11.5,8.5 C11.5,9.4 10.7,10.2 9.8,10.2 Z"></path>
                            <path d="M14.5,6.4 C13.4,6.4 12.4,7.3 12.4,8.5 C12.4,9.6 13.3,10.6 14.5,10.6 C15.6,10.6 16.6,9.7 16.6,8.5 C16.5,7.3 15.6,6.4 14.5,6.4 Z M14.5,10.2 C13.5,10.2 12.8,9.4 12.8,8.5 C12.8,7.6 13.6,6.8 14.5,6.8 C15.4,6.8 16.2,7.6 16.2,8.5 C16.2,9.4 15.4,10.2 14.5,10.2 Z"></path>
                        </g>
                    </g>
                </g>
            </g>
        </g>
    </g>
</svg>