<?xml version="1.0" encoding="UTF-8"?>
<svg width="27px" height="20px" viewBox="0 0 27 20" version="1.1" xmlns="http://www.w3.org/2000/svg" xmlns:xlink="http://www.w3.org/1999/xlink">
    <title>Group</title>
    <g id="Page-1" stroke="none" stroke-width="1" fill="none" fill-rule="evenodd">
        <g id="flyer-Gaia" transform="translate(-1592.000000, -154.000000)">
            <g id="_x31_" transform="translate(1294.000000, 45.000000)" fill-rule="nonzero">
                <g id="Capa_7" transform="translate(6.000000, 57.000000)">
                    <g id="Group" transform="translate(292.000000, 52.000000)">
                        <path d="M20.1,6.7 L14.5,11.7 C14.4,11.8 14.3,12 14.3,12.1 L14.3,19 C14.3,19.3 14.6,19.6 14.9,19.6 L18.2,19.6 C18.5,19.6 18.8,19.3 18.8,19 L18.8,15.8 C18.8,15.5 19.1,15.2 19.4,15.2 L21.7,15.2 C22,15.2 22.3,15.5 22.3,15.8 L22.3,19 C22.3,19.3 22.6,19.6 22.9,19.6 L25.9,19.6 C26.2,19.6 26.5,19.3 26.5,19 L26.5,12.1 C26.5,11.9 26.4,11.8 26.3,11.7 L20.7,6.7 C20.7,6.4 20.3,6.4 20.1,6.7 Z" id="Path" fill="#8FC84E" opacity="0.5"></path>
                        <g fill="#008B8C" id="Shape">
                            <path d="M18.1,2.2 C17.4,1.3 16.3,0.8 15.2,0.8 L6,0.8 C4.8,0.8 3.7,1.3 2.9,2.3 C1.4,4.2 0.7,6.5 0.9,8.9 C1.2,13.7 5.1,17.5 9.9,17.8 C10.1,17.8 10.3,17.8 10.5,17.8 C13,17.8 15.3,16.9 17.1,15.2 C19,13.4 20.2,10.8 20.2,8.1 C20.3,6 19.5,3.9 18.1,2.2 Z M16.7,14.8 C14.9,16.5 12.5,17.4 9.9,17.2 C5.4,16.9 1.8,13.3 1.5,8.9 C1.3,6.7 2,4.5 3.4,2.7 C4,1.9 4.9,1.5 5.9,1.5 L15.1,1.5 C16.1,1.5 17,1.9 17.5,2.6 C18.8,4.2 19.5,6.2 19.5,8.2 C19.6,10.7 18.6,13.1 16.7,14.8 Z"></path>
                            <path d="M16.7,3.5 C16.1,2.8 15.3,2.4 14.4,2.4 L6.8,2.4 C5.8,2.4 5,2.8 4.4,3.6 C3.2,5.1 2.6,7.1 2.8,9 C3.1,12.9 6.2,16 10.1,16.3 C10.3,16.3 10.5,16.3 10.6,16.3 C12.6,16.3 14.5,15.6 16,14.2 C17.6,12.7 18.5,10.6 18.5,8.5 C18.4,6.6 17.9,4.9 16.7,3.5 Z M15.7,13.9 C14.2,15.3 12.2,16.1 10.1,15.9 C6.4,15.7 3.4,12.7 3.1,9 C3,7.1 3.5,5.3 4.7,3.8 C5.2,3.1 6,2.7 6.9,2.7 L14.5,2.7 C15.3,2.7 16.1,3.1 16.6,3.7 C17.7,5 18.3,6.7 18.3,8.4 C18.1,10.5 17.2,12.5 15.7,13.9 Z"></path>
                            <path d="M8.3,6.4 C9.1,6.4 9.8,5.7 9.8,4.9 C9.8,4.1 9.1,3.4 8.3,3.4 C7.5,3.4 6.8,4.1 6.8,4.9 C6.8,5.7 7.5,6.4 8.3,6.4 Z M8.3,3.7 C9,3.7 9.5,4.2 9.5,4.9 C9.5,5.6 9,6.1 8.3,6.1 C7.6,6.1 7.1,5.6 7.1,4.9 C7.1,4.2 7.6,3.7 8.3,3.7 Z"></path>
                            <path d="M13.2,6.4 C14,6.4 14.7,5.7 14.7,4.9 C14.7,4.1 14,3.4 13.2,3.4 C12.4,3.4 11.7,4.1 11.7,4.9 C11.7,5.7 12.4,6.4 13.2,6.4 Z M13.2,3.7 C13.9,3.7 14.4,4.2 14.4,4.9 C14.4,5.6 13.9,6.1 13.2,6.1 C12.5,6.1 12,5.6 12,4.9 C12,4.2 12.6,3.7 13.2,3.7 Z"></path>
                            <path d="M7.9,8.6 C7.9,7.5 7,6.5 5.8,6.5 C4.7,6.5 3.7,7.4 3.7,8.6 C3.7,9.7 4.6,10.7 5.8,10.7 C7,10.6 7.9,9.7 7.9,8.6 Z M5.9,10.3 C4.9,10.3 4.2,9.5 4.2,8.6 C4.2,7.7 5,6.9 5.9,6.9 C6.9,6.9 7.6,7.7 7.6,8.6 C7.6,9.5 6.8,10.3 5.9,10.3 Z"></path>
                            <path d="M8.3,10.7 C7.2,10.7 6.2,11.6 6.2,12.8 C6.2,13.9 7.1,14.9 8.3,14.9 C9.4,14.9 10.4,14 10.4,12.8 C10.4,11.6 9.4,10.7 8.3,10.7 Z M8.3,14.5 C7.3,14.5 6.6,13.7 6.6,12.8 C6.6,11.9 7.4,11.1 8.3,11.1 C9.3,11.1 10,11.9 10,12.8 C10,13.7 9.3,14.5 8.3,14.5 Z"></path>
                            <path d="M13.2,10.7 C12.1,10.7 11.1,11.6 11.1,12.8 C11.1,13.9 12,14.9 13.2,14.9 C14.3,14.9 15.3,14 15.3,12.8 C15.3,11.6 14.4,10.7 13.2,10.7 Z M13.2,14.5 C12.2,14.5 11.5,13.7 11.5,12.8 C11.5,11.9 12.3,11.1 13.2,11.1 C14.1,11.1 14.9,11.9 14.9,12.8 C14.9,13.7 14.2,14.5 13.2,14.5 Z"></path>
                            <path d="M12.7,8.6 C12.7,7.5 11.8,6.5 10.6,6.5 C9.5,6.5 8.5,7.4 8.5,8.6 C8.5,9.7 9.4,10.7 10.6,10.7 C11.7,10.6 12.7,9.7 12.7,8.6 Z M10.6,10.3 C9.6,10.3 8.9,9.5 8.9,8.6 C8.9,7.7 9.7,6.9 10.6,6.9 C11.6,6.9 12.3,7.7 12.3,8.6 C12.3,9.5 11.6,10.3 10.6,10.3 Z"></path>
                            <path d="M15.3,6.5 C14.2,6.5 13.2,7.4 13.2,8.6 C13.2,9.7 14.1,10.7 15.3,10.7 C16.4,10.7 17.4,9.8 17.4,8.6 C17.4,7.4 16.5,6.5 15.3,6.5 Z M15.3,10.3 C14.3,10.3 13.6,9.5 13.6,8.6 C13.6,7.7 14.4,6.9 15.3,6.9 C16.3,6.9 17,7.7 17,8.6 C17,9.5 16.3,10.3 15.3,10.3 Z"></path>
                        </g>
                    </g>
                </g>
            </g>
        </g>
    </g>
</svg>