<?xml version="1.0" encoding="UTF-8"?>
<svg width="25px" height="22px" viewBox="0 0 25 22" version="1.1" xmlns="http://www.w3.org/2000/svg" xmlns:xlink="http://www.w3.org/1999/xlink">
    <g id="Page-1" stroke="none" stroke-width="1" fill="none" fill-rule="evenodd">
        <g id="flyer-Gaia" transform="translate(-1593.000000, -215.000000)">
            <g id="_x33_" transform="translate(1571.000000, 45.000000)">
                <g id="Group" transform="translate(22.000000, 170.000000)" fill-rule="nonzero">
                    <g transform="translate(12.000000, 8.000000)" fill="#8FC84E" opacity="0.5">
                        <path d="M12.4,2.5 L0.4,2.5 C0.2,2.5 0,2.7 0,2.9 L0,4.4 C0,4.6 0.2,4.8 0.4,4.8 C0.6,4.8 0.8,5 0.8,5.2 L0.8,6.7 C0.8,6.9 1,7.1 1.2,7.1 L2.3,7.1 C2.5,7.1 2.7,6.9 2.7,6.7 L2.7,5.2 C2.7,4.8 3,4.5 3.4,4.5 L9.4,4.5 C9.8,4.5 10.1,4.8 10.1,5.2 L10.1,6.7 C10.1,6.9 10.3,7.1 10.5,7.1 L11.6,7.1 C11.8,7.1 12,6.9 12,6.7 L12,5.2 C12,5 12.2,4.8 12.4,4.8 C12.6,4.8 12.8,4.6 12.8,4.4 L12.8,2.9 C12.8,2.7 12.7,2.5 12.4,2.5 Z" id="Path"></path>
                        <path d="M8.4,1.8 L8.3,1.4 C8.3,1.2 8.1,1.1 7.9,1.1 L4.9,1.1 C4.7,1.1 4.6,1.2 4.5,1.4 L4.4,1.8 L8.4,1.8 Z" id="Path"></path>
                        <path d="M9.5,7.6 C9.5,7.6 9.5,7.5 9.5,7.4 L9.5,7.4 L9.1,5.2 L6.9,5.2 L6.9,5.9 C6.9,6.1 6.7,6.3 6.5,6.3 C6.3,6.3 6.1,6.1 6.1,5.9 L6.1,5.2 L3.9,5.2 L3.5,7.4 L3.5,7.4 C3.5,7.5 3.5,7.5 3.5,7.6 L2.4,13.4 C2.4,13.5 2.4,13.6 2.5,13.7 C2.6,13.8 2.7,13.8 2.8,13.8 L10.3,13.8 C10.4,13.8 10.5,13.8 10.6,13.7 C10.7,13.6 10.7,13.5 10.7,13.4 L9.5,7.6 Z M6.8,12.7 C6.8,12.9 6.6,13.1 6.4,13.1 C6.2,13.1 6,12.9 6,12.7 L6,12 C6,11.8 6.2,11.6 6.4,11.6 C6.6,11.6 6.8,11.8 6.8,12 L6.8,12.7 Z M6.8,10.4 C6.8,10.6 6.6,10.8 6.4,10.8 C6.2,10.8 6,10.6 6,10.4 L6,9.7 C6,9.5 6.2,9.3 6.4,9.3 C6.6,9.3 6.8,9.5 6.8,9.7 L6.8,10.4 Z M6.8,8.2 C6.8,8.4 6.6,8.6 6.4,8.6 C6.2,8.6 6,8.4 6,8.2 L6,7.5 C6,7.3 6.2,7.1 6.4,7.1 C6.6,7.1 6.8,7.3 6.8,7.5 L6.8,8.2 Z" id="Shape"></path>
                    </g>
                    <g fill="#008B8C" id="Shape">
                        <path d="M9.2,14.3 C10.9,14.3 12.6,13.7 13.9,12.5 C15.3,11.2 16.1,9.4 16.1,7.5 C16.1,5.9 15.6,4.5 14.6,3.2 C14.1,2.6 13.4,2.3 12.6,2.3 L6,2.3 C5.2,2.3 4.4,2.7 3.9,3.3 C2.9,4.6 2.4,6.3 2.5,8 C2.7,11.4 5.5,14.1 8.8,14.3 C8.9,14.3 9,14.3 9.2,14.3 Z M2.7,8 C2.6,6.4 3.1,4.8 4,3.5 C4.5,2.9 5.1,2.6 5.9,2.6 L12.5,2.6 C13.2,2.6 13.9,2.9 14.3,3.4 C15.2,4.6 15.7,6 15.7,7.5 C15.7,9.3 15,11 13.6,12.3 C12.3,13.5 10.5,14.2 8.7,14 C5.5,13.8 2.9,11.2 2.7,8 Z"></path>
                        <path d="M7.2,5.7 C7.9,5.7 8.5,5.1 8.5,4.4 C8.5,3.7 7.9,3.1 7.2,3.1 C6.5,3.1 5.9,3.7 5.9,4.4 C5.9,5.1 6.5,5.7 7.2,5.7 Z M7.2,3.4 C7.8,3.4 8.2,3.9 8.2,4.4 C8.2,5 7.7,5.4 7.2,5.4 C6.6,5.4 6.2,4.9 6.2,4.4 C6.2,3.8 6.6,3.4 7.2,3.4 Z"></path>
                        <path d="M11.4,5.7 C12.1,5.7 12.7,5.1 12.7,4.4 C12.7,3.7 12.1,3.1 11.4,3.1 C10.7,3.1 10.1,3.7 10.1,4.4 C10.1,5.1 10.7,5.7 11.4,5.7 Z M11.4,3.4 C12,3.4 12.4,3.9 12.4,4.4 C12.4,5 11.9,5.4 11.4,5.4 C10.8,5.4 10.4,4.9 10.4,4.4 C10.4,3.8 10.9,3.4 11.4,3.4 Z"></path>
                        <path d="M6.9,7.6 C6.9,6.6 6.1,5.8 5.1,5.8 C4.1,5.8 3.3,6.6 3.3,7.6 C3.3,8.6 4.1,9.4 5.1,9.4 C6.1,9.4 6.9,8.6 6.9,7.6 Z M5.1,9.1 C4.3,9.1 3.6,8.4 3.6,7.6 C3.6,6.8 4.3,6.1 5.1,6.1 C5.9,6.1 6.6,6.8 6.6,7.6 C6.6,8.4 5.9,9.1 5.1,9.1 Z"></path>
                        <path d="M7.2,9.5 C6.2,9.5 5.4,10.3 5.4,11.3 C5.4,12.3 6.2,13.1 7.2,13.1 C8.2,13.1 9,12.3 9,11.3 C9,10.3 8.2,9.5 7.2,9.5 Z M7.2,12.8 C6.4,12.8 5.7,12.1 5.7,11.3 C5.7,10.5 6.4,9.8 7.2,9.8 C8,9.8 8.7,10.5 8.7,11.3 C8.7,12.1 8,12.8 7.2,12.8 Z"></path>
                        <path d="M11.4,9.5 C10.4,9.5 9.6,10.3 9.6,11.3 C9.6,12.3 10.4,13.1 11.4,13.1 C12.4,13.1 13.2,12.3 13.2,11.3 C13.2,10.3 12.4,9.5 11.4,9.5 Z M11.4,12.8 C10.6,12.8 9.9,12.1 9.9,11.3 C9.9,10.5 10.6,9.8 11.4,9.8 C12.2,9.8 12.9,10.5 12.9,11.3 C12.9,12.1 12.3,12.8 11.4,12.8 Z"></path>
                        <path d="M7.4,7.6 C7.4,8.6 8.2,9.4 9.2,9.4 C10.2,9.4 11,8.6 11,7.6 C11,6.6 10.2,5.8 9.2,5.8 C8.2,5.8 7.4,6.6 7.4,7.6 Z M9.2,6.1 C10,6.1 10.7,6.8 10.7,7.6 C10.7,8.4 10,9.1 9.2,9.1 C8.4,9.1 7.7,8.4 7.7,7.6 C7.7,6.8 8.4,6.1 9.2,6.1 Z"></path>
                        <path d="M7.2,16.6 C6.2,16.6 5.4,17.4 5.4,18.4 C5.4,19.4 6.2,20.2 7.2,20.2 C8.2,20.2 9,19.4 9,18.4 C9,17.4 8.2,16.6 7.2,16.6 Z M7.2,19.9 C6.4,19.9 5.7,19.2 5.7,18.4 C5.7,17.6 6.4,16.9 7.2,16.9 C8,16.9 8.7,17.6 8.7,18.4 C8.7,19.2 8,19.9 7.2,19.9 Z"></path>
                        <path d="M11.4,16.6 C10.4,16.6 9.6,17.4 9.6,18.4 C9.6,19.4 10.4,20.2 11.4,20.2 C12.4,20.2 13.2,19.4 13.2,18.4 C13.2,17.4 12.4,16.6 11.4,16.6 Z M11.4,19.9 C10.6,19.9 9.9,19.2 9.9,18.4 C9.9,17.6 10.6,16.9 11.4,16.9 C12.2,16.9 12.9,17.6 12.9,18.4 C12.9,19.2 12.3,19.9 11.4,19.9 Z"></path>
                        <path d="M11.5,7.6 C11.5,8.6 12.3,9.4 13.3,9.4 C14.3,9.4 15.1,8.6 15.1,7.6 C15.1,6.6 14.3,5.8 13.3,5.8 C12.3,5.8 11.5,6.6 11.5,7.6 Z M13.3,6.1 C14.1,6.1 14.8,6.8 14.8,7.6 C14.8,8.4 14.1,9.1 13.3,9.1 C12.5,9.1 11.8,8.4 11.8,7.6 C11.8,6.8 12.5,6.1 13.3,6.1 Z"></path>
                        <path d="M14,15.7 L11.5,15.7 C11.5,15.6 11.5,15.5 11.4,15.4 C12.7,15 13.9,14.4 14.9,13.4 C16.6,11.8 17.5,9.6 17.5,7.3 C17.5,5.4 16.8,3.5 15.7,2.1 C15.1,1.3 14.2,0.9 13.1,0.9 L5.1,0.9 C4.1,0.9 3.1,1.4 2.5,2.2 C1.2,3.8 0.6,5.9 0.8,8 C1.1,11.6 3.7,14.6 7.1,15.5 C7.1,15.6 7,15.6 7,15.7 L4.3,15.7 C2.8,15.7 1.6,16.9 1.6,18.4 C1.6,19.9 2.8,21.1 4.3,21.1 L13.9,21.1 C15.4,21.1 16.6,19.9 16.6,18.4 C16.7,16.9 15.4,15.7 14,15.7 Z M1.4,7.9 C1.3,6 1.8,4.1 3,2.5 C3.5,1.8 4.3,1.4 5.2,1.4 L13.2,1.4 C14,1.4 14.8,1.8 15.3,2.4 C16.4,3.8 17,5.5 17,7.3 C17,9.5 16.1,11.5 14.5,13 C12.9,14.5 10.8,15.2 8.6,15.1 C4.8,14.9 1.7,11.8 1.4,7.9 Z M14,20.5 L4.4,20.5 C3.2,20.5 2.3,19.6 2.3,18.4 C2.3,17.2 3.2,16.3 4.4,16.3 L14,16.3 C15.2,16.3 16.1,17.2 16.1,18.4 C16.1,19.5 15.1,20.5 14,20.5 Z"></path>
                    </g>
                </g>
            </g>
        </g>
    </g>
</svg>