<?xml version="1.0" encoding="UTF-8"?>
<svg width="25px" height="20px" viewBox="0 0 25 20" version="1.1" xmlns="http://www.w3.org/2000/svg" xmlns:xlink="http://www.w3.org/1999/xlink">
    <g id="Page-1" stroke="none" stroke-width="1" fill="none" fill-rule="evenodd">
        <g id="flyer-Gaia" transform="translate(-1593.000000, -123.000000)">
            <g id="_x31_" transform="translate(1294.000000, 45.000000)" fill-rule="nonzero">
                <g id="Capa_7" transform="translate(6.000000, 57.000000)">
                    <g id="Group" transform="translate(293.000000, 21.000000)">
                        <path d="M18.6,6.6 L13,11.6 C12.9,11.7 12.8,11.9 12.8,12 L12.8,18.9 C12.8,19.2 13.1,19.5 13.4,19.5 L16.7,19.5 C17,19.5 17.3,19.2 17.3,18.9 L17.3,15.7 C17.3,15.4 17.6,15.1 17.9,15.1 L20.2,15.1 C20.5,15.1 20.8,15.4 20.8,15.7 L20.8,18.9 C20.8,19.2 21.1,19.5 21.4,19.5 L24.4,19.5 C24.7,19.5 25,19.2 25,18.9 L25,12 C25,11.8 24.9,11.7 24.8,11.6 L19.2,6.6 C19.2,6.3 18.8,6.3 18.6,6.6 Z" id="Path" fill="#8FC84E" opacity="0.5"></path>
                        <g fill="#008B8C">
                            <path d="M17.8,6.1 L17.7,5.9 L16.3,5.9 L16.3,3.9 L16.2,3.8 C14.6,1.4 11.9,0 9.1,0 C6.4,0 4,1.2 2.3,3.5 L2.2,3.6 L2.2,5.9 L0.8,5.9 L0.7,6.1 C0.2,7.5 0.2,9.1 0.7,10.5 L0.8,10.7 L2.2,10.7 L2.2,13.4 L2.3,13.5 C3.2,14.6 5.6,17.3 9.1,17.3 C12,17.3 14.6,15.9 16.2,13.5 L16.3,13.4 L16.3,10.7 L17.7,10.7 L17.8,10.5 C18.3,9.1 18.3,7.5 17.8,6.1 Z M8.7,0.7 C8.8,0.7 9,0.7 9.1,0.7 C9.4,0.7 9.8,0.7 10.1,0.8 L10.1,1.9 C10.1,2.1 9.9,2.3 9.7,2.3 L9,2.3 C8.8,2.3 8.6,2.1 8.6,1.9 L8.6,0.7 L8.7,0.7 Z M1.3,10.1 C1,9 1,7.7 1.3,6.6 L2.2,6.6 L2.2,10.1 L1.3,10.1 Z M10.1,16.5 C10.1,16.5 10.1,16.5 10.1,16.5 L8.7,16.5 L8.7,15.2 C8.7,15 8.9,14.8 9.1,14.8 L9.8,14.8 C10,14.8 10.2,15 10.2,15.2 L10.2,16.5 L10.1,16.5 Z M15.7,13.2 C14.5,15 12.6,16.1 10.5,16.5 L10.5,15.2 C10.5,14.8 10.2,14.5 9.8,14.5 L9.1,14.5 C8.7,14.5 8.4,14.8 8.4,15.2 L8.4,16.5 C6.5,16.3 4.4,15 2.9,13.1 L2.9,10.7 L2.9,5.8 L2.9,3.7 C4.3,1.9 6.2,0.8 8.4,0.6 L8.4,1.8 C8.4,2.2 8.7,2.5 9.1,2.5 L9.8,2.5 C10.2,2.5 10.5,2.2 10.5,1.8 L10.5,0.7 C12.6,1 14.5,2.2 15.7,4 L15.7,5.8 L15.7,10.7 L15.7,13.2 Z M17.2,10.1 L16.3,10.1 L16.3,6.6 L17.2,6.6 C17.6,7.7 17.6,9 17.2,10.1 Z" id="Shape"></path>
                            <path d="M5.7,7.5 C5.1,7.5 4.5,8 4.5,8.7 C4.5,9.3 5,9.9 5.7,9.9 C6.3,9.9 6.9,9.4 6.9,8.7 C6.9,8 6.4,7.5 5.7,7.5 Z" id="Path"></path>
                            <path d="M13.4,7.5 C12.8,7.5 12.2,8 12.2,8.7 C12.2,9.3 12.7,9.9 13.4,9.9 C14,9.9 14.6,9.4 14.6,8.7 C14.6,8 14,7.5 13.4,7.5 Z" id="Path"></path>
                        </g>
                    </g>
                </g>
            </g>
        </g>
    </g>
</svg>