<?xml version="1.0" encoding="UTF-8"?>
<svg width="33px" height="21px" viewBox="0 0 33 21" version="1.1" xmlns="http://www.w3.org/2000/svg" xmlns:xlink="http://www.w3.org/1999/xlink">
    <g id="Page-1" stroke="none" stroke-width="1" fill="none" fill-rule="evenodd">
        <g id="flyer-Gaia" transform="translate(-1593.000000, -248.000000)">
            <g id="_x33_" transform="translate(1571.000000, 45.000000)">
                <g id="Group" transform="translate(22.000000, 203.000000)" fill-rule="nonzero">
                    <g>
                        <g transform="translate(12.000000, 8.000000)" fill="#8FC84E" opacity="0.5">
                            <path d="M12.4,1.7 L0.4,1.7 C0.2,1.7 0,1.9 0,2.1 L0,3.6 C0,3.8 0.2,4 0.4,4 C0.6,4 0.8,4.2 0.8,4.4 L0.8,5.9 C0.8,6.1 1,6.3 1.2,6.3 L2.3,6.3 C2.5,6.3 2.7,6.1 2.7,5.9 L2.7,4.4 C2.7,4 3,3.7 3.4,3.7 L9.4,3.7 C9.8,3.7 10.1,4 10.1,4.4 L10.1,5.9 C10.1,6.1 10.3,6.3 10.5,6.3 L11.6,6.3 C11.8,6.3 12,6.1 12,5.9 L12,4.4 C12,4.2 12.2,4 12.4,4 C12.6,4 12.8,3.8 12.8,3.6 L12.8,2.1 C12.8,1.9 12.6,1.7 12.4,1.7 Z" id="Path"></path>
                            <path d="M8.3,1 L8.2,0.6 C8.2,0.4 8,0.3 7.8,0.3 L4.8,0.3 C4.6,0.3 4.5,0.4 4.4,0.6 L4.3,1 L8.3,1 Z" id="Path"></path>
                            <path d="M9.4,6.8 C9.4,6.8 9.4,6.7 9.4,6.6 L9.4,6.6 L9,4.4 L6.8,4.4 L6.8,5.1 C6.8,5.3 6.6,5.5 6.4,5.5 C6.2,5.5 6,5.3 6,5.1 L6,4.4 L3.8,4.4 L3.4,6.6 L3.4,6.6 C3.4,6.7 3.4,6.7 3.4,6.8 L2.3,12.6 C2.3,12.7 2.3,12.8 2.4,12.9 C2.5,13 2.6,13 2.7,13 L10.2,13 C10.3,13 10.4,13 10.5,12.9 C10.6,12.8 10.6,12.7 10.6,12.6 L9.4,6.8 Z M6.8,11.9 C6.8,12.1 6.6,12.3 6.4,12.3 C6.2,12.3 6,12.1 6,11.9 L6,11.2 C6,11 6.2,10.8 6.4,10.8 C6.6,10.8 6.8,11 6.8,11.2 L6.8,11.9 Z M6.8,9.6 C6.8,9.8 6.6,10 6.4,10 C6.2,10 6,9.8 6,9.6 L6,8.9 C6,8.7 6.2,8.5 6.4,8.5 C6.6,8.5 6.8,8.7 6.8,8.9 L6.8,9.6 Z M6.8,7.4 C6.8,7.6 6.6,7.8 6.4,7.8 C6.2,7.8 6,7.6 6,7.4 L6,6.7 C6,6.5 6.2,6.3 6.4,6.3 C6.6,6.3 6.8,6.5 6.8,6.7 L6.8,7.4 Z" id="Shape"></path>
                        </g>
                        <g fill="#008B8C" id="Shape">
                            <path d="M9.1,13.5 C10.8,13.5 12.5,12.9 13.8,11.7 C15.2,10.4 16,8.6 16,6.7 C16,5.1 15.5,3.7 14.5,2.4 C14,1.8 13.3,1.5 12.5,1.5 L5.9,1.5 C5.1,1.5 4.3,1.9 3.8,2.5 C2.8,3.8 2.3,5.5 2.4,7.2 C2.6,10.6 5.4,13.3 8.7,13.5 C8.8,13.5 9,13.5 9.1,13.5 Z M2.6,7.2 C2.5,5.6 3,4 3.9,2.7 C4.4,2.1 5,1.8 5.8,1.8 L12.4,1.8 C13.1,1.8 13.8,2.1 14.2,2.6 C15.1,3.8 15.6,5.2 15.6,6.7 C15.6,8.5 14.9,10.2 13.5,11.5 C12.2,12.7 10.4,13.4 8.6,13.2 C5.5,13 2.9,10.4 2.6,7.2 Z"></path>
                            <path d="M7.1,5 C7.8,5 8.4,4.4 8.4,3.7 C8.4,3 7.8,2.4 7.1,2.4 C6.4,2.4 5.8,3 5.8,3.7 C5.8,4.4 6.4,5 7.1,5 Z M7.1,2.6 C7.7,2.6 8.1,3.1 8.1,3.6 C8.1,4.2 7.6,4.6 7.1,4.6 C6.6,4.6 6.1,4.1 6.1,3.6 C6.1,3 6.6,2.6 7.1,2.6 Z"></path>
                            <path d="M11.4,5 C12.1,5 12.7,4.4 12.7,3.7 C12.7,3 12.1,2.4 11.4,2.4 C10.7,2.4 10.1,3 10.1,3.7 C10.1,4.4 10.7,5 11.4,5 Z M11.4,2.6 C12,2.6 12.4,3.1 12.4,3.6 C12.4,4.2 11.9,4.6 11.4,4.6 C10.9,4.6 10.4,4.1 10.4,3.6 C10.4,3 10.8,2.6 11.4,2.6 Z"></path>
                            <path d="M6.8,6.8 C6.8,5.8 6,5 5,5 C4,5 3.2,5.8 3.2,6.8 C3.2,7.8 4,8.6 5,8.6 C6,8.6 6.8,7.8 6.8,6.8 Z M5.1,8.3 C4.3,8.3 3.6,7.6 3.6,6.8 C3.6,6 4.3,5.3 5.1,5.3 C5.9,5.3 6.6,6 6.6,6.8 C6.5,7.6 5.9,8.3 5.1,8.3 Z"></path>
                            <path d="M7.1,8.7 C6.1,8.7 5.3,9.5 5.3,10.5 C5.3,11.5 6.1,12.3 7.1,12.3 C8.1,12.3 8.9,11.5 8.9,10.5 C8.9,9.5 8.1,8.7 7.1,8.7 Z M7.1,12 C6.3,12 5.6,11.3 5.6,10.5 C5.6,9.7 6.3,9 7.1,9 C7.9,9 8.6,9.7 8.6,10.5 C8.6,11.3 8,12 7.1,12 Z"></path>
                            <path d="M11.4,8.7 C10.4,8.7 9.6,9.5 9.6,10.5 C9.6,11.5 10.4,12.3 11.4,12.3 C12.4,12.3 13.2,11.5 13.2,10.5 C13.2,9.5 12.4,8.7 11.4,8.7 Z M11.4,12 C10.6,12 9.9,11.3 9.9,10.5 C9.9,9.7 10.6,9 11.4,9 C12.2,9 12.9,9.7 12.9,10.5 C12.9,11.3 12.2,12 11.4,12 Z"></path>
                            <path d="M7.4,6.8 C7.4,7.8 8.2,8.6 9.2,8.6 C10.2,8.6 11,7.8 11,6.8 C11,5.8 10.2,5 9.2,5 C8.2,5 7.4,5.8 7.4,6.8 Z M9.1,5.3 C9.9,5.3 10.6,6 10.6,6.8 C10.6,7.6 9.9,8.3 9.1,8.3 C8.3,8.3 7.6,7.6 7.6,6.8 C7.6,6 8.3,5.3 9.1,5.3 Z"></path>
                            <path d="M7.1,15.8 C6.1,15.8 5.3,16.6 5.3,17.6 C5.3,18.6 6.1,19.4 7.1,19.4 C8.1,19.4 8.9,18.6 8.9,17.6 C8.9,16.6 8.1,15.8 7.1,15.8 Z M7.1,19.1 C6.3,19.1 5.6,18.4 5.6,17.6 C5.6,16.8 6.3,16.1 7.1,16.1 C7.9,16.1 8.6,16.8 8.6,17.6 C8.6,18.4 8,19.1 7.1,19.1 Z"></path>
                            <path d="M11.4,15.8 C10.4,15.8 9.6,16.6 9.6,17.6 C9.6,18.6 10.4,19.4 11.4,19.4 C12.4,19.4 13.2,18.6 13.2,17.6 C13.2,16.6 12.4,15.8 11.4,15.8 Z M11.4,19.1 C10.6,19.1 9.9,18.4 9.9,17.6 C9.9,16.8 10.6,16.1 11.4,16.1 C12.2,16.1 12.9,16.8 12.9,17.6 C12.9,18.4 12.2,19.1 11.4,19.1 Z"></path>
                            <path d="M11.5,6.8 C11.5,7.8 12.3,8.6 13.3,8.6 C14.3,8.6 15.1,7.8 15.1,6.8 C15.1,5.8 14.3,5 13.3,5 C12.3,5 11.5,5.8 11.5,6.8 Z M13.2,5.3 C14,5.3 14.7,6 14.7,6.8 C14.7,7.6 14,8.3 13.2,8.3 C12.4,8.3 11.7,7.6 11.7,6.8 C11.7,6 12.4,5.3 13.2,5.3 Z"></path>
                            <path d="M13.9,14.9 L11.4,14.9 C11.4,14.8 11.4,14.7 11.3,14.6 C12.6,14.2 13.8,13.6 14.8,12.6 C16.5,11 17.4,8.8 17.4,6.5 C17.4,4.6 16.7,2.7 15.6,1.3 C15,0.5 14.1,0.1 13,0.1 L5,0.1 C4,0.1 3,0.6 2.4,1.4 C1.1,3 0.5,5.1 0.7,7.2 C1,10.8 3.6,13.8 7,14.7 C7,14.8 6.9,14.8 6.9,14.9 L4.2,14.9 C2.7,14.9 1.5,16.1 1.5,17.6 C1.5,19.1 2.7,20.3 4.2,20.3 L13.8,20.3 C15.3,20.3 16.5,19.1 16.5,17.6 C16.6,16.1 15.4,14.9 13.9,14.9 Z M1.3,7.1 C1.2,5.2 1.7,3.3 2.9,1.7 C3.4,1 4.2,0.6 5.1,0.6 L13.1,0.6 C13.9,0.6 14.7,1 15.2,1.6 C16.3,3 16.9,4.7 16.9,6.5 C16.9,8.7 16,10.7 14.4,12.2 C12.8,13.7 10.7,14.4 8.5,14.3 C4.7,14.1 1.6,11 1.3,7.1 Z M13.9,19.7 L4.3,19.7 C3.1,19.7 2.2,18.8 2.2,17.6 C2.2,16.4 3.1,15.5 4.3,15.5 L13.9,15.5 C15.1,15.5 16,16.4 16,17.6 C16,18.7 15.1,19.7 13.9,19.7 Z"></path>
                        </g>
                    </g>
                    <path d="M32.3,3.6 L30.4,3.6 C30.1,3.6 29.9,3.4 30,3.1 L30.9,0.3 C31,-2.84217094e-14 30.9,-2.84217094e-14 30.8,0.3 L28.8,3.6 L27.1,3.6 C26.8,3.6 26.7,3.4 26.7,3.1 L27.6,0.3 C27.7,-2.84217094e-14 27.6,-2.84217094e-14 27.5,0.3 L25,4.4 C24.9,4.6 25,4.8 25.3,4.8 L26.9,4.8 C27.2,4.8 27.3,5 27.2,5.3 L26,8.6 C25.9,8.9 26,8.9 26.1,8.7 L28.7,4.8 L30.1,4.8 C30.4,4.8 30.5,5 30.4,5.3 L29.2,8.6 C29.1,8.9 29.2,8.9 29.3,8.7 L32.3,4.1 C32.7,3.8 32.6,3.6 32.3,3.6 Z" id="Path" fill="#8FC84E" opacity="0.5"></path>
                </g>
            </g>
        </g>
    </g>
</svg>