<?xml version="1.0" encoding="UTF-8"?>
<svg width="378px" height="331px" viewBox="0 0 378 331" version="1.1" xmlns="http://www.w3.org/2000/svg" xmlns:xlink="http://www.w3.org/1999/xlink">
    <!-- Generator: Sketch 61 (89581) - https://sketch.com -->
    <title>Untitled</title>
    <desc>Created with Sketch.</desc>
    <g id="Page-1" stroke="none" stroke-width="1" fill="none" fill-rule="evenodd">
        <g id="Windmill" transform="translate(2.000000, 2.000000)">
            <path d="M210.708,206.412 C210.708,210.953 207.027,214.635 202.486,214.635 C197.945,214.635 194.264,210.953 194.264,206.412 C194.264,201.871 197.945,198.19 202.486,198.19 C207.027,198.19 210.708,201.871 210.708,206.412 Z" id="Path" fill="#FFFFFF" fill-rule="nonzero"></path>
            <path d="M199.324,206.412 C199.324,204.666 200.74,203.25 202.486,203.25 C204.232,203.25 205.648,204.666 205.648,206.412 C205.648,208.158 204.232,209.574 202.486,209.574 C200.74,209.574 199.324,208.158 199.324,206.412 Z" id="Path" fill="#81B8BE" fill-rule="nonzero"></path>
            <path d="M202.486,214.634 C207.027,214.634 210.708,210.953 210.708,206.412 C210.708,201.871 207.027,198.19 202.486,198.19 C197.945,198.19 194.264,201.871 194.264,206.412 C194.264,210.953 197.945,214.634 202.486,214.634 Z" id="Path" stroke="#275E5E" stroke-width="3" stroke-linecap="round" stroke-linejoin="round"></path>
            <path d="M202.486,209.574 C204.232,209.574 205.648,208.158 205.648,206.412 C205.648,204.666 204.232,203.25 202.486,203.25 C200.74,203.25 199.324,204.666 199.324,206.412 C199.324,208.158 200.74,209.574 202.486,209.574 Z" id="Path" stroke="#275E5E" stroke-width="2" stroke-linecap="round" stroke-linejoin="round"></path>
            <path d="M210.66,212.777 L367.791,325.722 C370.704,327.817 374.281,324.169 372.133,321.297 L302.603,248.08 C287.824,234.776 277.465,227.091 262.784,223.08 L212.208,209.53 C210.242,208.994 209.005,211.589 210.66,212.777 Z" id="Path" fill="#FFFFFF" fill-rule="nonzero"></path>
            <path d="M210.66,212.777 L367.791,325.722 C370.704,327.817 374.281,324.169 372.133,321.297 L302.603,248.08 C287.824,234.776 277.465,227.091 262.784,223.08 L212.208,209.53 C210.242,208.994 209.005,211.589 210.66,212.777 Z" id="Path" stroke="#468689" stroke-width="3" stroke-linecap="round" stroke-linejoin="round"></path>
            <path d="M204.033,196.106 L225.516,3.79005 C225.914,0.22505 220.982,-1.107015 219.532,2.17298 L189.766,98.656 C185.409,118.058 183.784,130.854 187.48,145.618 L200.445,196.347 C200.938,198.322 203.807,198.13 204.033,196.106 Z" id="Path" fill="#FFFFFF" fill-rule="nonzero"></path>
            <path d="M204.033,196.106 L225.516,3.79005 C225.914,0.22505 220.982,-1.107015 219.532,2.17298 L189.766,98.656 C185.409,118.058 183.784,130.854 187.48,145.618 L200.445,196.347 C200.938,198.322 203.807,198.13 204.033,196.106 Z" id="Path" stroke="#468689" stroke-width="3" stroke-linecap="round" stroke-linejoin="round"></path>
            <path d="M192.035,207.591 L2.73906,247.769 C-0.76994,248.514 -0.48197,253.614 3.08903,253.958 L104.037,251.822 C123.824,249.847 136.481,247.36 149.329,239.202 L193.394,210.921 C195.112,209.829 194.026,207.168 192.035,207.591 Z" id="Path" fill="#FFFFFF" fill-rule="nonzero"></path>
            <path d="M210.66,212.777 L367.791,325.722 C370.704,327.817 374.281,324.169 372.133,321.297 L302.603,248.08 C287.824,234.776 277.465,227.091 262.784,223.08 L212.208,209.53 C210.242,208.994 209.005,211.589 210.66,212.777 Z" id="Path" stroke="#468689" stroke-width="3" stroke-linecap="round" stroke-linejoin="round"></path>
            <path d="M204.033,196.106 L225.516,3.79005 C225.914,0.22505 220.982,-1.107015 219.532,2.17298 L189.766,98.656 C185.409,118.058 183.784,130.854 187.48,145.618 L200.445,196.347 C200.938,198.322 203.807,198.13 204.033,196.106 Z" id="Path" stroke="#468689" stroke-width="3" stroke-linecap="round" stroke-linejoin="round"></path>
            <path d="M375.559,328.587 C375.559,328.587 303.392,262.266 288.34,250.823 C273.29,239.38 217.629,212.168 217.629,212.168 L270.704,225.763 L289.289,237.791 L310.474,256.284 L375.521,324.885 L375.559,328.587 Z" id="Path" fill="#C0EFEC" fill-rule="nonzero"></path>
            <path d="M224.449,0.33789 C224.449,0.33789 201.101,95.5288 198.325,114.231 C195.549,132.933 200.183,196.128 200.183,196.128 L186.711,140.195 L186.448,119.678 L192.448,92.2059 L221.224,2.15393 L224.449,0.33789 Z" id="Path" fill="#C0EFEC" fill-rule="nonzero"></path>
            <path d="M0.323,251.498 C0.323,251.498 97.941,242.695 116.531,239.253 C135.121,235.81 193.393,210.921 193.393,210.921 L144.859,241.813 L125.538,248.719 L97.605,251.958 L3.08899,253.958 L0.323,251.498 Z" id="Path" fill="#C0EFEC" fill-rule="nonzero"></path>
            <path d="M192.035,207.591 L2.73906,247.769 C-0.76994,248.514 -0.48197,253.614 3.08903,253.958 L104.037,251.822 C123.824,249.847 136.481,247.36 149.329,239.202 L193.394,210.921 C195.112,209.829 194.026,207.168 192.035,207.591 Z" id="Path" stroke="#275E5E" stroke-width="3" stroke-linecap="round" stroke-linejoin="round"></path>
            <path d="M210.66,212.777 L367.791,325.722 C370.704,327.817 374.281,324.169 372.133,321.297 L302.603,248.08 C287.824,234.776 277.465,227.091 262.784,223.08 L212.208,209.53 C210.242,208.994 209.005,211.589 210.66,212.777 Z" id="Path" stroke="#275E5E" stroke-width="3" stroke-linecap="round" stroke-linejoin="round"></path>
            <path d="M204.033,196.106 L225.516,3.79005 C225.914,0.22505 220.982,-1.107015 219.532,2.17298 L189.766,98.656 C185.409,118.058 183.784,130.854 187.48,145.618 L200.445,196.347 C200.938,198.322 203.807,198.13 204.033,196.106 Z" id="Path" stroke="#275E5E" stroke-width="3" stroke-linecap="round" stroke-linejoin="round"></path>
        </g>
    </g>
</svg>