<?xml version="1.0" encoding="UTF-8"?>
<svg width="823px" height="260px" viewBox="0 0 823 260" version="1.1" xmlns="http://www.w3.org/2000/svg" xmlns:xlink="http://www.w3.org/1999/xlink">
    <!-- Generator: Sketch 61 (89581) - https://sketch.com -->
    <title>Untitled</title>
    <desc>Created with Sketch.</desc>
    <defs>
        <path d="M3.153,2.65 C2.616,3.187 1.745,3.187 1.208,2.65 C0.671,2.113 0.671,1.242 1.208,0.705 C1.745,0.169 2.616,0.169 3.153,0.705 C3.69,1.242 3.69,2.113 3.153,2.65 Z" id="path-1"></path>
        <path d="M0.66,2.65 C0.123,2.113 0.123,1.242 0.66,0.705 C1.197,0.169 2.068,0.169 2.605,0.705 C3.142,1.242 3.142,2.113 2.605,2.65 C2.068,3.188 1.197,3.188 0.66,2.65 Z" id="path-3"></path>
    </defs>
    <g id="Page-1" stroke="none" stroke-width="1" fill="none" fill-rule="evenodd">
        <g id="Bus" transform="translate(2.000000, 1.000000)">
            <path d="M764.468,30.7918 C764.417,31.2594 764.351,31.6174 764.297,31.8577 L445.363,17.7319 C446.854,17.3634 448.86,16.8867 451.372,16.3306 C457.487,14.9764 466.603,13.1509 478.592,11.2684 C502.572,7.50337 538.049,3.51004 584.022,2.60201 C586.486,2.55336 588.936,2.50472 591.37,2.45639 C634.122,1.60759 672.181,0.85198 701.144,1.71509 C716.452,2.17126 729.199,3.0792 738.747,4.65998 C743.522,5.45044 747.48,6.40656 750.551,7.55113 C753.633,8.69971 755.767,10.0179 756.955,11.4972 L757.345,11.184 L756.955,11.4972 C761.995,17.7687 763.789,22.9854 764.335,26.6051 C764.609,28.4169 764.571,29.8347 764.468,30.7918 Z" id="Path" stroke="#275E5E" fill="#FFFFFF" fill-rule="nonzero"></path>
            <path d="M442.013,18.084 C442.013,18.084 492.018,3.91911 584.012,2.10211 C675.473,0.29611 747.166,-1.483979 757.345,11.184 C767.526,23.853 764.679,32.3751 764.679,32.3751 L442.013,18.084 Z" id="Path" stroke="#548080" stroke-width="3" stroke-linecap="round" stroke-linejoin="round"></path>
            <polygon id="Path" stroke="#275E5E" fill="#1D1D1B" fill-rule="nonzero" points="72.468 221.965 72.468 146.965 736.801 146.965 736.801 221.965"></polygon>
            <polygon id="Path" stroke="#548080" stroke-width="3" points="737.301 146.465 71.968 146.465 71.968 222.465 737.301 222.465"></polygon>
            <path d="M789.968,40.799 C786.916,34.946 782.228,24.275 754.699,20.82 C730.968,17.841 268.926,9.423 76.635,37.466 C60.635,39.799 46.301,46.4661 31.651,67.8101 C20.332,84.2991 -8.03204,137.966 2.96796,222.716 C4.87496,237.41 30.618,237.025955 37.218,237.025955 L124.412,236.53 C131.768,236.489 137.555,229.99 136.468,222.716 C135.983,219.47 135.842,216.112 136.085,212.678 C137.712,189.669 156.74,171.324 179.791,170.496 C205.684,169.565 226.968,190.28 226.968,215.967 C226.968,218.087 226.822,220.175 226.541,222.219 C225.541,229.475 231.211,235.926 238.535,235.884 L590.438,233.889 C597.532,233.849 602.919,227.667 602.202,220.61 C602.01,218.717 601.934,216.79 601.982,214.836 C602.562,190.982 621.898,171.381 645.743,170.499 C671.658,169.541 692.968,190.266 692.968,215.968 C692.968,217.311 692.909,218.641 692.795,219.954 C692.171,227.104 697.708,233.281 704.885,233.24 L782.471,232.801 C794.718,232.468 816.716,231.248 817.968,215.468 C821.468,171.353 821.218,100.716 789.968,40.799 Z" id="Path" fill="#F0FFFF" fill-rule="nonzero"></path>
            <path d="M789.488,40.5081 C786.436,34.6551 781.748,23.9841 754.219,20.5291 C730.488,17.5501 268.446,9.1321 76.1555,37.1751 C60.1555,39.5081 45.8215,46.1752 31.1715,67.5192 C19.8525,84.0082 -8.51153,137.675 2.48847,222.425 C4.39547,237.119 30.1385,236.734955 36.7385,236.734955 L123.932,236.239 C131.288,236.198 137.075,229.699 135.988,222.425 C135.503,219.179 135.362,215.821 135.605,212.387 C137.232,189.378 156.26,171.033 179.311,170.205 C205.204,169.274 226.488,189.989 226.488,215.676 C226.488,217.796 226.342,219.884 226.061,221.928 C225.061,229.184 230.731,235.635 238.055,235.593 L589.958,233.598 C597.052,233.558 602.439,227.376 601.722,220.319 C601.53,218.426 601.454,216.499 601.502,214.545 C602.082,190.691 621.418,171.09 645.263,170.208 C671.178,169.25 692.488,189.975 692.488,215.677 C692.488,217.02 692.429,218.35 692.315,219.663 C691.691,226.813 697.228,232.99 704.405,232.949 L781.991,232.51 C794.238,232.177 816.236,230.957 817.488,215.177 C820.988,171.062 820.738,100.425 789.488,40.5081 Z" id="Path" stroke="#548080" stroke-width="3" stroke-linecap="round" stroke-linejoin="round"></path>
            <path d="M758.106,149.09 L146.829,149.09 C144.42,149.09 142.467,147.137 142.467,144.73 L142.467,79.452 C142.467,77.044 144.42,75.0909 146.829,75.0909 L758.106,75.0909 C760.514,75.0909 762.466,77.044 762.466,79.452 L762.466,144.73 C762.466,147.137 760.515,149.09 758.106,149.09 Z" id="Path" fill="#C0EFEC" fill-rule="nonzero"></path>
            <path d="M161.467,98.451 C161.467,96.043 163.42,94.0909 165.828,94.0909 L762.467,94.0909 L762.467,79.451 C762.467,77.043 760.514,75.0909 758.106,75.0909 L146.829,75.0909 C144.421,75.0909 142.468,77.043 142.468,79.451 L142.468,144.728 C142.468,147.137 144.421,149.09 146.829,149.09 L161.468,149.09 L161.468,98.451 L161.467,98.451 Z" id="Path" fill="#9BCECE" fill-rule="nonzero"></path>
            <path d="M217.633,221.367 C217.633,240.845 201.843,256.636 182.365,256.636 C162.887,256.636 147.097,240.845 147.097,221.367 C147.097,201.889 162.887,186.099 182.365,186.099 C201.843,186.099 217.633,201.889 217.633,221.367 Z" id="Path" stroke="#275E5E" fill="#3C3C3B" fill-rule="nonzero"></path>
            <path d="M182.365,257.135 C202.119,257.135 218.133,241.121 218.133,221.367 C218.133,201.613 202.119,185.599 182.365,185.599 C162.611,185.599 146.597,201.613 146.597,221.367 C146.597,241.121 162.611,257.135 182.365,257.135 Z" id="Path" stroke="#548080" stroke-width="3"></path>
            <path d="M204.531,221.367 C204.531,233.61 194.607,243.534 182.364,243.534 C170.122,243.534 160.198,233.61 160.198,221.367 C160.198,209.125 170.122,199.2 182.364,199.2 C194.607,199.2 204.531,209.126 204.531,221.367 Z" id="Path" stroke="#275E5E" fill="#EDEDED" fill-rule="nonzero"></path>
            <path d="M182.365,244.034 C194.884,244.034 205.032,233.886 205.032,221.367 C205.032,208.848 194.884,198.7 182.365,198.7 C169.846,198.7 159.698,208.848 159.698,221.367 C159.698,233.886 169.846,244.034 182.365,244.034 Z" id="Path" stroke="#275E5E" stroke-width="3"></path>
            <path d="M182.407,228.721 C186.469,228.721 189.761,225.429 189.761,221.367 C189.761,217.305 186.469,214.014 182.407,214.013 L182.407,228.721 Z M182.407,228.721 C178.345,228.721 175.053,225.428 175.053,221.367 M182.407,228.721 L175.053,221.367 M175.053,221.367 C175.053,217.306 178.345,214.013 182.407,214.013 L175.053,221.367 Z" id="Shape" stroke="#275E5E" fill="#3C3C3B" fill-rule="nonzero"></path>
            <path d="M182.407,229.221 C186.745,229.221 190.261,225.705 190.261,221.367 C190.261,217.029 186.745,213.513 182.407,213.513 C178.069,213.513 174.553,217.029 174.553,221.367 C174.553,225.705 178.069,229.221 182.407,229.221 Z" id="Path" stroke="#275E5E" stroke-width="4"></path>
            <path d="M183.282,206.215 C183.282,206.699 182.89,207.09 182.407,207.09 C181.924,207.09 181.532,206.699 181.532,206.215 C181.532,205.732 181.924,205.34 182.407,205.34 C182.89,205.34 183.282,205.732 183.282,206.215 Z" id="Path" stroke="#275E5E" fill="#468689" fill-rule="nonzero"></path>
            <path d="M182.407,207.59 C183.166,207.59 183.782,206.974 183.782,206.215 C183.782,205.456 183.166,204.84 182.407,204.84 C181.648,204.84 181.032,205.456 181.032,206.215 C181.032,206.974 181.648,207.59 182.407,207.59 Z" id="Path" stroke="#275E5E" stroke-width="1.5"></path>
            <path d="M183.282,236.689 C183.282,237.172 182.89,237.564 182.407,237.564 C181.924,237.564 181.532,237.172 181.532,236.689 C181.532,236.206 181.924,235.814 182.407,235.814 C182.89,235.814 183.282,236.207 183.282,236.689 Z" id="Path" stroke="#275E5E" fill="#468689" fill-rule="nonzero"></path>
            <path d="M182.407,238.064 C183.166,238.064 183.782,237.448 183.782,236.689 C183.782,235.93 183.166,235.314 182.407,235.314 C181.648,235.314 181.032,235.93 181.032,236.689 C181.032,237.448 181.648,238.064 182.407,238.064 Z" id="Path" stroke="#275E5E" stroke-width="1.5"></path>
            <path d="M197.644,222.327 C197.161,222.327 196.769,221.935 196.769,221.452 C196.769,220.969 197.161,220.577 197.644,220.577 C198.127,220.577 198.519,220.969 198.519,221.452 C198.519,221.935 198.127,222.327 197.644,222.327 Z" id="Path" stroke="#275E5E" fill="#468689" fill-rule="nonzero"></path>
            <path d="M197.644,222.827 C198.403,222.827 199.019,222.211 199.019,221.452 C199.019,220.693 198.403,220.077 197.644,220.077 C196.885,220.077 196.269,220.693 196.269,221.452 C196.269,222.211 196.885,222.827 197.644,222.827 Z" id="Path" stroke="#275E5E" stroke-width="1.5"></path>
            <path d="M167.169,222.327 C166.686,222.327 166.294,221.935 166.294,221.452 C166.294,220.969 166.686,220.577 167.169,220.577 C167.652,220.577 168.044,220.969 168.044,221.452 C168.044,221.935 167.653,222.327 167.169,222.327 Z" id="Path" stroke="#275E5E" fill="#468689" fill-rule="nonzero"></path>
            <path d="M167.169,222.827 C167.928,222.827 168.544,222.211 168.544,221.452 C168.544,220.693 167.928,220.077 167.169,220.077 C166.41,220.077 165.794,220.693 165.794,221.452 C165.794,222.211 166.41,222.827 167.169,222.827 Z" id="Path" stroke="#275E5E" stroke-width="1.5"></path>
            <path d="M194.153,211.65 C193.616,212.187 192.745,212.187 192.208,211.65 C191.671,211.113 191.671,210.242 192.208,209.705 C192.745,209.169 193.616,209.169 194.153,209.705 C194.69,210.242 194.69,211.113 194.153,211.65 Z" id="Path" fill="#468689" fill-rule="nonzero"></path>
            <g id="Clipped" transform="translate(191.000000, 209.000000)">
                <mask id="mask-2" fill="white">
                    <use xlink:href="#path-1"></use>
                </mask>
                <g id="Path"></g>
                <path d="M1.208,0.705 L0.501,-0.003 L0.501,-0.002 L1.208,0.705 Z M3.153,0.705 L3.86,-0.002 L3.859,-0.003 L3.153,0.705 Z M2.446,1.943 C2.299,2.089 2.062,2.089 1.915,1.943 L0.501,3.357 C1.428,4.285 2.933,4.285 3.86,3.357 L2.446,1.943 Z M1.915,1.943 C1.769,1.796 1.769,1.559 1.915,1.412 L0.501,-0.002 C-0.427,0.925 -0.427,2.43 0.501,3.357 L1.915,1.943 Z M1.914,1.413 C2.061,1.266 2.3,1.266 2.446,1.413 L3.859,-0.003 C2.932,-0.928 1.429,-0.928 0.501,-0.003 L1.914,1.413 Z M2.446,1.412 C2.592,1.559 2.592,1.796 2.446,1.943 L3.86,3.357 C4.788,2.43 4.788,0.925 3.86,-0.002 L2.446,1.412 Z" id="Shape" fill="#275E5E" fill-rule="nonzero" mask="url(#mask-2)"></path>
            </g>
            <path d="M193.181,212.053 C193.94,212.053 194.556,211.437 194.556,210.678 C194.556,209.919 193.94,209.303 193.181,209.303 C192.422,209.303 191.806,209.919 191.806,210.678 C191.806,211.437 192.422,212.053 193.181,212.053 Z" id="Path" stroke="#275E5E" stroke-width="1.5"></path>
            <path d="M172.252,232.845 C171.91,233.187 171.355,233.187 171.014,232.845 C170.672,232.504 170.672,231.949 171.014,231.608 C171.355,231.266 171.91,231.266 172.252,231.608 C172.593,231.949 172.593,232.504 172.252,232.845 Z" id="Path" stroke="#275E5E" fill="#468689" fill-rule="nonzero"></path>
            <path d="M171.632,233.603 C172.392,233.603 173.008,232.987 173.008,232.227 C173.008,231.467 172.392,230.851 171.632,230.851 C170.872,230.851 170.256,231.467 170.256,232.227 C170.256,232.987 170.872,233.603 171.632,233.603 Z" id="Path" stroke="#275E5E" stroke-width="1.5"></path>
            <path d="M192.561,232.845 C192.22,232.504 192.22,231.949 192.561,231.608 C192.903,231.266 193.458,231.266 193.799,231.608 C194.141,231.949 194.141,232.504 193.799,232.845 C193.458,233.187 192.904,233.187 192.561,232.845 Z" id="Path" stroke="#275E5E" fill="#468689" fill-rule="nonzero"></path>
            <path d="M193.181,233.603 C193.941,233.603 194.557,232.987 194.557,232.227 C194.557,231.467 193.941,230.851 193.181,230.851 C192.421,230.851 191.805,231.467 191.805,232.227 C191.805,232.987 192.421,233.603 193.181,233.603 Z" id="Path" stroke="#275E5E" stroke-width="1.5"></path>
            <path d="M170.66,211.65 C170.123,211.113 170.123,210.242 170.66,209.705 C171.197,209.169 172.068,209.169 172.605,209.705 C173.142,210.242 173.142,211.113 172.605,211.65 C172.068,212.188 171.197,212.188 170.66,211.65 Z" id="Path" fill="#468689" fill-rule="nonzero"></path>
            <g id="Clipped" transform="translate(170.000000, 209.000000)">
                <mask id="mask-4" fill="white">
                    <use xlink:href="#path-3"></use>
                </mask>
                <g id="Path"></g>
                <path d="M0.66,2.65 L1.368,1.944 L1.367,1.943 L0.66,2.65 Z M0.66,0.705 L-0.046,-0.003 L-0.047,-0.002 L0.66,0.705 Z M2.605,0.705 L3.312,-0.002 L3.312,-0.003 L2.605,0.705 Z M2.605,2.65 L1.898,1.943 L1.897,1.944 L2.605,2.65 Z M1.367,1.943 C1.221,1.796 1.221,1.559 1.367,1.412 L-0.047,-0.002 C-0.975,0.925 -0.975,2.43 -0.047,3.357 L1.367,1.943 Z M1.367,1.413 C1.513,1.266 1.752,1.266 1.899,1.413 L3.312,-0.003 C2.384,-0.928 0.881,-0.928 -0.046,-0.003 L1.367,1.413 Z M1.898,1.412 C2.044,1.559 2.044,1.796 1.898,1.943 L3.312,3.357 C4.24,2.43 4.24,0.925 3.312,-0.002 L1.898,1.412 Z M1.897,1.944 C1.751,2.09 1.514,2.09 1.368,1.944 L-0.048,3.356 C0.88,4.286 2.385,4.286 3.313,3.356 L1.897,1.944 Z" id="Shape" fill="#275E5E" fill-rule="nonzero" mask="url(#mask-4)"></path>
            </g>
            <path d="M171.633,212.053 C172.392,212.053 173.008,211.437 173.008,210.678 C173.008,209.919 172.392,209.303 171.633,209.303 C170.874,209.303 170.258,209.919 170.258,210.678 C170.258,211.437 170.874,212.053 171.633,212.053 Z" id="Path" stroke="#275E5E" stroke-width="1.5"></path>
            <path d="M683.216,221.367 C683.216,241.121 667.202,257.136 647.448,257.136 C627.694,257.136 611.68,241.121 611.68,221.367 C611.68,201.613 627.694,185.599 647.448,185.599 C667.202,185.599 683.216,201.613 683.216,221.367 Z" id="Path" fill="#3C3C3B" fill-rule="nonzero"></path>
            <path d="M647.448,257.135 C667.202,257.135 683.216,241.121 683.216,221.367 C683.216,201.613 667.202,185.599 647.448,185.599 C627.694,185.599 611.68,201.613 611.68,221.367 C611.68,241.121 627.694,257.135 647.448,257.135 Z" id="Path" stroke="#548080" stroke-width="3"></path>
            <path d="M670.115,221.367 C670.115,233.886 659.967,244.034 647.448,244.034 C634.93,244.034 624.782,233.886 624.782,221.367 C624.782,208.849 634.93,198.7 647.448,198.7 C659.967,198.7 670.115,208.85 670.115,221.367 Z" id="Path" fill="#EDEDED" fill-rule="nonzero"></path>
            <path d="M647.448,244.034 C659.967,244.034 670.115,233.886 670.115,221.367 C670.115,208.848 659.967,198.7 647.448,198.7 C634.929,198.7 624.781,208.848 624.781,221.367 C624.781,233.886 634.929,244.034 647.448,244.034 Z" id="Path" stroke="#548080" stroke-width="3"></path>
            <path d="M654.844,221.367 C654.844,225.429 651.552,228.721 647.49,228.721 C643.428,228.721 640.136,225.428 640.136,221.367 C640.136,217.306 643.428,214.013 647.49,214.013 C651.552,214.013 654.844,217.305 654.844,221.367 Z" id="Path" stroke="#275E5E" fill="#3C3C3B" fill-rule="nonzero"></path>
            <path d="M647.49,229.221 C651.828,229.221 655.344,225.705 655.344,221.367 C655.344,217.029 651.828,213.513 647.49,213.513 C643.152,213.513 639.636,217.029 639.636,221.367 C639.636,225.705 643.152,229.221 647.49,229.221 Z" id="Path" stroke="#548080" stroke-width="3"></path>
            <path d="M648.865,206.215 C648.865,206.975 648.249,207.59 647.49,207.59 C646.731,207.59 646.115,206.975 646.115,206.215 C646.115,205.456 646.731,204.84 647.49,204.84 C648.249,204.84 648.865,205.456 648.865,206.215 Z" id="Path" fill="#3C3C3B" fill-rule="nonzero"></path>
            <path d="M647.49,207.59 C648.249,207.59 648.865,206.974 648.865,206.215 C648.865,205.456 648.249,204.84 647.49,204.84 C646.731,204.84 646.115,205.456 646.115,206.215 C646.115,206.974 646.731,207.59 647.49,207.59 Z" id="Path" stroke="#548080"></path>
            <path d="M648.865,236.689 C648.865,237.448 648.249,238.064 647.49,238.064 C646.731,238.064 646.115,237.448 646.115,236.689 C646.115,235.93 646.731,235.314 647.49,235.314 C648.249,235.314 648.865,235.931 648.865,236.689 Z" id="Path" fill="#3C3C3B" fill-rule="nonzero"></path>
            <path d="M647.49,238.064 C648.249,238.064 648.865,237.448 648.865,236.689 C648.865,235.93 648.249,235.314 647.49,235.314 C646.731,235.314 646.115,235.93 646.115,236.689 C646.115,237.448 646.731,238.064 647.49,238.064 Z" id="Path" stroke="#275E5E" stroke-width="1.5"></path>
            <path d="M662.727,222.827 C661.968,222.827 661.352,222.211 661.352,221.452 C661.352,220.693 661.968,220.077 662.727,220.077 C663.486,220.077 664.102,220.693 664.102,221.452 C664.102,222.211 663.486,222.827 662.727,222.827 Z" id="Path" fill="#3C3C3B" fill-rule="nonzero"></path>
            <path d="M662.727,222.827 C663.486,222.827 664.102,222.211 664.102,221.452 C664.102,220.693 663.486,220.077 662.727,220.077 C661.968,220.077 661.352,220.693 661.352,221.452 C661.352,222.211 661.968,222.827 662.727,222.827 Z" id="Path" stroke="#548080"></path>
            <path d="M632.253,222.827 C631.494,222.827 630.878,222.211 630.878,221.452 C630.878,220.693 631.494,220.077 632.253,220.077 C633.012,220.077 633.628,220.693 633.628,221.452 C633.628,222.211 633.012,222.827 632.253,222.827 Z" id="Path" fill="#3C3C3B" fill-rule="nonzero"></path>
            <path d="M632.253,222.827 C633.012,222.827 633.628,222.211 633.628,221.452 C633.628,220.693 633.012,220.077 632.253,220.077 C631.494,220.077 630.878,220.693 630.878,221.452 C630.878,222.211 631.494,222.827 632.253,222.827 Z" id="Path" stroke="#548080"></path>
            <path d="M659.236,211.65 C658.699,212.187 657.828,212.187 657.291,211.65 C656.754,211.113 656.754,210.242 657.291,209.705 C657.828,209.169 658.699,209.169 659.236,209.705 C659.773,210.242 659.773,211.113 659.236,211.65 Z" id="Path" fill="#3C3C3B" fill-rule="nonzero"></path>
            <path d="M658.264,212.053 C659.024,212.053 659.639,211.437 659.639,210.678 C659.639,209.919 659.024,209.303 658.264,209.303 C657.505,209.303 656.889,209.919 656.889,210.678 C656.889,211.437 657.505,212.053 658.264,212.053 Z" id="Path" stroke="#548080"></path>
            <path d="M637.688,233.199 C637.151,233.736 636.28,233.736 635.743,233.199 C635.206,232.662 635.206,231.791 635.743,231.254 C636.28,230.717 637.151,230.717 637.688,231.254 C638.225,231.791 638.225,232.662 637.688,233.199 Z" id="Path" fill="#3C3C3B" fill-rule="nonzero"></path>
            <path d="M636.716,233.602 C637.475,233.602 638.091,232.986 638.091,232.227 C638.091,231.468 637.475,230.852 636.716,230.852 C635.957,230.852 635.341,231.468 635.341,232.227 C635.341,232.986 635.957,233.602 636.716,233.602 Z" id="Path" stroke="#548080"></path>
            <path d="M657.292,233.199 C656.755,232.662 656.755,231.791 657.292,231.254 C657.829,230.717 658.7,230.717 659.237,231.254 C659.774,231.791 659.774,232.662 659.237,233.199 C658.7,233.736 657.829,233.736 657.292,233.199 Z" id="Path" fill="#3C3C3B" fill-rule="nonzero"></path>
            <path d="M658.265,233.603 C659.025,233.603 659.641,232.987 659.641,232.227 C659.641,231.467 659.025,230.851 658.265,230.851 C657.505,230.851 656.889,231.467 656.889,232.227 C656.889,232.987 657.505,233.603 658.265,233.603 Z" id="Path" stroke="#548080"></path>
            <path d="M635.744,211.65 C635.207,211.113 635.207,210.242 635.744,209.705 C636.281,209.169 637.152,209.169 637.689,209.705 C638.226,210.242 638.226,211.113 637.689,211.65 C637.152,212.187 636.28,212.188 635.744,211.65 Z" id="Path" fill="#3C3C3B" fill-rule="nonzero"></path>
            <path d="M636.716,212.053 C637.475,212.053 638.091,211.437 638.091,210.678 C638.091,209.919 637.475,209.303 636.716,209.303 C635.957,209.303 635.341,209.919 635.341,210.678 C635.341,211.437 635.957,212.053 636.716,212.053 Z" id="Path" stroke="#548080"></path>
            <path d="M20.6791,164.537 C17.4181,164.537 15.5061,161.65 15.5010261,158.389 C15.4671,137.537 27.1761,96.0979 36.9671,85.2869 C47.1361,74.0579 109.073,73.935 127.667,74.769 C130.633,74.903 132.967,77.3479 132.967,80.3179 L132.967,158.466 C132.967,161.819 130.25,164.536 126.897,164.536 L20.6791,164.536 L20.6791,164.537 Z" id="Path" fill="#C0EFEC" fill-rule="nonzero"></path>
            <path d="M127.667,74.77 C109.073,73.936 47.1361,74.0589 36.9671,85.2879 C27.1761,96.0989 15.4671,137.538 15.5010261,158.39 C15.5061,161.652 17.4171,164.538 20.6791,164.538 L42.6201,164.538 C45.7441,142.758 55.005,113.561 62.992,104.742 C70.605,96.3359 107.233,98.347 132.967,98.133 L132.967,80.3199 C132.967,77.3499 130.633,74.903 127.667,74.77 Z" id="Path" fill="#9BCECE" fill-rule="nonzero"></path>
            <line x1="66.967" y1="76.386" x2="66.967" y2="164.537" id="Path" stroke="#548080" stroke-width="3"></line>
            <path d="M20.6791,164.537 C17.4181,164.537 15.5061,161.65 15.5010261,158.389 C15.4671,137.537 27.1761,96.0979 36.9671,85.2869 C47.1361,74.0579 109.073,73.935 127.667,74.769 C130.633,74.903 132.967,77.3479 132.967,80.3179 L132.967,158.466 C132.967,161.819 130.25,164.536 126.897,164.536 L20.6791,164.536 L20.6791,164.537 Z" id="Path" stroke="#548080" stroke-width="3" stroke-linecap="round" stroke-linejoin="round"></path>
            <path d="M224.973,51.467 L202.973,51.467 C201.966,51.467 201.14,50.6409 201.14,49.634 C201.14,48.626 201.966,47.8 202.973,47.8 L224.973,47.8 C225.98,47.8 226.806,48.626 226.806,49.634 C226.806,50.6409 225.98,51.467 224.973,51.467 Z" id="Path" stroke="#275E5E" fill="#F9B233" fill-rule="nonzero"></path>
            <path d="M224.973,51.967 L202.973,51.967 C201.69,51.967 200.64,50.917 200.64,49.634 C200.64,48.35 201.69,47.3 202.973,47.3 L224.973,47.3 C226.256,47.3 227.306,48.35 227.306,49.634 C227.306,50.917 226.256,51.967 224.973,51.967 Z" id="Path" stroke="#548080" stroke-width="2"></path>
            <path d="M407.513,67.8199 L398.846,67.8199 C397.839,67.8199 397.013,66.9939 397.013,65.9871 C397.013,64.979 397.839,64.153 398.846,64.153 L407.513,64.153 C408.52,64.153 409.346,64.979 409.346,65.9871 C409.346,66.9947 408.52,67.8199 407.513,67.8199 Z" id="Path" stroke="#275E5E" fill="#F39200" fill-rule="nonzero"></path>
            <path d="M407.513,68.3199 L398.846,68.3199 C397.563,68.3199 396.513,67.2701 396.513,65.9871 C396.513,64.7031 397.563,63.653 398.846,63.653 L407.513,63.653 C408.796,63.653 409.846,64.7031 409.846,65.9871 C409.846,67.2711 408.796,68.3199 407.513,68.3199 Z" id="Path" stroke="#548080" stroke-width="2"></path>
            <path d="M762.442,67.301 L753.857,67.301 C752.85,67.301 752.024,66.474 752.024,65.468 C752.024,64.46 752.85,63.634 753.857,63.634 L762.442,63.634 C763.449,63.634 764.275,64.46 764.275,65.468 C764.275,66.4742 763.45,67.301 762.442,67.301 Z" id="Path" stroke="#275E5E" fill="#F39200" fill-rule="nonzero"></path>
            <path d="M762.442,67.801 L753.857,67.801 C752.574,67.801 751.524,66.75 751.524,65.468 C751.524,64.184 752.574,63.134 753.857,63.134 L762.442,63.134 C763.725,63.134 764.775,64.184 764.775,65.468 C764.775,66.75 763.726,67.801 762.442,67.801 Z" id="Path" stroke="#548080" stroke-width="2"></path>
            <path d="M762.442,160.132 L753.857,160.132 C752.85,160.132 752.024,159.306 752.024,158.299 C752.024,157.291 752.85,156.465 753.857,156.465 L762.442,156.465 C763.449,156.465 764.275,157.291 764.275,158.299 C764.275,159.306 763.45,160.132 762.442,160.132 Z" id="Path" stroke="#275E5E" fill="#F39200" fill-rule="nonzero"></path>
            <path d="M762.442,160.632 L753.857,160.632 C752.574,160.632 751.524,159.582 751.524,158.299 C751.524,157.015 752.574,155.965 753.857,155.965 L762.442,155.965 C763.725,155.965 764.775,157.015 764.775,158.299 C764.775,159.582 763.726,160.632 762.442,160.632 Z" id="Path" stroke="#548080" stroke-width="2"></path>
            <path d="M407.513,160.219 L398.846,160.219 C397.839,160.219 397.013,159.392 397.013,158.386 C397.013,157.378 397.839,156.552 398.846,156.552 L407.513,156.552 C408.52,156.552 409.346,157.378 409.346,158.386 C409.346,159.392 408.52,160.219 407.513,160.219 Z" id="Path" stroke="#275E5E" fill="#F39200" fill-rule="nonzero"></path>
            <path d="M407.513,160.719 L398.846,160.719 C397.563,160.719 396.513,159.668 396.513,158.386 C396.513,157.102 397.563,156.052 398.846,156.052 L407.513,156.052 C408.796,156.052 409.846,157.102 409.846,158.386 C409.846,159.668 408.796,160.719 407.513,160.719 Z" id="Path" stroke="#548080" stroke-width="2"></path>
            <path d="M24.473,205.967 L15.806,205.967 C14.7992,205.967 13.973,205.141 13.973,204.134 C13.973,203.126 14.7993,202.3 15.806,202.3 L24.473,202.3 C25.4797,202.3 26.306,203.126 26.306,204.134 C26.306,205.141 25.4799,205.967 24.473,205.967 Z" id="Path" stroke="#275E5E" fill="#F39200" fill-rule="nonzero"></path>
            <path d="M24.473,206.467 L15.806,206.467 C14.523,206.467 13.473,205.417 13.473,204.134 C13.473,202.85 14.523,201.8 15.806,201.8 L24.473,201.8 C25.756,201.8 26.806,202.85 26.806,204.134 C26.806,205.417 25.756,206.467 24.473,206.467 Z" id="Path" stroke="#548080" stroke-width="2"></path>
            <path d="M531.844,6.84204 L531.844,25.26 C531.844,28.964 534.847,31.967 538.551,31.967 L705.265,31.967 C708.97,31.967 711.972,28.964 711.972,25.26 L711.972,3.84204" id="Path" stroke="#548080" stroke-width="2" stroke-linecap="round" stroke-linejoin="round"></path>
            <polyline id="Path" stroke="#548080" stroke-width="3" stroke-linecap="round" stroke-linejoin="round" points="67.134 66.186 67.134 84.854 35.061 93.108"></polyline>
            <path d="M35.228,120.887 C32.2962,120.887 29.895,118.486 29.895,115.554 L29.895,97.22 C29.895,94.2881 32.2962,91.887 35.228,91.887 C38.1599,91.887 40.561,94.2881 40.561,97.22 L40.561,115.554 C40.561,118.486 38.1599,120.887 35.228,120.887 Z" id="Path" stroke="#275E5E" fill="#3C3C3B" fill-rule="nonzero"></path>
            <path d="M35.228,121.387 C32.02,121.387 29.395,118.762 29.395,115.554 L29.395,97.22 C29.395,94.012 32.02,91.387 35.228,91.387 C38.436,91.387 41.061,94.012 41.061,97.22 L41.061,115.554 C41.061,118.762 38.436,121.387 35.228,121.387 Z" id="Path" stroke="#548080" stroke-width="2"></path>
            <path d="M73.717,70.465 L61.71,70.465 C59.7102,70.465 58.089,68.8439 58.089,66.843 L58.089,65.837 C58.089,63.837 59.7103,62.215 61.71,62.215 L73.717,62.215 C75.7168,62.215 77.339,63.8372 77.339,65.837 L77.339,66.843 C77.339,68.8439 75.7179,70.465 73.717,70.465 Z" id="Path" stroke="#275E5E" fill="#3C3C3B" fill-rule="nonzero"></path>
            <path d="M73.717,70.965 L61.71,70.965 C59.434,70.965 57.589,69.12 57.589,66.843 L57.589,65.837 C57.589,63.561 59.434,61.715 61.71,61.715 L73.717,61.715 C75.993,61.715 77.839,63.561 77.839,65.837 L77.839,66.843 C77.839,69.12 75.994,70.965 73.717,70.965 Z" id="Path" stroke="#548080" stroke-width="2"></path>
            <line x1="241.301" y1="75.09" x2="241.301" y2="149.09" id="Path" stroke="#548080" stroke-width="3" stroke-linecap="round" stroke-linejoin="round"></line>
            <line x1="347.967" y1="75.09" x2="347.967" y2="149.09" id="Path" stroke="#548080" stroke-width="3" stroke-linecap="round" stroke-linejoin="round"></line>
            <line x1="456.634" y1="75.09" x2="456.634" y2="149.09" id="Path" stroke="#548080" stroke-width="3" stroke-linecap="round" stroke-linejoin="round"></line>
            <line x1="563.968" y1="75.09" x2="563.968" y2="149.09" id="Path" stroke="#548080" stroke-width="3" stroke-linecap="round" stroke-linejoin="round"></line>
            <line x1="672.634" y1="75.09" x2="672.634" y2="149.09" id="Path" stroke="#548080" stroke-width="3" stroke-linecap="round" stroke-linejoin="round"></line>
            <path d="M117.064,61.467 L100.881,61.467 C99.137,61.467 97.723,60.0528 97.723,58.309 L97.723,49.126 C97.723,47.381 99.137,45.967 100.881,45.967 L117.064,45.967 C118.809,45.967 120.223,47.382 120.223,49.126 L120.223,58.309 C120.223,60.0527 118.809,61.467 117.064,61.467 Z" id="Path" stroke="#275E5E" fill="#F0FFFF" fill-rule="nonzero"></path>
            <path d="M117.064,61.967 L100.881,61.967 C98.861,61.967 97.223,60.329 97.223,58.309 L97.223,49.126 C97.223,47.105 98.861,45.467 100.881,45.467 L117.064,45.467 C119.085,45.467 120.723,47.106 120.723,49.126 L120.723,58.309 C120.723,60.329 119.085,61.967 117.064,61.967 Z" id="Path" stroke="#548080" stroke-width="2"></path>
            <path d="M799.229,190.467 L783.045,190.467 C781.301,190.467 779.887,189.053 779.887,187.309 L779.887,148.076 C779.887,146.331 781.302,144.917 783.045,144.917 L799.229,144.917 C800.974,144.917 802.387,146.331 802.387,148.076 L802.387,187.309 C802.387,189.053 800.973,190.467 799.229,190.467 Z" id="Path" stroke="#275E5E" fill="#F0FFFF" fill-rule="nonzero"></path>
            <path d="M799.229,190.967 L783.045,190.967 C781.025,190.967 779.387,189.329 779.387,187.309 L779.387,148.076 C779.387,146.055 781.026,144.417 783.045,144.417 L799.229,144.417 C801.25,144.417 802.887,146.055 802.887,148.076 L802.887,187.309 C802.887,189.329 801.249,190.967 799.229,190.967 Z" id="Path" stroke="#548080" stroke-width="2"></path>
            <line x1="116.306" y1="189.967" x2="11.973" y2="189.967" id="Path" stroke="#275E5E"></line>
            <line x1="116.306" y1="189.967" x2="11.973" y2="189.967" id="Path" stroke="#548080" stroke-width="2" stroke-linecap="round"></line>
            <line x1="130.973" y1="189.967" x2="123.306" y2="189.967" id="Path" stroke="#275E5E"></line>
            <line x1="130.973" y1="189.967" x2="123.306" y2="189.967" id="Path" stroke="#548080" stroke-width="2" stroke-linecap="round"></line>
            <line x1="240.973" y1="189.967" x2="234.306" y2="189.967" id="Path" stroke="#275E5E"></line>
            <line x1="240.973" y1="189.967" x2="234.306" y2="189.967" id="Path" stroke="#275E5E" stroke-width="1.5" stroke-linecap="round"></line>
            <line x1="597.306" y1="189.967" x2="246.972" y2="189.967" id="Path" stroke="#275E5E"></line>
            <line x1="597.306" y1="189.967" x2="246.972" y2="189.967" id="Path" stroke="#548080" stroke-width="2" stroke-linecap="round"></line>
            <line x1="705.14" y1="189.967" x2="699.64" y2="189.967" id="Path" stroke="#275E5E"></line>
            <line x1="705.14" y1="189.967" x2="699.64" y2="189.967" id="Path" stroke="#548080" stroke-width="2" stroke-linecap="round"></line>
            <line x1="768.973" y1="189.967" x2="710.64" y2="189.967" id="Path" stroke="#275E5E"></line>
            <line x1="768.973" y1="189.967" x2="710.64" y2="189.967" id="Path" stroke="#548080" stroke-width="2" stroke-linecap="round"></line>
            <path d="M758.106,149.09 L146.829,149.09 C144.42,149.09 142.467,147.137 142.467,144.73 L142.467,79.452 C142.467,77.044 144.42,75.0909 146.829,75.0909 L758.106,75.0909 C760.514,75.0909 762.466,77.044 762.466,79.452 L762.466,144.73 C762.466,147.137 760.515,149.09 758.106,149.09 Z" id="Path" stroke="#548080" stroke-width="3" stroke-linecap="round" stroke-linejoin="round"></path>
        </g>
    </g>
</svg>