<svg id="Layer_1" data-name="Layer 1" xmlns="http://www.w3.org/2000/svg" viewBox="0 0 96.37 109.1"><defs><style>.cls-1{fill:#4c8c40;}.cls-2{fill:#98c93f;}</style></defs><title>GreenLeaf [Converted]</title><path class="cls-1" d="M86.07,38.27H44.71a8.64,8.64,0,0,0-7.93,5.2c12.14,2.18,33.61,8,44.2,23,5.7,8,7.49,17.54,5.37,28.23A8.65,8.65,0,0,0,94.74,86V46.94A8.67,8.67,0,0,0,86.07,38.27Z"/><path class="cls-1" d="M41.63,86.08A68.44,68.44,0,0,1,36.5,75.35a30,30,0,0,1,10.85-58H87.71A8.66,8.66,0,1,0,87.71,0H47.35a47.35,47.35,0,1,0,0,94.69H49A35.83,35.83,0,0,1,41.63,86.08Z"/><path class="cls-2" d="M47.29,62.37c33.84,16,33.49,34.37,33.49,34.37,12-44.59-53.22-49.52-53.22-49.52,9.51,4.4,9.51,21.67,18.32,36.3s28,17.09,28,17.09A20.33,20.33,0,0,1,75,109.1h3.6C77.89,81.09,47.29,62.37,47.29,62.37Z"/></svg>