<?xml version="1.0" encoding="UTF-8"?>
<svg width="28px" height="15px" viewBox="0 0 28 15" version="1.1" xmlns="http://www.w3.org/2000/svg" xmlns:xlink="http://www.w3.org/1999/xlink">
    <!-- Generator: Sketch 61 (89581) - https://sketch.com -->
    <title>Untitled</title>
    <desc>Created with Sketch.</desc>
    <g id="Page-1" stroke="none" stroke-width="1" fill="none" fill-rule="evenodd">
        <g id="Bus" transform="translate(1.000000, 1.000000)">
            <path d="M0.323,4.502 C0.323,4.502 2.601,4.339 3.803,4.908 C4.26,5.125 4.62,5.245 4.801,5.719 C5.608,7.839 7.639,12.982 15.671,11.832 C23.327,10.734 25.945,12.801 25.945,12.801 C25.945,12.801 23.298,5.409 16.723,1.779 C10.15,-1.851 6.757,1.501 4.934,2.057 C4.934,2.057 12.521,3.036 15.069,5.83 C15.07,5.83 3.921,2.936 0.323,4.502 Z" id="Path" fill="#98C93F" fill-rule="nonzero"></path>
            <path d="M0.323,4.502 C0.323,4.502 2.601,4.339 3.803,4.908 C4.26,5.125 4.62,5.245 4.801,5.719 C5.608,7.839 7.639,12.982 15.671,11.832 C23.327,10.734 25.945,12.801 25.945,12.801 C25.945,12.801 23.298,5.409 16.723,1.779 C10.15,-1.851 6.757,1.501 4.934,2.057 C4.934,2.057 12.521,3.036 15.069,5.83 C15.07,5.83 3.921,2.936 0.323,4.502 Z" id="Path" stroke="#548080" stroke-width="1.5" stroke-linecap="round" stroke-linejoin="round"></path>
        </g>
    </g>
</svg>