<?xml version="1.0" encoding="UTF-8"?>
<svg width="24px" height="25px" viewBox="0 0 24 25" version="1.1" xmlns="http://www.w3.org/2000/svg" xmlns:xlink="http://www.w3.org/1999/xlink">
    <!-- Generator: Sketch 61 (89581) - https://sketch.com -->
    <title>Untitled</title>
    <desc>Created with Sketch.</desc>
    <g id="Page-1" stroke="none" stroke-width="1" fill="none" fill-rule="evenodd">
        <g id="Bus" transform="translate(0.000000, 1.000000)">
            <path d="M0.845,22.77 C0.845,22.77 3.297,21.742 4.245,20.516 C4.606,20.05 4.917,19.737 4.855,19.15 C4.577,16.523 3.979,10.112 12.925,7.079 C21.454,4.186 23.086,0.663 23.086,0.663 C23.086,0.663 24.226,9.732 19.312,16.964 C14.397,24.196 9.109,22.502 6.921,22.883 C6.921,22.883 14.285,17.872 15.459,13.627 C15.46,13.626 5.406,22.503 0.845,22.77 Z" id="Path" fill="#98C93F" fill-rule="nonzero"></path>
            <path d="M0.845,22.77 C0.845,22.77 3.297,21.742 4.245,20.516 C4.606,20.05 4.917,19.737 4.855,19.15 C4.577,16.523 3.979,10.112 12.925,7.079 C21.454,4.186 23.086,0.663 23.086,0.663 C23.086,0.663 24.226,9.732 19.312,16.964 C14.397,24.196 9.109,22.502 6.921,22.883 C6.921,22.883 14.285,17.872 15.459,13.627 C15.46,13.626 5.406,22.503 0.845,22.77 Z" id="Path" stroke="#548080" stroke-width="1.5" stroke-linecap="round" stroke-linejoin="round"></path>
        </g>
    </g>
</svg>