<?xml version="1.0" encoding="UTF-8"?>
<svg width="28px" height="14px" viewBox="0 0 28 14" version="1.1" xmlns="http://www.w3.org/2000/svg" xmlns:xlink="http://www.w3.org/1999/xlink">
    <!-- Generator: Sketch 61 (89581) - https://sketch.com -->
    <title>Untitled</title>
    <desc>Created with Sketch.</desc>
    <g id="Page-1" stroke="none" stroke-width="1" fill="none" fill-rule="evenodd">
        <g id="Bus" transform="translate(1.000000, 1.000000)">
            <path d="M0.372,6.699 C0.372,6.699 2.527,6.19 3.766,6.55 C4.238,6.686 4.6,6.745 4.846,7.17 C5.947,9.075 8.685,13.683 16.196,11.34 C23.353,9.107 26.179,10.678 26.179,10.678 C26.179,10.678 22.5,4.014 15.648,1.556 C8.796,-0.902 6.066,2.829 4.408,3.645 C4.408,3.645 11.821,3.41 14.691,5.691 C14.69,5.69 3.573,4.643 0.372,6.699 Z" id="Path" fill="#98C93F" fill-rule="nonzero"></path>
            <path d="M0.372,6.699 C0.372,6.699 2.527,6.19 3.766,6.55 C4.238,6.686 4.6,6.745 4.846,7.17 C5.947,9.075 8.685,13.683 16.196,11.34 C23.353,9.107 26.179,10.678 26.179,10.678 C26.179,10.678 22.5,4.014 15.648,1.556 C8.796,-0.902 6.066,2.829 4.408,3.645 C4.408,3.645 11.821,3.41 14.691,5.691 C14.69,5.69 3.573,4.643 0.372,6.699 Z" id="Path" stroke="#548080" stroke-width="1.5" stroke-linecap="round" stroke-linejoin="round"></path>
        </g>
    </g>
</svg>