<?xml version="1.0" encoding="UTF-8"?>
<svg width="385px" height="384px" viewBox="0 0 385 384" version="1.1" xmlns="http://www.w3.org/2000/svg" xmlns:xlink="http://www.w3.org/1999/xlink">
    <!-- Generator: Sketch 61 (89581) - https://sketch.com -->
    <title>Untitled</title>
    <desc>Created with Sketch.</desc>
    <g id="Page-1" stroke="none" stroke-width="1" fill="none" fill-rule="evenodd" stroke-linecap="round" stroke-linejoin="round">
        <g id="Windmill" transform="translate(1.000000, 1.000000)" stroke="#275E5E" stroke-width="3">
            <path d="M379.332,225.354 C380.14,220.836 380.789,216.263 381.272,211.643" id="Path"></path>
            <path d="M355.832,288.573 C365.061,272.984 372.133,255.968 376.639,237.935" id="Path"></path>
            <path d="M335.688,316.507 C337.75,314.131 339.755,311.703 341.699,309.227" id="Path"></path>
            <path d="M264.671,366.957 C289.604,356.373 312.103,340.939 330.149,322.685" id="Path"></path>
            <path d="M216.739,380.456 C221.096,379.829 225.423,379.046 229.71,378.114" id="Path"></path>
            <path d="M157.171,379.172 C160.581,379.794 164.023,380.325 167.494,380.763" id="Path"></path>
            <path d="M104.229,361.124 C116.462,367.439 129.466,372.472 143.063,376.04" id="Path"></path>
            <path d="M10.8149,252.447 C18.6999,275.867 31.0079,297.254 46.7469,315.613" id="Path"></path>
            <path d="M1.0071,198.354 C1.2631,205.656 1.9291,212.853 2.9841,219.923" id="Path"></path>
            <path d="M0.981,185.528 C0.914,187.883 0.8859,188.576 0.8909,190.257" id="Path"></path>
            <path d="M6.767,144.381 C5.071,151.047 3.7259,157.853 2.7529,164.778" id="Path"></path>
            <path d="M86.8469,32.158 C56.4239,52.192 32.0779,80.704 17.1689,114.33" id="Path"></path>
            <path d="M111.42,18.4609 C106.132,20.9149 100.975,23.6049 95.963,26.5159" id="Path"></path>
            <path d="M186.247,0.9092 C173.276,1.2672 160.628,2.9211 148.429,5.7441" id="Path"></path>
            <path d="M252.042,10.61 C247.29,9.024 242.455,7.619 237.545,6.405" id="Path"></path>
            <path d="M381.771,176.908 C381.375,171.711 380.773,166.57 379.969,161.496 C377.382,145.154 372.719,129.503 366.259,114.82 C346.879,70.7719 311.324,35.4479 267.116,16.3669" id="Path"></path>
        </g>
    </g>
</svg>