<?xml version="1.0" encoding="UTF-8"?>
<svg width="328px" height="322px" viewBox="0 0 328 322" version="1.1" xmlns="http://www.w3.org/2000/svg" xmlns:xlink="http://www.w3.org/1999/xlink">
    <!-- Generator: Sketch 61 (89581) - https://sketch.com -->
    <title>Untitled</title>
    <desc>Created with Sketch.</desc>
    <g id="Page-1" stroke="none" stroke-width="1" fill="none" fill-rule="evenodd" stroke-linecap="round" stroke-linejoin="round">
        <g id="Windmill" transform="translate(1.000000, 2.000000)" stroke="#275E5E" stroke-width="3">
            <path d="M2.9061,132.234 C2.2181,136.073 1.6681,139.96 1.2571,143.887" id="Path"></path>
            <path d="M40.001,54.757 C38.248,56.777 36.5441,58.84 34.8921,60.945" id="Path"></path>
            <path d="M100.364,11.877 C79.172,20.873 60.049,33.989 44.71,49.506" id="Path"></path>
            <path d="M141.103,0.4019 C137.4,0.9349 133.723,1.5998 130.079,2.3918" id="Path"></path>
            <path d="M236.732,16.834 C226.335,11.466 215.282,7.189 203.724,4.156" id="Path"></path>
            <path d="M316.131,109.205 C309.429,89.299 298.967,71.122 285.59,55.517" id="Path"></path>
            <path d="M324.489,166.083 C324.546,164.082 324.57,163.493 324.566,162.064" id="Path"></path>
            <path d="M319.572,201.058 C321.013,195.392 322.156,189.607 322.983,183.721" id="Path"></path>
            <path d="M251.507,296.442 C263.1,288.808 273.653,279.725 282.913,269.452" id="Path"></path>
            <path d="M230.62,308.084 C235.115,305.998 239.498,303.713 243.759,301.239" id="Path"></path>
            <path d="M111.097,314.757 C115.136,316.106 119.246,317.299 123.419,318.331" id="Path"></path>
            <path d="M28.7021,252.557 C32.2621,257.746 36.1171,262.719 40.2421,267.449 C56.0661,285.597 75.867,300.188 98.286,309.864" id="Path"></path>
            <path d="M14.0181,226.183 C15.1181,228.683 16.2791,231.15 17.5001,233.582" id="Path"></path>
            <path d="M0.833,173.41 C1.169,177.828 1.681,182.197 2.364,186.509" id="Path"></path>
        </g>
    </g>
</svg>