<svg width="86px" height="86px" viewBox="0 0 86 86" version="1.1" 
    xmlns="http://www.w3.org/2000/svg" 
    xmlns:xlink="http://www.w3.org/1999/xlink">
    <g id="Page-1" stroke="none" stroke-width="1" fill="none" fill-rule="evenodd">
        <g id="tree" fill="#ffffff">
            <path d="M42.225,9.748 L42.488,9.509 C43.777,8.34 44.514,6.673 44.514,4.935 C44.514,3.197 43.777,1.529 42.488,0.361 L42.225,0.12 L41.961,0.36 C40.673,1.528 39.934,3.196 39.934,4.934 C39.934,6.672 40.673,8.339 41.961,9.508 L42.225,9.748 Z" id="Path"></path>
            <path d="M26.92,16.571 L27.274,16.612 L27.35,16.264 C27.717,14.565 27.35,12.779 26.34,11.364 C25.329,9.95 23.761,9.023 22.033,8.819 L21.679,8.777 L21.604,9.125 C21.235,10.824 21.604,12.61 22.612,14.025 C23.623,15.44 25.193,16.369 26.92,16.571 Z" id="Path"></path>
            <path d="M9.123,24.009 C10.08,24.579 11.171,24.881 12.279,24.881 C12.893,24.881 13.501,24.789 14.09,24.61 L14.43,24.505 L14.361,24.158 C14.014,22.452 12.96,20.965 11.466,20.075 C9.98,19.19 8.151,18.971 6.499,19.474 L6.158,19.578 L6.229,19.927 C6.575,21.632 7.631,23.119 9.123,24.009 Z" id="Path"></path>
            <path d="M4.226,34.664 C4.821,34.797 5.428,34.844 6.032,34.799 C7.144,34.717 8.216,34.332 9.133,33.689 L9.424,33.483 L9.248,33.173 C8.389,31.661 6.924,30.576 5.227,30.195 C3.534,29.815 1.734,30.176 0.32,31.173 L0.03,31.377 L0.205,31.687 C1.063,33.198 2.529,34.283 4.226,34.664 Z" id="Path"></path>
            <path d="M10.939,45.463 L10.667,45.234 C9.333,44.116 7.587,43.611 5.86,43.845 C4.137,44.078 2.585,45.035 1.6,46.47 L1.399,46.764 L1.672,46.992 C2.849,47.98 4.342,48.494 5.873,48.434 C6.074,48.426 6.277,48.409 6.477,48.381 C8.199,48.147 9.751,47.19 10.737,45.756 L10.939,45.463 Z" id="Path"></path>
            <path d="M23.294,53.989 C21.806,54.886 20.76,56.38 20.422,58.086 L20.353,58.437 L20.695,58.539 C21.648,58.824 22.666,58.876 23.638,58.688 C24.351,58.551 25.032,58.291 25.659,57.912 C27.147,57.016 28.195,55.521 28.531,53.815 L28.601,53.464 L28.259,53.362 C26.605,52.868 24.777,53.097 23.294,53.989 Z" id="Path"></path>
            <path d="M41.416,29.171 L41.131,29.033 L40.968,29.304 C39.863,31.13 39.578,33.351 40.188,35.396 C40.797,37.44 42.251,39.142 44.175,40.067 L44.46,40.204 L44.623,39.933 C45.727,38.108 46.013,35.887 45.402,33.843 C44.794,31.797 43.341,30.095 41.416,29.171 Z" id="Path"></path>
            <path d="M43.962,14.5 L43.799,14.236 L43.522,14.373 C41.644,15.301 40.236,16.984 39.659,18.997 C39.083,21.009 39.385,23.184 40.488,24.963 L40.651,25.229 L40.927,25.09 C42.806,24.164 44.213,22.48 44.79,20.467 C45.367,18.455 45.064,16.281 43.962,14.5 Z" id="Path"></path>
            <path d="M33.166,44.981 C34.144,44.903 35.1,44.689 36.006,44.342 L36.353,44.209 L36.244,43.896 C35.503,41.785 33.765,40.053 31.474,39.149 C29.197,38.247 26.511,38.246 24.194,39.131 L23.848,39.263 L23.957,39.575 C24.698,41.688 26.436,43.42 28.726,44.324 C30.11,44.874 31.646,45.101 33.166,44.981 Z" id="Path"></path>
            <path d="M20.188,50.739 C20.309,50.732 20.431,50.724 20.554,50.711 C22.696,50.499 24.66,49.385 25.944,47.655 L26.157,47.37 L25.892,47.131 C24.283,45.676 22.191,44.979 20.007,45.193 C17.865,45.406 15.901,46.519 14.617,48.249 L14.405,48.534 L14.668,48.773 C16.188,50.146 18.148,50.843 20.188,50.739 Z" id="Path"></path>
            <path d="M23.115,33.885 L23.436,33.734 L23.316,33.398 C22.588,31.371 21.032,29.735 19.044,28.911 C17.517,28.277 15.863,28.153 14.264,28.554 C13.78,28.675 13.303,28.845 12.851,29.06 L12.529,29.21 L12.648,29.545 C13.376,31.571 14.932,33.208 16.919,34.034 C18.448,34.668 20.101,34.79 21.7,34.391 C22.186,34.268 22.661,34.098 23.115,33.885 Z" id="Path"></path>
            <path d="M19.4,40.503 L19.653,40.266 L19.441,39.992 C18.158,38.327 16.223,37.276 14.131,37.107 C12.525,36.976 10.951,37.357 9.588,38.207 C9.174,38.465 8.782,38.766 8.426,39.099 L8.174,39.337 L8.385,39.611 C9.666,41.274 11.602,42.328 13.696,42.498 C15.302,42.629 16.873,42.247 18.239,41.397 C18.652,41.138 19.044,40.837 19.4,40.503 Z" id="Path"></path>
            <path d="M19.116,23.086 C20.505,24.319 22.291,25.007 24.146,25.019 C24.147,25.019 24.147,25.019 24.147,25.019 C24.434,25.022 24.728,25.007 25.014,24.976 L25.368,24.938 L25.364,24.582 C25.343,22.428 24.408,20.373 22.8,18.942 C21.411,17.707 19.624,17.019 17.768,17.007 C17.48,17.005 17.188,17.02 16.902,17.05 L16.548,17.088 L16.551,17.443 C16.571,19.596 17.506,21.652 19.116,23.086 Z" id="Path"></path>
            <path d="M35.392,18.142 L35.693,18.328 L35.911,18.055 C37.231,16.406 37.774,14.284 37.401,12.231 C37.028,10.176 35.769,8.362 33.949,7.248 L33.648,7.064 L33.43,7.335 C32.111,8.984 31.567,11.106 31.939,13.16 C32.312,15.214 33.57,17.029 35.392,18.142 Z" id="Path"></path>
            <path d="M26.893,29.43 L26.576,29.467 L26.584,29.735 C26.646,31.536 27.618,33.233 29.255,34.391 C30.835,35.506 32.846,36.026 34.919,35.853 C35.015,35.845 35.11,35.835 35.205,35.827 L35.522,35.789 L35.512,35.522 C35.453,33.72 34.48,32.023 32.843,30.867 C31.189,29.698 29.048,29.188 26.893,29.43 Z" id="Path"></path>
            <path d="M29.033,19.565 L28.735,19.535 L28.689,19.779 C28.373,21.438 28.914,23.189 30.172,24.583 C31.386,25.927 33.115,26.814 35.048,27.083 C35.135,27.096 35.224,27.106 35.314,27.115 L35.611,27.148 L35.658,26.902 C35.973,25.244 35.432,23.493 34.174,22.098 C32.903,20.694 31.052,19.788 29.033,19.565 Z" id="Path"></path>
            <path d="M59.107,16.571 L58.754,16.612 L58.679,16.264 C58.309,14.565 58.679,12.779 59.688,11.364 C60.699,9.95 62.267,9.023 63.994,8.819 L64.348,8.777 L64.423,9.125 C64.792,10.824 64.424,12.61 63.414,14.025 C62.403,15.44 60.835,16.369 59.107,16.571 Z" id="Path"></path>
            <path d="M76.905,24.009 C75.949,24.579 74.857,24.881 73.748,24.881 C73.135,24.881 72.526,24.789 71.937,24.61 L71.598,24.505 L71.668,24.158 C72.013,22.452 73.068,20.965 74.563,20.075 C76.047,19.19 77.876,18.971 79.529,19.474 L79.87,19.578 L79.799,19.927 C79.454,21.632 78.398,23.119 76.905,24.009 Z" id="Path"></path>
            <path d="M81.803,34.664 C81.208,34.797 80.6,34.844 79.998,34.799 C78.885,34.717 77.813,34.332 76.895,33.689 L76.604,33.483 L76.781,33.173 C77.641,31.661 79.106,30.576 80.802,30.195 C82.494,29.815 84.294,30.176 85.708,31.173 L86,31.377 L85.823,31.687 C84.964,33.198 83.5,34.283 81.803,34.664 Z" id="Path"></path>
            <path d="M75.09,45.463 L75.362,45.234 C76.695,44.116 78.442,43.611 80.169,43.845 C81.891,44.078 83.442,45.035 84.428,46.47 L84.629,46.764 L84.357,46.992 C83.178,47.98 81.687,48.494 80.155,48.434 C79.955,48.426 79.751,48.409 79.551,48.381 C77.828,48.147 76.276,47.19 75.29,45.756 L75.09,45.463 Z" id="Path"></path>
            <path d="M62.735,53.989 C64.222,54.886 65.269,56.38 65.605,58.086 L65.674,58.437 L65.333,58.539 C64.379,58.824 63.361,58.876 62.389,58.688 C61.675,58.551 60.997,58.291 60.37,57.912 C58.88,57.016 57.834,55.521 57.496,53.815 L57.427,53.464 L57.769,53.362 C59.423,52.868 61.252,53.097 62.735,53.989 Z" id="Path"></path>
            <path d="M52.861,44.981 C51.884,44.903 50.929,44.689 50.022,44.342 L49.675,44.209 L49.785,43.896 C50.526,41.785 52.264,40.053 54.554,39.149 C56.831,38.247 59.518,38.246 61.833,39.131 L62.179,39.263 L62.071,39.575 C61.33,41.688 59.592,43.42 57.302,44.324 C55.919,44.874 54.382,45.101 52.861,44.981 Z" id="Path"></path>
            <path d="M65.84,50.739 C65.719,50.732 65.596,50.724 65.474,50.711 C63.332,50.499 61.367,49.385 60.084,47.655 L59.871,47.37 L60.135,47.131 C61.746,45.676 63.838,44.979 66.022,45.193 C68.164,45.406 70.127,46.519 71.412,48.249 L71.624,48.534 L71.36,48.773 C69.84,50.146 67.881,50.843 65.84,50.739 C65.841,50.739 65.841,50.739 65.84,50.739 Z" id="Path"></path>
            <path d="M62.914,33.885 L62.593,33.734 L62.712,33.398 C63.441,31.371 64.996,29.735 66.983,28.911 C68.511,28.277 70.165,28.153 71.763,28.554 C72.249,28.675 72.724,28.845 73.178,29.06 L73.499,29.21 L73.38,29.545 C72.653,31.571 71.097,33.208 69.108,34.034 C67.581,34.668 65.927,34.79 64.329,34.391 C63.843,34.268 63.367,34.098 62.914,33.885 Z" id="Path"></path>
            <path d="M66.627,40.503 L66.376,40.266 L66.587,39.992 C67.869,38.327 69.805,37.276 71.898,37.107 C73.504,36.976 75.076,37.357 76.441,38.207 C76.854,38.465 77.244,38.766 77.602,39.099 L77.855,39.337 L77.643,39.611 C76.362,41.274 74.426,42.328 72.333,42.498 C70.726,42.629 69.155,42.247 67.789,41.397 C67.376,41.138 66.984,40.837 66.627,40.503 Z" id="Path"></path>
            <path d="M66.913,23.086 C65.524,24.319 63.737,25.007 61.883,25.019 C61.592,25.022 61.301,25.007 61.014,24.976 L60.659,24.938 L60.663,24.582 C60.686,22.428 61.62,20.373 63.228,18.942 C64.617,17.707 66.404,17.019 68.26,17.007 C68.549,17.005 68.84,17.02 69.127,17.05 L69.481,17.088 L69.477,17.443 C69.456,19.596 68.521,21.652 66.913,23.086 Z" id="Path"></path>
            <path d="M50.637,18.142 L50.336,18.328 L50.118,18.055 C48.798,16.406 48.255,14.284 48.628,12.231 C49.001,10.176 50.26,8.362 52.079,7.248 L52.381,7.064 L52.599,7.335 C53.918,8.984 54.461,11.106 54.089,13.16 C53.717,15.214 52.457,17.029 50.637,18.142 Z" id="Path"></path>
            <path d="M59.136,29.43 L59.453,29.467 L59.445,29.735 C59.383,31.536 58.411,33.233 56.773,34.391 C55.194,35.506 53.183,36.026 51.111,35.853 C51.013,35.845 50.919,35.835 50.823,35.827 L50.507,35.789 L50.516,35.522 C50.577,33.72 51.55,32.023 53.186,30.867 C54.838,29.698 56.98,29.188 59.136,29.43 Z" id="Path"></path>
            <path d="M55.552,20.532 L55.878,20.538 L55.897,20.809 C56.022,22.649 55.206,24.475 53.658,25.818 C52.165,27.115 50.174,27.85 48.045,27.886 C47.949,27.887 47.85,27.887 47.752,27.886 L47.426,27.882 L47.406,27.611 C47.284,25.772 48.101,23.945 49.648,22.601 C51.209,21.245 53.334,20.509 55.552,20.532 Z" id="Path"></path>
            <path d="M54.489,48.278 C54.328,48.307 54.145,48.366 53.956,48.44 C52.298,48.976 47.283,50.96 43.015,55.793 C38.745,50.96 33.73,48.977 32.074,48.44 C31.883,48.366 31.701,48.307 31.541,48.278 C30.824,48.013 29.881,49.513 30.78,50.132 C33.877,52.173 36.889,54.672 37.829,59.528 C38.403,62.499 38.307,66.502 38.228,70.314 C38.093,76.853 36.934,83.223 31.538,85.709 C33.04,86.102 37.398,86.464 43.016,82.652 C48.631,86.464 52.991,86.101 54.494,85.709 C49.097,83.224 47.937,76.854 47.802,70.314 C47.726,66.502 47.627,62.499 48.202,59.528 C49.141,54.673 52.153,52.174 55.252,50.132 C56.149,49.514 55.206,48.014 54.489,48.278 Z" id="Path"></path>
            <circle id="Oval" cx="43.015" cy="47.274" r="3.122"></circle>
        </g>
    </g>
</svg>