<svg width="81" height="61" viewBox="0 0 81 61" fill="none" xmlns="http://www.w3.org/2000/svg">
<path d="M9.43831 12H6.56168C3.50267 12 1 9.74997 1 6.99975C1 4.25005 3.50267 2 6.56168 2H9.43831C12.4973 2 15 4.25005 15 6.99975C15 9.74997 12.4967 12 9.43831 12Z" fill="#275E5E"/>
<path d="M9.43831 12H6.56168C3.50267 12 1 9.74997 1 6.99975C1 4.25005 3.50267 2 6.56168 2H9.43831C12.4973 2 15 4.25005 15 6.99975C15 9.74997 12.4967 12 9.43831 12Z" stroke="#548080" stroke-width="1.5" stroke-miterlimit="10" stroke-linecap="round" stroke-linejoin="round"/>
<path d="M74.4383 11H71.5617C68.5027 11 66 8.74997 66 5.99975C66 3.25005 68.5027 1 71.5617 1H74.4383C77.4973 1 80 3.25005 80 5.99975C80 8.74997 77.4967 11 74.4383 11Z" fill="#275E5E"/>
<path d="M74.4383 11H71.5617C68.5027 11 66 8.74997 66 5.99975C66 3.25005 68.5027 1 71.5617 1H74.4383C77.4973 1 80 3.25005 80 5.99975C80 8.74997 77.4967 11 74.4383 11Z" stroke="#548080" stroke-width="1.5" stroke-miterlimit="10" stroke-linecap="round" stroke-linejoin="round"/>
<path d="M8 7.64199C8 30.5711 8 59 42.0312 59C73.5 59 73.5 30.5711 73.5 7.64197" stroke="#548080" stroke-width="3" stroke-miterlimit="10" stroke-linecap="round" stroke-linejoin="round"/>
</svg>
