<svg width="18" height="18" viewBox="0 0 18 18" fill="none" xmlns="http://www.w3.org/2000/svg">
<path d="M17.0914 2.72571C17.5932 2.22392 17.5932 1.41036 17.0914 0.908571C16.5896 0.406781 15.7761 0.406781 15.2743 0.908571L9 7.18286L2.72572 0.908572C2.22393 0.406782 1.41036 0.406781 0.908571 0.908571C0.406781 1.41036 0.406781 2.22392 0.908571 2.72571L7.18286 9L0.908572 15.2743C0.406782 15.7761 0.406781 16.5896 0.908571 17.0914C1.41036 17.5932 2.22392 17.5932 2.72571 17.0914L9 10.8171L15.2743 17.0914C15.7761 17.5932 16.5896 17.5932 17.0914 17.0914C17.5932 16.5896 17.5932 15.7761 17.0914 15.2743L10.8171 9L17.0914 2.72571Z" fill="#548080"/>
</svg>
