<svg xmlns="http://www.w3.org/2000/svg" viewBox="0 0 232.13 99.93"><defs><style>.cls-1{fill:#4c8c40;}.cls-2{fill:#98c93f;}</style></defs><title>Asset 7</title><g id="Layer_2" data-name="Layer 2"><g id="Logo"><g id="Color_with_horizontal_text" data-name="Color with horizontal text"><path class="cls-1" d="M4.7,51.8C4.7,29.75,19.36,17,37.11,17a28.84,28.84,0,0,1,21,8.63l-7.93,9.64c-3.3-3-6.85-5.29-12.55-5.29-10.23,0-17.5,8-17.5,21.37,0,13.66,6.19,21.61,18.7,21.61a12,12,0,0,0,7-2V59.45h-11V47.18H59.2V77.83c-4.58,4.49-12.66,8-21.94,8C19,85.88,4.7,74.2,4.7,51.8Z" transform="translate(-4.7 -16.95)"/><path class="cls-1" d="M92.64,18.18h18L131.5,84.66H115.59L106.9,51c-1.85-6.65-3.63-14.51-5.4-21.44h-.41c-1.61,7-3.38,14.79-5.23,21.44L87.12,84.66H71.76Zm-7.12,39h32V68.82h-32Z" transform="translate(-4.7 -16.95)"/><path class="cls-1" d="M146.06,18.18h15V84.66h-15Z" transform="translate(-4.7 -16.95)"/><path class="cls-1" d="M197.29,18.18h18l20.88,66.48h-15.9L211.55,51c-1.85-6.65-3.62-14.51-5.4-21.44h-.41c-1.61,7-3.38,14.79-5.23,21.44l-8.73,33.67H176.41Zm-7.11,39h32V68.82h-32Z" transform="translate(-4.7 -16.95)"/><path class="cls-2" d="M8,105.86c0-7.14,4.74-11.28,10.48-11.28a9.32,9.32,0,0,1,6.79,2.8l-2.56,3.12a5.56,5.56,0,0,0-4.06-1.72c-3.31,0-5.67,2.6-5.67,6.92s2,7,6.06,7a3.88,3.88,0,0,0,2.27-.64v-3.72H17.78v-4h7.88v9.92a10.36,10.36,0,0,1-7.09,2.61C12.64,116.89,8,113.11,8,105.86Z" transform="translate(-4.7 -16.95)"/><path class="cls-2" d="M35.55,95h7.74c4.57,0,8.31,1.58,8.31,6.7,0,4.94-3.74,7.07-8.31,7.07H40.41v7.74H35.55Zm7.35,9.91c2.56,0,3.93-1.1,3.93-3.21s-1.37-2.84-3.93-2.84H40.41v6Zm-.5,2.58,3.37-3.11,6.86,12.13H47.19Z" transform="translate(-4.7 -16.95)"/><path class="cls-2" d="M61.22,95H74.7v4.08H66.08v4.32h7.34v4.08H66.08v5h9v4.08H61.22Z" transform="translate(-4.7 -16.95)"/><path class="cls-2" d="M84.75,95H98.23v4.08H89.61v4.32H97v4.08H89.61v5h9v4.08H84.75Z" transform="translate(-4.7 -16.95)"/><path class="cls-2" d="M108.28,95h5l5.61,10.7L121,110.4h.13c-.23-2.27-.62-5.28-.62-7.82V95h4.64v21.51h-5l-5.61-10.72-2.13-4.7h-.13c.23,2.37.62,5.25.62,7.79v7.63h-4.63Z" transform="translate(-4.7 -16.95)"/><path class="cls-2" d="M151.92,99.06H146V95h16.71v4.08h-5.93v17.43h-4.86Z" transform="translate(-4.7 -16.95)"/><path class="cls-2" d="M171.5,95H185v4.08h-8.61v4.32h7.33v4.08h-7.33v5h8.94v4.08H171.5Z" transform="translate(-4.7 -16.95)"/><path class="cls-2" d="M194,105.86c0-7.14,4.71-11.28,10.15-11.28a9.06,9.06,0,0,1,6.47,2.8l-2.56,3.12a5.4,5.4,0,0,0-3.8-1.72c-2.95,0-5.28,2.6-5.28,6.92s2.06,7,5.2,7a5.67,5.67,0,0,0,4.21-2l2.56,3a8.83,8.83,0,0,1-6.94,3.16C198.57,116.89,194,113.11,194,105.86Z" transform="translate(-4.7 -16.95)"/><path class="cls-2" d="M219.68,95h4.87v8.29H232V95h4.87v21.51H232v-9h-7.42v9h-4.87Z" transform="translate(-4.7 -16.95)"/></g></g></g></svg>