<svg width="24" height="18" viewBox="0 0 24 18" fill="none" xmlns="http://www.w3.org/2000/svg">
<path d="M0 16.5789C0 17.3638 0.636227 18 1.42105 18H22.5789C23.3638 18 24 17.3638 24 16.5789C24 15.7941 23.3638 15.1579 22.5789 15.1579H1.42105C0.636227 15.1579 0 15.7941 0 16.5789ZM0 9C0 9.78483 0.636227 10.4211 1.42105 10.4211H22.5789C23.3638 10.4211 24 9.78483 24 9C24 8.21517 23.3638 7.57895 22.5789 7.57895H1.42105C0.636227 7.57895 0 8.21517 0 9ZM1.42105 0C0.636227 0 0 0.636227 0 1.42105C0 2.20588 0.636227 2.84211 1.42105 2.84211H22.5789C23.3638 2.84211 24 2.20588 24 1.42105C24 0.636227 23.3638 0 22.5789 0H1.42105Z" fill="#548080"/>
</svg>
