<?xml version="1.0" encoding="UTF-8"?>
<svg width="1452px" height="816px" viewBox="0 0 1452 816" version="1.1" xmlns="http://www.w3.org/2000/svg" xmlns:xlink="http://www.w3.org/1999/xlink"> <g id="Page-1" stroke="none" stroke-width="1" fill="none" fill-rule="evenodd"><g id="GAIA-FINAL-01" transform="translate(-217.000000, -938.000000)"> <g id="seam-section-1-2" transform="translate(215.000000, 940.000000)"><g id="Capa_6" transform="translate(4.000000, 0.000000)"><path d="M1445.8,697.9 C1470.1,452.6 1278.9,387.5 1088,396 C1037.5,240 913.9,161.2 688.7,158.9 C619.6,158.2 553.7,172.4 493.7,197 C456.2,146.2 392.5,112.8 320.2,112.8 C302.1,112.8 284.6,114.9 267.9,118.8 C215.4,33 115.2,2.3 0.2,2.3 L0.2,807.1 L1446.3,808.10007 C1446.3,808.2 1445.5,701.2 1445.8,697.9 Z" id="Path" stroke="#4C8C40" stroke-width="3" fill="#CCF06B" fill-rule="nonzero" stroke-linecap="round" stroke-linejoin="round"></path><g id="Capa_33" transform="translate(0.000000, 2.000000)" fill="#B4E250" fill-rule="nonzero"><path d="M1.4,26 C1.4,26 186,9 267.8,116.7 C267.8,116.7 195.3,-11 0.2,0.9 L1.4,26 Z" id="Path"></path><path d="M266.5,118.3 L279.3,137.6 C279.3,137.6 424.3,116.7 488.2,187.8 C488.1,187.8 411,87.6 266.5,118.3 Z" id="Path"></path><path d="M492.2,196 L509.7,219.6 C509.7,219.6 725.6,113.1 974.300037,229.9 C974.4,229.9 774.1,88.6 492.2,196 Z" id="Path"></path></g><path d="M1445.8,636.3 C1445.8,467.8 1293.8,386.1 1088,396 C1037.5,209.5 845.4,153.6 688.7,158.9 C619.6,161.2 553.7,172.4 493.7,197 C456.2,146.2 392.5,112.8 320.2,112.8 C302.1,112.8 284.6,114.9 267.9,118.8 C215.4,33 107.5,-9 0.2,2.3 L0.2,807.1 L1446.3,811.100044 C1446.3,811.2 1445.8,639.6 1445.8,636.3 Z" id="Path" stroke="#468689" stroke-width="4"></path></g></g></g></g></svg>