<?xml version="1.0" encoding="UTF-8"?>
<svg width="1479px" height="1760px" viewBox="0 0 1479 1760" version="1.1" xmlns="http://www.w3.org/2000/svg" xmlns:xlink="http://www.w3.org/1999/xlink">
    <title>Capa_34</title>
    <g id="Page-1" stroke="none" stroke-width="1" fill="none" fill-rule="evenodd">
        <g id="GAIA-FINAL-01" transform="translate(-212.000000, -1223.000000)">
            <g id="seam-section-1-2" transform="translate(215.000000, 940.000000)">
                <g id="Capa_34" transform="translate(0.000000, 285.000000)">
                    <path d="M1466,22.5 C1125.4,-73.3 966.5,172.3 966.5,172.3 C844.2,122.8 773.8,218.8 773.8,218.8 C475.2,-58.6 207.3,206.8 207.3,206.8 C75.9,146.8 -5.68434189e-14,185.8 -5.68434189e-14,185.8 L-5.68434189e-14,1735.7 L1466,1735.7 L1466,22.5 Z" id="Path" stroke="#71A5A6" stroke-width="4" fill="#DAF9F9" fill-rule="nonzero"></path>
                    <g id="Capa_36" fill="#BFEFEC" fill-rule="nonzero">
                        <path d="M0,216.8 C0,216.8 68,173.3 184.6,197.1 C184.6,197.1 92.3,152 0,185.7 L0,216.8 Z" id="Path"></path>
                        <path d="M207.3,208.8 C207.3,208.8 228.3,220.9 235.7,226 C235.7,226 411,54.5 625.5,122.5 C625.5,122.5 416.4,17.1 207.3,208.8 Z" id="Path"></path>
                        <path d="M772.7,220.5 L790.2,235 C790.2,235 844.2,158.8 953.700074,167.6 C953.8,167.6 851.9,128.3 772.7,220.5 Z" id="Path"></path>
                        <path d="M966.6,174.3 L994.9,187.5 C994.9,187.5 1102.6,17.8 1333.90003,0.7 C1334,0.7 1108.6,-19.9 966.6,174.3 Z" id="Path"></path>
                    </g>
                    <path d="M1466,22.5 C1125.4,-73.3 966.5,172.3 966.5,172.3 C844.2,122.8 773.8,218.8 773.8,218.8 C475.2,-58.6 207.3,206.8 207.3,206.8 C75.9,146.8 -5.68434189e-14,185.8 -5.68434189e-14,185.8 L7.8,1755.8 L1473.8,1755.8 L1466,22.5 Z" id="Path" stroke="#275E5E" stroke-width="4"></path>
                </g>
            </g>
        </g>
    </g>
</svg>