<?xml version="1.0" encoding="UTF-8"?>
<svg  width="1479px" height="2045px" viewBox="0 0 1479 2045" version="1.1" xmlns="http://www.w3.org/2000/svg" xmlns:xlink="http://www.w3.org/1999/xlink">
    <title>seam-section-2-3</title>
    <g id="Page-1" stroke="none" stroke-width="1" fill="none" fill-rule="evenodd">
        <g id="GAIA-FINAL-01" transform="translate(-190.000000, -2604.000000)">
            <g id="seam-section-2-3" transform="translate(192.000000, 2606.000000)">
                <g id="nube_x2F_cielo">
                    <path d="M1,810 C1,624 100.4,414 324,424.1 C395,234.8 539.3,192.1 607.9,175.7 C689.8,156.1 824.6,159.5 962,237.5 C1013.1,168.6 1077.8,147.3 1153,147.3 C1171.8,147.3 1184.4,148.2 1201.7,152.1 C1279.6,28.7 1362.4,0.2 1481.9,0.2 L1481.9,2210 L0.9,2209.5 C1,2209.5 1,813.3 1,810 Z" id="Path" fill="#CCF06B" fill-rule="nonzero"></path>
                    <g id="Capa_37" transform="translate(0.000000, 3.000000)" fill-rule="nonzero">
                        <path d="M1200.5,148.8 C1200.5,148.8 1221.2,154.1 1231.7,160.9 C1231.7,160.9 1303.2,23.7 1423.2,0.0990176365 C1423.2,0.0990176365 1287.3,-1.7 1200.5,148.8 Z" id="Path" fill="#B4E250"></path>
                        <path d="M962.1,234.5 L986.9,248.7 C986.9,248.7 1051.8,152.4 1170.4,144.7 C1170.3,144.7 1031.7,127 962.1,234.5 Z" id="Path" fill="#AED94C"></path>
                        <path d="M322.5,422.3 L375,428.5 C375,428.5 446.5,201.6 702.8,162.6 C702.8,162.6 422.1,148.9 322.5,422.3 Z" id="Path" fill="#B4E250"></path>
                        <path d="M283.5,421.8 C283.5,421.8 55,464 23,829 L1,829 C1,829 -15,454.3 283.5,421.8 Z" id="Path" fill="#B4E250"></path>
                    </g>
                    <path d="M1,810 C1,624 100.4,414 324,424.1 C395,234.8 539.3,192.1 607.9,175.7 C689.8,156.1 824.6,159.5 962,237.5 C1013.1,168.6 1077.8,147.3 1153,147.3 C1171.8,147.3 1184.4,148.2 1201.7,152.1 C1279.6,28.7 1362.4,0.2 1481.9,0.2 L1481.9,2210 L0.9,2209.5 C1,2209.5 1,813.3 1,810 Z" id="Path" stroke="#468689" stroke-width="4"></path>
                </g>
                <g id="Capa_38" transform="translate(12.000000, 344.000000)">
                    <path d="M1477,128 C1477,128 1406,33.8 1212.6,33.8 C1038.2,33.8 947.6,182.1 947.6,182.1 C901.8,131.1 851.1,103.7 770.6,103.7 C664,103.6 600,188 600,188 C423.9,-35.5 173.1,80.7 173.1,80.7 C102.8,-14.1 0.6,2 0.6,2 L0.6,1993.6 L1477,1993.6 L1477,128 Z" id="Path" stroke="#71A5A6" stroke-width="4" fill="#DAF9F9" fill-rule="nonzero"></path>
                    <g id="Capa_39" transform="translate(0.000000, 1.000000)" fill="#BFEFEC" fill-rule="nonzero">
                        <path d="M0.6,17.9 C0.6,17.9 71.5,3.1 147.2,50.7 C147.2,50.7 91.5,-6.9 0.6,1 L0.6,17.9 Z" id="Path"></path>
                        <path d="M171,79.8 L189.2,108 C189.2,108 356.4,29.8 508.4,102.2 C508.3,102.2 369.9,1.1 171,79.8 Z" id="Path"></path>
                        <path d="M598.3,188 L617,210.7 C617,210.7 726.4,69 885.2,129.4 C885.2,129.4 719.9,41 598.3,188 Z" id="Path"></path>
                        <path d="M946.1,182.4 L974.6,210.7 C974.6,210.7 1122,-33 1399.7,70.7 C1399.6,70.7 1123.6,-69 946.1,182.4 Z" id="Path"></path>
                    </g>
                    <path d="M1477,128 C1477,128 1406,33.8 1212.6,33.8 C1038.2,33.8 947.6,182.1 947.6,182.1 C901.8,131.1 851.1,103.7 770.6,103.7 C664,103.6 600,188 600,188 C423.9,-35.5 173.1,80.7 173.1,80.7 C102.8,-14.1 0.6,2 0.6,2 L0.6,1993.6 L1477,1993.6 L1477,128 Z" id="Path" stroke="#275E5E" stroke-width="4"></path>
                </g>
            </g>
        </g>
    </g>
</svg>