<svg height="416" viewBox="0 0 416.47 416.47" width="416" xmlns="http://www.w3.org/2000/svg"><path d="m216 208.22a8.23 8.23 0 1 1 -8.23-8.22 8.23 8.23 0 0 1 8.23 8.22z" fill="#fff"/><path d="m204.58 208.22a3.17 3.17 0 1 1 3.16 3.16 3.16 3.16 0 0 1 -3.16-3.16z" fill="#82b9bf"/><path d="m207.74 217.94a9.72 9.72 0 1 1 9.73-9.72 9.73 9.73 0 0 1 -9.73 9.72zm0-16.44a6.72 6.72 0 1 0 6.73 6.72 6.73 6.73 0 0 0 -6.73-6.72z" fill="#275f5f"/><path d="m207.74 212.38a4.16 4.16 0 1 1 4.17-4.16 4.16 4.16 0 0 1 -4.17 4.16zm0-6.32a2.16 2.16 0 1 0 2.17 2.16 2.16 2.16 0 0 0 -2.17-2.16z" fill="#275f5f"/><path d="m215.92 214.59 157.13 112.94a3.13 3.13 0 0 0 4.34-4.42l-69.53-73.22c-14.78-13.31-25.14-21-39.82-25l-50.57-13.55a1.83 1.83 0 0 0 -1.55 3.25z" fill="#fff"/><path d="m374.9 329.65a4.69 4.69 0 0 1 -2.73-.9l-157.17-112.95a3.33 3.33 0 0 1 2.82-5.91l50.57 13.55c14.92 4.08 25.32 11.73 40.43 25.33l.09.09 69.53 73.21a.76.76 0 0 1 .11.14 4.67 4.67 0 0 1 -3.69 7.44zm-157.9-116.88a.27.27 0 0 0 -.26.19.29.29 0 0 0 .1.41l157.08 112.94a1.58 1.58 0 0 0 2.13-.18 1.56 1.56 0 0 0 .18-2.06l-69.42-73.07c-14.74-13.26-24.85-20.71-39.16-24.62l-50.57-13.55z" fill="#47868a"/><path d="m209.29 197.91 21.48-192.31a3.13 3.13 0 0 0 -6-1.62l-29.77 96.48c-4.35 19.41-6 32.2-2.28 47l13 50.73a1.83 1.83 0 0 0 3.57-.28z" fill="#fff"/><path d="m207.46 201a3.27 3.27 0 0 1 -3.21-2.52l-13-50.72c-3.75-15-2.18-27.82 2.28-47.66v-.12l29.83-96.44a.58.58 0 0 1 .06-.17 4.63 4.63 0 0 1 8.84 2.39l-21.48 192.32a3.28 3.28 0 0 1 -3.09 2.95zm-11-100.19c-4.34 19.35-5.88 31.82-2.28 46.21l13 50.72c0 .1.06.27.34.26a.28.28 0 0 0 .3-.29l21.46-192.28a1.64 1.64 0 0 0 -3.09-.91z" fill="#47868a"/><path d="m197.29 209.4-189.29 40.18a3.14 3.14 0 0 0 .35 6.19l100.94-2.14c19.79-2 32.45-4.46 45.3-12.62l44.06-28.28a1.83 1.83 0 0 0 -1.36-3.33z" fill="#fff"/><path d="m374.9 329.65a4.69 4.69 0 0 1 -2.73-.9l-157.17-112.95a3.33 3.33 0 0 1 2.82-5.91l50.57 13.55c14.92 4.08 25.32 11.73 40.43 25.33l.09.09 69.53 73.21a.76.76 0 0 1 .11.14 4.67 4.67 0 0 1 -3.69 7.44zm-157.9-116.88a.27.27 0 0 0 -.26.19.29.29 0 0 0 .1.41l157.08 112.94a1.58 1.58 0 0 0 2.13-.18 1.56 1.56 0 0 0 .18-2.06l-69.42-73.07c-14.74-13.26-24.85-20.71-39.16-24.62l-50.57-13.55zm-9.54-11.77a3.27 3.27 0 0 1 -3.21-2.52l-13-50.72c-3.75-15-2.18-27.82 2.28-47.66v-.12l29.83-96.44a.58.58 0 0 1 .06-.17 4.63 4.63 0 0 1 8.84 2.39l-21.48 192.32a3.28 3.28 0 0 1 -3.09 2.95zm-11-100.19c-4.34 19.35-5.88 31.82-2.28 46.21l13 50.72c0 .1.06.27.34.26a.28.28 0 0 0 .3-.29l21.46-192.28a1.64 1.64 0 0 0 -3.09-.91z" fill="#47868a"/><path d="m380.82 330.4s-72.17-66.33-87.22-77.77-70.71-38.63-70.71-38.63l53.11 13.57 18.59 12 21.18 18.49 65 68.6zm-151.11-328.25s-23.35 95.19-26.13 113.85 1.86 81.9 1.86 81.9l-13.44-55.9-.26-20.51 6-27.48 28.74-90.01zm-224.13 251.16s97.62-8.81 116.21-12.25 76.86-28.33 76.86-28.33l-48.53 30.89-19.32 6.91-27.94 3.24-94.51 2z" fill="#c4e4e5"/><path d="m8.35 257.27h-.15a4.64 4.64 0 0 1 -.51-9.15l189.31-40.19a3.33 3.33 0 0 1 2.48 6.07l-44.08 28.27c-13.06 8.29-25.72 10.83-46 12.85h-.11l-100.91 2.15zm189.36-46.42h-.11l-189.29 40.15a1.64 1.64 0 0 0 .1 3.22l100.79-2.13c19.74-2 32.06-4.43 44.58-12.39l44.06-28.27a.29.29 0 0 0 .13-.41c-.07-.13-.17-.17-.26-.17zm177.19 118.8a4.69 4.69 0 0 1 -2.73-.9l-157.17-112.95a3.33 3.33 0 0 1 2.82-5.91l50.57 13.55c14.92 4.08 25.32 11.73 40.43 25.33l.09.09 69.53 73.21a.76.76 0 0 1 .11.14 4.67 4.67 0 0 1 -3.69 7.44zm-157.9-116.88a.27.27 0 0 0 -.26.19.29.29 0 0 0 .1.41l157.08 112.94a1.58 1.58 0 0 0 2.13-.18 1.56 1.56 0 0 0 .18-2.06l-69.42-73.07c-14.74-13.26-24.85-20.71-39.16-24.62l-50.57-13.55zm-9.54-11.77a3.27 3.27 0 0 1 -3.21-2.52l-13-50.72c-3.75-15-2.18-27.82 2.28-47.66v-.12l29.83-96.44a.58.58 0 0 1 .06-.17 4.63 4.63 0 0 1 8.84 2.39l-21.48 192.32a3.28 3.28 0 0 1 -3.09 2.95zm-11-100.19c-4.34 19.35-5.88 31.82-2.28 46.21l13 50.72c0 .1.06.27.34.26a.28.28 0 0 0 .3-.29l21.46-192.28a1.64 1.64 0 0 0 -3.09-.91z" fill="#275f5f"/></svg>