<svg height="416" viewBox="0 0 416.47 416.47" width="416" xmlns="http://www.w3.org/2000/svg"><path d="m396.24 244.25a1.23 1.23 0 0 1 -.27 0 1.49 1.49 0 0 1 -1.21-1.74c.8-4.5 1.45-9.07 1.92-13.6a1.5 1.5 0 1 1 3 .31c-.48 4.6-1.14 9.25-2 13.82a1.5 1.5 0 0 1 -1.44 1.21zm-23.5 63.22a1.42 1.42 0 0 1 -.77-.21 1.49 1.49 0 0 1 -.52-2.05 188.31 188.31 0 0 0 20.64-50.21 1.5 1.5 0 0 1 2.91.73 191.25 191.25 0 0 1 -21 51 1.5 1.5 0 0 1 -1.26.74zm-20.15 27.94a1.46 1.46 0 0 1 -1-.37 1.5 1.5 0 0 1 -.15-2.12c2-2.34 4-4.77 6-7.22a1.51 1.51 0 0 1 2.11-.25 1.49 1.49 0 0 1 .25 2.1c-1.95 2.49-4 5-6.06 7.34a1.49 1.49 0 0 1 -1.15.52zm-71.01 50.45a1.52 1.52 0 0 1 -1.39-.92 1.5 1.5 0 0 1 .8-2 204.55 204.55 0 0 0 65-44 1.5 1.5 0 0 1 2.13 2.11 207.68 207.68 0 0 1 -66 44.6 1.51 1.51 0 0 1 -.54.21zm-47.94 13.5a1.5 1.5 0 0 1 -.21-3c4.28-.61 8.61-1.4 12.87-2.32a1.5 1.5 0 1 1 .63 2.93c-4.32.94-8.72 1.74-13.07 2.36zm-49.24.3h-.19c-3.48-.44-7-1-10.4-1.6a1.5 1.5 0 1 1 .54-2.95c3.37.61 6.81 1.14 10.24 1.57a1.5 1.5 0 0 1 -.19 3zm-24.4-4.72a1.58 1.58 0 0 1 -.38-.05 191.66 191.66 0 0 1 -39.14-15 1.5 1.5 0 0 1 1.37-2.67 188.13 188.13 0 0 0 38.5 14.78 1.5 1.5 0 0 1 -.38 2.95zm-96.35-60.43a1.49 1.49 0 0 1 -1.14-.52 191.11 191.11 0 0 1 -36.21-63.66 1.5 1.5 0 0 1 2.84-1 188.16 188.16 0 0 0 35.65 62.67 1.49 1.49 0 0 1 -1.14 2.47zm-43.76-95.69a1.49 1.49 0 0 1 -1.48-1.28 194.3 194.3 0 0 1 -2-21.73 1.5 1.5 0 0 1 3-.11 190.76 190.76 0 0 0 2 21.4 1.51 1.51 0 0 1 -1.26 1.71zm-2.09-29.66a1.5 1.5 0 0 1 -1.5-1.5c0-1.47 0-2.2.06-3.92v-.85a1.52 1.52 0 0 1 1.54-1.46 1.5 1.5 0 0 1 1.49 1.57v.86a86.35 86.35 0 0 0 -.06 3.82 1.51 1.51 0 0 1 -1.5 1.51zm1.86-25.48h-.21a1.5 1.5 0 0 1 -1.28-1.68 191 191 0 0 1 4-20.56 1.5 1.5 0 0 1 2.91.74 189.51 189.51 0 0 0 -4 20.24 1.49 1.49 0 0 1 -1.42 1.26zm14.41-50.45a1.41 1.41 0 0 1 -.6-.13 1.5 1.5 0 0 1 -.77-2 192.45 192.45 0 0 1 70.23-82.8 1.5 1.5 0 0 1 1.65 2.51 189.35 189.35 0 0 0 -69.14 81.53 1.48 1.48 0 0 1 -1.37.89zm78.8-87.81a1.5 1.5 0 0 1 -.76-2.8c5.06-2.94 10.3-5.67 15.58-8.12a1.5 1.5 0 1 1 1.31 2.72 186.04 186.04 0 0 0 -15.34 8 1.5 1.5 0 0 1 -.79.2zm52.46-20.78a1.5 1.5 0 0 1 -.33-3 192.47 192.47 0 0 1 38.11-4.87 1.5 1.5 0 0 1 0 3 189.68 189.68 0 0 0 -37.52 4.8 2 2 0 0 1 -.26.07zm103.67 4.87a1.34 1.34 0 0 1 -.48-.08c-4.72-1.57-9.56-3-14.38-4.17a1.5 1.5 0 1 1 .72-2.91c4.89 1.21 9.81 2.63 14.61 4.24a1.5 1.5 0 0 1 -.47 2.92zm129.67 166.3a1.5 1.5 0 0 1 -1.49-1.39c-.39-5.13-1-10.27-1.79-15.29a189.11 189.11 0 0 0 -112-144 1.5 1.5 0 1 1 1.19-2.75 192.07 192.07 0 0 1 113.77 146.28c.81 5.1 1.42 10.32 1.82 15.53a1.49 1.49 0 0 1 -1.38 1.61z" fill="#275f5f"/></svg>