<svg height="416" viewBox="0 0 416.47 416.47" width="416" xmlns="http://www.w3.org/2000/svg"><path d="m46.79 194.26h-.15a1.5 1.5 0 0 1 -1.34-1.65c.41-3.95 1-7.91 1.67-11.76a1.5 1.5 0 1 1 3 .53 161 161 0 0 0 -1.64 11.54 1.5 1.5 0 0 1 -1.54 1.34zm33.64-82.95a1.48 1.48 0 0 1 -.93-.32 1.5 1.5 0 0 1 -.25-2.1c1.65-2.11 3.38-4.21 5.15-6.25a1.5 1.5 0 0 1 2.27 2c-1.74 2-3.44 4.06-5.06 6.13a1.5 1.5 0 0 1 -1.18.54zm9.82-11.43a1.51 1.51 0 0 1 -1.07-2.56 176.51 176.51 0 0 1 56.13-37.95 1.49 1.49 0 0 1 2 .79 1.51 1.51 0 0 1 -.79 2 173.43 173.43 0 0 0 -55.18 37.3 1.48 1.48 0 0 1 -1.09.42zm85.36-47.12a1.5 1.5 0 0 1 -.31-3c3.67-.8 7.42-1.48 11.13-2a1.5 1.5 0 0 1 .42 3 137.6 137.6 0 0 0 -10.92 2 1.66 1.66 0 0 1 -.32 0zm106.66 14.44a1.55 1.55 0 0 1 -.69-.16 159.48 159.48 0 0 0 -32.7-12.56 1.5 1.5 0 0 1 .76-2.91 163.58 163.58 0 0 1 33.36 12.8 1.5 1.5 0 0 1 -.69 2.83zm79.4 92.37a1.51 1.51 0 0 1 -1.43-1 159.76 159.76 0 0 0 -30.24-53.21 1.5 1.5 0 0 1 2.27-2 162.71 162.71 0 0 1 30.83 54.19 1.51 1.51 0 0 1 -.94 1.9 1.59 1.59 0 0 1 -.49.12zm8.33 56.88a1.49 1.49 0 0 1 -1.45-1.54v-.77c0-1.39.06-2 .05-3.2a1.51 1.51 0 0 1 1.5-1.51 1.5 1.5 0 0 1 1.5 1.5c0 1.25 0 1.86-.05 3.3v.76a1.49 1.49 0 0 1 -1.55 1.46zm-4.89 34.98a1.57 1.57 0 0 1 -.37-.05 1.51 1.51 0 0 1 -1.09-1.82 159.47 159.47 0 0 0 3.35-17.18 1.52 1.52 0 0 1 1.7-1.28 1.5 1.5 0 0 1 1.27 1.7 163 163 0 0 1 -3.44 17.5 1.49 1.49 0 0 1 -1.42 1.13zm-68.11 95.38a1.52 1.52 0 0 1 -1.25-.67 1.5 1.5 0 0 1 .43-2.08 161.37 161.37 0 0 0 31.11-26.74 1.5 1.5 0 0 1 2.23 2 164.68 164.68 0 0 1 -31.69 27.23 1.49 1.49 0 0 1 -.83.26zm-20.84 11.64a1.5 1.5 0 0 1 -.64-2.86c4.42-2 8.8-4.33 13-6.78a1.5 1.5 0 0 1 1.51 2.6c-4.3 2.49-8.76 4.81-13.26 6.9a1.44 1.44 0 0 1 -.61.14zm-107.16 10.25a1.61 1.61 0 0 1 -.37 0c-4.18-1-8.37-2.25-12.43-3.61a1.5 1.5 0 1 1 1-2.85c4 1.34 8.1 2.53 12.21 3.54a1.5 1.5 0 0 1 -.36 3zm-25.18-8.47a1.52 1.52 0 0 1 -.59-.12 164.8 164.8 0 0 1 -58.58-42.81 162.59 162.59 0 0 1 -11.65-15 1.5 1.5 0 0 1 2.47-1.69 161.61 161.61 0 0 0 68.95 56.78 1.49 1.49 0 0 1 .78 2 1.51 1.51 0 0 1 -1.38.84zm-80.82-76.23a1.49 1.49 0 0 1 -1.34-.83 163.9 163.9 0 0 1 -3.52-7.46 1.5 1.5 0 0 1 2.75-1.21c1.08 2.47 2.24 4.93 3.45 7.33a1.5 1.5 0 0 1 -1.34 2.17zm-15.1-47.12a1.5 1.5 0 0 1 -1.48-1.27c-.69-4.35-1.21-8.8-1.55-13.22a1.51 1.51 0 0 1 1.39-1.61 1.5 1.5 0 0 1 1.6 1.39c.33 4.34.84 8.7 1.52 13a1.5 1.5 0 0 1 -1.24 1.72z" fill="#275f5f"/></svg>