<svg height="396" viewBox="0 0 39.54 396.23" width="40" xmlns="http://www.w3.org/2000/svg"><path d="m28.13 5.21 9.87 388.89-36.53.63 10.57-390a3.19 3.19 0 0 1 3-3.26h9.6a3.64 3.64 0 0 1 3.49 3.74z" fill="#fff"/><path d="m1.5 396.23a1.5 1.5 0 0 1 -1.5-1.54l10.58-390a4.66 4.66 0 0 1 4.51-4.69h9.6a5.09 5.09 0 0 1 4.93 5.17l9.91 388.89a1.54 1.54 0 0 1 -.41 1.08 1.52 1.52 0 0 1 -1.06.46l-36.53.63zm13.59-393.23a1.72 1.72 0 0 0 -1.52 1.8l-10.57 388.4 33.46-.57-9.83-387.38a2.16 2.16 0 0 0 -1.94-2.25z" fill="#47868a"/><path d="m19.12 1.5-6.2 393-11.42.28 11.5-392.31z" fill="#c4e4e5"/><g fill="#275f5f"><path d="m1.5 396.23a1.5 1.5 0 0 1 -1.5-1.54l10.58-390a4.66 4.66 0 0 1 4.51-4.69h9.6a5.09 5.09 0 0 1 4.93 5.17l9.91 388.89a1.54 1.54 0 0 1 -.41 1.08 1.52 1.52 0 0 1 -1.06.46l-36.53.63zm13.59-393.23a1.72 1.72 0 0 0 -1.52 1.8l-10.57 388.4 33.46-.57-9.83-387.38a2.16 2.16 0 0 0 -1.94-2.25z"/><path d="m30.88 114.81h-21.75a1.5 1.5 0 0 1 0-3h21.75a1.5 1.5 0 1 1 0 3z"/><path d="m31.15 125.13h-22.31a1.5 1.5 0 0 1 0-3h22.31a1.5 1.5 0 1 1 0 3z"/></g></svg>