<svg xmlns="http://www.w3.org/2000/svg" viewBox="0 0 421.4 312.9"><defs><style>.cls-1{fill:#97c242;}.cls-1,.cls-3,.cls-4{fill-rule:evenodd;}.cls-2{fill:#265e5f;}.cls-3{fill:#558080;}.cls-4{fill:#dbeef1;}</style></defs><title>3_cord</title><g id="Warstwa_2" data-name="Warstwa 2"><g id="Warstwa_1-2" data-name="Warstwa 1"><path class="cls-1" d="M157.32,100.9a138.23,138.23,0,0,1,2.42-13.65c.48-1.81.67-3.2,2.27-4.17,7.18-4.34,24.53-15.15,15-43.58-9.08-27.11-3.31-38-3.31-38S148.58,16,139.76,42.36s5.61,36.41,8.85,42.67c0,0-1.48-28.23,7-39.35C155.59,45.68,152.52,86.51,157.32,100.9Z"/><path class="cls-2" d="M157.32,102.4a1.49,1.49,0,0,1-1.42-1c-3.66-11-2.89-36.33-2.24-48.75-4.52,12.47-3.56,32.1-3.55,32.33a1.5,1.5,0,0,1-2.83.77,30.17,30.17,0,0,0-2.64-3.8c-5.14-6.7-13.73-17.92-6.3-40C147.24,15.33,171.9.81,172.94.2a1.53,1.53,0,0,1,1.8.22A1.5,1.5,0,0,1,175,2.2c-.05.1-5.29,10.85,3.41,36.82,10,29.83-8.63,41.1-15.64,45.34-.87.53-1.06,1.17-1.46,2.7l-.15.58c-1.23,4.6-2.36,13.36-2.37,13.45a1.5,1.5,0,0,1-1.35,1.3Zm-1.73-58.22a1.39,1.39,0,0,1,.53.1,1.49,1.49,0,0,1,1,1.51c0,.35-2.16,29.3,0,46.62.36-2,.76-4,1.19-5.55l.14-.54c.42-1.64.85-3.34,2.81-4.52,7-4.27,23.58-14.27,14.34-41.82C169.45,21.65,170,10.53,171.06,5,164,10,147.8,23.11,141.18,42.84c-6.91,20.59.75,30.61,5.82,37.24,0-8.78.83-26.69,7.4-35.31A1.49,1.49,0,0,1,155.59,44.18Z"/><path class="cls-1" d="M297.16,107.81s4.89-3.38,6.4-6.49c.57-1.18,1.11-2,.7-3.27-1.82-5.61-6.08-19.35,12.09-30.1,17.32-10.25,19.26-18.71,19.26-18.71s6.67,19.31-.75,37.38-19.75,16.8-24.36,18.64c0,0,13.79-14.34,14.41-24.16C324.91,81.1,307,105.13,297.16,107.81Z"/><path class="cls-2" d="M297.16,109.31a1.5,1.5,0,0,1-.85-2.73c1.27-.88,4.8-3.66,5.9-5.92l.18-.37c.5-1,.6-1.28.44-1.78-1.8-5.58-6.6-20.39,12.76-31.85C332,57,334.13,49,334.15,48.89a1.51,1.51,0,0,1,1.39-1.14,1.49,1.49,0,0,1,1.49,1c.28.81,6.77,20.06-.78,38.44-6.32,15.41-16.21,17.46-22.11,18.68a21.74,21.74,0,0,0-3.09.78,1.49,1.49,0,0,1-1.63-2.43c.1-.1,7.62-8,11.6-15.78-6.15,7.46-16.51,18.92-23.47,20.82A1.74,1.74,0,0,1,297.16,109.31ZM324.91,79.6a1.52,1.52,0,0,1,.51.09,1.51,1.51,0,0,1,1,1.5c-.45,7.23-7.35,16.45-11.58,21.47,5.62-1.23,13.36-3.7,18.66-16.61,5.2-12.69,3.2-26.2,1.73-32.57-2.31,3.62-7.33,9.39-18.1,15.76-17.29,10.24-13.18,22.93-11.42,28.35a4.27,4.27,0,0,1-.12,3c7-6.29,14.79-15.88,18.13-20.37A1.53,1.53,0,0,1,324.91,79.6Z"/><path class="cls-1" d="M71.77,211.74s-4.82-3.84-8.4-4.4c-1.37-.21-2.36-.49-3.51.29-5.15,3.53-17.8,12-33.9-2.88C10.61,190.6,1.5,191.23,1.5,191.23s17.58-12.54,38-10.64,22.68,14.59,25.86,18.62c0,0-18.47-9.39-28.57-7C36.77,192.2,66.22,202.74,71.77,211.74Z"/><path class="cls-2" d="M44.55,214.77c-5.63,0-12.29-2.17-19.61-8.92C10.23,192.3,1.68,192.73,1.6,192.73a1.5,1.5,0,0,1-1-2.72c.74-.53,18.28-12.85,39-10.91C57,180.71,61.9,189.93,64.84,195.44a20.09,20.09,0,0,0,1.68,2.84,1.5,1.5,0,0,1-1.86,2.27c-.13-.07-10.77-5.43-20-6.88C54,197.48,69.05,204.47,73.05,211a1.5,1.5,0,0,1-2.21,2c-1.26-1-5.1-3.68-7.71-4.09l-.44-.07c-1.1-.18-1.48-.22-2,.12C57.79,210.87,52.1,214.77,44.55,214.77ZM5.73,190.37C10,191.53,17.34,194.76,27,203.65c15.37,14.17,27.06,6.16,32,2.74a4.6,4.6,0,0,1,3.34-.72c-8.4-5.16-20.53-10.07-26.08-12.06a1.5,1.5,0,0,1,.16-2.87c7.51-1.77,19,2.43,25.22,5.11-2.85-5.25-7.52-12.4-22.31-13.77C24.85,180.74,11.68,187,5.73,190.37Z"/><path class="cls-3" d="M368.59,268.23v0l-.66,0a21.59,21.59,0,0,0,0,43.17l.66,0v0h30.32a5.74,5.74,0,0,0,5.73-5.73V274a5.73,5.73,0,0,0-5.73-5.72Z"/><path class="cls-4" d="M398.91,268.23H383.85V311.4h15.06a5.74,5.74,0,0,0,5.73-5.73V274A5.73,5.73,0,0,0,398.91,268.23Z"/><path class="cls-2" d="M419.9,284.26h-15a1.5,1.5,0,0,1,0-3h15a1.5,1.5,0,0,1,0,3Z"/><path class="cls-2" d="M419.9,299.38h-15a1.5,1.5,0,1,1,0-3h15a1.5,1.5,0,0,1,0,3Z"/><path class="cls-2" d="M383.85,311.91a1.5,1.5,0,0,1-1.5-1.5v-41.2a1.5,1.5,0,1,1,3,0v41.2A1.5,1.5,0,0,1,383.85,311.91Z"/><path class="cls-2" d="M398.91,312.9h-31a23.09,23.09,0,1,1,0-46.17h31a7.22,7.22,0,0,1,7.22,7.22v31.72A7.23,7.23,0,0,1,398.91,312.9Zm-30.09-3h30.09a4.23,4.23,0,0,0,4.22-4.23V274a4.22,4.22,0,0,0-4.22-4.22H368.83a1.67,1.67,0,0,1-.32,0l-.58,0a20.09,20.09,0,1,0,0,40.17l.58,0A1.56,1.56,0,0,1,368.82,309.9Z"/><path class="cls-2" d="M296.71,291.82H260.49c-12.2,0-22.12-10.65-22.12-23.74V175.35c0-11.43-8.57-20.73-19.11-20.73s-19.11,9.3-19.11,20.73V202.1c0,13.08-9.92,23.73-22.11,23.73h-.27c-12.19,0-22.11-10.65-22.11-23.73v-53a1.5,1.5,0,0,1,3,0v53c0,11.43,8.57,20.73,19.11,20.73H178c10.54,0,19.11-9.3,19.11-20.73V175.35c0-13.09,9.92-23.73,22.11-23.73s22.11,10.64,22.11,23.73v92.73c0,11.44,8.58,20.74,19.12,20.74h36.22a1.5,1.5,0,0,1,0,3Z"/><path class="cls-2" d="M157.16,142.33a1.5,1.5,0,0,1-1.5-1.5V123.15a1.5,1.5,0,0,1,3,0v17.68A1.5,1.5,0,0,1,157.16,142.33Z"/><path class="cls-2" d="M157.16,116.89a1.5,1.5,0,0,1-1.5-1.5v-6.14a1.5,1.5,0,1,1,3,0v6.14A1.5,1.5,0,0,1,157.16,116.89Z"/><path class="cls-2" d="M322.92,291.82H305.25a1.5,1.5,0,0,1,0-3h17.67a1.5,1.5,0,0,1,0,3Z"/><path class="cls-2" d="M336.83,291.82h-6.14a1.5,1.5,0,0,1,0-3h6.14a1.5,1.5,0,0,1,0,3Z"/></g></g></svg>