<svg xmlns="http://www.w3.org/2000/svg" viewBox="0 0 54.73 166"><defs><style>.cls-1{fill:#98c93f;fill-rule:evenodd;}.cls-2{fill:#275e5e;}</style></defs><title>3_leaves</title><g id="Warstwa_2" data-name="Warstwa 2"><g id="Warstwa_1-2" data-name="Warstwa 1"><path class="cls-1" d="M1.5,37.23s4.66-1.37,6.63-3.41c.76-.77,1.39-1.28,1.4-2.37.05-4.87.32-16.73,17.17-20.38C42.77,7.6,46.47,1.49,46.47,1.49s.15,16.85-10.28,29-19.66,8-23.7,8.2c0,0,14.4-7.61,17.42-15.13C29.91,23.6,9.82,37.71,1.5,37.23Z"/><path class="cls-2" d="M19.6,40.76a35.34,35.34,0,0,1-4.48-.34,16.45,16.45,0,0,0-2.54-.19,1.5,1.5,0,0,1-.79-2.82A71.1,71.1,0,0,0,22.72,30c-6.73,4.08-16.06,9-21.31,8.69a1.5,1.5,0,0,1-.33-2.94c1.19-.35,4.59-1.58,6-3l.24-.24c.65-.65.74-.78.74-1.1,0-4.43.18-17.9,18.35-21.83C41.42,6.36,45.16.75,45.2.7A1.5,1.5,0,0,1,48,1.48c0,.71,0,17.55-10.64,30C30.68,39.28,24.41,40.76,19.6,40.76Zm-2.29-3.12c4.56.41,10.78,0,17.74-8.08S44.12,10.84,44.72,5.3c-2.9,2.23-8.27,5.2-17.7,7.24C11.19,16,11.08,26.83,11,31.47a3.73,3.73,0,0,1-.41,1.69A132.82,132.82,0,0,0,29.05,22.37a1.5,1.5,0,0,1,2.25,1.79C29.16,29.5,22,34.71,17.31,37.64Z"/><path class="cls-1" d="M1.5,139.81s4.84.28,7.22,1.82c.9.59,1.63.94,1.88,2,1.13,4.74,4,16.24,21.24,16,16.43-.23,21.39,4.88,21.39,4.88s-3.57-16.46-16.44-26-20.92-3.33-24.91-2.64c0,0,15.72,4.17,20.33,10.81C32.21,146.68,9.5,137.46,1.5,139.81Z"/><path class="cls-2" d="M53.23,166a1.53,1.53,0,0,1-1.08-.45s-4.91-4.65-20.29-4.43H31.3c-18.07,0-21-12.45-22.16-17.16-.07-.3-.18-.41-.93-.88l-.31-.2c-1.67-1.08-5.25-1.51-6.49-1.58a1.5,1.5,0,0,1-.33-2.94c5.08-1.49,15.25,1.21,22.71,3.66a70.7,70.7,0,0,0-12.3-4.71,1.5,1.5,0,0,1,.13-2.93,15.9,15.9,0,0,0,2.43-.76c4.69-1.7,12.54-4.54,23.63,3.68,13.17,9.75,16.86,26.18,17,26.87a1.5,1.5,0,0,1-.76,1.64A1.53,1.53,0,0,1,53.23,166ZM32.9,158.11c9,0,14.59,1.62,17.79,3.08-1.81-5.26-6.14-15.07-14.79-21.47s-14.75-5.31-19.09-3.88c5.18,1.81,13.35,5.26,16.63,10a1.49,1.49,0,0,1-.06,1.79,1.5,1.5,0,0,1-1.73.45,133.15,133.15,0,0,0-20.38-6.36,3.59,3.59,0,0,1,.79,1.56c1.07,4.51,3.57,15.07,19.76,14.85Z"/></g></g></svg>